<svg width="535px" height="44px"
 viewBox="0.00 0.00 534.76 44.00" xmlns="http://www.w3.org/2000/svg" xmlns:xlink="http://www.w3.org/1999/xlink">
<g id="graph0" class="graph" transform="scale(1.0 1.0) rotate(0.0) translate(4.0 40.0)">
<title>AvailableActorIdentifiersPacket</title>
<polygon fill="white" stroke="transparent" points="-4,4 -4,-40 530.76,-40 530.76,4 -4,4"/>
<g id="0" class="node">
<title></title>
<ellipse fill="none" stroke="black" cx="135.98" cy="-18" rx="135.97" ry="18"/>
<text text-anchor="middle" x="135.98" y="-13.8" font-family="Times,serif" font-size="14.00">AvailableActorIdentifiersPacket</text>
</g>
<!-- 1 -->
<g id="3" class="node">
<title>1</title>
<ellipse fill="none" stroke="black" cx="372.36" cy="-18" rx="64.3" ry="18"/>
<text text-anchor="middle" x="372.36" y="-13.8" font-family="Times,serif" font-size="14.00">Identifier List</text>
</g>
<!-- &#45;&gt;1 -->
<g id="edge1" class="edge">
<title>&#45;&gt;1</title>
<path fill="none" stroke="black" d="M272.31,-18C280.94,-18 289.44,-18 297.61,-18"/>
<polygon fill="black" stroke="black" points="297.78,-21.5 307.78,-18 297.78,-14.5 297.78,-21.5"/>
</g>
<!-- 2 -->
<g id="3" class="node">
<title>2</title>
<ellipse fill="none" stroke="black" cx="499.76" cy="-18" rx="27" ry="18"/>
<text text-anchor="middle" x="499.76" y="-13.8" font-family="Times,serif" font-size="14.00">null</text>
</g>
<!-- 1&#45;&gt;2 -->
<g id="edge2" class="edge">
<title>1&#45;&gt;2</title>
<path fill="none" stroke="black" d="M436.8,-18C445.58,-18 454.35,-18 462.41,-18"/>
<polygon fill="black" stroke="black" points="462.53,-21.5 472.53,-18 462.53,-14.5 462.53,-21.5"/>
</g>
</g>
</svg>
