<svg width="942px" height="422px"
 viewBox="0.00 0.00 941.89 422.00" xmlns="http://www.w3.org/2000/svg" xmlns:xlink="http://www.w3.org/1999/xlink">
<g id="graph0" class="graph" transform="scale(1.0 1.0) rotate(0.0) translate(4.0 418.0)">
<title>BossEventPacket</title>
<polygon fill="white" stroke="transparent" points="-4,4 -4,-418 937.89,-418 937.89,4 -4,4"/>
<g id="0" class="node">
<title></title>
<ellipse fill="none" stroke="black" cx="78.08" cy="-207" rx="78.17" ry="18"/>
<text text-anchor="middle" x="78.08" y="-202.8" font-family="Times,serif" font-size="14.00">BossEventPacket</text>
</g>
<!-- 1 -->
<g id="24" class="node">
<title>1</title>
<ellipse fill="none" stroke="black" cx="265.4" cy="-392" rx="73.47" ry="18"/>
<text text-anchor="middle" x="265.4" y="-387.8" font-family="Times,serif" font-size="14.00">Target Actor ID</text>
</g>
<!-- &#45;&gt;1 -->
<g id="edge1" class="edge">
<title>&#45;&gt;1</title>
<path fill="none" stroke="black" d="M87.56,-224.89C103.64,-257.03 141.54,-324.86 192.17,-364 196.94,-367.69 202.26,-370.95 207.78,-373.81"/>
<polygon fill="black" stroke="black" points="206.67,-377.16 217.21,-378.26 209.66,-370.82 206.67,-377.16"/>
</g>
<!-- 5 -->
<g id="24" class="node">
<title>5</title>
<ellipse fill="none" stroke="black" cx="265.4" cy="-337" rx="48.11" ry="18"/>
<text text-anchor="middle" x="265.4" y="-332.8" font-family="Times,serif" font-size="14.00">Player ID</text>
</g>
<!-- &#45;&gt;5 -->
<g id="edge2" class="edge">
<title>&#45;&gt;5</title>
<path fill="none" stroke="black" d="M95.64,-224.89C116.48,-246.6 154.17,-283.24 192.17,-307 200.72,-312.35 210.38,-317.11 219.8,-321.19"/>
<polygon fill="black" stroke="black" points="218.5,-324.44 229.08,-325.03 221.18,-317.97 218.5,-324.44"/>
</g>
<!-- 9 -->
<g id="24" class="node">
<title>9</title>
<ellipse fill="none" stroke="black" cx="265.4" cy="-280" rx="55.64" ry="18"/>
<text text-anchor="middle" x="265.4" y="-275.8" font-family="Times,serif" font-size="14.00">Event Type</text>
</g>
<!-- &#45;&gt;9 -->
<g id="edge3" class="edge">
<title>&#45;&gt;9</title>
<path fill="none" stroke="black" d="M118.39,-222.48C148.01,-234.15 188.67,-250.17 219.57,-262.34"/>
<polygon fill="black" stroke="black" points="218.64,-265.73 229.23,-266.14 221.2,-259.22 218.64,-265.73"/>
</g>
<!-- 12 -->
<g id="24" class="node">
<title>12</title>
<ellipse fill="none" stroke="black" cx="734.99" cy="-234" rx="34.19" ry="18"/>
<text text-anchor="middle" x="734.99" y="-229.8" font-family="Times,serif" font-size="14.00">Name</text>
</g>
<!-- &#45;&gt;12 -->
<g id="edge4" class="edge">
<title>&#45;&gt;12</title>
<path fill="none" stroke="black" d="M155.17,-210.14C293.31,-215.83 581.19,-227.7 690.56,-232.21"/>
<polygon fill="black" stroke="black" points="690.74,-235.72 700.88,-232.64 691.03,-228.73 690.74,-235.72"/>
</g>
<!-- 14 -->
<g id="24" class="node">
<title>14</title>
<ellipse fill="none" stroke="black" cx="734.99" cy="-180" rx="64.26" ry="18"/>
<text text-anchor="middle" x="734.99" y="-175.8" font-family="Times,serif" font-size="14.00">FilteredName</text>
</g>
<!-- &#45;&gt;14 -->
<g id="edge5" class="edge">
<title>&#45;&gt;14</title>
<path fill="none" stroke="black" d="M155.17,-203.86C282.21,-198.63 535.87,-188.17 660.89,-183.01"/>
<polygon fill="black" stroke="black" points="661.28,-186.5 671.12,-182.59 660.99,-179.51 661.28,-186.5"/>
</g>
<!-- 16 -->
<g id="24" class="node">
<title>16</title>
<ellipse fill="none" stroke="black" cx="734.99" cy="-126" rx="68.29" ry="18"/>
<text text-anchor="middle" x="734.99" y="-121.8" font-family="Times,serif" font-size="14.00">Health Percent</text>
</g>
<!-- &#45;&gt;16 -->
<g id="edge6" class="edge">
<title>&#45;&gt;16</title>
<path fill="none" stroke="black" d="M146.04,-198C161.2,-195.99 177.24,-193.9 192.17,-192 360.7,-170.56 558.91,-146.78 662.57,-134.45"/>
<polygon fill="black" stroke="black" points="663.09,-137.92 672.61,-133.26 662.27,-130.96 663.09,-137.92"/>
</g>
<!-- 18 -->
<g id="24" class="node">
<title>18</title>
<ellipse fill="none" stroke="black" cx="265.4" cy="-100" rx="33.06" ry="18"/>
<text text-anchor="middle" x="265.4" y="-95.8" font-family="Times,serif" font-size="14.00">Color</text>
</g>
<!-- &#45;&gt;18 -->
<g id="edge7" class="edge">
<title>&#45;&gt;18</title>
<path fill="none" stroke="black" d="M104.17,-189.84C126.75,-174.68 161.07,-152.36 192.17,-135 204.27,-128.25 217.86,-121.46 229.97,-115.69"/>
<polygon fill="black" stroke="black" points="231.74,-118.72 239.3,-111.29 228.76,-112.38 231.74,-118.72"/>
</g>
<!-- 21 -->
<g id="24" class="node">
<title>21</title>
<ellipse fill="none" stroke="black" cx="265.4" cy="-40" rx="42.27" ry="18"/>
<text text-anchor="middle" x="265.4" y="-35.8" font-family="Times,serif" font-size="14.00">Overlay</text>
</g>
<!-- &#45;&gt;21 -->
<g id="edge8" class="edge">
<title>&#45;&gt;21</title>
<path fill="none" stroke="black" d="M90.3,-189.2C108.65,-161.27 147.55,-106.86 192.17,-73 201.33,-66.04 212.2,-60.12 222.68,-55.29"/>
<polygon fill="black" stroke="black" points="224.38,-58.37 232.14,-51.16 221.58,-51.95 224.38,-58.37"/>
</g>
<!-- 2 -->
<g id="24" class="node">
<title>2</title>
<ellipse fill="none" stroke="black" cx="498.58" cy="-393" rx="71.77" ry="18"/>
<text text-anchor="middle" x="498.58" y="-388.8" font-family="Times,serif" font-size="14.00">ActorUniqueID</text>
</g>
<!-- 1&#45;&gt;2 -->
<g id="edge9" class="edge">
<title>1&#45;&gt;2</title>
<path fill="none" stroke="black" d="M338.92,-392.31C363.59,-392.42 391.32,-392.54 416.61,-392.65"/>
<polygon fill="black" stroke="black" points="416.89,-396.15 426.91,-392.69 416.93,-389.15 416.89,-396.15"/>
</g>
<!-- 3 -->
<g id="24" class="node">
<title>3</title>
<ellipse fill="none" stroke="black" cx="734.99" cy="-394" rx="76.43" ry="18"/>
<text text-anchor="middle" x="734.99" y="-389.8" font-family="Times,serif" font-size="14.00">Actor Unique ID</text>
</g>
<!-- 2&#45;&gt;3 -->
<g id="edge10" class="edge">
<title>2&#45;&gt;3</title>
<path fill="none" stroke="black" d="M570.23,-393.3C594.74,-393.41 622.5,-393.52 648.11,-393.63"/>
<polygon fill="black" stroke="black" points="648.17,-397.13 658.18,-393.68 648.2,-390.13 648.17,-397.13"/>
</g>
<!-- 4 -->
<g id="24" class="node">
<title>4</title>
<ellipse fill="none" stroke="black" cx="890.67" cy="-396" rx="43.44" ry="18"/>
<text text-anchor="middle" x="890.67" y="-391.8" font-family="Times,serif" font-size="14.00">varint64</text>
</g>
<!-- 3&#45;&gt;4 -->
<g id="edge11" class="edge">
<title>3&#45;&gt;4</title>
<path fill="none" stroke="black" d="M811.48,-394.98C820.12,-395.09 828.79,-395.21 837.05,-395.32"/>
<polygon fill="black" stroke="black" points="837.2,-398.82 847.25,-395.45 837.29,-391.82 837.2,-398.82"/>
</g>
<!-- 6 -->
<g id="24" class="node">
<title>6</title>
<ellipse fill="none" stroke="black" cx="498.58" cy="-337" rx="71.77" ry="18"/>
<text text-anchor="middle" x="498.58" y="-332.8" font-family="Times,serif" font-size="14.00">ActorUniqueID</text>
</g>
<!-- 5&#45;&gt;6 -->
<g id="edge12" class="edge">
<title>5&#45;&gt;6</title>
<path fill="none" stroke="black" d="M313.74,-337C343.32,-337 382.18,-337 416.56,-337"/>
<polygon fill="black" stroke="black" points="416.59,-340.5 426.59,-337 416.59,-333.5 416.59,-340.5"/>
</g>
<!-- 7 -->
<g id="24" class="node">
<title>7</title>
<ellipse fill="none" stroke="black" cx="734.99" cy="-338" rx="76.43" ry="18"/>
<text text-anchor="middle" x="734.99" y="-333.8" font-family="Times,serif" font-size="14.00">Actor Unique ID</text>
</g>
<!-- 6&#45;&gt;7 -->
<g id="edge13" class="edge">
<title>6&#45;&gt;7</title>
<path fill="none" stroke="black" d="M570.23,-337.3C594.74,-337.41 622.5,-337.52 648.11,-337.63"/>
<polygon fill="black" stroke="black" points="648.17,-341.13 658.18,-337.68 648.2,-334.13 648.17,-341.13"/>
</g>
<!-- 8 -->
<g id="24" class="node">
<title>8</title>
<ellipse fill="none" stroke="black" cx="890.67" cy="-342" rx="43.44" ry="18"/>
<text text-anchor="middle" x="890.67" y="-337.8" font-family="Times,serif" font-size="14.00">varint64</text>
</g>
<!-- 7&#45;&gt;8 -->
<g id="edge14" class="edge">
<title>7&#45;&gt;8</title>
<path fill="none" stroke="black" d="M811.03,-339.95C819.91,-340.18 828.83,-340.42 837.3,-340.64"/>
<polygon fill="black" stroke="black" points="837.29,-344.14 847.38,-340.9 837.48,-337.14 837.29,-344.14"/>
</g>
<!-- 10 -->
<g id="24" class="node">
<title>10</title>
<ellipse fill="none" stroke="black" cx="498.58" cy="-282" rx="123.88" ry="18"/>
<text text-anchor="middle" x="498.58" y="-277.8" font-family="Times,serif" font-size="14.00">enum BossEventUpdateType</text>
</g>
<!-- 9&#45;&gt;10 -->
<g id="edge15" class="edge">
<title>9&#45;&gt;10</title>
<path fill="none" stroke="black" d="M321.48,-280.48C334.61,-280.59 349.19,-280.72 364.18,-280.85"/>
<polygon fill="black" stroke="black" points="364.58,-284.35 374.61,-280.94 364.64,-277.35 364.58,-284.35"/>
</g>
<!-- 11 -->
<g id="24" class="node">
<title>11</title>
<ellipse fill="none" stroke="black" cx="890.67" cy="-288" rx="30.78" ry="18"/>
<text text-anchor="middle" x="890.67" y="-283.8" font-family="Times,serif" font-size="14.00">uint8</text>
</g>
<!-- 10&#45;&gt;11 -->
<g id="edge16" class="edge">
<title>10&#45;&gt;11</title>
<path fill="none" stroke="black" d="M621.94,-283.88C700.07,-285.08 796.36,-286.56 849.56,-287.38"/>
<polygon fill="black" stroke="black" points="849.56,-290.88 859.61,-287.54 849.67,-283.88 849.56,-290.88"/>
</g>
<!-- 13 -->
<g id="24" class="node">
<title>13</title>
<ellipse fill="none" stroke="black" cx="890.67" cy="-234" rx="33.06" ry="18"/>
<text text-anchor="middle" x="890.67" y="-229.8" font-family="Times,serif" font-size="14.00">string</text>
</g>
<!-- 12&#45;&gt;13 -->
<g id="edge17" class="edge">
<title>12&#45;&gt;13</title>
<path fill="none" stroke="black" d="M769.33,-234C792.2,-234 822.72,-234 847.31,-234"/>
<polygon fill="black" stroke="black" points="847.44,-237.5 857.44,-234 847.44,-230.5 847.44,-237.5"/>
</g>
<!-- 15 -->
<g id="24" class="node">
<title>15</title>
<ellipse fill="none" stroke="black" cx="890.67" cy="-180" rx="33.06" ry="18"/>
<text text-anchor="middle" x="890.67" y="-175.8" font-family="Times,serif" font-size="14.00">string</text>
</g>
<!-- 14&#45;&gt;15 -->
<g id="edge18" class="edge">
<title>14&#45;&gt;15</title>
<path fill="none" stroke="black" d="M799.38,-180C815.48,-180 832.4,-180 847.18,-180"/>
<polygon fill="black" stroke="black" points="847.52,-183.5 857.52,-180 847.52,-176.5 847.52,-183.5"/>
</g>
<!-- 17 -->
<g id="24" class="node">
<title>17</title>
<ellipse fill="none" stroke="black" cx="890.67" cy="-126" rx="28.97" ry="18"/>
<text text-anchor="middle" x="890.67" y="-121.8" font-family="Times,serif" font-size="14.00">float</text>
</g>
<!-- 16&#45;&gt;17 -->
<g id="edge19" class="edge">
<title>16&#45;&gt;17</title>
<path fill="none" stroke="black" d="M803.39,-126C819.88,-126 836.95,-126 851.51,-126"/>
<polygon fill="black" stroke="black" points="851.63,-129.5 861.63,-126 851.63,-122.5 851.63,-129.5"/>
</g>
<!-- 19 -->
<g id="24" class="node">
<title>19</title>
<ellipse fill="none" stroke="black" cx="498.58" cy="-100" rx="89.75" ry="18"/>
<text text-anchor="middle" x="498.58" y="-95.8" font-family="Times,serif" font-size="14.00">enum BossBarColor</text>
</g>
<!-- 18&#45;&gt;19 -->
<g id="edge20" class="edge">
<title>18&#45;&gt;19</title>
<path fill="none" stroke="black" d="M298.55,-100C324.63,-100 362.85,-100 398.84,-100"/>
<polygon fill="black" stroke="black" points="398.92,-103.5 408.92,-100 398.92,-96.5 398.92,-103.5"/>
</g>
<!-- 20 -->
<g id="24" class="node">
<title>20</title>
<ellipse fill="none" stroke="black" cx="890.67" cy="-72" rx="30.78" ry="18"/>
<text text-anchor="middle" x="890.67" y="-67.8" font-family="Times,serif" font-size="14.00">uint8</text>
</g>
<!-- 19&#45;&gt;20 -->
<g id="edge21" class="edge">
<title>19&#45;&gt;20</title>
<path fill="none" stroke="black" d="M583.26,-93.99C665.38,-88.1 787.08,-79.36 849.52,-74.88"/>
<polygon fill="black" stroke="black" points="850.02,-78.36 859.74,-74.15 849.52,-71.37 850.02,-78.36"/>
</g>
<!-- 22 -->
<g id="24" class="node">
<title>22</title>
<ellipse fill="none" stroke="black" cx="498.58" cy="-28" rx="98.96" ry="18"/>
<text text-anchor="middle" x="498.58" y="-23.8" font-family="Times,serif" font-size="14.00">enum BossBarOverlay</text>
</g>
<!-- 21&#45;&gt;22 -->
<g id="edge22" class="edge">
<title>21&#45;&gt;22</title>
<path fill="none" stroke="black" d="M307.47,-37.87C331.36,-36.63 362.67,-35 392.96,-33.43"/>
<polygon fill="black" stroke="black" points="393.38,-36.91 403.18,-32.9 393.01,-29.92 393.38,-36.91"/>
</g>
<!-- 23 -->
<g id="24" class="node">
<title>23</title>
<ellipse fill="none" stroke="black" cx="890.67" cy="-18" rx="30.78" ry="18"/>
<text text-anchor="middle" x="890.67" y="-13.8" font-family="Times,serif" font-size="14.00">uint8</text>
</g>
<!-- 22&#45;&gt;23 -->
<g id="edge23" class="edge">
<title>22&#45;&gt;23</title>
<path fill="none" stroke="black" d="M596.51,-25.52C678.03,-23.43 790.49,-20.54 849.62,-19.03"/>
<polygon fill="black" stroke="black" points="849.77,-22.52 859.67,-18.77 849.59,-15.53 849.77,-22.52"/>
</g>
</g>
</svg>
