<svg width="1067px" height="152px"
 viewBox="0.00 0.00 1066.62 152.00" xmlns="http://www.w3.org/2000/svg" xmlns:xlink="http://www.w3.org/1999/xlink">
<g id="graph0" class="graph" transform="scale(1.0 1.0) rotate(0.0) translate(4.0 148.0)">
<title>ClientCameraAimAssistPacket</title>
<polygon fill="white" stroke="transparent" points="-4,4 -4,-148 1062.62,-148 1062.62,4 -4,4"/>
<g id="0" class="node">
<title></title>
<ellipse fill="none" stroke="black" cx="131.18" cy="-72" rx="131.37" ry="18"/>
<text text-anchor="middle" x="131.18" y="-67.8" font-family="Times,serif" font-size="14.00">ClientCameraAimAssistPacket</text>
</g>
<!-- 1 -->
<g id="8" class="node">
<title>1</title>
<ellipse fill="none" stroke="black" cx="666.52" cy="-126" rx="77.56" ry="18"/>
<text text-anchor="middle" x="666.52" y="-121.8" font-family="Times,serif" font-size="14.00">Camera Preset Id</text>
</g>
<!-- &#45;&gt;1 -->
<g id="edge1" class="edge">
<title>&#45;&gt;1</title>
<path fill="none" stroke="black" d="M211.44,-86.33C238.9,-90.91 269.92,-95.65 298.37,-99 394.61,-110.33 505.63,-117.71 580.17,-121.85"/>
<polygon fill="black" stroke="black" points="580.27,-125.36 590.45,-122.41 580.65,-118.37 580.27,-125.36"/>
</g>
<!-- 3 -->
<g id="8" class="node">
<title>3</title>
<ellipse fill="none" stroke="black" cx="373.77" cy="-72" rx="37.14" ry="18"/>
<text text-anchor="middle" x="373.77" y="-67.8" font-family="Times,serif" font-size="14.00">Action</text>
</g>
<!-- &#45;&gt;3 -->
<g id="edge2" class="edge">
<title>&#45;&gt;3</title>
<path fill="none" stroke="black" d="M262.69,-72C285.32,-72 307.48,-72 325.9,-72"/>
<polygon fill="black" stroke="black" points="326.02,-75.5 336.02,-72 326.02,-68.5 326.02,-75.5"/>
</g>
<!-- 6 -->
<g id="8" class="node">
<title>6</title>
<ellipse fill="none" stroke="black" cx="373.77" cy="-18" rx="75.31" ry="18"/>
<text text-anchor="middle" x="373.77" y="-13.8" font-family="Times,serif" font-size="14.00">Allow aim assist</text>
</g>
<!-- &#45;&gt;6 -->
<g id="edge3" class="edge">
<title>&#45;&gt;6</title>
<path fill="none" stroke="black" d="M200.48,-56.67C234.22,-49.1 274.72,-40.01 307.98,-32.54"/>
<polygon fill="black" stroke="black" points="309.06,-35.89 318.05,-30.28 307.52,-29.06 309.06,-35.89"/>
</g>
<!-- 2 -->
<g id="8" class="node">
<title>2</title>
<ellipse fill="none" stroke="black" cx="971.24" cy="-126" rx="33.06" ry="18"/>
<text text-anchor="middle" x="971.24" y="-121.8" font-family="Times,serif" font-size="14.00">string</text>
</g>
<!-- 1&#45;&gt;2 -->
<g id="edge4" class="edge">
<title>1&#45;&gt;2</title>
<path fill="none" stroke="black" d="M744.3,-126C802.43,-126 880.14,-126 927.61,-126"/>
<polygon fill="black" stroke="black" points="927.85,-129.5 937.85,-126 927.85,-122.5 927.85,-129.5"/>
</g>
<!-- 4 -->
<g id="8" class="node">
<title>4</title>
<ellipse fill="none" stroke="black" cx="666.52" cy="-72" rx="181.17" ry="18"/>
<text text-anchor="middle" x="666.52" y="-67.8" font-family="Times,serif" font-size="14.00">enum ClientCameraAimAssistPacketAction</text>
</g>
<!-- 3&#45;&gt;4 -->
<g id="edge5" class="edge">
<title>3&#45;&gt;4</title>
<path fill="none" stroke="black" d="M411.3,-72C428.66,-72 450.86,-72 474.9,-72"/>
<polygon fill="black" stroke="black" points="474.93,-75.5 484.93,-72 474.93,-68.5 474.93,-75.5"/>
</g>
<!-- 5 -->
<g id="8" class="node">
<title>5</title>
<ellipse fill="none" stroke="black" cx="971.24" cy="-72" rx="30.78" ry="18"/>
<text text-anchor="middle" x="971.24" y="-67.8" font-family="Times,serif" font-size="14.00">uint8</text>
</g>
<!-- 4&#45;&gt;5 -->
<g id="edge6" class="edge">
<title>4&#45;&gt;5</title>
<path fill="none" stroke="black" d="M847.98,-72C878.67,-72 907.69,-72 929.76,-72"/>
<polygon fill="black" stroke="black" points="930,-75.5 940,-72 930,-68.5 930,-75.5"/>
</g>
<!-- 7 -->
<g id="8" class="node">
<title>7</title>
<ellipse fill="none" stroke="black" cx="971.24" cy="-18" rx="87.27" ry="18"/>
<text text-anchor="middle" x="971.24" y="-13.8" font-family="Times,serif" font-size="14.00">std::optional&lt;bool&gt;</text>
</g>
<!-- 6&#45;&gt;7 -->
<g id="edge7" class="edge">
<title>6&#45;&gt;7</title>
<path fill="none" stroke="black" d="M449.29,-18C556.63,-18 754.87,-18 873.43,-18"/>
<polygon fill="black" stroke="black" points="873.58,-21.5 883.58,-18 873.58,-14.5 873.58,-21.5"/>
</g>
</g>
</svg>
