<svg width="1157px" height="152px"
 viewBox="0.00 0.00 1157.22 152.00" xmlns="http://www.w3.org/2000/svg" xmlns:xlink="http://www.w3.org/1999/xlink">
<g id="graph0" class="graph" transform="scale(1.0 1.0) rotate(0.0) translate(4.0 148.0)">
<title>ClientCacheMissResponsePacket</title>
<polygon fill="white" stroke="transparent" points="-4,4 -4,-148 1153.22,-148 1153.22,4 -4,4"/>
<g id="0" class="node">
<title></title>
<ellipse fill="none" stroke="black" cx="140.3" cy="-99" rx="140.1" ry="18"/>
<text text-anchor="middle" x="140.3" y="-94.8" font-family="Times,serif" font-size="14.00">ClientCacheMissResponsePacket</text>
</g>
<!-- 1 -->
<g id="10" class="node">
<title>1</title>
<ellipse fill="none" stroke="black" cx="383.71" cy="-99" rx="67.21" ry="18"/>
<text text-anchor="middle" x="383.71" y="-94.8" font-family="Times,serif" font-size="14.00">Missing Blobs</text>
</g>
<!-- &#45;&gt;1 -->
<g id="edge1" class="edge">
<title>&#45;&gt;1</title>
<path fill="none" stroke="black" d="M280.68,-99C289.35,-99 297.9,-99 306.12,-99"/>
<polygon fill="black" stroke="black" points="306.36,-102.5 316.36,-99 306.36,-95.5 306.36,-102.5"/>
</g>
<!-- 2 -->
<g id="10" class="node">
<title>2</title>
<ellipse fill="none" stroke="black" cx="755.45" cy="-126" rx="45.2" ry="18"/>
<text text-anchor="middle" x="755.45" y="-121.8" font-family="Times,serif" font-size="14.00">List Size</text>
</g>
<!-- 1&#45;&gt;2 -->
<g id="edge2" class="edge">
<title>1&#45;&gt;2</title>
<path fill="none" stroke="black" d="M448.69,-103.67C519.91,-108.87 633.75,-117.19 700.59,-122.07"/>
<polygon fill="black" stroke="black" points="700.67,-125.58 710.9,-122.82 701.18,-118.6 700.67,-125.58"/>
</g>
<!-- 4 -->
<g id="10" class="node">
<title>4</title>
<ellipse fill="none" stroke="black" stroke-dasharray="1,5" cx="563.55" cy="-76" rx="76.96" ry="18"/>
<text text-anchor="middle" x="563.55" y="-71.8" font-family="Times,serif" font-size="14.00">example element</text>
</g>
<!-- 1&#45;&gt;4 -->
<g id="edge3" class="edge">
<title>1&#45;&gt;4</title>
<path fill="none" stroke="black" d="M444.42,-91.28C457.74,-89.56 472.04,-87.71 485.93,-85.91"/>
<polygon fill="black" stroke="black" points="486.48,-89.37 495.95,-84.61 485.59,-82.42 486.48,-89.37"/>
</g>
<!-- 3 -->
<g id="10" class="node">
<title>3</title>
<ellipse fill="none" stroke="black" cx="1078.38" cy="-126" rx="70.69" ry="18"/>
<text text-anchor="middle" x="1078.38" y="-121.8" font-family="Times,serif" font-size="14.00">unsigned varint</text>
</g>
<!-- 2&#45;&gt;3 -->
<g id="edge4" class="edge">
<title>2&#45;&gt;3</title>
<path fill="none" stroke="black" d="M800.73,-126C851.31,-126 935.07,-126 997.2,-126"/>
<polygon fill="black" stroke="black" points="997.37,-129.5 1007.37,-126 997.37,-122.5 997.37,-129.5"/>
</g>
<!-- 5 -->
<g id="10" class="node">
<title>5</title>
<ellipse fill="none" stroke="black" cx="755.45" cy="-72" rx="79.33" ry="18"/>
<text text-anchor="middle" x="755.45" y="-67.8" font-family="Times,serif" font-size="14.00">MissingBlobData</text>
</g>
<!-- 4&#45;&gt;5 -->
<g id="edge5" class="edge">
<title>4&#45;&gt;5</title>
<path fill="none" stroke="black" d="M640.15,-74.41C648.7,-74.23 657.46,-74.04 666.16,-73.86"/>
<polygon fill="black" stroke="black" points="666.38,-77.36 676.31,-73.65 666.24,-70.36 666.38,-77.36"/>
</g>
<!-- 6 -->
<g id="10" class="node">
<title>6</title>
<ellipse fill="none" stroke="black" cx="921.07" cy="-72" rx="40.05" ry="18"/>
<text text-anchor="middle" x="921.07" y="-67.8" font-family="Times,serif" font-size="14.00">Blob Id</text>
</g>
<!-- 5&#45;&gt;6 -->
<g id="edge6" class="edge">
<title>5&#45;&gt;6</title>
<path fill="none" stroke="black" d="M834.9,-72C847.09,-72 859.37,-72 870.66,-72"/>
<polygon fill="black" stroke="black" points="870.73,-75.5 880.73,-72 870.73,-68.5 870.73,-75.5"/>
</g>
<!-- 8 -->
<g id="10" class="node">
<title>8</title>
<ellipse fill="none" stroke="black" cx="921.07" cy="-18" rx="50.42" ry="18"/>
<text text-anchor="middle" x="921.07" y="-13.8" font-family="Times,serif" font-size="14.00">Blob Data</text>
</g>
<!-- 5&#45;&gt;8 -->
<g id="edge7" class="edge">
<title>5&#45;&gt;8</title>
<path fill="none" stroke="black" d="M801.16,-57.24C823.66,-49.82 850.91,-40.82 873.65,-33.32"/>
<polygon fill="black" stroke="black" points="875.01,-36.56 883.41,-30.1 872.82,-29.91 875.01,-36.56"/>
</g>
<!-- 7 -->
<g id="10" class="node">
<title>7</title>
<ellipse fill="none" stroke="black" cx="1078.38" cy="-72" rx="35.94" ry="18"/>
<text text-anchor="middle" x="1078.38" y="-67.8" font-family="Times,serif" font-size="14.00">uint64</text>
</g>
<!-- 6&#45;&gt;7 -->
<g id="edge8" class="edge">
<title>6&#45;&gt;7</title>
<path fill="none" stroke="black" d="M961.66,-72C983.23,-72 1010,-72 1032.36,-72"/>
<polygon fill="black" stroke="black" points="1032.61,-75.5 1042.61,-72 1032.61,-68.5 1032.61,-75.5"/>
</g>
<!-- 9 -->
<g id="10" class="node">
<title>9</title>
<ellipse fill="none" stroke="black" cx="1078.38" cy="-18" rx="33.06" ry="18"/>
<text text-anchor="middle" x="1078.38" y="-13.8" font-family="Times,serif" font-size="14.00">string</text>
</g>
<!-- 8&#45;&gt;9 -->
<g id="edge9" class="edge">
<title>8&#45;&gt;9</title>
<path fill="none" stroke="black" d="M971.64,-18C991.95,-18 1015.24,-18 1034.77,-18"/>
<polygon fill="black" stroke="black" points="1034.9,-21.5 1044.9,-18 1034.9,-14.5 1034.9,-21.5"/>
</g>
</g>
</svg>
