<svg width="834px" height="44px"
 viewBox="0.00 0.00 833.51 44.00" xmlns="http://www.w3.org/2000/svg" xmlns:xlink="http://www.w3.org/1999/xlink">
<g id="graph0" class="graph" transform="scale(1.0 1.0) rotate(0.0) translate(4.0 40.0)">
<title>ClientboundControlSchemeSetPacket</title>
<polygon fill="white" stroke="transparent" points="-4,4 -4,-40 829.51,-40 829.51,4 -4,4"/>
<g id="0" class="node">
<title></title>
<ellipse fill="none" stroke="black" cx="156.94" cy="-18" rx="156.88" ry="18"/>
<text text-anchor="middle" x="156.94" y="-13.8" font-family="Times,serif" font-size="14.00">ClientboundControlSchemeSetPacket</text>
</g>
<!-- 1 -->
<g id="4" class="node">
<title>1</title>
<ellipse fill="none" stroke="black" cx="423.41" cy="-18" rx="73.56" ry="18"/>
<text text-anchor="middle" x="423.41" y="-13.8" font-family="Times,serif" font-size="14.00">Control Scheme</text>
</g>
<!-- &#45;&gt;1 -->
<g id="edge1" class="edge">
<title>&#45;&gt;1</title>
<path fill="none" stroke="black" d="M314.08,-18C322.73,-18 331.24,-18 339.45,-18"/>
<polygon fill="black" stroke="black" points="339.68,-21.5 349.68,-18 339.68,-14.5 339.68,-21.5"/>
</g>
<!-- 2 -->
<g id="4" class="node">
<title>2</title>
<ellipse fill="none" stroke="black" cx="630.34" cy="-18" rx="97.3" ry="18"/>
<text text-anchor="middle" x="630.34" y="-13.8" font-family="Times,serif" font-size="14.00">enum Control Scheme</text>
</g>
<!-- 1&#45;&gt;2 -->
<g id="edge2" class="edge">
<title>1&#45;&gt;2</title>
<path fill="none" stroke="black" d="M496.95,-18C505.31,-18 513.96,-18 522.65,-18"/>
<polygon fill="black" stroke="black" points="522.85,-21.5 532.85,-18 522.85,-14.5 522.85,-21.5"/>
</g>
<!-- 3 -->
<g id="4" class="node">
<title>3</title>
<ellipse fill="none" stroke="black" cx="794.62" cy="-18" rx="30.78" ry="18"/>
<text text-anchor="middle" x="794.62" y="-13.8" font-family="Times,serif" font-size="14.00">uint8</text>
</g>
<!-- 2&#45;&gt;3 -->
<g id="edge3" class="edge">
<title>2&#45;&gt;3</title>
<path fill="none" stroke="black" d="M728.08,-18C736.86,-18 745.38,-18 753.21,-18"/>
<polygon fill="black" stroke="black" points="753.43,-21.5 763.43,-18 753.43,-14.5 753.43,-21.5"/>
</g>
</g>
</svg>
