<svg width="785px" height="152px"
 viewBox="0.00 0.00 784.79 152.00" xmlns="http://www.w3.org/2000/svg" xmlns:xlink="http://www.w3.org/1999/xlink">
<g id="graph0" class="graph" transform="scale(1.0 1.0) rotate(0.0) translate(4.0 148.0)">
<title>ClientboundDataDrivenUIShowScreenPacket</title>
<polygon fill="white" stroke="transparent" points="-4,4 -4,-148 780.79,-148 780.79,4 -4,4"/>
<g id="0" class="node">
<title></title>
<ellipse fill="none" stroke="black" cx="188.02" cy="-72" rx="188.04" ry="18"/>
<text text-anchor="middle" x="188.02" y="-67.8" font-family="Times,serif" font-size="14.00">ClientboundDataDrivenUIShowScreenPacket</text>
</g>
<!-- 1 -->
<g id="7" class="node">
<title>1</title>
<ellipse fill="none" stroke="black" cx="481.52" cy="-126" rx="45.2" ry="18"/>
<text text-anchor="middle" x="481.52" y="-121.8" font-family="Times,serif" font-size="14.00">ScreenId</text>
</g>
<!-- &#45;&gt;1 -->
<g id="edge1" class="edge">
<title>&#45;&gt;1</title>
<path fill="none" stroke="black" d="M275.3,-87.98C325.81,-97.34 387.83,-108.83 430.38,-116.71"/>
<polygon fill="black" stroke="black" points="429.76,-120.16 440.23,-118.54 431.03,-113.27 429.76,-120.16"/>
</g>
<!-- 3 -->
<g id="7" class="node">
<title>3</title>
<ellipse fill="none" stroke="black" cx="481.52" cy="-72" rx="40.01" ry="18"/>
<text text-anchor="middle" x="481.52" y="-67.8" font-family="Times,serif" font-size="14.00">FormId</text>
</g>
<!-- &#45;&gt;3 -->
<g id="edge2" class="edge">
<title>&#45;&gt;3</title>
<path fill="none" stroke="black" d="M376.11,-72C396.12,-72 414.99,-72 431.05,-72"/>
<polygon fill="black" stroke="black" points="431.18,-75.5 441.18,-72 431.18,-68.5 431.18,-75.5"/>
</g>
<!-- 5 -->
<g id="7" class="node">
<title>5</title>
<ellipse fill="none" stroke="black" cx="481.52" cy="-18" rx="69.46" ry="18"/>
<text text-anchor="middle" x="481.52" y="-13.8" font-family="Times,serif" font-size="14.00">DataInstanceId</text>
</g>
<!-- &#45;&gt;5 -->
<g id="edge3" class="edge">
<title>&#45;&gt;5</title>
<path fill="none" stroke="black" d="M275.3,-56.02C319.81,-47.77 373.26,-37.87 414.45,-30.24"/>
<polygon fill="black" stroke="black" points="415.18,-33.66 424.37,-28.4 413.9,-26.78 415.18,-33.66"/>
</g>
<!-- 2 -->
<g id="7" class="node">
<title>2</title>
<ellipse fill="none" stroke="black" cx="681.9" cy="-126" rx="33.06" ry="18"/>
<text text-anchor="middle" x="681.9" y="-121.8" font-family="Times,serif" font-size="14.00">string</text>
</g>
<!-- 1&#45;&gt;2 -->
<g id="edge4" class="edge">
<title>1&#45;&gt;2</title>
<path fill="none" stroke="black" d="M527.04,-126C560.34,-126 605.58,-126 638.38,-126"/>
<polygon fill="black" stroke="black" points="638.56,-129.5 648.56,-126 638.56,-122.5 638.56,-129.5"/>
</g>
<!-- 4 -->
<g id="7" class="node">
<title>4</title>
<ellipse fill="none" stroke="black" cx="681.9" cy="-72" rx="35.94" ry="18"/>
<text text-anchor="middle" x="681.9" y="-67.8" font-family="Times,serif" font-size="14.00">uint32</text>
</g>
<!-- 3&#45;&gt;4 -->
<g id="edge5" class="edge">
<title>3&#45;&gt;4</title>
<path fill="none" stroke="black" d="M521.72,-72C554.56,-72 601.47,-72 635.86,-72"/>
<polygon fill="black" stroke="black" points="636.1,-75.5 646.1,-72 636.1,-68.5 636.1,-75.5"/>
</g>
<!-- 6 -->
<g id="7" class="node">
<title>6</title>
<ellipse fill="none" stroke="black" cx="681.9" cy="-18" rx="94.79" ry="18"/>
<text text-anchor="middle" x="681.9" y="-13.8" font-family="Times,serif" font-size="14.00">std::optional&lt;uint32&gt;</text>
</g>
<!-- 5&#45;&gt;6 -->
<g id="edge6" class="edge">
<title>5&#45;&gt;6</title>
<path fill="none" stroke="black" d="M551.07,-18C559.36,-18 567.97,-18 576.63,-18"/>
<polygon fill="black" stroke="black" points="576.8,-21.5 586.8,-18 576.8,-14.5 576.8,-21.5"/>
</g>
</g>
</svg>
