<svg width="778px" height="206px"
 viewBox="0.00 0.00 777.69 206.00" xmlns="http://www.w3.org/2000/svg" xmlns:xlink="http://www.w3.org/1999/xlink">
<g id="graph0" class="graph" transform="scale(1.0 1.0) rotate(0.0) translate(4.0 202.0)">
<title>ClientCacheBlobStatusPacket</title>
<polygon fill="white" stroke="transparent" points="-4,4 -4,-202 773.69,-202 773.69,4 -4,4"/>
<g id="0" class="node">
<title></title>
<ellipse fill="none" stroke="black" cx="126.9" cy="-99" rx="126.8" ry="18"/>
<text text-anchor="middle" x="126.9" y="-94.8" font-family="Times,serif" font-size="14.00">ClientCacheBlobStatusPacket</text>
</g>
<!-- 1 -->
<g id="11" class="node">
<title>1</title>
<ellipse fill="none" stroke="black" cx="346.17" cy="-126" rx="56.24" ry="18"/>
<text text-anchor="middle" x="346.17" y="-121.8" font-family="Times,serif" font-size="14.00">Missing Ids</text>
</g>
<!-- &#45;&gt;1 -->
<g id="edge1" class="edge">
<title>&#45;&gt;1</title>
<path fill="none" stroke="black" d="M222.88,-110.8C243.31,-113.34 264.39,-115.96 283.17,-118.3"/>
<polygon fill="black" stroke="black" points="282.99,-121.8 293.35,-119.56 283.86,-114.85 282.99,-121.8"/>
</g>
<!-- 6 -->
<g id="11" class="node">
<title>6</title>
<ellipse fill="none" stroke="black" cx="346.17" cy="-72" rx="49.86" ry="18"/>
<text text-anchor="middle" x="346.17" y="-67.8" font-family="Times,serif" font-size="14.00">Found Ids</text>
</g>
<!-- &#45;&gt;6 -->
<g id="edge2" class="edge">
<title>&#45;&gt;6</title>
<path fill="none" stroke="black" d="M222.88,-87.2C245.25,-84.42 268.39,-81.54 288.45,-79.05"/>
<polygon fill="black" stroke="black" points="289.15,-82.49 298.64,-77.78 288.29,-75.54 289.15,-82.49"/>
</g>
<!-- 2 -->
<g id="11" class="node">
<title>2</title>
<ellipse fill="none" stroke="black" cx="515.27" cy="-180" rx="45.2" ry="18"/>
<text text-anchor="middle" x="515.27" y="-175.8" font-family="Times,serif" font-size="14.00">List Size</text>
</g>
<!-- 1&#45;&gt;2 -->
<g id="edge3" class="edge">
<title>1&#45;&gt;2</title>
<path fill="none" stroke="black" d="M386.35,-138.66C411.41,-146.76 443.97,-157.28 469.98,-165.69"/>
<polygon fill="black" stroke="black" points="469,-169.05 479.59,-168.79 471.15,-162.39 469,-169.05"/>
</g>
<!-- 4 -->
<g id="11" class="node">
<title>4</title>
<ellipse fill="none" stroke="black" stroke-dasharray="1,5" cx="515.27" cy="-126" rx="76.96" ry="18"/>
<text text-anchor="middle" x="515.27" y="-121.8" font-family="Times,serif" font-size="14.00">example element</text>
</g>
<!-- 1&#45;&gt;4 -->
<g id="edge4" class="edge">
<title>1&#45;&gt;4</title>
<path fill="none" stroke="black" d="M402.81,-126C411,-126 419.59,-126 428.22,-126"/>
<polygon fill="black" stroke="black" points="428.34,-129.5 438.34,-126 428.34,-122.5 428.34,-129.5"/>
</g>
<!-- 3 -->
<g id="11" class="node">
<title>3</title>
<ellipse fill="none" stroke="black" cx="698.85" cy="-180" rx="70.69" ry="18"/>
<text text-anchor="middle" x="698.85" y="-175.8" font-family="Times,serif" font-size="14.00">unsigned varint</text>
</g>
<!-- 2&#45;&gt;3 -->
<g id="edge5" class="edge">
<title>2&#45;&gt;3</title>
<path fill="none" stroke="black" d="M560.69,-180C577.85,-180 598.04,-180 617.57,-180"/>
<polygon fill="black" stroke="black" points="617.71,-183.5 627.71,-180 617.71,-176.5 617.71,-183.5"/>
</g>
<!-- 5 -->
<g id="11" class="node">
<title>5</title>
<ellipse fill="none" stroke="black" cx="698.85" cy="-126" rx="35.94" ry="18"/>
<text text-anchor="middle" x="698.85" y="-121.8" font-family="Times,serif" font-size="14.00">uint64</text>
</g>
<!-- 4&#45;&gt;5 -->
<g id="edge6" class="edge">
<title>4&#45;&gt;5</title>
<path fill="none" stroke="black" d="M592.22,-126C612.79,-126 634.4,-126 652.68,-126"/>
<polygon fill="black" stroke="black" points="652.74,-129.5 662.74,-126 652.74,-122.5 652.74,-129.5"/>
</g>
<!-- 7 -->
<g id="11" class="node">
<title>7</title>
<ellipse fill="none" stroke="black" cx="515.27" cy="-72" rx="45.2" ry="18"/>
<text text-anchor="middle" x="515.27" y="-67.8" font-family="Times,serif" font-size="14.00">List Size</text>
</g>
<!-- 6&#45;&gt;7 -->
<g id="edge7" class="edge">
<title>6&#45;&gt;7</title>
<path fill="none" stroke="black" d="M396.4,-72C416.33,-72 439.41,-72 459.84,-72"/>
<polygon fill="black" stroke="black" points="459.94,-75.5 469.94,-72 459.94,-68.5 459.94,-75.5"/>
</g>
<!-- 9 -->
<g id="11" class="node">
<title>9</title>
<ellipse fill="none" stroke="black" stroke-dasharray="1,5" cx="515.27" cy="-18" rx="76.96" ry="18"/>
<text text-anchor="middle" x="515.27" y="-13.8" font-family="Times,serif" font-size="14.00">example element</text>
</g>
<!-- 6&#45;&gt;9 -->
<g id="edge8" class="edge">
<title>6&#45;&gt;9</title>
<path fill="none" stroke="black" d="M383.84,-60.15C406.06,-52.97 434.82,-43.67 459.68,-35.64"/>
<polygon fill="black" stroke="black" points="460.91,-38.92 469.35,-32.52 458.76,-32.26 460.91,-38.92"/>
</g>
<!-- 8 -->
<g id="11" class="node">
<title>8</title>
<ellipse fill="none" stroke="black" cx="698.85" cy="-72" rx="70.69" ry="18"/>
<text text-anchor="middle" x="698.85" y="-67.8" font-family="Times,serif" font-size="14.00">unsigned varint</text>
</g>
<!-- 7&#45;&gt;8 -->
<g id="edge9" class="edge">
<title>7&#45;&gt;8</title>
<path fill="none" stroke="black" d="M560.69,-72C577.85,-72 598.04,-72 617.57,-72"/>
<polygon fill="black" stroke="black" points="617.71,-75.5 627.71,-72 617.71,-68.5 617.71,-75.5"/>
</g>
<!-- 10 -->
<g id="11" class="node">
<title>10</title>
<ellipse fill="none" stroke="black" cx="698.85" cy="-18" rx="35.94" ry="18"/>
<text text-anchor="middle" x="698.85" y="-13.8" font-family="Times,serif" font-size="14.00">uint64</text>
</g>
<!-- 9&#45;&gt;10 -->
<g id="edge10" class="edge">
<title>9&#45;&gt;10</title>
<path fill="none" stroke="black" d="M592.22,-18C612.79,-18 634.4,-18 652.68,-18"/>
<polygon fill="black" stroke="black" points="652.74,-21.5 662.74,-18 652.74,-14.5 652.74,-21.5"/>
</g>
</g>
</svg>
