<svg width="1546px" height="152px"
 viewBox="0.00 0.00 1546.16 152.00" xmlns="http://www.w3.org/2000/svg" xmlns:xlink="http://www.w3.org/1999/xlink">
<g id="graph0" class="graph" transform="scale(1.0 1.0) rotate(0.0) translate(4.0 148.0)">
<title>ContainerRegistryCleanupPacket</title>
<polygon fill="white" stroke="transparent" points="-4,4 -4,-148 1542.16,-148 1542.16,4 -4,4"/>
<g id="0" class="node">
<title></title>
<ellipse fill="none" stroke="black" cx="139.76" cy="-99" rx="139.53" ry="18"/>
<text text-anchor="middle" x="139.76" y="-94.8" font-family="Times,serif" font-size="14.00">ContainerRegistryCleanupPacket</text>
</g>
<!-- 1 -->
<g id="11" class="node">
<title>1</title>
<ellipse fill="none" stroke="black" cx="407.82" cy="-99" rx="92.1" ry="18"/>
<text text-anchor="middle" x="407.82" y="-94.8" font-family="Times,serif" font-size="14.00">Removed Containers</text>
</g>
<!-- &#45;&gt;1 -->
<g id="edge1" class="edge">
<title>&#45;&gt;1</title>
<path fill="none" stroke="black" d="M279.64,-99C288.24,-99 296.8,-99 305.19,-99"/>
<polygon fill="black" stroke="black" points="305.33,-102.5 315.33,-99 305.33,-95.5 305.33,-102.5"/>
</g>
<!-- 2 -->
<g id="11" class="node">
<title>2</title>
<ellipse fill="none" stroke="black" cx="813.32" cy="-126" rx="45.2" ry="18"/>
<text text-anchor="middle" x="813.32" y="-121.8" font-family="Times,serif" font-size="14.00">List Size</text>
</g>
<!-- 1&#45;&gt;2 -->
<g id="edge2" class="edge">
<title>1&#45;&gt;2</title>
<path fill="none" stroke="black" d="M495.39,-104.79C575.17,-110.13 691.11,-117.89 758.41,-122.39"/>
<polygon fill="black" stroke="black" points="758.57,-125.91 768.78,-123.09 759.04,-118.93 758.57,-125.91"/>
</g>
<!-- 4 -->
<g id="11" class="node">
<title>4</title>
<ellipse fill="none" stroke="black" stroke-dasharray="1,5" cx="612.85" cy="-76" rx="76.96" ry="18"/>
<text text-anchor="middle" x="612.85" y="-71.8" font-family="Times,serif" font-size="14.00">example element</text>
</g>
<!-- 1&#45;&gt;4 -->
<g id="edge3" class="edge">
<title>1&#45;&gt;4</title>
<path fill="none" stroke="black" d="M487.9,-90.04C502.83,-88.35 518.44,-86.58 533.35,-84.89"/>
<polygon fill="black" stroke="black" points="534,-88.34 543.54,-83.74 533.21,-81.39 534,-88.34"/>
</g>
<!-- 3 -->
<g id="11" class="node">
<title>3</title>
<ellipse fill="none" stroke="black" cx="1467.31" cy="-126" rx="70.69" ry="18"/>
<text text-anchor="middle" x="1467.31" y="-121.8" font-family="Times,serif" font-size="14.00">unsigned varint</text>
</g>
<!-- 2&#45;&gt;3 -->
<g id="edge4" class="edge">
<title>2&#45;&gt;3</title>
<path fill="none" stroke="black" d="M858.63,-126C967.12,-126 1247.34,-126 1386.07,-126"/>
<polygon fill="black" stroke="black" points="1386.21,-129.5 1396.21,-126 1386.21,-122.5 1386.21,-129.5"/>
</g>
<!-- 5 -->
<g id="11" class="node">
<title>5</title>
<ellipse fill="none" stroke="black" cx="813.32" cy="-72" rx="87.98" ry="18"/>
<text text-anchor="middle" x="813.32" y="-67.8" font-family="Times,serif" font-size="14.00">FullContainerName</text>
</g>
<!-- 4&#45;&gt;5 -->
<g id="edge5" class="edge">
<title>4&#45;&gt;5</title>
<path fill="none" stroke="black" d="M689.45,-74.48C698.13,-74.3 707.06,-74.12 715.96,-73.94"/>
<polygon fill="black" stroke="black" points="716.05,-77.44 725.98,-73.74 715.91,-70.44 716.05,-77.44"/>
</g>
<!-- 6 -->
<g id="11" class="node">
<title>6</title>
<ellipse fill="none" stroke="black" cx="1011.65" cy="-72" rx="74.68" ry="18"/>
<text text-anchor="middle" x="1011.65" y="-67.8" font-family="Times,serif" font-size="14.00">Container Name</text>
</g>
<!-- 5&#45;&gt;6 -->
<g id="edge6" class="edge">
<title>5&#45;&gt;6</title>
<path fill="none" stroke="black" d="M901.29,-72C909.75,-72 918.32,-72 926.75,-72"/>
<polygon fill="black" stroke="black" points="926.94,-75.5 936.94,-72 926.94,-68.5 926.94,-75.5"/>
</g>
<!-- 9 -->
<g id="11" class="node">
<title>9</title>
<ellipse fill="none" stroke="black" cx="1241.35" cy="-18" rx="59.07" ry="18"/>
<text text-anchor="middle" x="1241.35" y="-13.8" font-family="Times,serif" font-size="14.00">Dynamic ID</text>
</g>
<!-- 5&#45;&gt;9 -->
<g id="edge7" class="edge">
<title>5&#45;&gt;9</title>
<path fill="none" stroke="black" d="M869.95,-58.19C890.88,-53.41 914.96,-48.4 937.06,-45 1017.74,-32.59 1111.43,-25.33 1173.08,-21.52"/>
<polygon fill="black" stroke="black" points="1173.31,-25.01 1183.08,-20.91 1172.88,-18.02 1173.31,-25.01"/>
</g>
<!-- 7 -->
<g id="11" class="node">
<title>7</title>
<ellipse fill="none" stroke="black" cx="1241.35" cy="-72" rx="119.23" ry="18"/>
<text text-anchor="middle" x="1241.35" y="-67.8" font-family="Times,serif" font-size="14.00">enum ContainerEnumName</text>
</g>
<!-- 6&#45;&gt;7 -->
<g id="edge8" class="edge">
<title>6&#45;&gt;7</title>
<path fill="none" stroke="black" d="M1086.27,-72C1094.48,-72 1103.02,-72 1111.68,-72"/>
<polygon fill="black" stroke="black" points="1111.88,-75.5 1121.88,-72 1111.88,-68.5 1111.88,-75.5"/>
</g>
<!-- 8 -->
<g id="11" class="node">
<title>8</title>
<ellipse fill="none" stroke="black" cx="1467.31" cy="-72" rx="30.78" ry="18"/>
<text text-anchor="middle" x="1467.31" y="-67.8" font-family="Times,serif" font-size="14.00">uint8</text>
</g>
<!-- 7&#45;&gt;8 -->
<g id="edge9" class="edge">
<title>7&#45;&gt;8</title>
<path fill="none" stroke="black" d="M1360.56,-72C1384.23,-72 1407.53,-72 1426.2,-72"/>
<polygon fill="black" stroke="black" points="1426.35,-75.5 1436.35,-72 1426.35,-68.5 1426.35,-75.5"/>
</g>
<!-- 10 -->
<g id="11" class="node">
<title>10</title>
<ellipse fill="none" stroke="black" cx="1467.31" cy="-18" rx="35.94" ry="18"/>
<text text-anchor="middle" x="1467.31" y="-13.8" font-family="Times,serif" font-size="14.00">uint32</text>
</g>
<!-- 9&#45;&gt;10 -->
<g id="edge10" class="edge">
<title>9&#45;&gt;10</title>
<path fill="none" stroke="black" d="M1300.61,-18C1338.2,-18 1386.37,-18 1421.07,-18"/>
<polygon fill="black" stroke="black" points="1421.38,-21.5 1431.38,-18 1421.38,-14.5 1421.38,-21.5"/>
</g>
</g>
</svg>
