<svg width="526px" height="152px"
 viewBox="0.00 0.00 525.96 152.00" xmlns="http://www.w3.org/2000/svg" xmlns:xlink="http://www.w3.org/1999/xlink">
<g id="graph0" class="graph" transform="scale(1.0 1.0) rotate(0.0) translate(4.0 148.0)">
<title>ContainerClosePacket</title>
<polygon fill="white" stroke="transparent" points="-4,4 -4,-148 521.96,-148 521.96,4 -4,4"/>
<g id="0" class="node">
<title></title>
<ellipse fill="none" stroke="black" cx="96.85" cy="-72" rx="96.71" ry="18"/>
<text text-anchor="middle" x="96.85" y="-67.8" font-family="Times,serif" font-size="14.00">ContainerClosePacket</text>
</g>
<!-- 1 -->
<g id="7" class="node">
<title>1</title>
<ellipse fill="none" stroke="black" cx="324.95" cy="-126" rx="59.65" ry="18"/>
<text text-anchor="middle" x="324.95" y="-121.8" font-family="Times,serif" font-size="14.00">Container Id</text>
</g>
<!-- &#45;&gt;1 -->
<g id="edge1" class="edge">
<title>&#45;&gt;1</title>
<path fill="none" stroke="black" d="M156.96,-86.12C191.11,-94.27 233.84,-104.48 267.52,-112.52"/>
<polygon fill="black" stroke="black" points="267.12,-116.03 277.66,-114.95 268.75,-109.22 267.12,-116.03"/>
</g>
<!-- 3 -->
<g id="7" class="node">
<title>3</title>
<ellipse fill="none" stroke="black" cx="324.95" cy="-72" rx="71.25" ry="18"/>
<text text-anchor="middle" x="324.95" y="-67.8" font-family="Times,serif" font-size="14.00">Container Type</text>
</g>
<!-- &#45;&gt;3 -->
<g id="edge2" class="edge">
<title>&#45;&gt;3</title>
<path fill="none" stroke="black" d="M193.74,-72C210.13,-72 227.01,-72 242.96,-72"/>
<polygon fill="black" stroke="black" points="243.29,-75.5 253.29,-72 243.29,-68.5 243.29,-75.5"/>
</g>
<!-- 5 -->
<g id="7" class="node">
<title>5</title>
<ellipse fill="none" stroke="black" cx="324.95" cy="-18" rx="95.48" ry="18"/>
<text text-anchor="middle" x="324.95" y="-13.8" font-family="Times,serif" font-size="14.00">Server Initiated Close</text>
</g>
<!-- &#45;&gt;5 -->
<g id="edge3" class="edge">
<title>&#45;&gt;5</title>
<path fill="none" stroke="black" d="M156.96,-57.88C187.07,-50.69 223.84,-41.91 255.2,-34.42"/>
<polygon fill="black" stroke="black" points="256.27,-37.76 265.18,-32.03 254.64,-30.95 256.27,-37.76"/>
</g>
<!-- 2 -->
<g id="7" class="node">
<title>2</title>
<ellipse fill="none" stroke="black" cx="487.07" cy="-126" rx="30.78" ry="18"/>
<text text-anchor="middle" x="487.07" y="-121.8" font-family="Times,serif" font-size="14.00">uint8</text>
</g>
<!-- 1&#45;&gt;2 -->
<g id="edge4" class="edge">
<title>1&#45;&gt;2</title>
<path fill="none" stroke="black" d="M384.66,-126C405.05,-126 427.43,-126 445.97,-126"/>
<polygon fill="black" stroke="black" points="446.12,-129.5 456.12,-126 446.12,-122.5 446.12,-129.5"/>
</g>
<!-- 4 -->
<g id="7" class="node">
<title>4</title>
<ellipse fill="none" stroke="black" cx="487.07" cy="-72" rx="30.78" ry="18"/>
<text text-anchor="middle" x="487.07" y="-67.8" font-family="Times,serif" font-size="14.00">uint8</text>
</g>
<!-- 3&#45;&gt;4 -->
<g id="edge5" class="edge">
<title>3&#45;&gt;4</title>
<path fill="none" stroke="black" d="M396.65,-72C413.37,-72 430.64,-72 445.49,-72"/>
<polygon fill="black" stroke="black" points="445.84,-75.5 455.84,-72 445.84,-68.5 445.84,-75.5"/>
</g>
<!-- 6 -->
<g id="7" class="node">
<title>6</title>
<ellipse fill="none" stroke="black" cx="487.07" cy="-18" rx="28.41" ry="18"/>
<text text-anchor="middle" x="487.07" y="-13.8" font-family="Times,serif" font-size="14.00">bool</text>
</g>
<!-- 5&#45;&gt;6 -->
<g id="edge6" class="edge">
<title>5&#45;&gt;6</title>
<path fill="none" stroke="black" d="M420.48,-18C430.4,-18 440.01,-18 448.68,-18"/>
<polygon fill="black" stroke="black" points="448.74,-21.5 458.74,-18 448.74,-14.5 448.74,-21.5"/>
</g>
</g>
</svg>
