<svg width="977px" height="98px"
 viewBox="0.00 0.00 976.74 98.00" xmlns="http://www.w3.org/2000/svg" xmlns:xlink="http://www.w3.org/1999/xlink">
<g id="graph0" class="graph" transform="scale(1.0 1.0) rotate(0.0) translate(4.0 94.0)">
<title>EduUriResourcePacket</title>
<polygon fill="white" stroke="transparent" points="-4,4 -4,-94 972.74,-94 972.74,4 -4,4"/>
<g id="0" class="node">
<title></title>
<ellipse fill="none" stroke="black" cx="101.13" cy="-45" rx="101.26" ry="18"/>
<text text-anchor="middle" x="101.13" y="-40.8" font-family="Times,serif" font-size="14.00">EduUriResourcePacket</text>
</g>
<!-- 1 -->
<g id="7" class="node">
<title>1</title>
<ellipse fill="none" stroke="black" cx="351.47" cy="-45" rx="113.41" ry="18"/>
<text text-anchor="middle" x="351.47" y="-40.8" font-family="Times,serif" font-size="14.00">Edu Shared URI Resource</text>
</g>
<!-- &#45;&gt;1 -->
<g id="edge1" class="edge">
<title>&#45;&gt;1</title>
<path fill="none" stroke="black" d="M202.42,-45C210.84,-45 219.41,-45 227.97,-45"/>
<polygon fill="black" stroke="black" points="228,-48.5 238,-45 228,-41.5 228,-48.5"/>
</g>
<!-- 2 -->
<g id="7" class="node">
<title>2</title>
<ellipse fill="none" stroke="black" cx="602.87" cy="-45" rx="102.41" ry="18"/>
<text text-anchor="middle" x="602.87" y="-40.8" font-family="Times,serif" font-size="14.00">EduSharedUriResource</text>
</g>
<!-- 1&#45;&gt;2 -->
<g id="edge2" class="edge">
<title>1&#45;&gt;2</title>
<path fill="none" stroke="black" d="M464.77,-45C473.22,-45 481.76,-45 490.21,-45"/>
<polygon fill="black" stroke="black" points="490.47,-48.5 500.47,-45 490.47,-41.5 490.47,-48.5"/>
</g>
<!-- 3 -->
<g id="7" class="node">
<title>3</title>
<ellipse fill="none" stroke="black" cx="803.88" cy="-72" rx="62.6" ry="18"/>
<text text-anchor="middle" x="803.88" y="-67.8" font-family="Times,serif" font-size="14.00">Button Name</text>
</g>
<!-- 2&#45;&gt;3 -->
<g id="edge3" class="edge">
<title>2&#45;&gt;3</title>
<path fill="none" stroke="black" d="M684.24,-55.9C701.57,-58.26 719.71,-60.72 736.44,-62.99"/>
<polygon fill="black" stroke="black" points="736.27,-66.5 746.65,-64.37 737.21,-59.56 736.27,-66.5"/>
</g>
<!-- 5 -->
<g id="7" class="node">
<title>5</title>
<ellipse fill="none" stroke="black" cx="803.88" cy="-18" rx="44.62" ry="18"/>
<text text-anchor="middle" x="803.88" y="-13.8" font-family="Times,serif" font-size="14.00">Link Uri</text>
</g>
<!-- 2&#45;&gt;5 -->
<g id="edge4" class="edge">
<title>2&#45;&gt;5</title>
<path fill="none" stroke="black" d="M684.24,-34.1C706.85,-31.03 730.83,-27.78 751.27,-25"/>
<polygon fill="black" stroke="black" points="751.86,-28.45 761.3,-23.64 750.92,-21.52 751.86,-28.45"/>
</g>
<!-- 4 -->
<g id="7" class="node">
<title>4</title>
<ellipse fill="none" stroke="black" cx="935.71" cy="-72" rx="33.06" ry="18"/>
<text text-anchor="middle" x="935.71" y="-67.8" font-family="Times,serif" font-size="14.00">string</text>
</g>
<!-- 3&#45;&gt;4 -->
<g id="edge5" class="edge">
<title>3&#45;&gt;4</title>
<path fill="none" stroke="black" d="M866.75,-72C875.48,-72 884.27,-72 892.51,-72"/>
<polygon fill="black" stroke="black" points="892.6,-75.5 902.6,-72 892.6,-68.5 892.6,-75.5"/>
</g>
<!-- 6 -->
<g id="7" class="node">
<title>6</title>
<ellipse fill="none" stroke="black" cx="935.71" cy="-18" rx="33.06" ry="18"/>
<text text-anchor="middle" x="935.71" y="-13.8" font-family="Times,serif" font-size="14.00">string</text>
</g>
<!-- 5&#45;&gt;6 -->
<g id="edge6" class="edge">
<title>5&#45;&gt;6</title>
<path fill="none" stroke="black" d="M848.47,-18C862.56,-18 878.15,-18 892.17,-18"/>
<polygon fill="black" stroke="black" points="892.52,-21.5 902.52,-18 892.52,-14.5 892.52,-21.5"/>
</g>
</g>
</svg>
