<svg width="1105px" height="206px"
 viewBox="0.00 0.00 1104.59 206.00" xmlns="http://www.w3.org/2000/svg" xmlns:xlink="http://www.w3.org/1999/xlink">
<g id="graph0" class="graph" transform="scale(1.0 1.0) rotate(0.0) translate(4.0 202.0)">
<title>EmoteListPacket</title>
<polygon fill="white" stroke="transparent" points="-4,4 -4,-202 1100.59,-202 1100.59,4 -4,4"/>
<g id="0" class="node">
<title></title>
<ellipse fill="none" stroke="black" cx="77.01" cy="-153" rx="77.02" ry="18"/>
<text text-anchor="middle" x="77.01" y="-148.8" font-family="Times,serif" font-size="14.00">EmoteListPacket</text>
</g>
<!-- 1 -->
<g id="14" class="node">
<title>1</title>
<ellipse fill="none" stroke="black" cx="262.74" cy="-180" rx="54.45" ry="18"/>
<text text-anchor="middle" x="262.74" y="-175.8" font-family="Times,serif" font-size="14.00">Runtime id</text>
</g>
<!-- &#45;&gt;1 -->
<g id="edge1" class="edge">
<title>&#45;&gt;1</title>
<path fill="none" stroke="black" d="M142.53,-162.48C162.07,-165.35 183.43,-168.49 202.61,-171.31"/>
<polygon fill="black" stroke="black" points="202.31,-174.8 212.71,-172.8 203.32,-167.88 202.31,-174.8"/>
</g>
<!-- 5 -->
<g id="14" class="node">
<title>5</title>
<ellipse fill="none" stroke="black" cx="262.74" cy="-126" rx="72.93" ry="18"/>
<text text-anchor="middle" x="262.74" y="-121.8" font-family="Times,serif" font-size="14.00">Emote piece ids</text>
</g>
<!-- &#45;&gt;5 -->
<g id="edge2" class="edge">
<title>&#45;&gt;5</title>
<path fill="none" stroke="black" d="M142.53,-143.52C157.79,-141.28 174.17,-138.87 189.74,-136.58"/>
<polygon fill="black" stroke="black" points="190.46,-140.01 199.84,-135.1 189.44,-133.09 190.46,-140.01"/>
</g>
<!-- 2 -->
<g id="14" class="node">
<title>2</title>
<ellipse fill="none" stroke="black" cx="448.18" cy="-180" rx="76.44" ry="18"/>
<text text-anchor="middle" x="448.18" y="-175.8" font-family="Times,serif" font-size="14.00">ActorRuntimeID</text>
</g>
<!-- 1&#45;&gt;2 -->
<g id="edge3" class="edge">
<title>1&#45;&gt;2</title>
<path fill="none" stroke="black" d="M317.29,-180C331.04,-180 346.18,-180 361.12,-180"/>
<polygon fill="black" stroke="black" points="361.41,-183.5 371.41,-180 361.41,-176.5 361.41,-183.5"/>
</g>
<!-- 3 -->
<g id="14" class="node">
<title>3</title>
<ellipse fill="none" stroke="black" cx="804.87" cy="-180" rx="81.1" ry="18"/>
<text text-anchor="middle" x="804.87" y="-175.8" font-family="Times,serif" font-size="14.00">Actor Runtime ID</text>
</g>
<!-- 2&#45;&gt;3 -->
<g id="edge4" class="edge">
<title>2&#45;&gt;3</title>
<path fill="none" stroke="black" d="M524.84,-180C579.92,-180 654.77,-180 713.08,-180"/>
<polygon fill="black" stroke="black" points="713.4,-183.5 723.4,-180 713.4,-176.5 713.4,-183.5"/>
</g>
<!-- 4 -->
<g id="14" class="node">
<title>4</title>
<ellipse fill="none" stroke="black" cx="1016.09" cy="-180" rx="80.5" ry="18"/>
<text text-anchor="middle" x="1016.09" y="-175.8" font-family="Times,serif" font-size="14.00">unsigned varint64</text>
</g>
<!-- 3&#45;&gt;4 -->
<g id="edge5" class="edge">
<title>3&#45;&gt;4</title>
<path fill="none" stroke="black" d="M886.46,-180C899.17,-180 912.39,-180 925.3,-180"/>
<polygon fill="black" stroke="black" points="925.57,-183.5 935.57,-180 925.57,-176.5 925.57,-183.5"/>
</g>
<!-- 6 -->
<g id="14" class="node">
<title>6</title>
<ellipse fill="none" stroke="black" cx="617.53" cy="-126" rx="45.2" ry="18"/>
<text text-anchor="middle" x="617.53" y="-121.8" font-family="Times,serif" font-size="14.00">List Size</text>
</g>
<!-- 5&#45;&gt;6 -->
<g id="edge6" class="edge">
<title>5&#45;&gt;6</title>
<path fill="none" stroke="black" d="M335.55,-126C402.69,-126 501.45,-126 562.24,-126"/>
<polygon fill="black" stroke="black" points="562.39,-129.5 572.39,-126 562.39,-122.5 562.39,-129.5"/>
</g>
<!-- 8 -->
<g id="14" class="node">
<title>8</title>
<ellipse fill="none" stroke="black" stroke-dasharray="1,5" cx="448.18" cy="-76" rx="76.96" ry="18"/>
<text text-anchor="middle" x="448.18" y="-71.8" font-family="Times,serif" font-size="14.00">example element</text>
</g>
<!-- 5&#45;&gt;8 -->
<g id="edge7" class="edge">
<title>5&#45;&gt;8</title>
<path fill="none" stroke="black" d="M312.41,-112.73C335.46,-106.45 363.19,-98.89 387.49,-92.27"/>
<polygon fill="black" stroke="black" points="388.59,-95.6 397.32,-89.59 386.75,-88.84 388.59,-95.6"/>
</g>
<!-- 7 -->
<g id="14" class="node">
<title>7</title>
<ellipse fill="none" stroke="black" cx="1016.09" cy="-126" rx="70.69" ry="18"/>
<text text-anchor="middle" x="1016.09" y="-121.8" font-family="Times,serif" font-size="14.00">unsigned varint</text>
</g>
<!-- 6&#45;&gt;7 -->
<g id="edge8" class="edge">
<title>6&#45;&gt;7</title>
<path fill="none" stroke="black" d="M662.87,-126C728.64,-126 853.09,-126 935.06,-126"/>
<polygon fill="black" stroke="black" points="935.09,-129.5 945.09,-126 935.09,-122.5 935.09,-129.5"/>
</g>
<!-- 9 -->
<g id="14" class="node">
<title>9</title>
<ellipse fill="none" stroke="black" cx="617.53" cy="-72" rx="56.74" ry="18"/>
<text text-anchor="middle" x="617.53" y="-67.8" font-family="Times,serif" font-size="14.00">mce::UUID</text>
</g>
<!-- 8&#45;&gt;9 -->
<g id="edge9" class="edge">
<title>8&#45;&gt;9</title>
<path fill="none" stroke="black" d="M524.53,-74.2C533.17,-73.99 541.92,-73.78 550.42,-73.58"/>
<polygon fill="black" stroke="black" points="550.73,-77.07 560.64,-73.34 550.56,-70.08 550.73,-77.07"/>
</g>
<!-- 10 -->
<g id="14" class="node">
<title>10</title>
<ellipse fill="none" stroke="black" cx="804.87" cy="-72" rx="93.81" ry="18"/>
<text text-anchor="middle" x="804.87" y="-67.8" font-family="Times,serif" font-size="14.00">Most Significant Bits</text>
</g>
<!-- 9&#45;&gt;10 -->
<g id="edge10" class="edge">
<title>9&#45;&gt;10</title>
<path fill="none" stroke="black" d="M674.39,-72C682.83,-72 691.76,-72 700.82,-72"/>
<polygon fill="black" stroke="black" points="701.09,-75.5 711.09,-72 701.09,-68.5 701.09,-75.5"/>
</g>
<!-- 12 -->
<g id="14" class="node">
<title>12</title>
<ellipse fill="none" stroke="black" cx="804.87" cy="-18" rx="94.93" ry="18"/>
<text text-anchor="middle" x="804.87" y="-13.8" font-family="Times,serif" font-size="14.00">Least Significant Bits</text>
</g>
<!-- 9&#45;&gt;12 -->
<g id="edge11" class="edge">
<title>9&#45;&gt;12</title>
<path fill="none" stroke="black" d="M659.56,-59.85C675.37,-55.19 693.59,-49.82 710.15,-45 720.48,-41.99 731.46,-38.81 742.12,-35.73"/>
<polygon fill="black" stroke="black" points="743.16,-39.07 751.8,-32.94 741.22,-32.35 743.16,-39.07"/>
</g>
<!-- 11 -->
<g id="14" class="node">
<title>11</title>
<ellipse fill="none" stroke="black" cx="1016.09" cy="-72" rx="35.94" ry="18"/>
<text text-anchor="middle" x="1016.09" y="-67.8" font-family="Times,serif" font-size="14.00">uint64</text>
</g>
<!-- 10&#45;&gt;11 -->
<g id="edge12" class="edge">
<title>10&#45;&gt;11</title>
<path fill="none" stroke="black" d="M898.55,-72C923.42,-72 949.2,-72 970.17,-72"/>
<polygon fill="black" stroke="black" points="970.36,-75.5 980.36,-72 970.36,-68.5 970.36,-75.5"/>
</g>
<!-- 13 -->
<g id="14" class="node">
<title>13</title>
<ellipse fill="none" stroke="black" cx="1016.09" cy="-18" rx="35.94" ry="18"/>
<text text-anchor="middle" x="1016.09" y="-13.8" font-family="Times,serif" font-size="14.00">uint64</text>
</g>
<!-- 12&#45;&gt;13 -->
<g id="edge13" class="edge">
<title>12&#45;&gt;13</title>
<path fill="none" stroke="black" d="M899.77,-18C924.3,-18 949.63,-18 970.28,-18"/>
<polygon fill="black" stroke="black" points="970.31,-21.5 980.31,-18 970.31,-14.5 970.31,-21.5"/>
</g>
</g>
</svg>
