<svg width="518px" height="152px"
 viewBox="0.00 0.00 518.46 152.00" xmlns="http://www.w3.org/2000/svg" xmlns:xlink="http://www.w3.org/1999/xlink">
<g id="graph0" class="graph" transform="scale(1.0 1.0) rotate(0.0) translate(4.0 148.0)">
<title>HurtArmorPacket</title>
<polygon fill="white" stroke="transparent" points="-4,4 -4,-148 514.46,-148 514.46,4 -4,4"/>
<g id="0" class="node">
<title></title>
<ellipse fill="none" stroke="black" cx="80.22" cy="-72" rx="80.43" ry="18"/>
<text text-anchor="middle" x="80.22" y="-67.8" font-family="Times,serif" font-size="14.00">HurtArmorPacket</text>
</g>
<!-- 1 -->
<g id="7" class="node">
<title>1</title>
<ellipse fill="none" stroke="black" cx="254.95" cy="-126" rx="34.77" ry="18"/>
<text text-anchor="middle" x="254.95" y="-121.8" font-family="Times,serif" font-size="14.00">Cause</text>
</g>
<!-- &#45;&gt;1 -->
<g id="edge1" class="edge">
<title>&#45;&gt;1</title>
<path fill="none" stroke="black" d="M127.96,-86.61C155.21,-95.13 189.19,-105.76 214.99,-113.82"/>
<polygon fill="black" stroke="black" points="214.21,-117.24 224.8,-116.89 216.3,-110.56 214.21,-117.24"/>
</g>
<!-- 3 -->
<g id="7" class="node">
<title>3</title>
<ellipse fill="none" stroke="black" cx="254.95" cy="-72" rx="43.42" ry="18"/>
<text text-anchor="middle" x="254.95" y="-67.8" font-family="Times,serif" font-size="14.00">Damage</text>
</g>
<!-- &#45;&gt;3 -->
<g id="edge2" class="edge">
<title>&#45;&gt;3</title>
<path fill="none" stroke="black" d="M160.5,-72C174.36,-72 188.46,-72 201.37,-72"/>
<polygon fill="black" stroke="black" points="201.43,-75.5 211.43,-72 201.43,-68.5 201.43,-75.5"/>
</g>
<!-- 5 -->
<g id="7" class="node">
<title>5</title>
<ellipse fill="none" stroke="black" cx="254.95" cy="-18" rx="58.52" ry="18"/>
<text text-anchor="middle" x="254.95" y="-13.8" font-family="Times,serif" font-size="14.00">Armor Slots</text>
</g>
<!-- &#45;&gt;5 -->
<g id="edge3" class="edge">
<title>&#45;&gt;5</title>
<path fill="none" stroke="black" d="M127.96,-57.39C151.41,-50.06 179.83,-41.17 203.73,-33.7"/>
<polygon fill="black" stroke="black" points="204.84,-37.02 213.34,-30.7 202.75,-30.34 204.84,-37.02"/>
</g>
<!-- 2 -->
<g id="7" class="node">
<title>2</title>
<ellipse fill="none" stroke="black" cx="429.96" cy="-126" rx="33.62" ry="18"/>
<text text-anchor="middle" x="429.96" y="-121.8" font-family="Times,serif" font-size="14.00">varint</text>
</g>
<!-- 1&#45;&gt;2 -->
<g id="edge4" class="edge">
<title>1&#45;&gt;2</title>
<path fill="none" stroke="black" d="M289.72,-126C317.25,-126 356.31,-126 386.06,-126"/>
<polygon fill="black" stroke="black" points="386.16,-129.5 396.16,-126 386.16,-122.5 386.16,-129.5"/>
</g>
<!-- 4 -->
<g id="7" class="node">
<title>4</title>
<ellipse fill="none" stroke="black" cx="429.96" cy="-72" rx="33.62" ry="18"/>
<text text-anchor="middle" x="429.96" y="-67.8" font-family="Times,serif" font-size="14.00">varint</text>
</g>
<!-- 3&#45;&gt;4 -->
<g id="edge5" class="edge">
<title>3&#45;&gt;4</title>
<path fill="none" stroke="black" d="M298.27,-72C324.94,-72 359.27,-72 386.05,-72"/>
<polygon fill="black" stroke="black" points="386.29,-75.5 396.29,-72 386.29,-68.5 386.29,-75.5"/>
</g>
<!-- 6 -->
<g id="7" class="node">
<title>6</title>
<ellipse fill="none" stroke="black" cx="429.96" cy="-18" rx="80.5" ry="18"/>
<text text-anchor="middle" x="429.96" y="-13.8" font-family="Times,serif" font-size="14.00">unsigned varint64</text>
</g>
<!-- 5&#45;&gt;6 -->
<g id="edge6" class="edge">
<title>5&#45;&gt;6</title>
<path fill="none" stroke="black" d="M313.56,-18C321.82,-18 330.49,-18 339.2,-18"/>
<polygon fill="black" stroke="black" points="339.42,-21.5 349.42,-18 339.42,-14.5 339.42,-21.5"/>
</g>
</g>
</svg>
