<svg width="819px" height="260px"
 viewBox="0.00 0.00 819.34 260.00" xmlns="http://www.w3.org/2000/svg" xmlns:xlink="http://www.w3.org/1999/xlink">
<g id="graph0" class="graph" transform="scale(1.0 1.0) rotate(0.0) translate(4.0 256.0)">
<title>LabTablePacket</title>
<polygon fill="white" stroke="transparent" points="-4,4 -4,-256 815.34,-256 815.34,4 -4,4"/>
<g id="0" class="node">
<title></title>
<ellipse fill="none" stroke="black" cx="73.78" cy="-126" rx="73.55" ry="18"/>
<text text-anchor="middle" x="73.78" y="-121.8" font-family="Times,serif" font-size="14.00">LabTablePacket</text>
</g>
<!-- 1 -->
<g id="15" class="node">
<title>1</title>
<ellipse fill="none" stroke="black" cx="228.91" cy="-194" rx="30.76" ry="18"/>
<text text-anchor="middle" x="228.91" y="-189.8" font-family="Times,serif" font-size="14.00">Type</text>
</g>
<!-- &#45;&gt;1 -->
<g id="edge1" class="edge">
<title>&#45;&gt;1</title>
<path fill="none" stroke="black" d="M110.29,-141.77C135.57,-152.99 169.31,-167.98 194.17,-179.02"/>
<polygon fill="black" stroke="black" points="193,-182.33 203.56,-183.19 195.85,-175.93 193,-182.33"/>
</g>
<!-- 4 -->
<g id="15" class="node">
<title>4</title>
<ellipse fill="none" stroke="black" cx="228.91" cy="-126" rx="42.89" ry="18"/>
<text text-anchor="middle" x="228.91" y="-121.8" font-family="Times,serif" font-size="14.00">Position</text>
</g>
<!-- &#45;&gt;4 -->
<g id="edge2" class="edge">
<title>&#45;&gt;4</title>
<path fill="none" stroke="black" d="M147.76,-126C157.17,-126 166.66,-126 175.64,-126"/>
<polygon fill="black" stroke="black" points="175.93,-129.5 185.93,-126 175.93,-122.5 175.93,-129.5"/>
</g>
<!-- 12 -->
<g id="15" class="node">
<title>12</title>
<ellipse fill="none" stroke="black" cx="228.91" cy="-59" rx="45.22" ry="18"/>
<text text-anchor="middle" x="228.91" y="-54.8" font-family="Times,serif" font-size="14.00">Reaction</text>
</g>
<!-- &#45;&gt;12 -->
<g id="edge3" class="edge">
<title>&#45;&gt;12</title>
<path fill="none" stroke="black" d="M110.68,-110.29C134.02,-100.08 164.45,-86.77 188.46,-76.26"/>
<polygon fill="black" stroke="black" points="189.89,-79.46 197.65,-72.24 187.09,-73.04 189.89,-79.46"/>
</g>
<!-- 2 -->
<g id="15" class="node">
<title>2</title>
<ellipse fill="none" stroke="black" cx="464.24" cy="-207" rx="153.94" ry="18"/>
<text text-anchor="middle" x="464.24" y="-202.8" font-family="Times,serif" font-size="14.00">enum LabTablePacketPayload::Type</text>
</g>
<!-- 1&#45;&gt;2 -->
<g id="edge4" class="edge">
<title>1&#45;&gt;2</title>
<path fill="none" stroke="black" d="M259.94,-195.67C274.85,-196.5 294.1,-197.58 314.78,-198.73"/>
<polygon fill="black" stroke="black" points="314.86,-202.24 325.04,-199.3 315.25,-195.25 314.86,-202.24"/>
</g>
<!-- 3 -->
<g id="15" class="node">
<title>3</title>
<ellipse fill="none" stroke="black" cx="777.77" cy="-234" rx="30.78" ry="18"/>
<text text-anchor="middle" x="777.77" y="-229.8" font-family="Times,serif" font-size="14.00">uint8</text>
</g>
<!-- 2&#45;&gt;3 -->
<g id="edge5" class="edge">
<title>2&#45;&gt;3</title>
<path fill="none" stroke="black" d="M588.37,-217.67C641.38,-222.27 699.67,-227.32 737.17,-230.57"/>
<polygon fill="black" stroke="black" points="736.91,-234.06 747.17,-231.43 737.51,-227.08 736.91,-234.06"/>
</g>
<!-- 5 -->
<g id="15" class="node">
<title>5</title>
<ellipse fill="none" stroke="black" cx="464.24" cy="-126" rx="48.11" ry="18"/>
<text text-anchor="middle" x="464.24" y="-121.8" font-family="Times,serif" font-size="14.00">BlockPos</text>
</g>
<!-- 4&#45;&gt;5 -->
<g id="edge6" class="edge">
<title>4&#45;&gt;5</title>
<path fill="none" stroke="black" d="M271.63,-126C308.97,-126 364.07,-126 405.62,-126"/>
<polygon fill="black" stroke="black" points="405.87,-129.5 415.87,-126 405.87,-122.5 405.87,-129.5"/>
</g>
<!-- 6 -->
<g id="15" class="node">
<title>6</title>
<ellipse fill="none" stroke="black" cx="681.21" cy="-180" rx="27" ry="18"/>
<text text-anchor="middle" x="681.21" y="-175.8" font-family="Times,serif" font-size="14.00">X</text>
</g>
<!-- 5&#45;&gt;6 -->
<g id="edge7" class="edge">
<title>5&#45;&gt;6</title>
<path fill="none" stroke="black" d="M504.67,-135.9C545.17,-146.08 607.58,-161.75 646.04,-171.42"/>
<polygon fill="black" stroke="black" points="645.2,-174.81 655.75,-173.85 646.9,-168.02 645.2,-174.81"/>
</g>
<!-- 8 -->
<g id="15" class="node">
<title>8</title>
<ellipse fill="none" stroke="black" cx="681.21" cy="-126" rx="27" ry="18"/>
<text text-anchor="middle" x="681.21" y="-121.8" font-family="Times,serif" font-size="14.00">Y</text>
</g>
<!-- 5&#45;&gt;8 -->
<g id="edge8" class="edge">
<title>5&#45;&gt;8</title>
<path fill="none" stroke="black" d="M512.42,-126C552.02,-126 607.76,-126 643.93,-126"/>
<polygon fill="black" stroke="black" points="644.04,-129.5 654.04,-126 644.04,-122.5 644.04,-129.5"/>
</g>
<!-- 10 -->
<g id="15" class="node">
<title>10</title>
<ellipse fill="none" stroke="black" cx="681.21" cy="-72" rx="27" ry="18"/>
<text text-anchor="middle" x="681.21" y="-67.8" font-family="Times,serif" font-size="14.00">Z</text>
</g>
<!-- 5&#45;&gt;10 -->
<g id="edge9" class="edge">
<title>5&#45;&gt;10</title>
<path fill="none" stroke="black" d="M504.67,-116.1C545.17,-105.92 607.58,-90.25 646.04,-80.58"/>
<polygon fill="black" stroke="black" points="646.9,-83.98 655.75,-78.15 645.2,-77.19 646.9,-83.98"/>
</g>
<!-- 7 -->
<g id="15" class="node">
<title>7</title>
<ellipse fill="none" stroke="black" cx="777.77" cy="-180" rx="33.62" ry="18"/>
<text text-anchor="middle" x="777.77" y="-175.8" font-family="Times,serif" font-size="14.00">varint</text>
</g>
<!-- 6&#45;&gt;7 -->
<g id="edge10" class="edge">
<title>6&#45;&gt;7</title>
<path fill="none" stroke="black" d="M708.3,-180C716.24,-180 725.18,-180 733.92,-180"/>
<polygon fill="black" stroke="black" points="734.01,-183.5 744.01,-180 734.01,-176.5 734.01,-183.5"/>
</g>
<!-- 9 -->
<g id="15" class="node">
<title>9</title>
<ellipse fill="none" stroke="black" cx="777.77" cy="-126" rx="33.62" ry="18"/>
<text text-anchor="middle" x="777.77" y="-121.8" font-family="Times,serif" font-size="14.00">varint</text>
</g>
<!-- 8&#45;&gt;9 -->
<g id="edge11" class="edge">
<title>8&#45;&gt;9</title>
<path fill="none" stroke="black" d="M708.3,-126C716.24,-126 725.18,-126 733.92,-126"/>
<polygon fill="black" stroke="black" points="734.01,-129.5 744.01,-126 734.01,-122.5 734.01,-129.5"/>
</g>
<!-- 11 -->
<g id="15" class="node">
<title>11</title>
<ellipse fill="none" stroke="black" cx="777.77" cy="-72" rx="33.62" ry="18"/>
<text text-anchor="middle" x="777.77" y="-67.8" font-family="Times,serif" font-size="14.00">varint</text>
</g>
<!-- 10&#45;&gt;11 -->
<g id="edge12" class="edge">
<title>10&#45;&gt;11</title>
<path fill="none" stroke="black" d="M708.3,-72C716.24,-72 725.18,-72 733.92,-72"/>
<polygon fill="black" stroke="black" points="734.01,-75.5 744.01,-72 734.01,-68.5 734.01,-75.5"/>
</g>
<!-- 13 -->
<g id="15" class="node">
<title>13</title>
<ellipse fill="none" stroke="black" cx="464.24" cy="-32" rx="126.15" ry="18"/>
<text text-anchor="middle" x="464.24" y="-27.8" font-family="Times,serif" font-size="14.00">enum LabTableReactionType</text>
</g>
<!-- 12&#45;&gt;13 -->
<g id="edge13" class="edge">
<title>12&#45;&gt;13</title>
<path fill="none" stroke="black" d="M272.71,-54.05C296.01,-51.35 325.99,-47.88 355.24,-44.5"/>
<polygon fill="black" stroke="black" points="356.02,-47.93 365.55,-43.3 355.21,-40.98 356.02,-47.93"/>
</g>
<!-- 14 -->
<g id="15" class="node">
<title>14</title>
<ellipse fill="none" stroke="black" cx="777.77" cy="-18" rx="30.78" ry="18"/>
<text text-anchor="middle" x="777.77" y="-13.8" font-family="Times,serif" font-size="14.00">uint8</text>
</g>
<!-- 13&#45;&gt;14 -->
<g id="edge14" class="edge">
<title>13&#45;&gt;14</title>
<path fill="none" stroke="black" d="M584.8,-26.63C638.44,-24.22 698.14,-21.53 736.51,-19.81"/>
<polygon fill="black" stroke="black" points="736.91,-23.3 746.74,-19.35 736.6,-16.3 736.91,-23.3"/>
</g>
</g>
</svg>
