<svg width="476px" height="152px"
 viewBox="0.00 0.00 476.07 152.00" xmlns="http://www.w3.org/2000/svg" xmlns:xlink="http://www.w3.org/1999/xlink">
<g id="graph0" class="graph" transform="scale(1.0 1.0) rotate(0.0) translate(4.0 148.0)">
<title>LessonProgressPacket</title>
<polygon fill="white" stroke="transparent" points="-4,4 -4,-148 472.07,-148 472.07,4 -4,4"/>
<g id="0" class="node">
<title></title>
<ellipse fill="none" stroke="black" cx="97.38" cy="-72" rx="97.27" ry="18"/>
<text text-anchor="middle" x="97.38" y="-67.8" font-family="Times,serif" font-size="14.00">LessonProgressPacket</text>
</g>
<!-- 1 -->
<g id="7" class="node">
<title>1</title>
<ellipse fill="none" stroke="black" cx="297.86" cy="-126" rx="67.17" ry="18"/>
<text text-anchor="middle" x="297.86" y="-121.8" font-family="Times,serif" font-size="14.00">Lesson Action</text>
</g>
<!-- &#45;&gt;1 -->
<g id="edge1" class="edge">
<title>&#45;&gt;1</title>
<path fill="none" stroke="black" d="M152.88,-86.83C180.07,-94.22 212.92,-103.16 240.37,-110.63"/>
<polygon fill="black" stroke="black" points="239.66,-114.06 250.22,-113.31 241.49,-107.31 239.66,-114.06"/>
</g>
<!-- 3 -->
<g id="7" class="node">
<title>3</title>
<ellipse fill="none" stroke="black" cx="297.86" cy="-72" rx="33.04" ry="18"/>
<text text-anchor="middle" x="297.86" y="-67.8" font-family="Times,serif" font-size="14.00">Score</text>
</g>
<!-- &#45;&gt;3 -->
<g id="edge2" class="edge">
<title>&#45;&gt;3</title>
<path fill="none" stroke="black" d="M195,-72C215.74,-72 236.63,-72 254.04,-72"/>
<polygon fill="black" stroke="black" points="254.41,-75.5 264.41,-72 254.41,-68.5 254.41,-75.5"/>
</g>
<!-- 5 -->
<g id="7" class="node">
<title>5</title>
<ellipse fill="none" stroke="black" cx="297.86" cy="-18" rx="53.29" ry="18"/>
<text text-anchor="middle" x="297.86" y="-13.8" font-family="Times,serif" font-size="14.00">Activity Id</text>
</g>
<!-- &#45;&gt;5 -->
<g id="edge3" class="edge">
<title>&#45;&gt;5</title>
<path fill="none" stroke="black" d="M152.88,-57.17C182.03,-49.24 217.7,-39.54 246.24,-31.77"/>
<polygon fill="black" stroke="black" points="247.29,-35.11 256.02,-29.11 245.45,-28.36 247.29,-35.11"/>
</g>
<!-- 2 -->
<g id="7" class="node">
<title>2</title>
<ellipse fill="none" stroke="black" cx="434.51" cy="-126" rx="33.62" ry="18"/>
<text text-anchor="middle" x="434.51" y="-121.8" font-family="Times,serif" font-size="14.00">varint</text>
</g>
<!-- 1&#45;&gt;2 -->
<g id="edge4" class="edge">
<title>1&#45;&gt;2</title>
<path fill="none" stroke="black" d="M365,-126C373.69,-126 382.42,-126 390.59,-126"/>
<polygon fill="black" stroke="black" points="390.6,-129.5 400.6,-126 390.6,-122.5 390.6,-129.5"/>
</g>
<!-- 4 -->
<g id="7" class="node">
<title>4</title>
<ellipse fill="none" stroke="black" cx="434.51" cy="-72" rx="33.62" ry="18"/>
<text text-anchor="middle" x="434.51" y="-67.8" font-family="Times,serif" font-size="14.00">varint</text>
</g>
<!-- 3&#45;&gt;4 -->
<g id="edge5" class="edge">
<title>3&#45;&gt;4</title>
<path fill="none" stroke="black" d="M331.11,-72C348.91,-72 371.26,-72 390.53,-72"/>
<polygon fill="black" stroke="black" points="390.58,-75.5 400.58,-72 390.58,-68.5 390.58,-75.5"/>
</g>
<!-- 6 -->
<g id="7" class="node">
<title>6</title>
<ellipse fill="none" stroke="black" cx="434.51" cy="-18" rx="33.06" ry="18"/>
<text text-anchor="middle" x="434.51" y="-13.8" font-family="Times,serif" font-size="14.00">string</text>
</g>
<!-- 5&#45;&gt;6 -->
<g id="edge6" class="edge">
<title>5&#45;&gt;6</title>
<path fill="none" stroke="black" d="M351.3,-18C364.45,-18 378.4,-18 391.01,-18"/>
<polygon fill="black" stroke="black" points="391.23,-21.5 401.23,-18 391.23,-14.5 391.23,-21.5"/>
</g>
</g>
</svg>
