<svg width="609px" height="260px"
 viewBox="0.00 0.00 609.14 260.00" xmlns="http://www.w3.org/2000/svg" xmlns:xlink="http://www.w3.org/1999/xlink">
<g id="graph0" class="graph" transform="scale(1.0 1.0) rotate(0.0) translate(4.0 256.0)">
<title>LevelEventPacket</title>
<polygon fill="white" stroke="transparent" points="-4,4 -4,-256 605.14,-256 605.14,4 -4,4"/>
<g id="0" class="node">
<title></title>
<ellipse fill="none" stroke="black" cx="81.29" cy="-126" rx="81.08" ry="18"/>
<text text-anchor="middle" x="81.29" y="-121.8" font-family="Times,serif" font-size="14.00">LevelEventPacket</text>
</g>
<!-- 1 -->
<g id="13" class="node">
<title>1</title>
<ellipse fill="none" stroke="black" cx="363.99" cy="-207" rx="44.04" ry="18"/>
<text text-anchor="middle" x="363.99" y="-202.8" font-family="Times,serif" font-size="14.00">Event Id</text>
</g>
<!-- &#45;&gt;1 -->
<g id="edge1" class="edge">
<title>&#45;&gt;1</title>
<path fill="none" stroke="black" d="M131.5,-140.2C184.13,-155.39 266.87,-179.26 317.87,-193.98"/>
<polygon fill="black" stroke="black" points="317.05,-197.38 327.62,-196.79 318.99,-190.66 317.05,-197.38"/>
</g>
<!-- 3 -->
<g id="13" class="node">
<title>3</title>
<ellipse fill="none" stroke="black" cx="241.27" cy="-126" rx="42.89" ry="18"/>
<text text-anchor="middle" x="241.27" y="-121.8" font-family="Times,serif" font-size="14.00">Position</text>
</g>
<!-- &#45;&gt;3 -->
<g id="edge2" class="edge">
<title>&#45;&gt;3</title>
<path fill="none" stroke="black" d="M162.67,-126C171.35,-126 180.01,-126 188.23,-126"/>
<polygon fill="black" stroke="black" points="188.37,-129.5 198.37,-126 188.37,-122.5 188.37,-129.5"/>
</g>
<!-- 11 -->
<g id="13" class="node">
<title>11</title>
<ellipse fill="none" stroke="black" cx="241.27" cy="-45" rx="29.03" ry="18"/>
<text text-anchor="middle" x="241.27" y="-40.8" font-family="Times,serif" font-size="14.00">Data</text>
</g>
<!-- &#45;&gt;11 -->
<g id="edge3" class="edge">
<title>&#45;&gt;11</title>
<path fill="none" stroke="black" d="M114.64,-109.41C142.26,-95.25 181.73,-75.02 209.02,-61.02"/>
<polygon fill="black" stroke="black" points="210.83,-64.03 218.13,-56.35 207.64,-57.8 210.83,-64.03"/>
</g>
<!-- 2 -->
<g id="13" class="node">
<title>2</title>
<ellipse fill="none" stroke="black" cx="567.58" cy="-234" rx="33.62" ry="18"/>
<text text-anchor="middle" x="567.58" y="-229.8" font-family="Times,serif" font-size="14.00">varint</text>
</g>
<!-- 1&#45;&gt;2 -->
<g id="edge4" class="edge">
<title>1&#45;&gt;2</title>
<path fill="none" stroke="black" d="M406.27,-212.53C440.82,-217.16 489.91,-223.73 524.65,-228.38"/>
<polygon fill="black" stroke="black" points="524.56,-231.9 534.93,-229.76 525.49,-224.97 524.56,-231.9"/>
</g>
<!-- 4 -->
<g id="13" class="node">
<title>4</title>
<ellipse fill="none" stroke="black" cx="363.99" cy="-126" rx="31.32" ry="18"/>
<text text-anchor="middle" x="363.99" y="-121.8" font-family="Times,serif" font-size="14.00">Vec3</text>
</g>
<!-- 3&#45;&gt;4 -->
<g id="edge5" class="edge">
<title>3&#45;&gt;4</title>
<path fill="none" stroke="black" d="M284.16,-126C296.38,-126 309.71,-126 321.88,-126"/>
<polygon fill="black" stroke="black" points="322.22,-129.5 332.22,-126 322.22,-122.5 322.22,-129.5"/>
</g>
<!-- 5 -->
<g id="13" class="node">
<title>5</title>
<ellipse fill="none" stroke="black" cx="471.01" cy="-180" rx="27" ry="18"/>
<text text-anchor="middle" x="471.01" y="-175.8" font-family="Times,serif" font-size="14.00">X</text>
</g>
<!-- 4&#45;&gt;5 -->
<g id="edge6" class="edge">
<title>4&#45;&gt;5</title>
<path fill="none" stroke="black" d="M388.04,-137.85C403.28,-145.69 423.42,-156.04 439.93,-164.53"/>
<polygon fill="black" stroke="black" points="438.66,-167.82 449.16,-169.28 441.86,-161.59 438.66,-167.82"/>
</g>
<!-- 7 -->
<g id="13" class="node">
<title>7</title>
<ellipse fill="none" stroke="black" cx="471.01" cy="-126" rx="27" ry="18"/>
<text text-anchor="middle" x="471.01" y="-121.8" font-family="Times,serif" font-size="14.00">Y</text>
</g>
<!-- 4&#45;&gt;7 -->
<g id="edge7" class="edge">
<title>4&#45;&gt;7</title>
<path fill="none" stroke="black" d="M395.65,-126C407.57,-126 421.32,-126 433.73,-126"/>
<polygon fill="black" stroke="black" points="433.76,-129.5 443.76,-126 433.76,-122.5 433.76,-129.5"/>
</g>
<!-- 9 -->
<g id="13" class="node">
<title>9</title>
<ellipse fill="none" stroke="black" cx="471.01" cy="-72" rx="27" ry="18"/>
<text text-anchor="middle" x="471.01" y="-67.8" font-family="Times,serif" font-size="14.00">Z</text>
</g>
<!-- 4&#45;&gt;9 -->
<g id="edge8" class="edge">
<title>4&#45;&gt;9</title>
<path fill="none" stroke="black" d="M388.04,-114.15C403.28,-106.31 423.42,-95.96 439.93,-87.47"/>
<polygon fill="black" stroke="black" points="441.86,-90.41 449.16,-82.72 438.66,-84.18 441.86,-90.41"/>
</g>
<!-- 6 -->
<g id="13" class="node">
<title>6</title>
<ellipse fill="none" stroke="black" cx="567.58" cy="-180" rx="28.97" ry="18"/>
<text text-anchor="middle" x="567.58" y="-175.8" font-family="Times,serif" font-size="14.00">float</text>
</g>
<!-- 5&#45;&gt;6 -->
<g id="edge9" class="edge">
<title>5&#45;&gt;6</title>
<path fill="none" stroke="black" d="M498.1,-180C507.43,-180 518.16,-180 528.3,-180"/>
<polygon fill="black" stroke="black" points="528.58,-183.5 538.58,-180 528.58,-176.5 528.58,-183.5"/>
</g>
<!-- 8 -->
<g id="13" class="node">
<title>8</title>
<ellipse fill="none" stroke="black" cx="567.58" cy="-126" rx="28.97" ry="18"/>
<text text-anchor="middle" x="567.58" y="-121.8" font-family="Times,serif" font-size="14.00">float</text>
</g>
<!-- 7&#45;&gt;8 -->
<g id="edge10" class="edge">
<title>7&#45;&gt;8</title>
<path fill="none" stroke="black" d="M498.1,-126C507.43,-126 518.16,-126 528.3,-126"/>
<polygon fill="black" stroke="black" points="528.58,-129.5 538.58,-126 528.58,-122.5 528.58,-129.5"/>
</g>
<!-- 10 -->
<g id="13" class="node">
<title>10</title>
<ellipse fill="none" stroke="black" cx="567.58" cy="-72" rx="28.97" ry="18"/>
<text text-anchor="middle" x="567.58" y="-67.8" font-family="Times,serif" font-size="14.00">float</text>
</g>
<!-- 9&#45;&gt;10 -->
<g id="edge11" class="edge">
<title>9&#45;&gt;10</title>
<path fill="none" stroke="black" d="M498.1,-72C507.43,-72 518.16,-72 528.3,-72"/>
<polygon fill="black" stroke="black" points="528.58,-75.5 538.58,-72 528.58,-68.5 528.58,-75.5"/>
</g>
<!-- 12 -->
<g id="13" class="node">
<title>12</title>
<ellipse fill="none" stroke="black" cx="567.58" cy="-18" rx="33.62" ry="18"/>
<text text-anchor="middle" x="567.58" y="-13.8" font-family="Times,serif" font-size="14.00">varint</text>
</g>
<!-- 11&#45;&gt;12 -->
<g id="edge12" class="edge">
<title>11&#45;&gt;12</title>
<path fill="none" stroke="black" d="M270.49,-42.65C327.39,-37.91 456.21,-27.19 523.63,-21.58"/>
<polygon fill="black" stroke="black" points="524.23,-25.04 533.9,-20.72 523.64,-18.06 524.23,-25.04"/>
</g>
</g>
</svg>
