<svg width="496px" height="98px"
 viewBox="0.00 0.00 495.86 98.00" xmlns="http://www.w3.org/2000/svg" xmlns:xlink="http://www.w3.org/1999/xlink">
<g id="graph0" class="graph" transform="scale(1.0 1.0) rotate(0.0) translate(4.0 94.0)">
<title>LevelEventGenericPacket</title>
<polygon fill="white" stroke="transparent" points="-4,4 -4,-94 491.86,-94 491.86,4 -4,4"/>
<g id="0" class="node">
<title></title>
<ellipse fill="none" stroke="black" cx="111.85" cy="-45" rx="111.69" ry="18"/>
<text text-anchor="middle" x="111.85" y="-40.8" font-family="Times,serif" font-size="14.00">LevelEventGenericPacket</text>
</g>
<!-- 1 -->
<g id="5" class="node">
<title>1</title>
<ellipse fill="none" stroke="black" cx="322.22" cy="-72" rx="44.04" ry="18"/>
<text text-anchor="middle" x="322.22" y="-67.8" font-family="Times,serif" font-size="14.00">Event Id</text>
</g>
<!-- &#45;&gt;1 -->
<g id="edge1" class="edge">
<title>&#45;&gt;1</title>
<path fill="none" stroke="black" d="M199.4,-56.22C223.43,-59.33 248.74,-62.61 270.02,-65.37"/>
<polygon fill="black" stroke="black" points="269.76,-68.86 280.13,-66.68 270.66,-61.92 269.76,-68.86"/>
</g>
<!-- 3 -->
<g id="5" class="node">
<title>3</title>
<ellipse fill="none" stroke="black" cx="322.22" cy="-18" rx="62.54" ry="18"/>
<text text-anchor="middle" x="322.22" y="-13.8" font-family="Times,serif" font-size="14.00">__[[CTD]]__</text>
</g>
<!-- &#45;&gt;3 -->
<g id="edge2" class="edge">
<title>&#45;&gt;3</title>
<path fill="none" stroke="black" d="M199.4,-33.78C217.91,-31.39 237.18,-28.89 254.79,-26.61"/>
<polygon fill="black" stroke="black" points="255.48,-30.05 264.95,-25.29 254.58,-23.11 255.48,-30.05"/>
</g>
<!-- 2 -->
<g id="5" class="node">
<title>2</title>
<ellipse fill="none" stroke="black" cx="454.3" cy="-72" rx="33.62" ry="18"/>
<text text-anchor="middle" x="454.3" y="-67.8" font-family="Times,serif" font-size="14.00">varint</text>
</g>
<!-- 1&#45;&gt;2 -->
<g id="edge3" class="edge">
<title>1&#45;&gt;2</title>
<path fill="none" stroke="black" d="M366.53,-72C380.55,-72 396.09,-72 410.1,-72"/>
<polygon fill="black" stroke="black" points="410.46,-75.5 420.46,-72 410.46,-68.5 410.46,-75.5"/>
</g>
<!-- 4 -->
<g id="5" class="node">
<title>4</title>
<ellipse fill="none" stroke="black" cx="454.3" cy="-18" rx="27" ry="18"/>
<text text-anchor="middle" x="454.3" y="-13.8" font-family="Times,serif" font-size="14.00">null</text>
</g>
<!-- 3&#45;&gt;4 -->
<g id="edge4" class="edge">
<title>3&#45;&gt;4</title>
<path fill="none" stroke="black" d="M384.83,-18C395.94,-18 407.19,-18 417.26,-18"/>
<polygon fill="black" stroke="black" points="417.29,-21.5 427.29,-18 417.29,-14.5 417.29,-21.5"/>
</g>
</g>
</svg>
