<svg width="2608px" height="854px"
 viewBox="0.00 0.00 2607.61 854.00" xmlns="http://www.w3.org/2000/svg" xmlns:xlink="http://www.w3.org/1999/xlink">
<g id="graph0" class="graph" transform="scale(1.0 1.0) rotate(0.0) translate(4.0 850.0)">
<title>LocatorBarPacket</title>
<polygon fill="white" stroke="transparent" points="-4,4 -4,-850 2603.61,-850 2603.61,4 -4,4"/>
<g id="0" class="node">
<title></title>
<ellipse fill="none" stroke="black" cx="80.75" cy="-619" rx="80.99" ry="18"/>
<text text-anchor="middle" x="80.75" y="-614.8" font-family="Times,serif" font-size="14.00">LocatorBarPacket</text>
</g>
<!-- 1 -->
<g id="55" class="node">
<title>1</title>
<ellipse fill="none" stroke="black" cx="250.37" cy="-619" rx="52.75" ry="18"/>
<text text-anchor="middle" x="250.37" y="-614.8" font-family="Times,serif" font-size="14.00">Waypoints</text>
</g>
<!-- &#45;&gt;1 -->
<g id="edge1" class="edge">
<title>&#45;&gt;1</title>
<path fill="none" stroke="black" d="M161.63,-619C170.26,-619 178.95,-619 187.33,-619"/>
<polygon fill="black" stroke="black" points="187.37,-622.5 197.37,-619 187.37,-615.5 187.37,-622.5"/>
</g>
<!-- 2 -->
<g id="55" class="node">
<title>2</title>
<ellipse fill="none" stroke="black" cx="652.91" cy="-767" rx="45.2" ry="18"/>
<text text-anchor="middle" x="652.91" y="-762.8" font-family="Times,serif" font-size="14.00">List Size</text>
</g>
<!-- 1&#45;&gt;2 -->
<g id="edge2" class="edge">
<title>1&#45;&gt;2</title>
<path fill="none" stroke="black" d="M286.91,-632.13C360.72,-659.41 530.31,-722.07 609.6,-751.37"/>
<polygon fill="black" stroke="black" points="608.67,-754.75 619.26,-754.94 611.1,-748.19 608.67,-754.75"/>
</g>
<!-- 4 -->
<g id="55" class="node">
<title>4</title>
<ellipse fill="none" stroke="black" stroke-dasharray="1,5" cx="415.98" cy="-596" rx="76.96" ry="18"/>
<text text-anchor="middle" x="415.98" y="-591.8" font-family="Times,serif" font-size="14.00">example element</text>
</g>
<!-- 1&#45;&gt;4 -->
<g id="edge3" class="edge">
<title>1&#45;&gt;4</title>
<path fill="none" stroke="black" d="M299.57,-612.22C312.24,-610.44 326.21,-608.48 339.92,-606.55"/>
<polygon fill="black" stroke="black" points="340.42,-610.02 349.84,-605.16 339.45,-603.08 340.42,-610.02"/>
</g>
<!-- 3 -->
<g id="55" class="node">
<title>3</title>
<ellipse fill="none" stroke="black" cx="2512.23" cy="-828" rx="70.69" ry="18"/>
<text text-anchor="middle" x="2512.23" y="-823.8" font-family="Times,serif" font-size="14.00">unsigned varint</text>
</g>
<!-- 2&#45;&gt;3 -->
<g id="edge4" class="edge">
<title>2&#45;&gt;3</title>
<path fill="none" stroke="black" d="M694.12,-774.42C785.86,-790.68 1017.79,-828 1213.48,-828 1213.48,-828 1213.48,-828 2087.95,-828 2207.47,-828 2345.96,-828 2431.09,-828"/>
<polygon fill="black" stroke="black" points="2431.2,-831.5 2441.2,-828 2431.2,-824.5 2431.2,-831.5"/>
</g>
<!-- 5 -->
<g id="55" class="node">
<title>5</title>
<ellipse fill="none" stroke="black" cx="652.91" cy="-592" rx="124.4" ry="18"/>
<text text-anchor="middle" x="652.91" y="-587.8" font-family="Times,serif" font-size="14.00">LocatorBarWaypointPayload</text>
</g>
<!-- 4&#45;&gt;5 -->
<g id="edge5" class="edge">
<title>4&#45;&gt;5</title>
<path fill="none" stroke="black" d="M492.6,-594.71C501.18,-594.57 510.1,-594.41 519.14,-594.26"/>
<polygon fill="black" stroke="black" points="519.45,-597.76 529.39,-594.09 519.33,-590.76 519.45,-597.76"/>
</g>
<!-- 6 -->
<g id="55" class="node">
<title>6</title>
<ellipse fill="none" stroke="black" cx="918.54" cy="-600" rx="63.69" ry="18"/>
<text text-anchor="middle" x="918.54" y="-595.8" font-family="Times,serif" font-size="14.00">GroupHandle</text>
</g>
<!-- 5&#45;&gt;6 -->
<g id="edge6" class="edge">
<title>5&#45;&gt;6</title>
<path fill="none" stroke="black" d="M774.54,-595.66C798.65,-596.39 823.26,-597.14 845.12,-597.8"/>
<polygon fill="black" stroke="black" points="845.18,-601.31 855.29,-598.11 845.4,-594.31 845.18,-601.31"/>
</g>
<!-- 14 -->
<g id="55" class="node">
<title>14</title>
<ellipse fill="none" stroke="black" cx="918.54" cy="-403" rx="105.36" ry="18"/>
<text text-anchor="middle" x="918.54" y="-398.8" font-family="Times,serif" font-size="14.00">ServerWaypointPayload</text>
</g>
<!-- 5&#45;&gt;14 -->
<g id="edge7" class="edge">
<title>5&#45;&gt;14</title>
<path fill="none" stroke="black" d="M678.71,-574.22C726.43,-540.01 831.02,-465.03 884.55,-426.65"/>
<polygon fill="black" stroke="black" points="886.91,-429.27 893,-420.6 882.83,-423.58 886.91,-429.27"/>
</g>
<!-- 52 -->
<g id="55" class="node">
<title>52</title>
<ellipse fill="none" stroke="black" cx="918.54" cy="-282" rx="54.47" ry="18"/>
<text text-anchor="middle" x="918.54" y="-277.8" font-family="Times,serif" font-size="14.00">ActionFlag</text>
</g>
<!-- 5&#45;&gt;52 -->
<g id="edge8" class="edge">
<title>5&#45;&gt;52</title>
<path fill="none" stroke="black" d="M665.37,-573.99C690.11,-535.71 751.31,-444.16 813.11,-376 836.79,-349.88 867.02,-323.29 888.86,-305.09"/>
<polygon fill="black" stroke="black" points="891.3,-307.61 896.78,-298.54 886.84,-302.21 891.3,-307.61"/>
</g>
<!-- 7 -->
<g id="55" class="node">
<title>7</title>
<ellipse fill="none" stroke="black" cx="1214.48" cy="-664" rx="145.25" ry="18"/>
<text text-anchor="middle" x="1214.48" y="-659.8" font-family="Times,serif" font-size="14.00">WaypointGroup::WaypointHandle</text>
</g>
<!-- 6&#45;&gt;7 -->
<g id="edge9" class="edge">
<title>6&#45;&gt;7</title>
<path fill="none" stroke="black" d="M969.4,-610.86C1013.87,-620.54 1079.81,-634.9 1131.95,-646.25"/>
<polygon fill="black" stroke="black" points="1131.33,-649.7 1141.85,-648.4 1132.82,-642.86 1131.33,-649.7"/>
</g>
<!-- 8 -->
<g id="55" class="node">
<title>8</title>
<ellipse fill="none" stroke="black" cx="1476.63" cy="-680" rx="35.33" ry="18"/>
<text text-anchor="middle" x="1476.63" y="-675.8" font-family="Times,serif" font-size="14.00">UUID</text>
</g>
<!-- 7&#45;&gt;8 -->
<g id="edge10" class="edge">
<title>7&#45;&gt;8</title>
<path fill="none" stroke="black" d="M1344.79,-671.95C1376,-673.87 1407.28,-675.8 1431.42,-677.28"/>
<polygon fill="black" stroke="black" points="1431.45,-680.79 1441.64,-677.91 1431.88,-673.8 1431.45,-680.79"/>
</g>
<!-- 9 -->
<g id="55" class="node">
<title>9</title>
<ellipse fill="none" stroke="black" cx="2086.95" cy="-720" rx="56.74" ry="18"/>
<text text-anchor="middle" x="2086.95" y="-715.8" font-family="Times,serif" font-size="14.00">mce::UUID</text>
</g>
<!-- 8&#45;&gt;9 -->
<g id="edge11" class="edge">
<title>8&#45;&gt;9</title>
<path fill="none" stroke="black" d="M1511.64,-682.24C1609.45,-688.67 1892.69,-707.29 2021.19,-715.74"/>
<polygon fill="black" stroke="black" points="2021.07,-719.24 2031.28,-716.41 2021.53,-712.26 2021.07,-719.24"/>
</g>
<!-- 10 -->
<g id="55" class="node">
<title>10</title>
<ellipse fill="none" stroke="black" cx="2294.13" cy="-774" rx="93.81" ry="18"/>
<text text-anchor="middle" x="2294.13" y="-769.8" font-family="Times,serif" font-size="14.00">Most Significant Bits</text>
</g>
<!-- 9&#45;&gt;10 -->
<g id="edge12" class="edge">
<title>9&#45;&gt;10</title>
<path fill="none" stroke="black" d="M2131.46,-731.45C2159.48,-738.83 2196.43,-748.55 2227.93,-756.84"/>
<polygon fill="black" stroke="black" points="2227.38,-760.32 2237.94,-759.48 2229.16,-753.55 2227.38,-760.32"/>
</g>
<!-- 12 -->
<g id="55" class="node">
<title>12</title>
<ellipse fill="none" stroke="black" cx="2294.13" cy="-720" rx="94.93" ry="18"/>
<text text-anchor="middle" x="2294.13" y="-715.8" font-family="Times,serif" font-size="14.00">Least Significant Bits</text>
</g>
<!-- 9&#45;&gt;12 -->
<g id="edge13" class="edge">
<title>9&#45;&gt;12</title>
<path fill="none" stroke="black" d="M2143.74,-720C2157.76,-720 2173.26,-720 2188.82,-720"/>
<polygon fill="black" stroke="black" points="2189.03,-723.5 2199.03,-720 2189.03,-716.5 2189.03,-723.5"/>
</g>
<!-- 11 -->
<g id="55" class="node">
<title>11</title>
<ellipse fill="none" stroke="black" cx="2512.23" cy="-774" rx="35.94" ry="18"/>
<text text-anchor="middle" x="2512.23" y="-769.8" font-family="Times,serif" font-size="14.00">uint64</text>
</g>
<!-- 10&#45;&gt;11 -->
<g id="edge14" class="edge">
<title>10&#45;&gt;11</title>
<path fill="none" stroke="black" d="M2388.03,-774C2415.21,-774 2443.7,-774 2466.42,-774"/>
<polygon fill="black" stroke="black" points="2466.43,-777.5 2476.43,-774 2466.43,-770.5 2466.43,-777.5"/>
</g>
<!-- 13 -->
<g id="55" class="node">
<title>13</title>
<ellipse fill="none" stroke="black" cx="2512.23" cy="-720" rx="35.94" ry="18"/>
<text text-anchor="middle" x="2512.23" y="-715.8" font-family="Times,serif" font-size="14.00">uint64</text>
</g>
<!-- 12&#45;&gt;13 -->
<g id="edge15" class="edge">
<title>12&#45;&gt;13</title>
<path fill="none" stroke="black" d="M2388.97,-720C2415.82,-720 2443.85,-720 2466.29,-720"/>
<polygon fill="black" stroke="black" points="2466.51,-723.5 2476.51,-720 2466.51,-716.5 2466.51,-723.5"/>
</g>
<!-- 15 -->
<g id="55" class="node">
<title>15</title>
<ellipse fill="none" stroke="black" cx="1214.48" cy="-342" rx="110.6" ry="18"/>
<text text-anchor="middle" x="1214.48" y="-337.8" font-family="Times,serif" font-size="14.00">ServerWaypoint::Payload</text>
</g>
<!-- 14&#45;&gt;15 -->
<g id="edge16" class="edge">
<title>14&#45;&gt;15</title>
<path fill="none" stroke="black" d="M986.24,-389.16C1030.58,-379.96 1088.99,-367.84 1135.48,-358.19"/>
<polygon fill="black" stroke="black" points="1136.44,-361.56 1145.52,-356.1 1135.01,-354.71 1136.44,-361.56"/>
</g>
<!-- 16 -->
<g id="55" class="node">
<title>16</title>
<ellipse fill="none" stroke="black" cx="1476.63" cy="-617" rx="56.18" ry="18"/>
<text text-anchor="middle" x="1476.63" y="-612.8" font-family="Times,serif" font-size="14.00">UpdateFlag</text>
</g>
<!-- 15&#45;&gt;16 -->
<g id="edge17" class="edge">
<title>15&#45;&gt;16</title>
<path fill="none" stroke="black" d="M1232.55,-360.04C1277.69,-407.76 1400.3,-537.37 1452.06,-592.09"/>
<polygon fill="black" stroke="black" points="1449.75,-594.74 1459.17,-599.6 1454.84,-589.93 1449.75,-594.74"/>
</g>
<!-- 18 -->
<g id="55" class="node">
<title>18</title>
<ellipse fill="none" stroke="black" cx="2086.95" cy="-572" rx="45.8" ry="18"/>
<text text-anchor="middle" x="2086.95" y="-567.8" font-family="Times,serif" font-size="14.00">IsVisible</text>
</g>
<!-- 15&#45;&gt;18 -->
<g id="edge18" class="edge">
<title>15&#45;&gt;18</title>
<path fill="none" stroke="black" d="M1252.21,-359.04C1289.92,-376.03 1350.6,-401.97 1404.99,-419 1635.37,-491.14 1919.61,-543.67 2034.34,-563.41"/>
<polygon fill="black" stroke="black" points="2033.81,-566.87 2044.26,-565.11 2034.99,-559.97 2033.81,-566.87"/>
</g>
<!-- 20 -->
<g id="55" class="node">
<title>20</title>
<ellipse fill="none" stroke="black" cx="1476.63" cy="-392" rx="67.24" ry="18"/>
<text text-anchor="middle" x="1476.63" y="-387.8" font-family="Times,serif" font-size="14.00">WorldPosition</text>
</g>
<!-- 15&#45;&gt;20 -->
<g id="edge19" class="edge">
<title>15&#45;&gt;20</title>
<path fill="none" stroke="black" d="M1286.91,-355.73C1325.85,-363.21 1373.65,-372.4 1411.41,-379.66"/>
<polygon fill="black" stroke="black" points="1410.79,-383.1 1421.27,-381.55 1412.11,-376.23 1410.79,-383.1"/>
</g>
<!-- 34 -->
<g id="55" class="node">
<title>34</title>
<ellipse fill="none" stroke="black" cx="1688.11" cy="-342" rx="58.46" ry="18"/>
<text text-anchor="middle" x="1688.11" y="-337.8" font-family="Times,serif" font-size="14.00">TexturePath</text>
</g>
<!-- 15&#45;&gt;34 -->
<g id="edge20" class="edge">
<title>15&#45;&gt;34</title>
<path fill="none" stroke="black" d="M1325.46,-342C1416.51,-342 1542.94,-342 1619.67,-342"/>
<polygon fill="black" stroke="black" points="1619.7,-345.5 1629.7,-342 1619.7,-338.5 1619.7,-345.5"/>
</g>
<!-- 36 -->
<g id="55" class="node">
<title>36</title>
<ellipse fill="none" stroke="black" cx="1901.23" cy="-290" rx="44.64" ry="18"/>
<text text-anchor="middle" x="1901.23" y="-285.8" font-family="Times,serif" font-size="14.00">IconSize</text>
</g>
<!-- 15&#45;&gt;36 -->
<g id="edge21" class="edge">
<title>15&#45;&gt;36</title>
<path fill="none" stroke="black" d="M1315.05,-334.44C1462.16,-323.27 1732.51,-302.74 1846.88,-294.05"/>
<polygon fill="black" stroke="black" points="1847.42,-297.52 1857.13,-293.27 1846.89,-290.54 1847.42,-297.52"/>
</g>
<!-- 42 -->
<g id="55" class="node">
<title>42</title>
<ellipse fill="none" stroke="black" cx="1476.63" cy="-244" rx="33.06" ry="18"/>
<text text-anchor="middle" x="1476.63" y="-239.8" font-family="Times,serif" font-size="14.00">Color</text>
</g>
<!-- 15&#45;&gt;42 -->
<g id="edge22" class="edge">
<title>15&#45;&gt;42</title>
<path fill="none" stroke="black" d="M1259.32,-325.49C1310.01,-306.39 1392.52,-275.31 1439.62,-257.56"/>
<polygon fill="black" stroke="black" points="1440.99,-260.79 1449.12,-253.99 1438.52,-254.24 1440.99,-260.79"/>
</g>
<!-- 46 -->
<g id="55" class="node">
<title>46</title>
<ellipse fill="none" stroke="black" cx="1688.11" cy="-172" rx="103.71" ry="18"/>
<text text-anchor="middle" x="1688.11" y="-167.8" font-family="Times,serif" font-size="14.00">ClientPositionAuthority</text>
</g>
<!-- 15&#45;&gt;46 -->
<g id="edge23" class="edge">
<title>15&#45;&gt;46</title>
<path fill="none" stroke="black" d="M1235.98,-324.13C1269.07,-296.35 1337.39,-243.27 1404.99,-217 1460.04,-195.61 1524.92,-184.38 1578.57,-178.49"/>
<polygon fill="black" stroke="black" points="1579.22,-181.94 1588.8,-177.42 1578.49,-174.98 1579.22,-181.94"/>
</g>
<!-- 48 -->
<g id="55" class="node">
<title>48</title>
<ellipse fill="none" stroke="black" cx="1476.63" cy="-99" rx="71.77" ry="18"/>
<text text-anchor="middle" x="1476.63" y="-94.8" font-family="Times,serif" font-size="14.00">ActorUniqueID</text>
</g>
<!-- 15&#45;&gt;48 -->
<g id="edge24" class="edge">
<title>15&#45;&gt;48</title>
<path fill="none" stroke="black" d="M1234.61,-324.13C1280.48,-281.28 1396.81,-172.62 1449.26,-123.62"/>
<polygon fill="black" stroke="black" points="1451.9,-125.95 1456.82,-116.57 1447.12,-120.84 1451.9,-125.95"/>
</g>
<!-- 17 -->
<g id="55" class="node">
<title>17</title>
<ellipse fill="none" stroke="black" cx="2512.23" cy="-666" rx="35.94" ry="18"/>
<text text-anchor="middle" x="2512.23" y="-661.8" font-family="Times,serif" font-size="14.00">uint32</text>
</g>
<!-- 16&#45;&gt;17 -->
<g id="edge25" class="edge">
<title>16&#45;&gt;17</title>
<path fill="none" stroke="black" d="M1525.27,-626.16C1603.31,-640.34 1763.4,-666 1900.23,-666 1900.23,-666 1900.23,-666 2087.95,-666 2225.69,-666 2388.64,-666 2466.04,-666"/>
<polygon fill="black" stroke="black" points="2466.39,-669.5 2476.39,-666 2466.39,-662.5 2466.39,-669.5"/>
</g>
<!-- 19 -->
<g id="55" class="node">
<title>19</title>
<ellipse fill="none" stroke="black" cx="2512.23" cy="-612" rx="87.27" ry="18"/>
<text text-anchor="middle" x="2512.23" y="-607.8" font-family="Times,serif" font-size="14.00">std::optional&lt;bool&gt;</text>
</g>
<!-- 18&#45;&gt;19 -->
<g id="edge26" class="edge">
<title>18&#45;&gt;19</title>
<path fill="none" stroke="black" d="M2131.06,-577.33C2151.72,-579.81 2176.83,-582.71 2199.41,-585 2273.66,-592.54 2358,-599.76 2420.23,-604.84"/>
<polygon fill="black" stroke="black" points="2420.16,-608.34 2430.41,-605.66 2420.72,-601.37 2420.16,-608.34"/>
</g>
<!-- 21 -->
<g id="55" class="node">
<title>21</title>
<ellipse fill="none" stroke="black" cx="1688.11" cy="-396" rx="67.24" ry="18"/>
<text text-anchor="middle" x="1688.11" y="-391.8" font-family="Times,serif" font-size="14.00">WorldPosition</text>
</g>
<!-- 20&#45;&gt;21 -->
<g id="edge27" class="edge">
<title>20&#45;&gt;21</title>
<path fill="none" stroke="black" d="M1543.91,-393.27C1565.12,-393.67 1588.78,-394.12 1610.66,-394.54"/>
<polygon fill="black" stroke="black" points="1610.84,-398.04 1620.9,-394.74 1610.97,-391.05 1610.84,-398.04"/>
</g>
<!-- 22 -->
<g id="55" class="node">
<title>22</title>
<ellipse fill="none" stroke="black" cx="1901.23" cy="-463" rx="42.89" ry="18"/>
<text text-anchor="middle" x="1901.23" y="-458.8" font-family="Times,serif" font-size="14.00">Position</text>
</g>
<!-- 21&#45;&gt;22 -->
<g id="edge28" class="edge">
<title>21&#45;&gt;22</title>
<path fill="none" stroke="black" d="M1732.09,-409.64C1768.46,-421.18 1820.33,-437.64 1856.82,-449.22"/>
<polygon fill="black" stroke="black" points="1856.09,-452.66 1866.68,-452.35 1858.2,-445.99 1856.09,-452.66"/>
</g>
<!-- 30 -->
<g id="55" class="node">
<title>30</title>
<ellipse fill="none" stroke="black" cx="1901.23" cy="-396" rx="73.02" ry="18"/>
<text text-anchor="middle" x="1901.23" y="-391.8" font-family="Times,serif" font-size="14.00">DimensionType</text>
</g>
<!-- 21&#45;&gt;30 -->
<g id="edge29" class="edge">
<title>21&#45;&gt;30</title>
<path fill="none" stroke="black" d="M1755.62,-396C1775.36,-396 1797.21,-396 1817.83,-396"/>
<polygon fill="black" stroke="black" points="1817.83,-399.5 1827.83,-396 1817.83,-392.5 1817.83,-399.5"/>
</g>
<!-- 23 -->
<g id="55" class="node">
<title>23</title>
<ellipse fill="none" stroke="black" cx="2086.95" cy="-477" rx="31.32" ry="18"/>
<text text-anchor="middle" x="2086.95" y="-472.8" font-family="Times,serif" font-size="14.00">Vec3</text>
</g>
<!-- 22&#45;&gt;23 -->
<g id="edge30" class="edge">
<title>22&#45;&gt;23</title>
<path fill="none" stroke="black" d="M1943.46,-466.14C1973.93,-468.46 2015.21,-471.61 2045.5,-473.92"/>
<polygon fill="black" stroke="black" points="2045.48,-477.43 2055.72,-474.7 2046.01,-470.45 2045.48,-477.43"/>
</g>
<!-- 24 -->
<g id="55" class="node">
<title>24</title>
<ellipse fill="none" stroke="black" cx="2294.13" cy="-558" rx="27" ry="18"/>
<text text-anchor="middle" x="2294.13" y="-553.8" font-family="Times,serif" font-size="14.00">X</text>
</g>
<!-- 23&#45;&gt;24 -->
<g id="edge31" class="edge">
<title>23&#45;&gt;24</title>
<path fill="none" stroke="black" d="M2110.5,-489.34C2132.66,-501.13 2167.69,-518.85 2199.41,-531 2218.67,-538.38 2240.81,-544.84 2258.74,-549.6"/>
<polygon fill="black" stroke="black" points="2257.92,-553 2268.48,-552.13 2259.68,-546.23 2257.92,-553"/>
</g>
<!-- 26 -->
<g id="55" class="node">
<title>26</title>
<ellipse fill="none" stroke="black" cx="2294.13" cy="-504" rx="27" ry="18"/>
<text text-anchor="middle" x="2294.13" y="-499.8" font-family="Times,serif" font-size="14.00">Y</text>
</g>
<!-- 23&#45;&gt;26 -->
<g id="edge32" class="edge">
<title>23&#45;&gt;26</title>
<path fill="none" stroke="black" d="M2117.78,-480.93C2154.82,-485.8 2217.92,-494.1 2257.47,-499.31"/>
<polygon fill="black" stroke="black" points="2257.1,-502.79 2267.47,-500.62 2258.01,-495.85 2257.1,-502.79"/>
</g>
<!-- 28 -->
<g id="55" class="node">
<title>28</title>
<ellipse fill="none" stroke="black" cx="2294.13" cy="-450" rx="27" ry="18"/>
<text text-anchor="middle" x="2294.13" y="-445.8" font-family="Times,serif" font-size="14.00">Z</text>
</g>
<!-- 23&#45;&gt;28 -->
<g id="edge33" class="edge">
<title>23&#45;&gt;28</title>
<path fill="none" stroke="black" d="M2117.78,-473.07C2154.82,-468.2 2217.92,-459.9 2257.47,-454.69"/>
<polygon fill="black" stroke="black" points="2258.01,-458.15 2267.47,-453.38 2257.1,-451.21 2258.01,-458.15"/>
</g>
<!-- 25 -->
<g id="55" class="node">
<title>25</title>
<ellipse fill="none" stroke="black" cx="2512.23" cy="-558" rx="28.97" ry="18"/>
<text text-anchor="middle" x="2512.23" y="-553.8" font-family="Times,serif" font-size="14.00">float</text>
</g>
<!-- 24&#45;&gt;25 -->
<g id="edge34" class="edge">
<title>24&#45;&gt;25</title>
<path fill="none" stroke="black" d="M2321.2,-558C2359.05,-558 2429.47,-558 2473.14,-558"/>
<polygon fill="black" stroke="black" points="2473.36,-561.5 2483.36,-558 2473.36,-554.5 2473.36,-561.5"/>
</g>
<!-- 27 -->
<g id="55" class="node">
<title>27</title>
<ellipse fill="none" stroke="black" cx="2512.23" cy="-504" rx="28.97" ry="18"/>
<text text-anchor="middle" x="2512.23" y="-499.8" font-family="Times,serif" font-size="14.00">float</text>
</g>
<!-- 26&#45;&gt;27 -->
<g id="edge35" class="edge">
<title>26&#45;&gt;27</title>
<path fill="none" stroke="black" d="M2321.2,-504C2359.05,-504 2429.47,-504 2473.14,-504"/>
<polygon fill="black" stroke="black" points="2473.36,-507.5 2483.36,-504 2473.36,-500.5 2473.36,-507.5"/>
</g>
<!-- 29 -->
<g id="55" class="node">
<title>29</title>
<ellipse fill="none" stroke="black" cx="2512.23" cy="-450" rx="28.97" ry="18"/>
<text text-anchor="middle" x="2512.23" y="-445.8" font-family="Times,serif" font-size="14.00">float</text>
</g>
<!-- 28&#45;&gt;29 -->
<g id="edge36" class="edge">
<title>28&#45;&gt;29</title>
<path fill="none" stroke="black" d="M2321.2,-450C2359.05,-450 2429.47,-450 2473.14,-450"/>
<polygon fill="black" stroke="black" points="2473.36,-453.5 2483.36,-450 2473.36,-446.5 2473.36,-453.5"/>
</g>
<!-- 31 -->
<g id="55" class="node">
<title>31</title>
<ellipse fill="none" stroke="black" cx="2086.95" cy="-396" rx="73.02" ry="18"/>
<text text-anchor="middle" x="2086.95" y="-391.8" font-family="Times,serif" font-size="14.00">DimensionType</text>
</g>
<!-- 30&#45;&gt;31 -->
<g id="edge37" class="edge">
<title>30&#45;&gt;31</title>
<path fill="none" stroke="black" d="M1974.57,-396C1984.11,-396 1993.95,-396 2003.64,-396"/>
<polygon fill="black" stroke="black" points="2003.67,-399.5 2013.67,-396 2003.67,-392.5 2003.67,-399.5"/>
</g>
<!-- 32 -->
<g id="55" class="node">
<title>32</title>
<ellipse fill="none" stroke="black" cx="2294.13" cy="-396" rx="31.9" ry="18"/>
<text text-anchor="middle" x="2294.13" y="-391.8" font-family="Times,serif" font-size="14.00">value</text>
</g>
<!-- 31&#45;&gt;32 -->
<g id="edge38" class="edge">
<title>31&#45;&gt;32</title>
<path fill="none" stroke="black" d="M2160.29,-396C2190.91,-396 2225.49,-396 2251.68,-396"/>
<polygon fill="black" stroke="black" points="2252,-399.5 2262,-396 2252,-392.5 2252,-399.5"/>
</g>
<!-- 33 -->
<g id="55" class="node">
<title>33</title>
<ellipse fill="none" stroke="black" cx="2512.23" cy="-396" rx="33.62" ry="18"/>
<text text-anchor="middle" x="2512.23" y="-391.8" font-family="Times,serif" font-size="14.00">varint</text>
</g>
<!-- 32&#45;&gt;33 -->
<g id="edge39" class="edge">
<title>32&#45;&gt;33</title>
<path fill="none" stroke="black" d="M2326.09,-396C2363.42,-396 2426.38,-396 2468.36,-396"/>
<polygon fill="black" stroke="black" points="2468.56,-399.5 2478.56,-396 2468.56,-392.5 2468.56,-399.5"/>
</g>
<!-- 35 -->
<g id="55" class="node">
<title>35</title>
<ellipse fill="none" stroke="black" cx="2512.23" cy="-342" rx="33.06" ry="18"/>
<text text-anchor="middle" x="2512.23" y="-337.8" font-family="Times,serif" font-size="14.00">string</text>
</g>
<!-- 34&#45;&gt;35 -->
<g id="edge40" class="edge">
<title>34&#45;&gt;35</title>
<path fill="none" stroke="black" d="M1746.6,-342C1902.68,-342 2331.85,-342 2468.71,-342"/>
<polygon fill="black" stroke="black" points="2468.8,-345.5 2478.8,-342 2468.8,-338.5 2468.8,-345.5"/>
</g>
<!-- 37 -->
<g id="55" class="node">
<title>37</title>
<ellipse fill="none" stroke="black" cx="2086.95" cy="-288" rx="31.32" ry="18"/>
<text text-anchor="middle" x="2086.95" y="-283.8" font-family="Times,serif" font-size="14.00">Vec2</text>
</g>
<!-- 36&#45;&gt;37 -->
<g id="edge41" class="edge">
<title>36&#45;&gt;37</title>
<path fill="none" stroke="black" d="M1946.23,-289.52C1976.3,-289.19 2015.85,-288.76 2045.2,-288.44"/>
<polygon fill="black" stroke="black" points="2045.55,-291.94 2055.51,-288.33 2045.47,-284.94 2045.55,-291.94"/>
</g>
<!-- 38 -->
<g id="55" class="node">
<title>38</title>
<ellipse fill="none" stroke="black" cx="2294.13" cy="-288" rx="27" ry="18"/>
<text text-anchor="middle" x="2294.13" y="-283.8" font-family="Times,serif" font-size="14.00">X</text>
</g>
<!-- 37&#45;&gt;38 -->
<g id="edge42" class="edge">
<title>37&#45;&gt;38</title>
<path fill="none" stroke="black" d="M2118.67,-288C2155.63,-288 2217.62,-288 2256.89,-288"/>
<polygon fill="black" stroke="black" points="2257.09,-291.5 2267.09,-288 2257.09,-284.5 2257.09,-291.5"/>
</g>
<!-- 40 -->
<g id="55" class="node">
<title>40</title>
<ellipse fill="none" stroke="black" cx="2294.13" cy="-234" rx="27" ry="18"/>
<text text-anchor="middle" x="2294.13" y="-229.8" font-family="Times,serif" font-size="14.00">Y</text>
</g>
<!-- 37&#45;&gt;40 -->
<g id="edge43" class="edge">
<title>37&#45;&gt;40</title>
<path fill="none" stroke="black" d="M2116.05,-280.6C2153.3,-270.8 2219,-253.51 2259.04,-242.97"/>
<polygon fill="black" stroke="black" points="2260.1,-246.31 2268.88,-240.38 2258.32,-239.54 2260.1,-246.31"/>
</g>
<!-- 39 -->
<g id="55" class="node">
<title>39</title>
<ellipse fill="none" stroke="black" cx="2512.23" cy="-288" rx="28.97" ry="18"/>
<text text-anchor="middle" x="2512.23" y="-283.8" font-family="Times,serif" font-size="14.00">float</text>
</g>
<!-- 38&#45;&gt;39 -->
<g id="edge44" class="edge">
<title>38&#45;&gt;39</title>
<path fill="none" stroke="black" d="M2321.2,-288C2359.05,-288 2429.47,-288 2473.14,-288"/>
<polygon fill="black" stroke="black" points="2473.36,-291.5 2483.36,-288 2473.36,-284.5 2473.36,-291.5"/>
</g>
<!-- 41 -->
<g id="55" class="node">
<title>41</title>
<ellipse fill="none" stroke="black" cx="2512.23" cy="-234" rx="28.97" ry="18"/>
<text text-anchor="middle" x="2512.23" y="-229.8" font-family="Times,serif" font-size="14.00">float</text>
</g>
<!-- 40&#45;&gt;41 -->
<g id="edge45" class="edge">
<title>40&#45;&gt;41</title>
<path fill="none" stroke="black" d="M2321.2,-234C2359.05,-234 2429.47,-234 2473.14,-234"/>
<polygon fill="black" stroke="black" points="2473.36,-237.5 2483.36,-234 2473.36,-230.5 2473.36,-237.5"/>
</g>
<!-- 43 -->
<g id="55" class="node">
<title>43</title>
<ellipse fill="none" stroke="black" cx="1688.11" cy="-239" rx="33.06" ry="18"/>
<text text-anchor="middle" x="1688.11" y="-234.8" font-family="Times,serif" font-size="14.00">Color</text>
</g>
<!-- 42&#45;&gt;43 -->
<g id="edge46" class="edge">
<title>42&#45;&gt;43</title>
<path fill="none" stroke="black" d="M1509.9,-243.23C1546.04,-242.37 1604.75,-240.97 1644.6,-240.01"/>
<polygon fill="black" stroke="black" points="1644.89,-243.51 1654.8,-239.77 1644.72,-236.51 1644.89,-243.51"/>
</g>
<!-- 44 -->
<g id="55" class="node">
<title>44</title>
<ellipse fill="none" stroke="black" cx="1901.23" cy="-209" rx="33.06" ry="18"/>
<text text-anchor="middle" x="1901.23" y="-204.8" font-family="Times,serif" font-size="14.00">Color</text>
</g>
<!-- 43&#45;&gt;44 -->
<g id="edge47" class="edge">
<title>43&#45;&gt;44</title>
<path fill="none" stroke="black" d="M1720.27,-234.57C1756.98,-229.36 1818.14,-220.66 1858.82,-214.88"/>
<polygon fill="black" stroke="black" points="1859.54,-218.32 1868.95,-213.44 1858.56,-211.39 1859.54,-218.32"/>
</g>
<!-- 45 -->
<g id="55" class="node">
<title>45</title>
<ellipse fill="none" stroke="black" cx="2512.23" cy="-180" rx="30.78" ry="18"/>
<text text-anchor="middle" x="2512.23" y="-175.8" font-family="Times,serif" font-size="14.00">int32</text>
</g>
<!-- 44&#45;&gt;45 -->
<g id="edge48" class="edge">
<title>44&#45;&gt;45</title>
<path fill="none" stroke="black" d="M1934.54,-207.46C2037.45,-202.56 2357.42,-187.32 2470.85,-181.92"/>
<polygon fill="black" stroke="black" points="2471.35,-185.4 2481.17,-181.43 2471.02,-178.41 2471.35,-185.4"/>
</g>
<!-- 47 -->
<g id="55" class="node">
<title>47</title>
<ellipse fill="none" stroke="black" cx="2512.23" cy="-126" rx="87.27" ry="18"/>
<text text-anchor="middle" x="2512.23" y="-121.8" font-family="Times,serif" font-size="14.00">std::optional&lt;bool&gt;</text>
</g>
<!-- 46&#45;&gt;47 -->
<g id="edge49" class="edge">
<title>46&#45;&gt;47</title>
<path fill="none" stroke="black" d="M1787.06,-166.52C1946.62,-157.59 2260.59,-140.02 2417.44,-131.25"/>
<polygon fill="black" stroke="black" points="2417.75,-134.74 2427.54,-130.68 2417.36,-127.75 2417.75,-134.74"/>
</g>
<!-- 49 -->
<g id="55" class="node">
<title>49</title>
<ellipse fill="none" stroke="black" cx="1688.11" cy="-91" rx="71.77" ry="18"/>
<text text-anchor="middle" x="1688.11" y="-86.8" font-family="Times,serif" font-size="14.00">ActorUniqueID</text>
</g>
<!-- 48&#45;&gt;49 -->
<g id="edge50" class="edge">
<title>48&#45;&gt;49</title>
<path fill="none" stroke="black" d="M1547.67,-96.32C1566.72,-95.6 1587.48,-94.8 1607.03,-94.06"/>
<polygon fill="black" stroke="black" points="1607.27,-97.55 1617.13,-93.67 1607.01,-90.56 1607.27,-97.55"/>
</g>
<!-- 50 -->
<g id="55" class="node">
<title>50</title>
<ellipse fill="none" stroke="black" cx="2086.95" cy="-76" rx="76.43" ry="18"/>
<text text-anchor="middle" x="2086.95" y="-71.8" font-family="Times,serif" font-size="14.00">Actor Unique ID</text>
</g>
<!-- 49&#45;&gt;50 -->
<g id="edge51" class="edge">
<title>49&#45;&gt;50</title>
<path fill="none" stroke="black" d="M1759.15,-88.35C1826.59,-85.8 1928.71,-81.94 2000.81,-79.22"/>
<polygon fill="black" stroke="black" points="2001.36,-82.7 2011.22,-78.82 2001.1,-75.7 2001.36,-82.7"/>
</g>
<!-- 51 -->
<g id="55" class="node">
<title>51</title>
<ellipse fill="none" stroke="black" cx="2512.23" cy="-72" rx="43.44" ry="18"/>
<text text-anchor="middle" x="2512.23" y="-67.8" font-family="Times,serif" font-size="14.00">varint64</text>
</g>
<!-- 50&#45;&gt;51 -->
<g id="edge52" class="edge">
<title>50&#45;&gt;51</title>
<path fill="none" stroke="black" d="M2163.62,-75.28C2248.68,-74.48 2384.54,-73.2 2458.71,-72.5"/>
<polygon fill="black" stroke="black" points="2458.79,-76 2468.75,-72.4 2458.72,-69 2458.79,-76"/>
</g>
<!-- 53 -->
<g id="55" class="node">
<title>53</title>
<ellipse fill="none" stroke="black" cx="1214.48" cy="-147" rx="154.52" ry="18"/>
<text text-anchor="middle" x="1214.48" y="-142.8" font-family="Times,serif" font-size="14.00">enum ServerWaypointGroup::Action</text>
</g>
<!-- 52&#45;&gt;53 -->
<g id="edge53" class="edge">
<title>52&#45;&gt;53</title>
<path fill="none" stroke="black" d="M951.28,-267.42C1002.99,-243.67 1105.72,-196.49 1166.1,-168.76"/>
<polygon fill="black" stroke="black" points="1167.78,-171.84 1175.41,-164.48 1164.86,-165.48 1167.78,-171.84"/>
</g>
<!-- 54 -->
<g id="55" class="node">
<title>54</title>
<ellipse fill="none" stroke="black" cx="2512.23" cy="-18" rx="30.78" ry="18"/>
<text text-anchor="middle" x="2512.23" y="-13.8" font-family="Times,serif" font-size="14.00">uint8</text>
</g>
<!-- 53&#45;&gt;54 -->
<g id="edge54" class="edge">
<title>53&#45;&gt;54</title>
<path fill="none" stroke="black" d="M1252.74,-129.47C1331.22,-94.2 1520.1,-18 1687.11,-18 1687.11,-18 1687.11,-18 2087.95,-18 2228.56,-18 2395.44,-18 2470.77,-18"/>
<polygon fill="black" stroke="black" points="2471.21,-21.5 2481.21,-18 2471.21,-14.5 2471.21,-21.5"/>
</g>
</g>
</svg>
