<svg width="1137px" height="433px"
 viewBox="0.00 0.00 1136.57 433.47" xmlns="http://www.w3.org/2000/svg" xmlns:xlink="http://www.w3.org/1999/xlink">
<g id="graph0" class="graph" transform="scale(1.0 1.0) rotate(0.0) translate(4.0 429.47)">
<title>MobEffectPacket</title>
<polygon fill="white" stroke="transparent" points="-4,4 -4,-429.47 1132.57,-429.47 1132.57,4 -4,4"/>
<g id="0" class="node">
<title></title>
<ellipse fill="none" stroke="black" cx="78.6" cy="-214.47" rx="78.71" ry="18"/>
<text text-anchor="middle" x="78.6" y="-210.27" font-family="Times,serif" font-size="14.00">MobEffectPacket</text>
</g>
<!-- 1 -->
<g id="22" class="node">
<title>1</title>
<ellipse fill="none" stroke="black" cx="288.44" cy="-396.47" rx="84.53" ry="18"/>
<text text-anchor="middle" x="288.44" y="-392.27" font-family="Times,serif" font-size="14.00">Target Runtime ID</text>
</g>
<!-- &#45;&gt;1 -->
<g id="edge1" class="edge">
<title>&#45;&gt;1</title>
<path fill="none" stroke="black" d="M87.94,-232.41C103.79,-264.58 141.41,-332.1 193.21,-368.47 200.14,-373.33 207.92,-377.36 215.96,-380.69"/>
<polygon fill="black" stroke="black" points="214.89,-384.03 225.48,-384.3 217.37,-377.49 214.89,-384.03"/>
</g>
<!-- 5 -->
<g id="22" class="node">
<title>5</title>
<ellipse fill="none" stroke="black" cx="288.44" cy="-341.47" rx="46.33" ry="18"/>
<text text-anchor="middle" x="288.44" y="-337.27" font-family="Times,serif" font-size="14.00">Event ID</text>
</g>
<!-- &#45;&gt;5 -->
<g id="edge2" class="edge">
<title>&#45;&gt;5</title>
<path fill="none" stroke="black" d="M96.55,-232.18C117.51,-253.19 155.1,-288.06 193.21,-309.47 207.42,-317.45 223.95,-323.89 239.16,-328.85"/>
<polygon fill="black" stroke="black" points="238.35,-332.26 248.93,-331.89 240.43,-325.58 238.35,-332.26"/>
</g>
<!-- 8 -->
<g id="22" class="node">
<title>8</title>
<ellipse fill="none" stroke="black" cx="770.09" cy="-298.47" rx="47.45" ry="18"/>
<text text-anchor="middle" x="770.09" y="-294.27" font-family="Times,serif" font-size="14.00">Effect ID</text>
</g>
<!-- &#45;&gt;8 -->
<g id="edge3" class="edge">
<title>&#45;&gt;8</title>
<path fill="none" stroke="black" d="M128.8,-228.43C148.68,-233.7 171.91,-239.4 193.21,-243.47 381.34,-279.38 608.75,-292.31 712.52,-296.57"/>
<polygon fill="black" stroke="black" points="712.64,-300.07 722.77,-296.98 712.92,-293.08 712.64,-300.07"/>
</g>
<!-- 10 -->
<g id="22" class="node">
<title>10</title>
<ellipse fill="none" stroke="black" cx="496.14" cy="-245.47" rx="75.23" ry="18"/>
<text text-anchor="middle" x="496.14" y="-241.27" font-family="Times,serif" font-size="14.00">Effect Amplifier</text>
</g>
<!-- &#45;&gt;10 -->
<g id="edge4" class="edge">
<title>&#45;&gt;10</title>
<path fill="none" stroke="black" d="M153.89,-220.01C227.02,-225.46 338.41,-233.77 413.87,-239.4"/>
<polygon fill="black" stroke="black" points="414.04,-242.92 424.27,-240.18 414.56,-235.94 414.04,-242.92"/>
</g>
<!-- 12 -->
<g id="22" class="node">
<title>12</title>
<ellipse fill="none" stroke="black" cx="496.14" cy="-191.47" rx="68.89" ry="18"/>
<text text-anchor="middle" x="496.14" y="-187.27" font-family="Times,serif" font-size="14.00">Show Particles</text>
</g>
<!-- &#45;&gt;12 -->
<g id="edge5" class="edge">
<title>&#45;&gt;12</title>
<path fill="none" stroke="black" d="M155.34,-210.27C230.01,-206.14 343.54,-199.86 418.52,-195.71"/>
<polygon fill="black" stroke="black" points="419.05,-199.18 428.84,-195.14 418.66,-192.19 419.05,-199.18"/>
</g>
<!-- 14 -->
<g id="22" class="node">
<title>14</title>
<ellipse fill="none" stroke="black" cx="288.44" cy="-147.47" rx="95.46" ry="18"/>
<text text-anchor="middle" x="288.44" y="-143.27" font-family="Times,serif" font-size="14.00">Effect Duration Ticks</text>
</g>
<!-- &#45;&gt;14 -->
<g id="edge6" class="edge">
<title>&#45;&gt;14</title>
<path fill="none" stroke="black" d="M124.96,-199.85C155.72,-189.93 196.65,-176.73 229.74,-166.07"/>
<polygon fill="black" stroke="black" points="230.85,-169.39 239.29,-162.99 228.7,-162.73 230.85,-169.39"/>
</g>
<!-- 16 -->
<g id="22" class="node">
<title>16</title>
<ellipse fill="none" stroke="black" cx="288.44" cy="-91.47" rx="28.97" ry="18"/>
<text text-anchor="middle" x="288.44" y="-87.27" font-family="Times,serif" font-size="14.00">Tick</text>
</g>
<!-- &#45;&gt;16 -->
<g id="edge7" class="edge">
<title>&#45;&gt;16</title>
<path fill="none" stroke="black" d="M96.49,-196.77C117.38,-175.8 154.91,-141.13 193.21,-120.47 211.17,-110.77 232.85,-103.82 250.88,-99.15"/>
<polygon fill="black" stroke="black" points="251.87,-102.51 260.75,-96.73 250.2,-95.71 251.87,-102.51"/>
</g>
<!-- 20 -->
<g id="22" class="node">
<title>20</title>
<ellipse fill="none" stroke="black" cx="770.09" cy="-30.47" rx="44.66" ry="18"/>
<text text-anchor="middle" x="770.09" y="-26.27" font-family="Times,serif" font-size="14.00">Ambient</text>
</g>
<!-- &#45;&gt;20 -->
<g id="edge8" class="edge">
<title>&#45;&gt;20</title>
<path fill="none" stroke="black" d="M87.1,-196.31C101.84,-163.26 138.03,-93.95 193.21,-64.47 367.81,28.84 616.12,-1.67 720.21,-20.42"/>
<polygon fill="black" stroke="black" points="719.66,-23.88 730.12,-22.25 720.93,-17 719.66,-23.88"/>
</g>
<!-- 2 -->
<g id="22" class="node">
<title>2</title>
<ellipse fill="none" stroke="black" cx="496.14" cy="-398.47" rx="76.44" ry="18"/>
<text text-anchor="middle" x="496.14" y="-394.27" font-family="Times,serif" font-size="14.00">ActorRuntimeID</text>
</g>
<!-- 1&#45;&gt;2 -->
<g id="edge9" class="edge">
<title>1&#45;&gt;2</title>
<path fill="none" stroke="black" d="M373.11,-397.28C385.1,-397.4 397.45,-397.52 409.48,-397.63"/>
<polygon fill="black" stroke="black" points="409.46,-401.13 419.49,-397.73 409.53,-394.13 409.46,-401.13"/>
</g>
<!-- 3 -->
<g id="22" class="node">
<title>3</title>
<ellipse fill="none" stroke="black" cx="770.09" cy="-406.47" rx="81.1" ry="18"/>
<text text-anchor="middle" x="770.09" y="-402.27" font-family="Times,serif" font-size="14.00">Actor Runtime ID</text>
</g>
<!-- 2&#45;&gt;3 -->
<g id="edge10" class="edge">
<title>2&#45;&gt;3</title>
<path fill="none" stroke="black" d="M572.17,-400.67C605.23,-401.65 644.34,-402.8 678.96,-403.81"/>
<polygon fill="black" stroke="black" points="678.97,-407.32 689.07,-404.11 679.18,-400.32 678.97,-407.32"/>
</g>
<!-- 4 -->
<g id="22" class="node">
<title>4</title>
<ellipse fill="none" stroke="black" cx="1048.07" cy="-407.47" rx="80.5" ry="18"/>
<text text-anchor="middle" x="1048.07" y="-403.27" font-family="Times,serif" font-size="14.00">unsigned varint64</text>
</g>
<!-- 3&#45;&gt;4 -->
<g id="edge11" class="edge">
<title>3&#45;&gt;4</title>
<path fill="none" stroke="black" d="M851.66,-406.76C884.68,-406.88 923.03,-407.02 956.98,-407.14"/>
<polygon fill="black" stroke="black" points="957.35,-410.64 967.36,-407.18 957.37,-403.64 957.35,-410.64"/>
</g>
<!-- 6 -->
<g id="22" class="node">
<title>6</title>
<ellipse fill="none" stroke="black" cx="770.09" cy="-352.47" rx="161.46" ry="18"/>
<text text-anchor="middle" x="770.09" y="-348.27" font-family="Times,serif" font-size="14.00">enum MobEffectPacketPayload::Event</text>
</g>
<!-- 5&#45;&gt;6 -->
<g id="edge12" class="edge">
<title>5&#45;&gt;6</title>
<path fill="none" stroke="black" d="M334.56,-342.5C395.38,-343.9 506.96,-346.45 601.83,-348.63"/>
<polygon fill="black" stroke="black" points="601.75,-352.13 611.83,-348.86 601.92,-345.13 601.75,-352.13"/>
</g>
<!-- 7 -->
<g id="22" class="node">
<title>7</title>
<ellipse fill="none" stroke="black" cx="1048.07" cy="-353.47" rx="30.78" ry="18"/>
<text text-anchor="middle" x="1048.07" y="-349.27" font-family="Times,serif" font-size="14.00">uint8</text>
</g>
<!-- 6&#45;&gt;7 -->
<g id="edge13" class="edge">
<title>6&#45;&gt;7</title>
<path fill="none" stroke="black" d="M931.63,-353.05C959.5,-353.15 986.11,-353.24 1006.74,-353.32"/>
<polygon fill="black" stroke="black" points="1006.95,-356.82 1016.96,-353.36 1006.97,-349.82 1006.95,-356.82"/>
</g>
<!-- 9 -->
<g id="22" class="node">
<title>9</title>
<ellipse fill="none" stroke="black" cx="1048.07" cy="-299.47" rx="33.62" ry="18"/>
<text text-anchor="middle" x="1048.07" y="-295.27" font-family="Times,serif" font-size="14.00">varint</text>
</g>
<!-- 8&#45;&gt;9 -->
<g id="edge14" class="edge">
<title>8&#45;&gt;9</title>
<path fill="none" stroke="black" d="M817.6,-298.63C869.66,-298.82 953.34,-299.13 1003.97,-299.31"/>
<polygon fill="black" stroke="black" points="1004.24,-302.81 1014.25,-299.35 1004.26,-295.81 1004.24,-302.81"/>
</g>
<!-- 11 -->
<g id="22" class="node">
<title>11</title>
<ellipse fill="none" stroke="black" cx="1048.07" cy="-245.47" rx="33.62" ry="18"/>
<text text-anchor="middle" x="1048.07" y="-241.27" font-family="Times,serif" font-size="14.00">varint</text>
</g>
<!-- 10&#45;&gt;11 -->
<g id="edge15" class="edge">
<title>10&#45;&gt;11</title>
<path fill="none" stroke="black" d="M571.31,-245.47C688.04,-245.47 910.93,-245.47 1004.28,-245.47"/>
<polygon fill="black" stroke="black" points="1004.48,-248.97 1014.48,-245.47 1004.48,-241.97 1004.48,-248.97"/>
</g>
<!-- 13 -->
<g id="22" class="node">
<title>13</title>
<ellipse fill="none" stroke="black" cx="1048.07" cy="-191.47" rx="28.41" ry="18"/>
<text text-anchor="middle" x="1048.07" y="-187.27" font-family="Times,serif" font-size="14.00">bool</text>
</g>
<!-- 12&#45;&gt;13 -->
<g id="edge16" class="edge">
<title>12&#45;&gt;13</title>
<path fill="none" stroke="black" d="M564.85,-191.47C681.8,-191.47 917.92,-191.47 1009.54,-191.47"/>
<polygon fill="black" stroke="black" points="1009.73,-194.97 1019.73,-191.47 1009.73,-187.97 1009.73,-194.97"/>
</g>
<!-- 15 -->
<g id="22" class="node">
<title>15</title>
<ellipse fill="none" stroke="black" cx="1048.07" cy="-137.47" rx="33.62" ry="18"/>
<text text-anchor="middle" x="1048.07" y="-133.27" font-family="Times,serif" font-size="14.00">varint</text>
</g>
<!-- 14&#45;&gt;15 -->
<g id="edge17" class="edge">
<title>14&#45;&gt;15</title>
<path fill="none" stroke="black" d="M383.48,-146.22C548.7,-144.04 884.85,-139.61 1004.01,-138.03"/>
<polygon fill="black" stroke="black" points="1004.24,-141.53 1014.19,-137.9 1004.15,-134.53 1004.24,-141.53"/>
</g>
<!-- 17 -->
<g id="22" class="node">
<title>17</title>
<ellipse fill="none" stroke="black" cx="496.14" cy="-89.47" rx="73.58" ry="18"/>
<text text-anchor="middle" x="496.14" y="-85.27" font-family="Times,serif" font-size="14.00">PlayerInputTick</text>
</g>
<!-- 16&#45;&gt;17 -->
<g id="edge18" class="edge">
<title>16&#45;&gt;17</title>
<path fill="none" stroke="black" d="M317.18,-91.2C341.53,-90.96 378.23,-90.6 411.98,-90.27"/>
<polygon fill="black" stroke="black" points="412.38,-93.77 422.35,-90.17 412.32,-86.77 412.38,-93.77"/>
</g>
<!-- 18 -->
<g id="22" class="node">
<title>18</title>
<ellipse fill="none" stroke="black" cx="770.09" cy="-85.47" rx="48.13" ry="18"/>
<text text-anchor="middle" x="770.09" y="-81.27" font-family="Times,serif" font-size="14.00">Input tick</text>
</g>
<!-- 17&#45;&gt;18 -->
<g id="edge19" class="edge">
<title>17&#45;&gt;18</title>
<path fill="none" stroke="black" d="M570.02,-88.39C614.4,-87.74 670.31,-86.92 711.57,-86.31"/>
<polygon fill="black" stroke="black" points="711.78,-89.81 721.73,-86.16 711.68,-82.81 711.78,-89.81"/>
</g>
<!-- 19 -->
<g id="22" class="node">
<title>19</title>
<ellipse fill="none" stroke="black" cx="1048.07" cy="-83.47" rx="80.5" ry="18"/>
<text text-anchor="middle" x="1048.07" y="-79.27" font-family="Times,serif" font-size="14.00">unsigned varint64</text>
</g>
<!-- 18&#45;&gt;19 -->
<g id="edge20" class="edge">
<title>18&#45;&gt;19</title>
<path fill="none" stroke="black" d="M818.53,-85.12C856.58,-84.85 911.08,-84.45 957.31,-84.12"/>
<polygon fill="black" stroke="black" points="957.37,-87.62 967.34,-84.04 957.32,-80.62 957.37,-87.62"/>
</g>
<!-- 21 -->
<g id="22" class="node">
<title>21</title>
<ellipse fill="none" stroke="black" cx="1048.07" cy="-29.47" rx="28.41" ry="18"/>
<text text-anchor="middle" x="1048.07" y="-25.27" font-family="Times,serif" font-size="14.00">bool</text>
</g>
<!-- 20&#45;&gt;21 -->
<g id="edge21" class="edge">
<title>20&#45;&gt;21</title>
<path fill="none" stroke="black" d="M815.13,-30.31C868.83,-30.11 958.69,-29.79 1009.36,-29.6"/>
<polygon fill="black" stroke="black" points="1009.56,-33.1 1019.55,-29.57 1009.53,-26.1 1009.56,-33.1"/>
</g>
</g>
</svg>
