<svg width="2291px" height="692px"
 viewBox="0.00 0.00 2290.85 692.00" xmlns="http://www.w3.org/2000/svg" xmlns:xlink="http://www.w3.org/1999/xlink">
<g id="graph0" class="graph" transform="scale(1.0 1.0) rotate(0.0) translate(4.0 688.0)">
<title>MobEquipmentPacket</title>
<polygon fill="white" stroke="transparent" points="-4,4 -4,-688 2286.85,-688 2286.85,4 -4,4"/>
<g id="0" class="node">
<title></title>
<ellipse fill="none" stroke="black" cx="97.4" cy="-126" rx="97.3" ry="18"/>
<text text-anchor="middle" x="97.4" y="-121.8" font-family="Times,serif" font-size="14.00">MobEquipmentPacket</text>
</g>
<!-- 1 -->
<g id="41" class="node">
<title>1</title>
<ellipse fill="none" stroke="black" cx="315.31" cy="-418" rx="84.53" ry="18"/>
<text text-anchor="middle" x="315.31" y="-413.8" font-family="Times,serif" font-size="14.00">Target Runtime ID</text>
</g>
<!-- &#45;&gt;1 -->
<g id="edge1" class="edge">
<title>&#45;&gt;1</title>
<path fill="none" stroke="black" d="M111.58,-143.83C148.24,-193.41 251.57,-333.15 294.85,-391.69"/>
<polygon fill="black" stroke="black" points="292.27,-394.08 301.03,-400.04 297.9,-389.91 292.27,-394.08"/>
</g>
<!-- 5 -->
<g id="41" class="node">
<title>5</title>
<ellipse fill="none" stroke="black" cx="315.31" cy="-257" rx="28.97" ry="18"/>
<text text-anchor="middle" x="315.31" y="-252.8" font-family="Times,serif" font-size="14.00">Item</text>
</g>
<!-- &#45;&gt;5 -->
<g id="edge2" class="edge">
<title>&#45;&gt;5</title>
<path fill="none" stroke="black" d="M127.07,-143.4C168.23,-168.37 243.68,-214.15 285.13,-239.29"/>
<polygon fill="black" stroke="black" points="283.55,-242.43 293.92,-244.63 287.18,-236.45 283.55,-242.43"/>
</g>
<!-- 35 -->
<g id="41" class="node">
<title>35</title>
<ellipse fill="none" stroke="black" cx="560.55" cy="-126" rx="27" ry="18"/>
<text text-anchor="middle" x="560.55" y="-121.8" font-family="Times,serif" font-size="14.00">Slot</text>
</g>
<!-- &#45;&gt;35 -->
<g id="edge3" class="edge">
<title>&#45;&gt;35</title>
<path fill="none" stroke="black" d="M195.07,-126C297.31,-126 453.32,-126 523.33,-126"/>
<polygon fill="black" stroke="black" points="523.41,-129.5 533.41,-126 523.41,-122.5 523.41,-129.5"/>
</g>
<!-- 37 -->
<g id="41" class="node">
<title>37</title>
<ellipse fill="none" stroke="black" cx="1263.04" cy="-76" rx="61.95" ry="18"/>
<text text-anchor="middle" x="1263.04" y="-71.8" font-family="Times,serif" font-size="14.00">Selected Slot</text>
</g>
<!-- &#45;&gt;37 -->
<g id="edge4" class="edge">
<title>&#45;&gt;37</title>
<path fill="none" stroke="black" d="M170.05,-113.89C260.52,-99.67 421.1,-78 559.55,-78 559.55,-78 559.55,-78 802.52,-78 940.02,-78 1100.67,-77.09 1190.97,-76.5"/>
<polygon fill="black" stroke="black" points="1191.11,-80 1201.09,-76.43 1191.07,-73 1191.11,-80"/>
</g>
<!-- 39 -->
<g id="41" class="node">
<title>39</title>
<ellipse fill="none" stroke="black" cx="1018.88" cy="-24" rx="61.94" ry="18"/>
<text text-anchor="middle" x="1018.88" y="-19.8" font-family="Times,serif" font-size="14.00">Container ID</text>
</g>
<!-- &#45;&gt;39 -->
<g id="edge5" class="edge">
<title>&#45;&gt;39</title>
<path fill="none" stroke="black" d="M126.64,-108.82C152.66,-93.97 192.87,-73.46 230.8,-64 489.51,0.51 810.43,-10.01 948.94,-18.72"/>
<polygon fill="black" stroke="black" points="948.79,-22.22 958.99,-19.37 949.24,-15.23 948.79,-22.22"/>
</g>
<!-- 2 -->
<g id="41" class="node">
<title>2</title>
<ellipse fill="none" stroke="black" cx="560.55" cy="-548" rx="76.44" ry="18"/>
<text text-anchor="middle" x="560.55" y="-543.8" font-family="Times,serif" font-size="14.00">ActorRuntimeID</text>
</g>
<!-- 1&#45;&gt;2 -->
<g id="edge6" class="edge">
<title>1&#45;&gt;2</title>
<path fill="none" stroke="black" d="M347.61,-434.73C391.61,-458.24 471.74,-501.07 519.86,-526.79"/>
<polygon fill="black" stroke="black" points="518.28,-529.91 528.75,-531.54 521.58,-523.74 518.28,-529.91"/>
</g>
<!-- 3 -->
<g id="41" class="node">
<title>3</title>
<ellipse fill="none" stroke="black" cx="1520.2" cy="-662" rx="81.1" ry="18"/>
<text text-anchor="middle" x="1520.2" y="-657.8" font-family="Times,serif" font-size="14.00">Actor Runtime ID</text>
</g>
<!-- 2&#45;&gt;3 -->
<g id="edge7" class="edge">
<title>2&#45;&gt;3</title>
<path fill="none" stroke="black" d="M611.85,-561.4C680.45,-579.09 807.45,-609.77 917.76,-625 1098,-649.88 1310.96,-658.03 1428.97,-660.7"/>
<polygon fill="black" stroke="black" points="1428.97,-664.2 1439.04,-660.92 1429.12,-657.2 1428.97,-664.2"/>
</g>
<!-- 4 -->
<g id="41" class="node">
<title>4</title>
<ellipse fill="none" stroke="black" cx="2202.35" cy="-666" rx="80.5" ry="18"/>
<text text-anchor="middle" x="2202.35" y="-661.8" font-family="Times,serif" font-size="14.00">unsigned varint64</text>
</g>
<!-- 3&#45;&gt;4 -->
<g id="edge8" class="edge">
<title>3&#45;&gt;4</title>
<path fill="none" stroke="black" d="M1601.56,-662.47C1729.34,-663.22 1978.04,-664.69 2111.53,-665.47"/>
<polygon fill="black" stroke="black" points="2111.7,-668.97 2121.72,-665.53 2111.74,-661.97 2111.7,-668.97"/>
</g>
<!-- 6 -->
<g id="41" class="node">
<title>6</title>
<ellipse fill="none" stroke="black" cx="560.55" cy="-365" rx="124.95" ry="18"/>
<text text-anchor="middle" x="560.55" y="-360.8" font-family="Times,serif" font-size="14.00">NetworkItemStackDescriptor</text>
</g>
<!-- 5&#45;&gt;6 -->
<g id="edge9" class="edge">
<title>5&#45;&gt;6</title>
<path fill="none" stroke="black" d="M339.19,-267.16C378.49,-284.61 459.61,-320.63 511.7,-343.75"/>
<polygon fill="black" stroke="black" points="510.51,-347.06 521.07,-347.92 513.36,-340.66 510.51,-347.06"/>
</g>
<!-- 7 -->
<g id="41" class="node">
<title>7</title>
<ellipse fill="none" stroke="black" cx="1018.88" cy="-598" rx="27" ry="18"/>
<text text-anchor="middle" x="1018.88" y="-593.8" font-family="Times,serif" font-size="14.00">Id</text>
</g>
<!-- 6&#45;&gt;7 -->
<g id="edge10" class="edge">
<title>6&#45;&gt;7</title>
<path fill="none" stroke="black" d="M572.39,-382.98C595.1,-418.95 651.4,-499.71 721.28,-539 805.93,-586.6 923.12,-596.22 981.62,-597.89"/>
<polygon fill="black" stroke="black" points="981.76,-601.39 991.84,-598.11 981.92,-594.39 981.76,-601.39"/>
</g>
<!-- 9 -->
<g id="41" class="node">
<title>9</title>
<ellipse fill="none" stroke="black" cx="1263.04" cy="-554" rx="49.83" ry="18"/>
<text text-anchor="middle" x="1263.04" y="-549.8" font-family="Times,serif" font-size="14.00">Stack size</text>
</g>
<!-- 6&#45;&gt;9 -->
<g id="edge11" class="edge">
<title>6&#45;&gt;9</title>
<path fill="none" stroke="black" d="M606.02,-381.81C637.91,-393.63 681.99,-409.51 721.28,-422 896.95,-477.86 1111.06,-523.76 1208.79,-543.53"/>
<polygon fill="black" stroke="black" points="1208.23,-546.99 1218.73,-545.53 1209.61,-540.13 1208.23,-546.99"/>
</g>
<!-- 11 -->
<g id="41" class="node">
<title>11</title>
<ellipse fill="none" stroke="black" cx="1018.88" cy="-450" rx="50.99" ry="18"/>
<text text-anchor="middle" x="1018.88" y="-445.8" font-family="Times,serif" font-size="14.00">Aux value</text>
</g>
<!-- 6&#45;&gt;11 -->
<g id="edge12" class="edge">
<title>6&#45;&gt;11</title>
<path fill="none" stroke="black" d="M637.67,-379.18C729.72,-396.32 882.34,-424.75 963.4,-439.85"/>
<polygon fill="black" stroke="black" points="962.92,-443.32 973.39,-441.71 964.2,-436.44 962.92,-443.32"/>
</g>
<!-- 13 -->
<g id="41" class="node">
<title>13</title>
<ellipse fill="none" stroke="black" cx="801.52" cy="-365" rx="66.61" ry="18"/>
<text text-anchor="middle" x="801.52" y="-360.8" font-family="Times,serif" font-size="14.00">Net Id Variant</text>
</g>
<!-- 6&#45;&gt;13 -->
<g id="edge13" class="edge">
<title>6&#45;&gt;13</title>
<path fill="none" stroke="black" d="M685.58,-365C698.81,-365 711.97,-365 724.4,-365"/>
<polygon fill="black" stroke="black" points="724.65,-368.5 734.65,-365 724.65,-361.5 724.65,-368.5"/>
</g>
<!-- 31 -->
<g id="41" class="node">
<title>31</title>
<ellipse fill="none" stroke="black" cx="801.52" cy="-298" rx="80.48" ry="18"/>
<text text-anchor="middle" x="801.52" y="-293.8" font-family="Times,serif" font-size="14.00">Block Runtime Id</text>
</g>
<!-- 6&#45;&gt;31 -->
<g id="edge14" class="edge">
<title>6&#45;&gt;31</title>
<path fill="none" stroke="black" d="M618.49,-349.04C655.36,-338.7 703.31,-325.25 740.74,-314.76"/>
<polygon fill="black" stroke="black" points="741.82,-318.09 750.5,-312.02 739.93,-311.35 741.82,-318.09"/>
</g>
<!-- 33 -->
<g id="41" class="node">
<title>33</title>
<ellipse fill="none" stroke="black" cx="801.52" cy="-217" rx="77.54" ry="18"/>
<text text-anchor="middle" x="801.52" y="-212.8" font-family="Times,serif" font-size="14.00">User Data Buffer</text>
</g>
<!-- 6&#45;&gt;33 -->
<g id="edge15" class="edge">
<title>6&#45;&gt;33</title>
<path fill="none" stroke="black" d="M589.9,-347.44C633.46,-320.47 716.79,-268.86 764.54,-239.28"/>
<polygon fill="black" stroke="black" points="766.65,-242.09 773.31,-233.85 762.96,-236.14 766.65,-242.09"/>
</g>
<!-- 8 -->
<g id="41" class="node">
<title>8</title>
<ellipse fill="none" stroke="black" cx="2202.35" cy="-612" rx="30.78" ry="18"/>
<text text-anchor="middle" x="2202.35" y="-607.8" font-family="Times,serif" font-size="14.00">int16</text>
</g>
<!-- 7&#45;&gt;8 -->
<g id="edge16" class="edge">
<title>7&#45;&gt;8</title>
<path fill="none" stroke="black" d="M1045.87,-599.24C1119.84,-602.67 1337.95,-612 1519.2,-612 1519.2,-612 1519.2,-612 1879.09,-612 1980.42,-612 2099.68,-612 2160.77,-612"/>
<polygon fill="black" stroke="black" points="2161.13,-615.5 2171.13,-612 2161.13,-608.5 2161.13,-615.5"/>
</g>
<!-- 10 -->
<g id="41" class="node">
<title>10</title>
<ellipse fill="none" stroke="black" cx="2202.35" cy="-558" rx="35.94" ry="18"/>
<text text-anchor="middle" x="2202.35" y="-553.8" font-family="Times,serif" font-size="14.00">uint16</text>
</g>
<!-- 9&#45;&gt;10 -->
<g id="edge17" class="edge">
<title>9&#45;&gt;10</title>
<path fill="none" stroke="black" d="M1312.99,-554.75C1393.11,-555.91 1557.29,-558 1696.33,-558 1696.33,-558 1696.33,-558 1879.09,-558 1977.99,-558 2093.96,-558 2156.27,-558"/>
<polygon fill="black" stroke="black" points="2156.53,-561.5 2166.53,-558 2156.53,-554.5 2156.53,-561.5"/>
</g>
<!-- 12 -->
<g id="41" class="node">
<title>12</title>
<ellipse fill="none" stroke="black" cx="2202.35" cy="-504" rx="70.69" ry="18"/>
<text text-anchor="middle" x="2202.35" y="-499.8" font-family="Times,serif" font-size="14.00">unsigned varint</text>
</g>
<!-- 11&#45;&gt;12 -->
<g id="edge18" class="edge">
<title>11&#45;&gt;12</title>
<path fill="none" stroke="black" d="M1064.47,-458.08C1151.55,-473.15 1350.48,-504 1519.2,-504 1519.2,-504 1519.2,-504 1879.09,-504 1961.53,-504 2055.85,-504 2121.04,-504"/>
<polygon fill="black" stroke="black" points="2121.25,-507.5 2131.25,-504 2121.25,-500.5 2121.25,-507.5"/>
</g>
<!-- 14 -->
<g id="41" class="node">
<title>14</title>
<ellipse fill="none" stroke="black" cx="1018.88" cy="-365" rx="101.26" ry="18"/>
<text text-anchor="middle" x="1018.88" y="-360.8" font-family="Times,serif" font-size="14.00">ItemStackNetIdVariant</text>
</g>
<!-- 13&#45;&gt;14 -->
<g id="edge19" class="edge">
<title>13&#45;&gt;14</title>
<path fill="none" stroke="black" d="M868.6,-365C880.91,-365 894.09,-365 907.32,-365"/>
<polygon fill="black" stroke="black" points="907.44,-368.5 917.44,-365 907.44,-361.5 907.44,-368.5"/>
</g>
<!-- 15 -->
<g id="41" class="node">
<title>15</title>
<ellipse fill="none" stroke="black" cx="1263.04" cy="-365" rx="107.06" ry="18"/>
<text text-anchor="middle" x="1263.04" y="-360.8" font-family="Times,serif" font-size="14.00">Item stack net ID variant</text>
</g>
<!-- 14&#45;&gt;15 -->
<g id="edge20" class="edge">
<title>14&#45;&gt;15</title>
<path fill="none" stroke="black" d="M1120.13,-365C1128.64,-365 1137.29,-365 1145.91,-365"/>
<polygon fill="black" stroke="black" points="1146,-368.5 1156,-365 1146,-361.5 1146,-368.5"/>
</g>
<!-- 16 -->
<g id="41" class="node">
<title>16</title>
<ellipse fill="none" stroke="black" cx="1520.2" cy="-427" rx="88.05" ry="18"/>
<text text-anchor="middle" x="1520.2" y="-422.8" font-family="Times,serif" font-size="14.00">Control Value Type</text>
</g>
<!-- 15&#45;&gt;16 -->
<g id="edge21" class="edge">
<title>15&#45;&gt;16</title>
<path fill="none" stroke="black" d="M1324.83,-379.77C1363.43,-389.15 1413.37,-401.29 1452.97,-410.91"/>
<polygon fill="black" stroke="black" points="1452.26,-414.34 1462.8,-413.3 1453.91,-407.53 1452.26,-414.34"/>
</g>
<!-- 18 -->
<g id="41" class="node">
<title>18</title>
<polygon fill="none" stroke="black" points="1628.46,-368 1405.94,-368 1405.94,-332 1634.46,-332 1634.46,-362 1628.46,-368"/>
<polyline fill="none" stroke="black" points="1628.46,-368 1628.46,-362 "/>
<polyline fill="none" stroke="black" points="1634.46,-362 1628.46,-362 "/>
<text text-anchor="middle" x="1520.2" y="-345.8" font-family="Times,serif" font-size="14.00">Dependency on &#39;Control Value Type&#39;</text>
</g>
<!-- 15&#45;&gt;18 -->
<g id="edge22" class="edge">
<title>15&#45;&gt;18</title>
<path fill="none" stroke="black" d="M1364.52,-359.09C1374.77,-358.49 1385.27,-357.87 1395.73,-357.26"/>
<polygon fill="black" stroke="black" points="1395.96,-360.75 1405.73,-356.67 1395.55,-353.76 1395.96,-360.75"/>
</g>
<!-- 17 -->
<g id="41" class="node">
<title>17</title>
<ellipse fill="none" stroke="black" cx="2202.35" cy="-450" rx="70.69" ry="18"/>
<text text-anchor="middle" x="2202.35" y="-445.8" font-family="Times,serif" font-size="14.00">unsigned varint</text>
</g>
<!-- 16&#45;&gt;17 -->
<g id="edge23" class="edge">
<title>16&#45;&gt;17</title>
<path fill="none" stroke="black" d="M1607.34,-429.91C1740.11,-434.4 1992.87,-442.95 2121.64,-447.3"/>
<polygon fill="black" stroke="black" points="2121.71,-450.81 2131.83,-447.65 2121.95,-443.81 2121.71,-450.81"/>
</g>
<!-- 19 -->
<g id="41" class="node">
<title>19</title>
<polygon fill="none" stroke="black" points="1697.33,-414 1670.33,-396 1697.33,-378 1724.33,-396 1697.33,-414"/>
<text text-anchor="middle" x="1697.33" y="-391.8" font-family="Times,serif" font-size="14.00">0</text>
</g>
<!-- 18&#45;&gt;19 -->
<g id="edge24" class="edge">
<title>18&#45;&gt;19</title>
<path fill="none" stroke="black" d="M1589.91,-368.05C1616.97,-375.15 1646.54,-382.92 1667.63,-388.46"/>
<polygon fill="black" stroke="black" points="1666.98,-391.91 1677.54,-391.06 1668.75,-385.14 1666.98,-391.91"/>
</g>
<!-- 23 -->
<g id="41" class="node">
<title>23</title>
<polygon fill="none" stroke="black" points="1697.33,-360 1670.33,-342 1697.33,-324 1724.33,-342 1697.33,-360"/>
<text text-anchor="middle" x="1697.33" y="-337.8" font-family="Times,serif" font-size="14.00">1</text>
</g>
<!-- 18&#45;&gt;23 -->
<g id="edge25" class="edge">
<title>18&#45;&gt;23</title>
<path fill="none" stroke="black" d="M1634.58,-344.82C1644.28,-344.38 1653.51,-343.96 1661.74,-343.58"/>
<polygon fill="black" stroke="black" points="1662.1,-347.07 1671.93,-343.11 1661.79,-340.07 1662.1,-347.07"/>
</g>
<!-- 27 -->
<g id="41" class="node">
<title>27</title>
<polygon fill="none" stroke="black" points="1697.33,-306 1670.33,-288 1697.33,-270 1724.33,-288 1697.33,-306"/>
<text text-anchor="middle" x="1697.33" y="-283.8" font-family="Times,serif" font-size="14.00">2</text>
</g>
<!-- 18&#45;&gt;27 -->
<g id="edge26" class="edge">
<title>18&#45;&gt;27</title>
<path fill="none" stroke="black" d="M1572.33,-331.9C1604.23,-320.6 1644,-306.53 1669.76,-297.41"/>
<polygon fill="black" stroke="black" points="1670.97,-300.69 1679.23,-294.05 1668.64,-294.09 1670.97,-300.69"/>
</g>
<!-- 20 -->
<g id="41" class="node">
<title>20</title>
<ellipse fill="none" stroke="black" cx="1878.09" cy="-396" rx="72.35" ry="18"/>
<text text-anchor="middle" x="1878.09" y="-391.8" font-family="Times,serif" font-size="14.00">ItemStackNetId</text>
</g>
<!-- 19&#45;&gt;20 -->
<g id="edge27" class="edge">
<title>19&#45;&gt;20</title>
<path fill="none" stroke="black" d="M1724.7,-396C1743.57,-396 1770.05,-396 1795.65,-396"/>
<polygon fill="black" stroke="black" points="1795.78,-399.5 1805.78,-396 1795.78,-392.5 1795.78,-399.5"/>
</g>
<!-- 21 -->
<g id="41" class="node">
<title>21</title>
<ellipse fill="none" stroke="black" cx="2058.84" cy="-396" rx="27" ry="18"/>
<text text-anchor="middle" x="2058.84" y="-391.8" font-family="Times,serif" font-size="14.00">ID</text>
</g>
<!-- 20&#45;&gt;21 -->
<g id="edge28" class="edge">
<title>20&#45;&gt;21</title>
<path fill="none" stroke="black" d="M1950.51,-396C1974.85,-396 2001.05,-396 2021.48,-396"/>
<polygon fill="black" stroke="black" points="2021.59,-399.5 2031.59,-396 2021.59,-392.5 2021.59,-399.5"/>
</g>
<!-- 22 -->
<g id="41" class="node">
<title>22</title>
<ellipse fill="none" stroke="black" cx="2202.35" cy="-396" rx="33.62" ry="18"/>
<text text-anchor="middle" x="2202.35" y="-391.8" font-family="Times,serif" font-size="14.00">varint</text>
</g>
<!-- 21&#45;&gt;22 -->
<g id="edge29" class="edge">
<title>21&#45;&gt;22</title>
<path fill="none" stroke="black" d="M2086.13,-396C2106.46,-396 2135.02,-396 2158.63,-396"/>
<polygon fill="black" stroke="black" points="2158.73,-399.5 2168.73,-396 2158.73,-392.5 2158.73,-399.5"/>
</g>
<!-- 24 -->
<g id="41" class="node">
<title>24</title>
<ellipse fill="none" stroke="black" cx="1878.09" cy="-342" rx="89.18" ry="18"/>
<text text-anchor="middle" x="1878.09" y="-337.8" font-family="Times,serif" font-size="14.00">ItemStackRequestId</text>
</g>
<!-- 23&#45;&gt;24 -->
<g id="edge30" class="edge">
<title>23&#45;&gt;24</title>
<path fill="none" stroke="black" d="M1724.7,-342C1739.33,-342 1758.53,-342 1778.35,-342"/>
<polygon fill="black" stroke="black" points="1778.43,-345.5 1788.43,-342 1778.43,-338.5 1778.43,-345.5"/>
</g>
<!-- 25 -->
<g id="41" class="node">
<title>25</title>
<ellipse fill="none" stroke="black" cx="2058.84" cy="-342" rx="27" ry="18"/>
<text text-anchor="middle" x="2058.84" y="-337.8" font-family="Times,serif" font-size="14.00">ID</text>
</g>
<!-- 24&#45;&gt;25 -->
<g id="edge31" class="edge">
<title>24&#45;&gt;25</title>
<path fill="none" stroke="black" d="M1967.68,-342C1986.65,-342 2005.67,-342 2021.32,-342"/>
<polygon fill="black" stroke="black" points="2021.57,-345.5 2031.57,-342 2021.57,-338.5 2021.57,-345.5"/>
</g>
<!-- 26 -->
<g id="41" class="node">
<title>26</title>
<ellipse fill="none" stroke="black" cx="2202.35" cy="-342" rx="33.62" ry="18"/>
<text text-anchor="middle" x="2202.35" y="-337.8" font-family="Times,serif" font-size="14.00">varint</text>
</g>
<!-- 25&#45;&gt;26 -->
<g id="edge32" class="edge">
<title>25&#45;&gt;26</title>
<path fill="none" stroke="black" d="M2086.13,-342C2106.46,-342 2135.02,-342 2158.63,-342"/>
<polygon fill="black" stroke="black" points="2158.73,-345.5 2168.73,-342 2158.73,-338.5 2158.73,-345.5"/>
</g>
<!-- 28 -->
<g id="41" class="node">
<title>28</title>
<ellipse fill="none" stroke="black" cx="1878.09" cy="-288" rx="117.52" ry="18"/>
<text text-anchor="middle" x="1878.09" y="-283.8" font-family="Times,serif" font-size="14.00">ItemStackLegacyRequestId</text>
</g>
<!-- 27&#45;&gt;28 -->
<g id="edge33" class="edge">
<title>27&#45;&gt;28</title>
<path fill="none" stroke="black" d="M1724.7,-288C1732.12,-288 1740.72,-288 1749.97,-288"/>
<polygon fill="black" stroke="black" points="1750.25,-291.5 1760.25,-288 1750.25,-284.5 1750.25,-291.5"/>
</g>
<!-- 29 -->
<g id="41" class="node">
<title>29</title>
<ellipse fill="none" stroke="black" cx="2058.84" cy="-288" rx="27" ry="18"/>
<text text-anchor="middle" x="2058.84" y="-283.8" font-family="Times,serif" font-size="14.00">ID</text>
</g>
<!-- 28&#45;&gt;29 -->
<g id="edge34" class="edge">
<title>28&#45;&gt;29</title>
<path fill="none" stroke="black" d="M1996.07,-288C2005.15,-288 2013.81,-288 2021.62,-288"/>
<polygon fill="black" stroke="black" points="2021.7,-291.5 2031.7,-288 2021.7,-284.5 2021.7,-291.5"/>
</g>
<!-- 30 -->
<g id="41" class="node">
<title>30</title>
<ellipse fill="none" stroke="black" cx="2202.35" cy="-288" rx="33.62" ry="18"/>
<text text-anchor="middle" x="2202.35" y="-283.8" font-family="Times,serif" font-size="14.00">varint</text>
</g>
<!-- 29&#45;&gt;30 -->
<g id="edge35" class="edge">
<title>29&#45;&gt;30</title>
<path fill="none" stroke="black" d="M2086.13,-288C2106.46,-288 2135.02,-288 2158.63,-288"/>
<polygon fill="black" stroke="black" points="2158.73,-291.5 2168.73,-288 2158.73,-284.5 2158.73,-291.5"/>
</g>
<!-- 32 -->
<g id="41" class="node">
<title>32</title>
<ellipse fill="none" stroke="black" cx="2202.35" cy="-234" rx="70.69" ry="18"/>
<text text-anchor="middle" x="2202.35" y="-229.8" font-family="Times,serif" font-size="14.00">unsigned varint</text>
</g>
<!-- 31&#45;&gt;32 -->
<g id="edge36" class="edge">
<title>31&#45;&gt;32</title>
<path fill="none" stroke="black" d="M858.05,-285.2C944.09,-266.53 1115.04,-234 1262.04,-234 1262.04,-234 1262.04,-234 1879.09,-234 1961.53,-234 2055.85,-234 2121.04,-234"/>
<polygon fill="black" stroke="black" points="2121.25,-237.5 2131.25,-234 2121.25,-230.5 2121.25,-237.5"/>
</g>
<!-- 34 -->
<g id="41" class="node">
<title>34</title>
<ellipse fill="none" stroke="black" cx="2202.35" cy="-180" rx="33.06" ry="18"/>
<text text-anchor="middle" x="2202.35" y="-175.8" font-family="Times,serif" font-size="14.00">string</text>
</g>
<!-- 33&#45;&gt;34 -->
<g id="edge37" class="edge">
<title>33&#45;&gt;34</title>
<path fill="none" stroke="black" d="M869.35,-208.23C958.67,-197.29 1121.98,-180 1262.04,-180 1262.04,-180 1262.04,-180 1879.09,-180 1979.31,-180 2097.06,-180 2158.74,-180"/>
<polygon fill="black" stroke="black" points="2158.87,-183.5 2168.87,-180 2158.87,-176.5 2158.87,-183.5"/>
</g>
<!-- 36 -->
<g id="41" class="node">
<title>36</title>
<ellipse fill="none" stroke="black" cx="2202.35" cy="-126" rx="30.78" ry="18"/>
<text text-anchor="middle" x="2202.35" y="-121.8" font-family="Times,serif" font-size="14.00">uint8</text>
</g>
<!-- 35&#45;&gt;36 -->
<g id="edge38" class="edge">
<title>35&#45;&gt;36</title>
<path fill="none" stroke="black" d="M587.79,-126C657.7,-126 854.29,-126 1017.88,-126 1017.88,-126 1017.88,-126 1879.09,-126 1980.42,-126 2099.68,-126 2160.77,-126"/>
<polygon fill="black" stroke="black" points="2161.13,-129.5 2171.13,-126 2161.13,-122.5 2161.13,-129.5"/>
</g>
<!-- 38 -->
<g id="41" class="node">
<title>38</title>
<ellipse fill="none" stroke="black" cx="2202.35" cy="-72" rx="30.78" ry="18"/>
<text text-anchor="middle" x="2202.35" y="-67.8" font-family="Times,serif" font-size="14.00">uint8</text>
</g>
<!-- 37&#45;&gt;38 -->
<g id="edge39" class="edge">
<title>37&#45;&gt;38</title>
<path fill="none" stroke="black" d="M1324.89,-75.08C1408.57,-73.9 1563.86,-72 1696.33,-72 1696.33,-72 1696.33,-72 1879.09,-72 1980.42,-72 2099.68,-72 2160.77,-72"/>
<polygon fill="black" stroke="black" points="2161.13,-75.5 2171.13,-72 2161.13,-68.5 2161.13,-75.5"/>
</g>
<!-- 40 -->
<g id="41" class="node">
<title>40</title>
<ellipse fill="none" stroke="black" cx="2202.35" cy="-18" rx="30.78" ry="18"/>
<text text-anchor="middle" x="2202.35" y="-13.8" font-family="Times,serif" font-size="14.00">uint8</text>
</g>
<!-- 39&#45;&gt;40 -->
<g id="edge40" class="edge">
<title>39&#45;&gt;40</title>
<path fill="none" stroke="black" d="M1080.6,-22.8C1174.59,-21.05 1360.98,-18 1519.2,-18 1519.2,-18 1519.2,-18 1879.09,-18 1980.42,-18 2099.68,-18 2160.77,-18"/>
<polygon fill="black" stroke="black" points="2161.13,-21.5 2171.13,-18 2161.13,-14.5 2161.13,-21.5"/>
</g>
</g>
</svg>
