<svg width="1412px" height="422px"
 viewBox="0.00 0.00 1411.50 422.00" xmlns="http://www.w3.org/2000/svg" xmlns:xlink="http://www.w3.org/1999/xlink">
<g id="graph0" class="graph" transform="scale(1.0 1.0) rotate(0.0) translate(4.0 418.0)">
<title>MoveActorAbsolutePacket</title>
<polygon fill="white" stroke="transparent" points="-4,4 -4,-418 1407.5,-418 1407.5,4 -4,4"/>
<g id="0" class="node">
<title></title>
<ellipse fill="none" stroke="black" cx="116.16" cy="-180" rx="116.31" ry="18"/>
<text text-anchor="middle" x="116.16" y="-175.8" font-family="Times,serif" font-size="14.00">MoveActorAbsolutePacket</text>
</g>
<!-- 1 -->
<g id="23" class="node">
<title>1</title>
<ellipse fill="none" stroke="black" cx="322.52" cy="-180" rx="54.41" ry="18"/>
<text text-anchor="middle" x="322.52" y="-175.8" font-family="Times,serif" font-size="14.00">Move Data</text>
</g>
<!-- &#45;&gt;1 -->
<g id="edge1" class="edge">
<title>&#45;&gt;1</title>
<path fill="none" stroke="black" d="M232.48,-180C241.13,-180 249.66,-180 257.81,-180"/>
<polygon fill="black" stroke="black" points="257.91,-183.5 267.91,-180 257.91,-176.5 257.91,-183.5"/>
</g>
<!-- 2 -->
<g id="23" class="node">
<title>2</title>
<ellipse fill="none" stroke="black" cx="521.37" cy="-180" rx="108.79" ry="18"/>
<text text-anchor="middle" x="521.37" y="-175.8" font-family="Times,serif" font-size="14.00">MoveActorAbsoluteData</text>
</g>
<!-- 1&#45;&gt;2 -->
<g id="edge2" class="edge">
<title>1&#45;&gt;2</title>
<path fill="none" stroke="black" d="M376.79,-180C384.9,-180 393.53,-180 402.38,-180"/>
<polygon fill="black" stroke="black" points="402.44,-183.5 412.44,-180 402.44,-176.5 402.44,-183.5"/>
</g>
<!-- 3 -->
<g id="23" class="node">
<title>3</title>
<ellipse fill="none" stroke="black" cx="742.49" cy="-364" rx="76.44" ry="18"/>
<text text-anchor="middle" x="742.49" y="-359.8" font-family="Times,serif" font-size="14.00">ActorRuntimeID</text>
</g>
<!-- 2&#45;&gt;3 -->
<g id="edge3" class="edge">
<title>2&#45;&gt;3</title>
<path fill="none" stroke="black" d="M537.89,-197.99C562.95,-226.36 614.71,-282.24 666.01,-321 676.46,-328.89 688.5,-336.37 699.85,-342.82"/>
<polygon fill="black" stroke="black" points="698.31,-345.97 708.76,-347.75 701.71,-339.85 698.31,-345.97"/>
</g>
<!-- 7 -->
<g id="23" class="node">
<title>7</title>
<ellipse fill="none" stroke="black" cx="931.43" cy="-311" rx="38.82" ry="18"/>
<text text-anchor="middle" x="931.43" y="-306.8" font-family="Times,serif" font-size="14.00">Header</text>
</g>
<!-- 2&#45;&gt;7 -->
<g id="edge4" class="edge">
<title>2&#45;&gt;7</title>
<path fill="none" stroke="black" d="M554.4,-197.2C583.02,-212.01 626.41,-233.13 666.01,-247 740.97,-273.26 831.55,-292.64 884.88,-302.84"/>
<polygon fill="black" stroke="black" points="884.24,-306.28 894.71,-304.7 885.54,-299.4 884.24,-306.28"/>
</g>
<!-- 9 -->
<g id="23" class="node">
<title>9</title>
<ellipse fill="none" stroke="black" cx="742.49" cy="-220" rx="42.89" ry="18"/>
<text text-anchor="middle" x="742.49" y="-215.8" font-family="Times,serif" font-size="14.00">Position</text>
</g>
<!-- 2&#45;&gt;9 -->
<g id="edge5" class="edge">
<title>2&#45;&gt;9</title>
<path fill="none" stroke="black" d="M595.03,-193.26C627.2,-199.14 664.19,-205.89 692.94,-211.14"/>
<polygon fill="black" stroke="black" points="692.67,-214.65 703.14,-213 693.93,-207.76 692.67,-214.65"/>
</g>
<!-- 17 -->
<g id="23" class="node">
<title>17</title>
<ellipse fill="none" stroke="black" cx="742.49" cy="-153" rx="53.87" ry="18"/>
<text text-anchor="middle" x="742.49" y="-148.8" font-family="Times,serif" font-size="14.00">Rotation X</text>
</g>
<!-- 2&#45;&gt;17 -->
<g id="edge6" class="edge">
<title>2&#45;&gt;17</title>
<path fill="none" stroke="black" d="M608.97,-169.33C633.35,-166.33 659.31,-163.13 681.74,-160.36"/>
<polygon fill="black" stroke="black" points="682.28,-163.82 691.78,-159.13 681.43,-156.87 682.28,-163.82"/>
</g>
<!-- 19 -->
<g id="23" class="node">
<title>19</title>
<ellipse fill="none" stroke="black" cx="931.43" cy="-76" rx="53.87" ry="18"/>
<text text-anchor="middle" x="931.43" y="-71.8" font-family="Times,serif" font-size="14.00">Rotation Y</text>
</g>
<!-- 2&#45;&gt;19 -->
<g id="edge7" class="edge">
<title>2&#45;&gt;19</title>
<path fill="none" stroke="black" d="M561.39,-163.24C589.94,-151.49 629.84,-136.14 666.01,-126 735.32,-106.58 816.98,-92.42 871.02,-84.23"/>
<polygon fill="black" stroke="black" points="871.74,-87.66 881.11,-82.72 870.7,-80.74 871.74,-87.66"/>
</g>
<!-- 21 -->
<g id="23" class="node">
<title>21</title>
<ellipse fill="none" stroke="black" cx="742.49" cy="-22" rx="76.45" ry="18"/>
<text text-anchor="middle" x="742.49" y="-17.8" font-family="Times,serif" font-size="14.00">Rotation Y Head</text>
</g>
<!-- 2&#45;&gt;21 -->
<g id="edge8" class="edge">
<title>2&#45;&gt;21</title>
<path fill="none" stroke="black" d="M541.38,-162.27C568,-137.95 618.47,-93.66 666.01,-62 676.24,-55.19 687.74,-48.6 698.63,-42.8"/>
<polygon fill="black" stroke="black" points="700.34,-45.86 707.59,-38.13 697.11,-39.65 700.34,-45.86"/>
</g>
<!-- 4 -->
<g id="23" class="node">
<title>4</title>
<ellipse fill="none" stroke="black" cx="931.43" cy="-376" rx="76.44" ry="18"/>
<text text-anchor="middle" x="931.43" y="-371.8" font-family="Times,serif" font-size="14.00">ActorRuntimeID</text>
</g>
<!-- 3&#45;&gt;4 -->
<g id="edge9" class="edge">
<title>3&#45;&gt;4</title>
<path fill="none" stroke="black" d="M816.57,-368.69C826.63,-369.34 837.02,-370 847.25,-370.66"/>
<polygon fill="black" stroke="black" points="847.2,-374.16 857.4,-371.31 847.65,-367.18 847.2,-374.16"/>
</g>
<!-- 5 -->
<g id="23" class="node">
<title>5</title>
<ellipse fill="none" stroke="black" cx="1125.2" cy="-392" rx="81.1" ry="18"/>
<text text-anchor="middle" x="1125.2" y="-387.8" font-family="Times,serif" font-size="14.00">Actor Runtime ID</text>
</g>
<!-- 4&#45;&gt;5 -->
<g id="edge10" class="edge">
<title>4&#45;&gt;5</title>
<path fill="none" stroke="black" d="M1003.84,-381.96C1015.21,-382.91 1027.06,-383.9 1038.71,-384.87"/>
<polygon fill="black" stroke="black" points="1038.63,-388.37 1048.88,-385.72 1039.21,-381.4 1038.63,-388.37"/>
</g>
<!-- 6 -->
<g id="23" class="node">
<title>6</title>
<ellipse fill="none" stroke="black" cx="1323" cy="-396" rx="80.5" ry="18"/>
<text text-anchor="middle" x="1323" y="-391.8" font-family="Times,serif" font-size="14.00">unsigned varint64</text>
</g>
<!-- 5&#45;&gt;6 -->
<g id="edge11" class="edge">
<title>5&#45;&gt;6</title>
<path fill="none" stroke="black" d="M1206.41,-393.64C1214.98,-393.81 1223.75,-393.99 1232.43,-394.17"/>
<polygon fill="black" stroke="black" points="1232.49,-397.67 1242.56,-394.38 1232.63,-390.67 1232.49,-397.67"/>
</g>
<!-- 8 -->
<g id="23" class="node">
<title>8</title>
<ellipse fill="none" stroke="black" cx="1323" cy="-342" rx="30.78" ry="18"/>
<text text-anchor="middle" x="1323" y="-337.8" font-family="Times,serif" font-size="14.00">uint8</text>
</g>
<!-- 7&#45;&gt;8 -->
<g id="edge12" class="edge">
<title>7&#45;&gt;8</title>
<path fill="none" stroke="black" d="M970.14,-314C1043.91,-319.87 1206.68,-332.82 1282.15,-338.83"/>
<polygon fill="black" stroke="black" points="1281.95,-342.32 1292.2,-339.63 1282.51,-335.35 1281.95,-342.32"/>
</g>
<!-- 10 -->
<g id="23" class="node">
<title>10</title>
<ellipse fill="none" stroke="black" cx="931.43" cy="-227" rx="31.32" ry="18"/>
<text text-anchor="middle" x="931.43" y="-222.8" font-family="Times,serif" font-size="14.00">Vec3</text>
</g>
<!-- 9&#45;&gt;10 -->
<g id="edge13" class="edge">
<title>9&#45;&gt;10</title>
<path fill="none" stroke="black" d="M785.44,-221.57C816.68,-222.74 859.09,-224.33 889.96,-225.48"/>
<polygon fill="black" stroke="black" points="889.84,-228.98 899.96,-225.86 890.1,-221.99 889.84,-228.98"/>
</g>
<!-- 11 -->
<g id="23" class="node">
<title>11</title>
<ellipse fill="none" stroke="black" cx="1125.2" cy="-288" rx="27" ry="18"/>
<text text-anchor="middle" x="1125.2" y="-283.8" font-family="Times,serif" font-size="14.00">X</text>
</g>
<!-- 10&#45;&gt;11 -->
<g id="edge14" class="edge">
<title>10&#45;&gt;11</title>
<path fill="none" stroke="black" d="M959.5,-235.61C993.95,-246.57 1053.44,-265.49 1090.7,-277.34"/>
<polygon fill="black" stroke="black" points="1090,-280.79 1100.59,-280.49 1092.12,-274.12 1090,-280.79"/>
</g>
<!-- 13 -->
<g id="23" class="node">
<title>13</title>
<ellipse fill="none" stroke="black" cx="1125.2" cy="-234" rx="27" ry="18"/>
<text text-anchor="middle" x="1125.2" y="-229.8" font-family="Times,serif" font-size="14.00">Y</text>
</g>
<!-- 10&#45;&gt;13 -->
<g id="edge15" class="edge">
<title>10&#45;&gt;13</title>
<path fill="none" stroke="black" d="M962.82,-228.11C996.75,-229.35 1051.64,-231.35 1087.83,-232.67"/>
<polygon fill="black" stroke="black" points="1087.84,-236.18 1097.96,-233.04 1088.1,-229.18 1087.84,-236.18"/>
</g>
<!-- 15 -->
<g id="23" class="node">
<title>15</title>
<ellipse fill="none" stroke="black" cx="1125.2" cy="-180" rx="27" ry="18"/>
<text text-anchor="middle" x="1125.2" y="-175.8" font-family="Times,serif" font-size="14.00">Z</text>
</g>
<!-- 10&#45;&gt;15 -->
<g id="edge16" class="edge">
<title>10&#45;&gt;15</title>
<path fill="none" stroke="black" d="M960.73,-220.06C995.01,-211.66 1052.75,-197.51 1089.64,-188.47"/>
<polygon fill="black" stroke="black" points="1090.57,-191.85 1099.45,-186.07 1088.9,-185.05 1090.57,-191.85"/>
</g>
<!-- 12 -->
<g id="23" class="node">
<title>12</title>
<ellipse fill="none" stroke="black" cx="1323" cy="-288" rx="28.97" ry="18"/>
<text text-anchor="middle" x="1323" y="-283.8" font-family="Times,serif" font-size="14.00">float</text>
</g>
<!-- 11&#45;&gt;12 -->
<g id="edge17" class="edge">
<title>11&#45;&gt;12</title>
<path fill="none" stroke="black" d="M1152.2,-288C1185.86,-288 1244.8,-288 1283.62,-288"/>
<polygon fill="black" stroke="black" points="1283.99,-291.5 1293.99,-288 1283.99,-284.5 1283.99,-291.5"/>
</g>
<!-- 14 -->
<g id="23" class="node">
<title>14</title>
<ellipse fill="none" stroke="black" cx="1323" cy="-234" rx="28.97" ry="18"/>
<text text-anchor="middle" x="1323" y="-229.8" font-family="Times,serif" font-size="14.00">float</text>
</g>
<!-- 13&#45;&gt;14 -->
<g id="edge18" class="edge">
<title>13&#45;&gt;14</title>
<path fill="none" stroke="black" d="M1152.2,-234C1185.86,-234 1244.8,-234 1283.62,-234"/>
<polygon fill="black" stroke="black" points="1283.99,-237.5 1293.99,-234 1283.99,-230.5 1283.99,-237.5"/>
</g>
<!-- 16 -->
<g id="23" class="node">
<title>16</title>
<ellipse fill="none" stroke="black" cx="1323" cy="-180" rx="28.97" ry="18"/>
<text text-anchor="middle" x="1323" y="-175.8" font-family="Times,serif" font-size="14.00">float</text>
</g>
<!-- 15&#45;&gt;16 -->
<g id="edge19" class="edge">
<title>15&#45;&gt;16</title>
<path fill="none" stroke="black" d="M1152.2,-180C1185.86,-180 1244.8,-180 1283.62,-180"/>
<polygon fill="black" stroke="black" points="1283.99,-183.5 1293.99,-180 1283.99,-176.5 1283.99,-183.5"/>
</g>
<!-- 18 -->
<g id="23" class="node">
<title>18</title>
<ellipse fill="none" stroke="black" cx="1323" cy="-126" rx="30.78" ry="18"/>
<text text-anchor="middle" x="1323" y="-121.8" font-family="Times,serif" font-size="14.00">uint8</text>
</g>
<!-- 17&#45;&gt;18 -->
<g id="edge20" class="edge">
<title>17&#45;&gt;18</title>
<path fill="none" stroke="black" d="M795.85,-150.56C910.15,-145.22 1179.94,-132.63 1281.97,-127.87"/>
<polygon fill="black" stroke="black" points="1282.33,-131.36 1292.16,-127.39 1282.01,-124.36 1282.33,-131.36"/>
</g>
<!-- 20 -->
<g id="23" class="node">
<title>20</title>
<ellipse fill="none" stroke="black" cx="1323" cy="-72" rx="30.78" ry="18"/>
<text text-anchor="middle" x="1323" y="-67.8" font-family="Times,serif" font-size="14.00">uint8</text>
</g>
<!-- 19&#45;&gt;20 -->
<g id="edge21" class="edge">
<title>19&#45;&gt;20</title>
<path fill="none" stroke="black" d="M985.38,-75.46C1064.13,-74.65 1210.46,-73.15 1281.38,-72.42"/>
<polygon fill="black" stroke="black" points="1281.72,-75.91 1291.68,-72.31 1281.65,-68.91 1281.72,-75.91"/>
</g>
<!-- 22 -->
<g id="23" class="node">
<title>22</title>
<ellipse fill="none" stroke="black" cx="1323" cy="-18" rx="30.78" ry="18"/>
<text text-anchor="middle" x="1323" y="-13.8" font-family="Times,serif" font-size="14.00">uint8</text>
</g>
<!-- 21&#45;&gt;22 -->
<g id="edge22" class="edge">
<title>21&#45;&gt;22</title>
<path fill="none" stroke="black" d="M819.12,-21.48C943.25,-20.62 1185.99,-18.94 1281.76,-18.28"/>
<polygon fill="black" stroke="black" points="1281.92,-21.78 1291.9,-18.21 1281.88,-14.78 1281.92,-21.78"/>
</g>
</g>
</svg>
