<svg width="838px" height="44px"
 viewBox="0.00 0.00 837.74 44.00" xmlns="http://www.w3.org/2000/svg" xmlns:xlink="http://www.w3.org/1999/xlink">
<g id="graph0" class="graph" transform="scale(1.0 1.0) rotate(0.0) translate(4.0 40.0)">
<title>MultiplayerSettingsPacket</title>
<polygon fill="white" stroke="transparent" points="-4,4 -4,-40 833.74,-40 833.74,4 -4,4"/>
<g id="0" class="node">
<title></title>
<ellipse fill="none" stroke="black" cx="113.49" cy="-18" rx="113.48" ry="18"/>
<text text-anchor="middle" x="113.49" y="-13.8" font-family="Times,serif" font-size="14.00">MultiplayerSettingsPacket</text>
</g>
<!-- 1 -->
<g id="4" class="node">
<title>1</title>
<ellipse fill="none" stroke="black" cx="319.6" cy="-18" rx="56.74" ry="18"/>
<text text-anchor="middle" x="319.6" y="-13.8" font-family="Times,serif" font-size="14.00">PacketType</text>
</g>
<!-- &#45;&gt;1 -->
<g id="edge1" class="edge">
<title>&#45;&gt;1</title>
<path fill="none" stroke="black" d="M226.99,-18C235.7,-18 244.3,-18 252.55,-18"/>
<polygon fill="black" stroke="black" points="252.78,-21.5 262.78,-18 252.78,-14.5 252.78,-21.5"/>
</g>
<!-- 2 -->
<g id="4" class="node">
<title>2</title>
<ellipse fill="none" stroke="black" cx="569.42" cy="-18" rx="157.4" ry="18"/>
<text text-anchor="middle" x="569.42" y="-13.8" font-family="Times,serif" font-size="14.00">enum MultiplayerSettingsPacketType</text>
</g>
<!-- 1&#45;&gt;2 -->
<g id="edge2" class="edge">
<title>1&#45;&gt;2</title>
<path fill="none" stroke="black" d="M376.52,-18C384.51,-18 393.04,-18 401.9,-18"/>
<polygon fill="black" stroke="black" points="402.04,-21.5 412.04,-18 402.04,-14.5 402.04,-21.5"/>
</g>
<!-- 3 -->
<g id="4" class="node">
<title>3</title>
<ellipse fill="none" stroke="black" cx="796.18" cy="-18" rx="33.62" ry="18"/>
<text text-anchor="middle" x="796.18" y="-13.8" font-family="Times,serif" font-size="14.00">varint</text>
</g>
<!-- 2&#45;&gt;3 -->
<g id="edge3" class="edge">
<title>2&#45;&gt;3</title>
<path fill="none" stroke="black" d="M726.83,-18C735.86,-18 744.44,-18 752.28,-18"/>
<polygon fill="black" stroke="black" points="752.48,-21.5 762.48,-18 752.48,-14.5 752.48,-21.5"/>
</g>
</g>
</svg>
