<svg width="914px" height="260px"
 viewBox="0.00 0.00 913.95 260.00" xmlns="http://www.w3.org/2000/svg" xmlns:xlink="http://www.w3.org/1999/xlink">
<g id="graph0" class="graph" transform="scale(1.0 1.0) rotate(0.0) translate(4.0 256.0)">
<title>NetworkSettingsPacket</title>
<polygon fill="white" stroke="transparent" points="-4,4 -4,-256 909.95,-256 909.95,4 -4,4"/>
<g id="0" class="node">
<title></title>
<ellipse fill="none" stroke="black" cx="101.68" cy="-126" rx="101.86" ry="18"/>
<text text-anchor="middle" x="101.68" y="-121.8" font-family="Times,serif" font-size="14.00">NetworkSettingsPacket</text>
</g>
<!-- 1 -->
<g id="12" class="node">
<title>1</title>
<ellipse fill="none" stroke="black" cx="646.67" cy="-234" rx="103.63" ry="18"/>
<text text-anchor="middle" x="646.67" y="-229.8" font-family="Times,serif" font-size="14.00">Compression Threshold</text>
</g>
<!-- &#45;&gt;1 -->
<g id="edge1" class="edge">
<title>&#45;&gt;1</title>
<path fill="none" stroke="black" d="M124.8,-143.62C150.6,-163.04 195.36,-193.36 239.36,-207 337.66,-237.48 455.56,-242.03 538.98,-240.28"/>
<polygon fill="black" stroke="black" points="539.06,-243.77 548.97,-240.03 538.89,-236.78 539.06,-243.77"/>
</g>
<!-- 3 -->
<g id="12" class="node">
<title>3</title>
<ellipse fill="none" stroke="black" cx="349.1" cy="-180" rx="102.47" ry="18"/>
<text text-anchor="middle" x="349.1" y="-175.8" font-family="Times,serif" font-size="14.00">CompressionAlgorithm</text>
</g>
<!-- &#45;&gt;3 -->
<g id="edge2" class="edge">
<title>&#45;&gt;3</title>
<path fill="none" stroke="black" d="M166.2,-139.98C199.29,-147.26 239.93,-156.2 274.4,-163.78"/>
<polygon fill="black" stroke="black" points="273.9,-167.26 284.42,-165.99 275.4,-160.42 273.9,-167.26"/>
</g>
<!-- 6 -->
<g id="12" class="node">
<title>6</title>
<ellipse fill="none" stroke="black" cx="349.1" cy="-126" rx="102.44" ry="18"/>
<text text-anchor="middle" x="349.1" y="-121.8" font-family="Times,serif" font-size="14.00">Client Throttle Enabled</text>
</g>
<!-- &#45;&gt;6 -->
<g id="edge3" class="edge">
<title>&#45;&gt;6</title>
<path fill="none" stroke="black" d="M203.56,-126C214.49,-126 225.66,-126 236.71,-126"/>
<polygon fill="black" stroke="black" points="236.81,-129.5 246.81,-126 236.81,-122.5 236.81,-129.5"/>
</g>
<!-- 8 -->
<g id="12" class="node">
<title>8</title>
<ellipse fill="none" stroke="black" cx="349.1" cy="-72" rx="109.97" ry="18"/>
<text text-anchor="middle" x="349.1" y="-67.8" font-family="Times,serif" font-size="14.00">Client Throttle Threshold</text>
</g>
<!-- &#45;&gt;8 -->
<g id="edge4" class="edge">
<title>&#45;&gt;8</title>
<path fill="none" stroke="black" d="M166.2,-112.02C198.77,-104.86 238.67,-96.08 272.78,-88.57"/>
<polygon fill="black" stroke="black" points="273.69,-91.96 282.7,-86.39 272.19,-85.12 273.69,-91.96"/>
</g>
<!-- 10 -->
<g id="12" class="node">
<title>10</title>
<ellipse fill="none" stroke="black" cx="646.67" cy="-22" rx="94.91" ry="18"/>
<text text-anchor="middle" x="646.67" y="-17.8" font-family="Times,serif" font-size="14.00">Client Throttle Scalar</text>
</g>
<!-- &#45;&gt;10 -->
<g id="edge5" class="edge">
<title>&#45;&gt;10</title>
<path fill="none" stroke="black" d="M124.78,-108.31C150.56,-88.81 195.3,-58.43 239.36,-45 341.65,-13.83 465.01,-11.48 548.77,-14.76"/>
<polygon fill="black" stroke="black" points="548.64,-18.26 558.78,-15.19 548.94,-11.27 548.64,-18.26"/>
</g>
<!-- 2 -->
<g id="12" class="node">
<title>2</title>
<ellipse fill="none" stroke="black" cx="870.24" cy="-234" rx="35.94" ry="18"/>
<text text-anchor="middle" x="870.24" y="-229.8" font-family="Times,serif" font-size="14.00">uint16</text>
</g>
<!-- 1&#45;&gt;2 -->
<g id="edge6" class="edge">
<title>1&#45;&gt;2</title>
<path fill="none" stroke="black" d="M750.35,-234C776.32,-234 802.89,-234 824.31,-234"/>
<polygon fill="black" stroke="black" points="824.38,-237.5 834.38,-234 824.38,-230.5 824.38,-237.5"/>
</g>
<!-- 4 -->
<g id="12" class="node">
<title>4</title>
<ellipse fill="none" stroke="black" cx="646.67" cy="-180" rx="151.69" ry="18"/>
<text text-anchor="middle" x="646.67" y="-175.8" font-family="Times,serif" font-size="14.00">enum PacketCompressionAlgorithm</text>
</g>
<!-- 3&#45;&gt;4 -->
<g id="edge7" class="edge">
<title>3&#45;&gt;4</title>
<path fill="none" stroke="black" d="M451.4,-180C462.15,-180 473.26,-180 484.48,-180"/>
<polygon fill="black" stroke="black" points="484.8,-183.5 494.8,-180 484.8,-176.5 484.8,-183.5"/>
</g>
<!-- 5 -->
<g id="12" class="node">
<title>5</title>
<ellipse fill="none" stroke="black" cx="870.24" cy="-180" rx="35.94" ry="18"/>
<text text-anchor="middle" x="870.24" y="-175.8" font-family="Times,serif" font-size="14.00">uint16</text>
</g>
<!-- 4&#45;&gt;5 -->
<g id="edge8" class="edge">
<title>4&#45;&gt;5</title>
<path fill="none" stroke="black" d="M798.52,-180C807.58,-180 816.22,-180 824.16,-180"/>
<polygon fill="black" stroke="black" points="824.17,-183.5 834.17,-180 824.17,-176.5 824.17,-183.5"/>
</g>
<!-- 7 -->
<g id="12" class="node">
<title>7</title>
<ellipse fill="none" stroke="black" cx="870.24" cy="-126" rx="28.41" ry="18"/>
<text text-anchor="middle" x="870.24" y="-121.8" font-family="Times,serif" font-size="14.00">bool</text>
</g>
<!-- 6&#45;&gt;7 -->
<g id="edge9" class="edge">
<title>6&#45;&gt;7</title>
<path fill="none" stroke="black" d="M451.42,-126C567.67,-126 752.4,-126 831.4,-126"/>
<polygon fill="black" stroke="black" points="831.82,-129.5 841.82,-126 831.82,-122.5 831.82,-129.5"/>
</g>
<!-- 9 -->
<g id="12" class="node">
<title>9</title>
<ellipse fill="none" stroke="black" cx="870.24" cy="-72" rx="30.78" ry="18"/>
<text text-anchor="middle" x="870.24" y="-67.8" font-family="Times,serif" font-size="14.00">uint8</text>
</g>
<!-- 8&#45;&gt;9 -->
<g id="edge10" class="edge">
<title>8&#45;&gt;9</title>
<path fill="none" stroke="black" d="M458.92,-72C574.21,-72 750.22,-72 828.85,-72"/>
<polygon fill="black" stroke="black" points="829.28,-75.5 839.28,-72 829.28,-68.5 829.28,-75.5"/>
</g>
<!-- 11 -->
<g id="12" class="node">
<title>11</title>
<ellipse fill="none" stroke="black" cx="870.24" cy="-18" rx="28.97" ry="18"/>
<text text-anchor="middle" x="870.24" y="-13.8" font-family="Times,serif" font-size="14.00">float</text>
</g>
<!-- 10&#45;&gt;11 -->
<g id="edge11" class="edge">
<title>10&#45;&gt;11</title>
<path fill="none" stroke="black" d="M740.99,-20.32C772.66,-19.74 806.28,-19.14 831.15,-18.69"/>
<polygon fill="black" stroke="black" points="831.3,-22.19 841.24,-18.51 831.17,-15.19 831.3,-22.19"/>
</g>
</g>
</svg>
