<svg width="789px" height="98px"
 viewBox="0.00 0.00 789.03 98.00" xmlns="http://www.w3.org/2000/svg" xmlns:xlink="http://www.w3.org/1999/xlink">
<g id="graph0" class="graph" transform="scale(1.0 1.0) rotate(0.0) translate(4.0 94.0)">
<title>PartyChangedPacket</title>
<polygon fill="white" stroke="transparent" points="-4,4 -4,-94 785.03,-94 785.03,4 -4,4"/>
<g id="0" class="node">
<title></title>
<ellipse fill="none" stroke="black" cx="91.49" cy="-45" rx="91.47" ry="18"/>
<text text-anchor="middle" x="91.49" y="-40.8" font-family="Times,serif" font-size="14.00">PartyChangedPacket</text>
</g>
<!-- 1 -->
<g id="7" class="node">
<title>1</title>
<ellipse fill="none" stroke="black" cx="270.24" cy="-45" rx="51.03" ry="18"/>
<text text-anchor="middle" x="270.24" y="-40.8" font-family="Times,serif" font-size="14.00">party_info</text>
</g>
<!-- &#45;&gt;1 -->
<g id="edge1" class="edge">
<title>&#45;&gt;1</title>
<path fill="none" stroke="black" d="M183.19,-45C191.77,-45 200.33,-45 208.52,-45"/>
<polygon fill="black" stroke="black" points="208.7,-48.5 218.7,-45 208.7,-41.5 208.7,-48.5"/>
</g>
<!-- 2 -->
<g id="7" class="node">
<title>2</title>
<ellipse fill="none" stroke="black" cx="429.67" cy="-45" rx="72.35" ry="18"/>
<text text-anchor="middle" x="429.67" y="-40.8" font-family="Times,serif" font-size="14.00">PlayerPartyInfo</text>
</g>
<!-- 1&#45;&gt;2 -->
<g id="edge2" class="edge">
<title>1&#45;&gt;2</title>
<path fill="none" stroke="black" d="M321.92,-45C330.06,-45 338.66,-45 347.3,-45"/>
<polygon fill="black" stroke="black" points="347.44,-48.5 357.44,-45 347.44,-41.5 347.44,-48.5"/>
</g>
<!-- 3 -->
<g id="7" class="node">
<title>3</title>
<ellipse fill="none" stroke="black" cx="608.41" cy="-72" rx="43.44" ry="18"/>
<text text-anchor="middle" x="608.41" y="-67.8" font-family="Times,serif" font-size="14.00">party_id</text>
</g>
<!-- 2&#45;&gt;3 -->
<g id="edge3" class="edge">
<title>2&#45;&gt;3</title>
<path fill="none" stroke="black" d="M491.49,-54.29C513.02,-57.58 536.97,-61.24 557.48,-64.37"/>
<polygon fill="black" stroke="black" points="557.14,-67.86 567.56,-65.91 558.2,-60.94 557.14,-67.86"/>
</g>
<!-- 5 -->
<g id="7" class="node">
<title>5</title>
<ellipse fill="none" stroke="black" cx="608.41" cy="-18" rx="70.62" ry="18"/>
<text text-anchor="middle" x="608.41" y="-13.8" font-family="Times,serif" font-size="14.00">is_party_leader</text>
</g>
<!-- 2&#45;&gt;5 -->
<g id="edge4" class="edge">
<title>2&#45;&gt;5</title>
<path fill="none" stroke="black" d="M491.49,-35.71C506.18,-33.46 521.99,-31.05 537.07,-28.75"/>
<polygon fill="black" stroke="black" points="538.01,-32.14 547.37,-27.17 536.96,-25.22 538.01,-32.14"/>
</g>
<!-- 4 -->
<g id="7" class="node">
<title>4</title>
<ellipse fill="none" stroke="black" cx="748" cy="-72" rx="33.06" ry="18"/>
<text text-anchor="middle" x="748" y="-67.8" font-family="Times,serif" font-size="14.00">string</text>
</g>
<!-- 3&#45;&gt;4 -->
<g id="edge5" class="edge">
<title>3&#45;&gt;4</title>
<path fill="none" stroke="black" d="M651.81,-72C668.55,-72 687.75,-72 704.5,-72"/>
<polygon fill="black" stroke="black" points="704.57,-75.5 714.57,-72 704.57,-68.5 704.57,-75.5"/>
</g>
<!-- 6 -->
<g id="7" class="node">
<title>6</title>
<ellipse fill="none" stroke="black" cx="748" cy="-18" rx="28.41" ry="18"/>
<text text-anchor="middle" x="748" y="-13.8" font-family="Times,serif" font-size="14.00">bool</text>
</g>
<!-- 5&#45;&gt;6 -->
<g id="edge6" class="edge">
<title>5&#45;&gt;6</title>
<path fill="none" stroke="black" d="M679.01,-18C689.47,-18 699.91,-18 709.35,-18"/>
<polygon fill="black" stroke="black" points="709.54,-21.5 719.54,-18 709.54,-14.5 709.54,-21.5"/>
</g>
</g>
</svg>
