<svg width="680px" height="368px"
 viewBox="0.00 0.00 680.05 368.00" xmlns="http://www.w3.org/2000/svg" xmlns:xlink="http://www.w3.org/1999/xlink">
<g id="graph0" class="graph" transform="scale(1.0 1.0) rotate(0.0) translate(4.0 364.0)">
<title>PhotoTransferPacket</title>
<polygon fill="white" stroke="transparent" points="-4,4 -4,-364 676.05,-364 676.05,4 -4,4"/>
<g id="0" class="node">
<title></title>
<ellipse fill="none" stroke="black" cx="92.02" cy="-180" rx="92.03" ry="18"/>
<text text-anchor="middle" x="92.02" y="-175.8" font-family="Times,serif" font-size="14.00">PhotoTransferPacket</text>
</g>
<!-- 1 -->
<g id="17" class="node">
<title>1</title>
<ellipse fill="none" stroke="black" cx="492.7" cy="-342" rx="59.09" ry="18"/>
<text text-anchor="middle" x="492.7" y="-337.8" font-family="Times,serif" font-size="14.00">Photo Name</text>
</g>
<!-- &#45;&gt;1 -->
<g id="edge1" class="edge">
<title>&#45;&gt;1</title>
<path fill="none" stroke="black" d="M115.73,-197.54C140.28,-215.8 181.14,-244.17 220.03,-262 290.44,-294.28 377.08,-317.13 433.3,-329.93"/>
<polygon fill="black" stroke="black" points="432.56,-333.35 443.09,-332.12 434.1,-326.52 432.56,-333.35"/>
</g>
<!-- 3 -->
<g id="17" class="node">
<title>3</title>
<ellipse fill="none" stroke="black" cx="492.7" cy="-288" rx="54.43" ry="18"/>
<text text-anchor="middle" x="492.7" y="-283.8" font-family="Times,serif" font-size="14.00">Photo Data</text>
</g>
<!-- &#45;&gt;3 -->
<g id="edge2" class="edge">
<title>&#45;&gt;3</title>
<path fill="none" stroke="black" d="M129.96,-196.41C155,-207.07 189.06,-220.67 220.03,-230 292.41,-251.81 378,-268.66 433.49,-278.44"/>
<polygon fill="black" stroke="black" points="433.04,-281.91 443.49,-280.18 434.24,-275.02 433.04,-281.91"/>
</g>
<!-- 5 -->
<g id="17" class="node">
<title>5</title>
<ellipse fill="none" stroke="black" cx="492.7" cy="-234" rx="44.63" ry="18"/>
<text text-anchor="middle" x="492.7" y="-229.8" font-family="Times,serif" font-size="14.00">Book ID</text>
</g>
<!-- &#45;&gt;5 -->
<g id="edge3" class="edge">
<title>&#45;&gt;5</title>
<path fill="none" stroke="black" d="M151.26,-193.79C172.77,-198.51 197.42,-203.48 220.03,-207 295.27,-218.7 383.06,-226.35 438.02,-230.42"/>
<polygon fill="black" stroke="black" points="437.99,-233.93 448.22,-231.17 438.5,-226.95 437.99,-233.93"/>
</g>
<!-- 7 -->
<g id="17" class="node">
<title>7</title>
<ellipse fill="none" stroke="black" cx="299.72" cy="-180" rx="30.76" ry="18"/>
<text text-anchor="middle" x="299.72" y="-175.8" font-family="Times,serif" font-size="14.00">Type</text>
</g>
<!-- &#45;&gt;7 -->
<g id="edge4" class="edge">
<title>&#45;&gt;7</title>
<path fill="none" stroke="black" d="M184.14,-180C210.06,-180 237,-180 258.23,-180"/>
<polygon fill="black" stroke="black" points="258.47,-183.5 268.47,-180 258.47,-176.5 258.47,-183.5"/>
</g>
<!-- 10 -->
<g id="17" class="node">
<title>10</title>
<ellipse fill="none" stroke="black" cx="299.72" cy="-126" rx="60.21" ry="18"/>
<text text-anchor="middle" x="299.72" y="-121.8" font-family="Times,serif" font-size="14.00">Source Type</text>
</g>
<!-- &#45;&gt;10 -->
<g id="edge5" class="edge">
<title>&#45;&gt;10</title>
<path fill="none" stroke="black" d="M147.87,-165.6C177.7,-157.77 214.48,-148.11 244.26,-140.3"/>
<polygon fill="black" stroke="black" points="245.28,-143.65 254.06,-137.72 243.5,-136.88 245.28,-143.65"/>
</g>
<!-- 13 -->
<g id="17" class="node">
<title>13</title>
<ellipse fill="none" stroke="black" cx="299.72" cy="-72" rx="49.82" ry="18"/>
<text text-anchor="middle" x="299.72" y="-67.8" font-family="Times,serif" font-size="14.00">Owner ID</text>
</g>
<!-- &#45;&gt;13 -->
<g id="edge6" class="edge">
<title>&#45;&gt;13</title>
<path fill="none" stroke="black" d="M116.84,-162.37C141.64,-144.61 182.1,-117.28 220.03,-99 229.69,-94.34 240.37,-90.12 250.66,-86.46"/>
<polygon fill="black" stroke="black" points="252.04,-89.69 260.37,-83.14 249.77,-83.07 252.04,-89.69"/>
</g>
<!-- 15 -->
<g id="17" class="node">
<title>15</title>
<ellipse fill="none" stroke="black" cx="299.72" cy="-18" rx="79.88" ry="18"/>
<text text-anchor="middle" x="299.72" y="-13.8" font-family="Times,serif" font-size="14.00">New Photo Name</text>
</g>
<!-- &#45;&gt;15 -->
<g id="edge7" class="edge">
<title>&#45;&gt;15</title>
<path fill="none" stroke="black" d="M105.36,-162.06C125.96,-133.41 170.01,-77.29 220.03,-45 225.45,-41.5 231.36,-38.41 237.45,-35.68"/>
<polygon fill="black" stroke="black" points="239.19,-38.74 247.09,-31.68 236.51,-32.28 239.19,-38.74"/>
</g>
<!-- 2 -->
<g id="17" class="node">
<title>2</title>
<ellipse fill="none" stroke="black" cx="639.01" cy="-342" rx="33.06" ry="18"/>
<text text-anchor="middle" x="639.01" y="-337.8" font-family="Times,serif" font-size="14.00">string</text>
</g>
<!-- 1&#45;&gt;2 -->
<g id="edge8" class="edge">
<title>1&#45;&gt;2</title>
<path fill="none" stroke="black" d="M551.98,-342C566.57,-342 581.94,-342 595.59,-342"/>
<polygon fill="black" stroke="black" points="595.66,-345.5 605.66,-342 595.66,-338.5 595.66,-345.5"/>
</g>
<!-- 4 -->
<g id="17" class="node">
<title>4</title>
<ellipse fill="none" stroke="black" cx="639.01" cy="-288" rx="33.06" ry="18"/>
<text text-anchor="middle" x="639.01" y="-283.8" font-family="Times,serif" font-size="14.00">string</text>
</g>
<!-- 3&#45;&gt;4 -->
<g id="edge9" class="edge">
<title>3&#45;&gt;4</title>
<path fill="none" stroke="black" d="M547.02,-288C563.07,-288 580.46,-288 595.69,-288"/>
<polygon fill="black" stroke="black" points="595.85,-291.5 605.85,-288 595.85,-284.5 595.85,-291.5"/>
</g>
<!-- 6 -->
<g id="17" class="node">
<title>6</title>
<ellipse fill="none" stroke="black" cx="639.01" cy="-234" rx="33.06" ry="18"/>
<text text-anchor="middle" x="639.01" y="-229.8" font-family="Times,serif" font-size="14.00">string</text>
</g>
<!-- 5&#45;&gt;6 -->
<g id="edge10" class="edge">
<title>5&#45;&gt;6</title>
<path fill="none" stroke="black" d="M537.39,-234C555.92,-234 577.44,-234 595.81,-234"/>
<polygon fill="black" stroke="black" points="595.93,-237.5 605.93,-234 595.93,-230.5 595.93,-237.5"/>
</g>
<!-- 8 -->
<g id="17" class="node">
<title>8</title>
<ellipse fill="none" stroke="black" cx="492.7" cy="-180" rx="77.07" ry="18"/>
<text text-anchor="middle" x="492.7" y="-175.8" font-family="Times,serif" font-size="14.00">enum PhotoType</text>
</g>
<!-- 7&#45;&gt;8 -->
<g id="edge11" class="edge">
<title>7&#45;&gt;8</title>
<path fill="none" stroke="black" d="M330.98,-180C351.03,-180 378.43,-180 404.93,-180"/>
<polygon fill="black" stroke="black" points="405.03,-183.5 415.03,-180 405.03,-176.5 405.03,-183.5"/>
</g>
<!-- 9 -->
<g id="17" class="node">
<title>9</title>
<ellipse fill="none" stroke="black" cx="639.01" cy="-180" rx="30.78" ry="18"/>
<text text-anchor="middle" x="639.01" y="-175.8" font-family="Times,serif" font-size="14.00">uint8</text>
</g>
<!-- 8&#45;&gt;9 -->
<g id="edge12" class="edge">
<title>8&#45;&gt;9</title>
<path fill="none" stroke="black" d="M570.08,-180C579.6,-180 589.02,-180 597.67,-180"/>
<polygon fill="black" stroke="black" points="597.81,-183.5 607.81,-180 597.81,-176.5 597.81,-183.5"/>
</g>
<!-- 11 -->
<g id="17" class="node">
<title>11</title>
<ellipse fill="none" stroke="black" cx="492.7" cy="-126" rx="77.07" ry="18"/>
<text text-anchor="middle" x="492.7" y="-121.8" font-family="Times,serif" font-size="14.00">enum PhotoType</text>
</g>
<!-- 10&#45;&gt;11 -->
<g id="edge13" class="edge">
<title>10&#45;&gt;11</title>
<path fill="none" stroke="black" d="M359.84,-126C374.22,-126 389.89,-126 405.24,-126"/>
<polygon fill="black" stroke="black" points="405.27,-129.5 415.27,-126 405.27,-122.5 405.27,-129.5"/>
</g>
<!-- 12 -->
<g id="17" class="node">
<title>12</title>
<ellipse fill="none" stroke="black" cx="639.01" cy="-126" rx="30.78" ry="18"/>
<text text-anchor="middle" x="639.01" y="-121.8" font-family="Times,serif" font-size="14.00">uint8</text>
</g>
<!-- 11&#45;&gt;12 -->
<g id="edge14" class="edge">
<title>11&#45;&gt;12</title>
<path fill="none" stroke="black" d="M570.08,-126C579.6,-126 589.02,-126 597.67,-126"/>
<polygon fill="black" stroke="black" points="597.81,-129.5 607.81,-126 597.81,-122.5 597.81,-129.5"/>
</g>
<!-- 14 -->
<g id="17" class="node">
<title>14</title>
<ellipse fill="none" stroke="black" cx="639.01" cy="-72" rx="30.78" ry="18"/>
<text text-anchor="middle" x="639.01" y="-67.8" font-family="Times,serif" font-size="14.00">int64</text>
</g>
<!-- 13&#45;&gt;14 -->
<g id="edge15" class="edge">
<title>13&#45;&gt;14</title>
<path fill="none" stroke="black" d="M349.77,-72C416.78,-72 535.71,-72 597.78,-72"/>
<polygon fill="black" stroke="black" points="597.96,-75.5 607.96,-72 597.96,-68.5 597.96,-75.5"/>
</g>
<!-- 16 -->
<g id="17" class="node">
<title>16</title>
<ellipse fill="none" stroke="black" cx="639.01" cy="-18" rx="33.06" ry="18"/>
<text text-anchor="middle" x="639.01" y="-13.8" font-family="Times,serif" font-size="14.00">string</text>
</g>
<!-- 15&#45;&gt;16 -->
<g id="edge16" class="edge">
<title>15&#45;&gt;16</title>
<path fill="none" stroke="black" d="M379.8,-18C447.16,-18 541.37,-18 595.4,-18"/>
<polygon fill="black" stroke="black" points="595.65,-21.5 605.65,-18 595.65,-14.5 595.65,-21.5"/>
</g>
</g>
</svg>
