<svg width="772px" height="98px"
 viewBox="0.00 0.00 771.70 98.00" xmlns="http://www.w3.org/2000/svg" xmlns:xlink="http://www.w3.org/1999/xlink">
<g id="graph0" class="graph" transform="scale(1.0 1.0) rotate(0.0) translate(4.0 94.0)">
<title>PurchaseReceiptPacket</title>
<polygon fill="white" stroke="transparent" points="-4,4 -4,-94 767.7,-94 767.7,4 -4,4"/>
<g id="0" class="node">
<title></title>
<ellipse fill="none" stroke="black" cx="101.13" cy="-45" rx="101.26" ry="18"/>
<text text-anchor="middle" x="101.13" y="-40.8" font-family="Times,serif" font-size="14.00">PurchaseReceiptPacket</text>
</g>
<!-- 1 -->
<g id="6" class="node">
<title>1</title>
<ellipse fill="none" stroke="black" cx="317.4" cy="-45" rx="79.29" ry="18"/>
<text text-anchor="middle" x="317.4" y="-40.8" font-family="Times,serif" font-size="14.00">PurchaseReceipts</text>
</g>
<!-- &#45;&gt;1 -->
<g id="edge1" class="edge">
<title>&#45;&gt;1</title>
<path fill="none" stroke="black" d="M202.36,-45C210.88,-45 219.46,-45 227.88,-45"/>
<polygon fill="black" stroke="black" points="228.05,-48.5 238.05,-45 228.05,-41.5 228.05,-48.5"/>
</g>
<!-- 2 -->
<g id="6" class="node">
<title>2</title>
<ellipse fill="none" stroke="black" cx="509.28" cy="-72" rx="45.2" ry="18"/>
<text text-anchor="middle" x="509.28" y="-67.8" font-family="Times,serif" font-size="14.00">List Size</text>
</g>
<!-- 1&#45;&gt;2 -->
<g id="edge2" class="edge">
<title>1&#45;&gt;2</title>
<path fill="none" stroke="black" d="M384.81,-54.44C408.26,-57.78 434.27,-61.48 456.35,-64.62"/>
<polygon fill="black" stroke="black" points="456.12,-68.12 466.51,-66.06 457.11,-61.19 456.12,-68.12"/>
</g>
<!-- 4 -->
<g id="6" class="node">
<title>4</title>
<ellipse fill="none" stroke="black" stroke-dasharray="1,5" cx="509.28" cy="-18" rx="76.96" ry="18"/>
<text text-anchor="middle" x="509.28" y="-13.8" font-family="Times,serif" font-size="14.00">example element</text>
</g>
<!-- 1&#45;&gt;4 -->
<g id="edge3" class="edge">
<title>1&#45;&gt;4</title>
<path fill="none" stroke="black" d="M384.81,-35.56C400.34,-33.35 416.99,-30.98 432.88,-28.72"/>
<polygon fill="black" stroke="black" points="433.78,-32.13 443.19,-27.26 432.79,-25.2 433.78,-32.13"/>
</g>
<!-- 3 -->
<g id="6" class="node">
<title>3</title>
<ellipse fill="none" stroke="black" cx="692.85" cy="-72" rx="70.69" ry="18"/>
<text text-anchor="middle" x="692.85" y="-67.8" font-family="Times,serif" font-size="14.00">unsigned varint</text>
</g>
<!-- 2&#45;&gt;3 -->
<g id="edge4" class="edge">
<title>2&#45;&gt;3</title>
<path fill="none" stroke="black" d="M554.7,-72C571.86,-72 592.05,-72 611.58,-72"/>
<polygon fill="black" stroke="black" points="611.72,-75.5 621.72,-72 611.72,-68.5 611.72,-75.5"/>
</g>
<!-- 5 -->
<g id="6" class="node">
<title>5</title>
<ellipse fill="none" stroke="black" cx="692.85" cy="-18" rx="33.06" ry="18"/>
<text text-anchor="middle" x="692.85" y="-13.8" font-family="Times,serif" font-size="14.00">string</text>
</g>
<!-- 4&#45;&gt;5 -->
<g id="edge5" class="edge">
<title>4&#45;&gt;5</title>
<path fill="none" stroke="black" d="M586.23,-18C607.88,-18 630.68,-18 649.54,-18"/>
<polygon fill="black" stroke="black" points="649.58,-21.5 659.58,-18 649.58,-14.5 649.58,-21.5"/>
</g>
</g>
</svg>
