<svg width="863px" height="44px"
 viewBox="0.00 0.00 863.00 44.00" xmlns="http://www.w3.org/2000/svg" xmlns:xlink="http://www.w3.org/1999/xlink">
<g id="graph0" class="graph" transform="scale(1.0 1.0) rotate(0.0) translate(4.0 40.0)">
<title>RemoveActorPacket</title>
<polygon fill="white" stroke="transparent" points="-4,4 -4,-40 859,-40 859,4 -4,4"/>
<g id="0" class="node">
<title></title>
<ellipse fill="none" stroke="black" cx="90.94" cy="-18" rx="90.89" ry="18"/>
<text text-anchor="middle" x="90.94" y="-13.8" font-family="Times,serif" font-size="14.00">RemoveActorPacket</text>
</g>
<!-- 1 -->
<g id="5" class="node">
<title>1</title>
<ellipse fill="none" stroke="black" cx="291.13" cy="-18" rx="73.47" ry="18"/>
<text text-anchor="middle" x="291.13" y="-13.8" font-family="Times,serif" font-size="14.00">Target Actor ID</text>
</g>
<!-- &#45;&gt;1 -->
<g id="edge1" class="edge">
<title>&#45;&gt;1</title>
<path fill="none" stroke="black" d="M182.05,-18C190.55,-18 199.15,-18 207.58,-18"/>
<polygon fill="black" stroke="black" points="207.76,-21.5 217.76,-18 207.76,-14.5 207.76,-21.5"/>
</g>
<!-- 2 -->
<g id="5" class="node">
<title>2</title>
<ellipse fill="none" stroke="black" cx="472" cy="-18" rx="71.77" ry="18"/>
<text text-anchor="middle" x="472" y="-13.8" font-family="Times,serif" font-size="14.00">ActorUniqueID</text>
</g>
<!-- 1&#45;&gt;2 -->
<g id="edge2" class="edge">
<title>1&#45;&gt;2</title>
<path fill="none" stroke="black" d="M364.36,-18C372.87,-18 381.58,-18 390.19,-18"/>
<polygon fill="black" stroke="black" points="390.23,-21.5 400.23,-18 390.23,-14.5 390.23,-21.5"/>
</g>
<!-- 3 -->
<g id="5" class="node">
<title>3</title>
<ellipse fill="none" stroke="black" cx="656.09" cy="-18" rx="76.43" ry="18"/>
<text text-anchor="middle" x="656.09" y="-13.8" font-family="Times,serif" font-size="14.00">Actor Unique ID</text>
</g>
<!-- 2&#45;&gt;3 -->
<g id="edge3" class="edge">
<title>2&#45;&gt;3</title>
<path fill="none" stroke="black" d="M543.66,-18C552.07,-18 560.72,-18 569.31,-18"/>
<polygon fill="black" stroke="black" points="569.34,-21.5 579.34,-18 569.34,-14.5 569.34,-21.5"/>
</g>
<!-- 4 -->
<g id="5" class="node">
<title>4</title>
<ellipse fill="none" stroke="black" cx="811.78" cy="-18" rx="43.44" ry="18"/>
<text text-anchor="middle" x="811.78" y="-13.8" font-family="Times,serif" font-size="14.00">varint64</text>
</g>
<!-- 3&#45;&gt;4 -->
<g id="edge4" class="edge">
<title>3&#45;&gt;4</title>
<path fill="none" stroke="black" d="M732.58,-18C741.23,-18 749.9,-18 758.15,-18"/>
<polygon fill="black" stroke="black" points="758.35,-21.5 768.35,-18 758.35,-14.5 758.35,-21.5"/>
</g>
</g>
</svg>
