<svg width="556px" height="98px"
 viewBox="0.00 0.00 555.51 98.00" xmlns="http://www.w3.org/2000/svg" xmlns:xlink="http://www.w3.org/1999/xlink">
<g id="graph0" class="graph" transform="scale(1.0 1.0) rotate(0.0) translate(4.0 94.0)">
<title>RequestChunkRadiusPacket</title>
<polygon fill="white" stroke="transparent" points="-4,4 -4,-94 551.51,-94 551.51,4 -4,4"/>
<g id="0" class="node">
<title></title>
<ellipse fill="none" stroke="black" cx="120.46" cy="-45" rx="120.43" ry="18"/>
<text text-anchor="middle" x="120.46" y="-40.8" font-family="Times,serif" font-size="14.00">RequestChunkRadiusPacket</text>
</g>
<!-- 1 -->
<g id="5" class="node">
<title>1</title>
<ellipse fill="none" stroke="black" cx="360.66" cy="-72" rx="66.06" ry="18"/>
<text text-anchor="middle" x="360.66" y="-67.8" font-family="Times,serif" font-size="14.00">Chunk Radius</text>
</g>
<!-- &#45;&gt;1 -->
<g id="edge1" class="edge">
<title>&#45;&gt;1</title>
<path fill="none" stroke="black" d="M216.97,-55.83C241.1,-58.56 266.58,-61.45 289.22,-64.02"/>
<polygon fill="black" stroke="black" points="289.08,-67.52 299.41,-65.17 289.87,-60.57 289.08,-67.52"/>
</g>
<!-- 3 -->
<g id="5" class="node">
<title>3</title>
<ellipse fill="none" stroke="black" cx="360.66" cy="-18" rx="83.96" ry="18"/>
<text text-anchor="middle" x="360.66" y="-13.8" font-family="Times,serif" font-size="14.00">Max ChunkRadius</text>
</g>
<!-- &#45;&gt;3 -->
<g id="edge2" class="edge">
<title>&#45;&gt;3</title>
<path fill="none" stroke="black" d="M216.97,-34.17C236.5,-31.96 256.91,-29.65 275.99,-27.48"/>
<polygon fill="black" stroke="black" points="276.59,-30.94 286.13,-26.33 275.8,-23.98 276.59,-30.94"/>
</g>
<!-- 2 -->
<g id="5" class="node">
<title>2</title>
<ellipse fill="none" stroke="black" cx="513.95" cy="-72" rx="33.62" ry="18"/>
<text text-anchor="middle" x="513.95" y="-67.8" font-family="Times,serif" font-size="14.00">varint</text>
</g>
<!-- 1&#45;&gt;2 -->
<g id="edge3" class="edge">
<title>1&#45;&gt;2</title>
<path fill="none" stroke="black" d="M426.69,-72C441.23,-72 456.3,-72 469.69,-72"/>
<polygon fill="black" stroke="black" points="470.04,-75.5 480.04,-72 470.04,-68.5 470.04,-75.5"/>
</g>
<!-- 4 -->
<g id="5" class="node">
<title>4</title>
<ellipse fill="none" stroke="black" cx="513.95" cy="-18" rx="30.78" ry="18"/>
<text text-anchor="middle" x="513.95" y="-13.8" font-family="Times,serif" font-size="14.00">uint8</text>
</g>
<!-- 3&#45;&gt;4 -->
<g id="edge4" class="edge">
<title>3&#45;&gt;4</title>
<path fill="none" stroke="black" d="M444.82,-18C454.49,-18 463.99,-18 472.68,-18"/>
<polygon fill="black" stroke="black" points="472.85,-21.5 482.85,-18 472.85,-14.5 472.85,-21.5"/>
</g>
</g>
</svg>
