<svg width="837px" height="206px"
 viewBox="0.00 0.00 837.21 206.00" xmlns="http://www.w3.org/2000/svg" xmlns:xlink="http://www.w3.org/1999/xlink">
<g id="graph0" class="graph" transform="scale(1.0 1.0) rotate(0.0) translate(4.0 202.0)">
<title>RequestAbilityPacket</title>
<polygon fill="white" stroke="transparent" points="-4,4 -4,-202 833.21,-202 833.21,4 -4,4"/>
<g id="0" class="node">
<title></title>
<ellipse fill="none" stroke="black" cx="95.25" cy="-99" rx="95.5" ry="18"/>
<text text-anchor="middle" x="95.25" y="-94.8" font-family="Times,serif" font-size="14.00">RequestAbilityPacket</text>
</g>
<!-- 1 -->
<g id="10" class="node">
<title>1</title>
<ellipse fill="none" stroke="black" cx="550.64" cy="-180" rx="38.3" ry="18"/>
<text text-anchor="middle" x="550.64" y="-175.8" font-family="Times,serif" font-size="14.00">Ability</text>
</g>
<!-- &#45;&gt;1 -->
<g id="edge1" class="edge">
<title>&#45;&gt;1</title>
<path fill="none" stroke="black" d="M130.46,-115.84C156.22,-127.73 192.75,-142.93 226.5,-151 322.24,-173.89 437.87,-179.04 501.6,-180.01"/>
<polygon fill="black" stroke="black" points="501.71,-183.51 511.75,-180.13 501.8,-176.51 501.71,-183.51"/>
</g>
<!-- 3 -->
<g id="10" class="node">
<title>3</title>
<ellipse fill="none" stroke="black" cx="282.85" cy="-124" rx="56.2" ry="18"/>
<text text-anchor="middle" x="282.85" y="-119.8" font-family="Times,serif" font-size="14.00">Value Type</text>
</g>
<!-- &#45;&gt;3 -->
<g id="edge2" class="edge">
<title>&#45;&gt;3</title>
<path fill="none" stroke="black" d="M173.35,-109.39C189.05,-111.5 205.36,-113.7 220.43,-115.73"/>
<polygon fill="black" stroke="black" points="220.26,-119.24 230.64,-117.1 221.19,-112.3 220.26,-119.24"/>
</g>
<!-- 6 -->
<g id="10" class="node">
<title>6</title>
<ellipse fill="none" stroke="black" cx="550.64" cy="-72" rx="29.64" ry="18"/>
<text text-anchor="middle" x="550.64" y="-67.8" font-family="Times,serif" font-size="14.00">Bool</text>
</g>
<!-- &#45;&gt;6 -->
<g id="edge3" class="edge">
<title>&#45;&gt;6</title>
<path fill="none" stroke="black" d="M186.37,-93.63C285.11,-87.75 438.98,-78.59 510.56,-74.33"/>
<polygon fill="black" stroke="black" points="511.15,-77.8 520.92,-73.71 510.73,-70.81 511.15,-77.8"/>
</g>
<!-- 8 -->
<g id="10" class="node">
<title>8</title>
<ellipse fill="none" stroke="black" cx="282.85" cy="-26" rx="30.78" ry="18"/>
<text text-anchor="middle" x="282.85" y="-21.8" font-family="Times,serif" font-size="14.00">Float</text>
</g>
<!-- &#45;&gt;8 -->
<g id="edge4" class="edge">
<title>&#45;&gt;8</title>
<path fill="none" stroke="black" d="M137.44,-82.8C170.4,-69.84 216.09,-51.87 247.19,-39.63"/>
<polygon fill="black" stroke="black" points="248.72,-42.79 256.74,-35.88 246.15,-36.28 248.72,-42.79"/>
</g>
<!-- 2 -->
<g id="10" class="node">
<title>2</title>
<ellipse fill="none" stroke="black" cx="795.65" cy="-180" rx="33.62" ry="18"/>
<text text-anchor="middle" x="795.65" y="-175.8" font-family="Times,serif" font-size="14.00">varint</text>
</g>
<!-- 1&#45;&gt;2 -->
<g id="edge5" class="edge">
<title>1&#45;&gt;2</title>
<path fill="none" stroke="black" d="M589.08,-180C632.93,-180 705.42,-180 751.57,-180"/>
<polygon fill="black" stroke="black" points="751.84,-183.5 761.84,-180 751.84,-176.5 751.84,-183.5"/>
</g>
<!-- 4 -->
<g id="10" class="node">
<title>4</title>
<ellipse fill="none" stroke="black" cx="550.64" cy="-126" rx="175.38" ry="18"/>
<text text-anchor="middle" x="550.64" y="-121.8" font-family="Times,serif" font-size="14.00">enum RequestAbilityPacketPayload::Type</text>
</g>
<!-- 3&#45;&gt;4 -->
<g id="edge6" class="edge">
<title>3&#45;&gt;4</title>
<path fill="none" stroke="black" d="M339.25,-124.42C347.46,-124.48 356.28,-124.54 365.48,-124.61"/>
<polygon fill="black" stroke="black" points="365.59,-128.12 375.62,-124.69 365.64,-121.12 365.59,-128.12"/>
</g>
<!-- 5 -->
<g id="10" class="node">
<title>5</title>
<ellipse fill="none" stroke="black" cx="795.65" cy="-126" rx="30.78" ry="18"/>
<text text-anchor="middle" x="795.65" y="-121.8" font-family="Times,serif" font-size="14.00">uint8</text>
</g>
<!-- 4&#45;&gt;5 -->
<g id="edge7" class="edge">
<title>4&#45;&gt;5</title>
<path fill="none" stroke="black" d="M726.31,-126C736.39,-126 745.86,-126 754.36,-126"/>
<polygon fill="black" stroke="black" points="754.57,-129.5 764.57,-126 754.57,-122.5 754.57,-129.5"/>
</g>
<!-- 7 -->
<g id="10" class="node">
<title>7</title>
<ellipse fill="none" stroke="black" cx="795.65" cy="-72" rx="28.41" ry="18"/>
<text text-anchor="middle" x="795.65" y="-67.8" font-family="Times,serif" font-size="14.00">bool</text>
</g>
<!-- 6&#45;&gt;7 -->
<g id="edge8" class="edge">
<title>6&#45;&gt;7</title>
<path fill="none" stroke="black" d="M580.47,-72C624.51,-72 708.54,-72 757.23,-72"/>
<polygon fill="black" stroke="black" points="757.35,-75.5 767.35,-72 757.35,-68.5 757.35,-75.5"/>
</g>
<!-- 9 -->
<g id="10" class="node">
<title>9</title>
<ellipse fill="none" stroke="black" cx="795.65" cy="-18" rx="28.97" ry="18"/>
<text text-anchor="middle" x="795.65" y="-13.8" font-family="Times,serif" font-size="14.00">float</text>
</g>
<!-- 8&#45;&gt;9 -->
<g id="edge9" class="edge">
<title>8&#45;&gt;9</title>
<path fill="none" stroke="black" d="M313.9,-25.53C401.91,-24.15 659.07,-20.12 756.57,-18.6"/>
<polygon fill="black" stroke="black" points="756.9,-22.09 766.85,-18.44 756.79,-15.09 756.9,-22.09"/>
</g>
</g>
</svg>
