<svg width="1120px" height="98px"
 viewBox="0.00 0.00 1120.16 98.00" xmlns="http://www.w3.org/2000/svg" xmlns:xlink="http://www.w3.org/1999/xlink">
<g id="graph0" class="graph" transform="scale(1.0 1.0) rotate(0.0) translate(4.0 94.0)">
<title>ServerboundDataDrivenScreenClosedPacket</title>
<polygon fill="white" stroke="transparent" points="-4,4 -4,-94 1116.16,-94 1116.16,4 -4,4"/>
<g id="0" class="node">
<title></title>
<ellipse fill="none" stroke="black" cx="184.26" cy="-45" rx="184.01" ry="18"/>
<text text-anchor="middle" x="184.26" y="-40.8" font-family="Times,serif" font-size="14.00">ServerboundDataDrivenScreenClosedPacket</text>
</g>
<!-- 1 -->
<g id="6" class="node">
<title>1</title>
<ellipse fill="none" stroke="black" cx="724.9" cy="-72" rx="40.01" ry="18"/>
<text text-anchor="middle" x="724.9" y="-67.8" font-family="Times,serif" font-size="14.00">FormId</text>
</g>
<!-- &#45;&gt;1 -->
<g id="edge1" class="edge">
<title>&#45;&gt;1</title>
<path fill="none" stroke="black" d="M348.69,-53.19C460.67,-58.81 601.69,-65.87 674.84,-69.54"/>
<polygon fill="black" stroke="black" points="674.96,-73.05 685.12,-70.06 675.31,-66.06 674.96,-73.05"/>
</g>
<!-- 3 -->
<g id="6" class="node">
<title>3</title>
<ellipse fill="none" stroke="black" cx="465.97" cy="-22" rx="61.41" ry="18"/>
<text text-anchor="middle" x="465.97" y="-17.8" font-family="Times,serif" font-size="14.00">CloseReason</text>
</g>
<!-- &#45;&gt;3 -->
<g id="edge2" class="edge">
<title>&#45;&gt;3</title>
<path fill="none" stroke="black" d="M325.93,-33.43C350.37,-31.42 374.77,-29.42 396.15,-27.66"/>
<polygon fill="black" stroke="black" points="396.72,-31.12 406.39,-26.82 396.14,-24.15 396.72,-31.12"/>
</g>
<!-- 2 -->
<g id="6" class="node">
<title>2</title>
<ellipse fill="none" stroke="black" cx="1017.26" cy="-72" rx="94.79" ry="18"/>
<text text-anchor="middle" x="1017.26" y="-67.8" font-family="Times,serif" font-size="14.00">std::optional&lt;uint32&gt;</text>
</g>
<!-- 1&#45;&gt;2 -->
<g id="edge3" class="edge">
<title>1&#45;&gt;2</title>
<path fill="none" stroke="black" d="M765.06,-72C802.64,-72 861.08,-72 912.13,-72"/>
<polygon fill="black" stroke="black" points="912.24,-75.5 922.24,-72 912.24,-68.5 912.24,-75.5"/>
</g>
<!-- 4 -->
<g id="6" class="node">
<title>4</title>
<ellipse fill="none" stroke="black" cx="724.9" cy="-18" rx="161.44" ry="18"/>
<text text-anchor="middle" x="724.9" y="-13.8" font-family="Times,serif" font-size="14.00">enum DataDrivenScreenClosedReason</text>
</g>
<!-- 3&#45;&gt;4 -->
<g id="edge4" class="edge">
<title>3&#45;&gt;4</title>
<path fill="none" stroke="black" d="M527.53,-21.06C536.03,-20.92 545.08,-20.78 554.46,-20.64"/>
<polygon fill="black" stroke="black" points="554.82,-24.13 564.76,-20.48 554.71,-17.13 554.82,-24.13"/>
</g>
<!-- 5 -->
<g id="6" class="node">
<title>5</title>
<ellipse fill="none" stroke="black" cx="1017.26" cy="-18" rx="33.06" ry="18"/>
<text text-anchor="middle" x="1017.26" y="-13.8" font-family="Times,serif" font-size="14.00">string</text>
</g>
<!-- 4&#45;&gt;5 -->
<g id="edge5" class="edge">
<title>4&#45;&gt;5</title>
<path fill="none" stroke="black" d="M886.79,-18C919.16,-18 950.48,-18 974.2,-18"/>
<polygon fill="black" stroke="black" points="974.21,-21.5 984.21,-18 974.21,-14.5 974.21,-21.5"/>
</g>
</g>
</svg>
