<svg width="623px" height="44px"
 viewBox="0.00 0.00 622.99 44.00" xmlns="http://www.w3.org/2000/svg" xmlns:xlink="http://www.w3.org/1999/xlink">
<g id="graph0" class="graph" transform="scale(1.0 1.0) rotate(0.0) translate(4.0 40.0)">
<title>ServerToClientHandshakePacket</title>
<polygon fill="white" stroke="transparent" points="-4,4 -4,-40 618.99,-40 618.99,4 -4,4"/>
<g id="0" class="node">
<title></title>
<ellipse fill="none" stroke="black" cx="139.21" cy="-18" rx="139.42" ry="18"/>
<text text-anchor="middle" x="139.21" y="-13.8" font-family="Times,serif" font-size="14.00">ServerToClientHandshakePacket</text>
</g>
<!-- 1 -->
<g id="3" class="node">
<title>1</title>
<ellipse fill="none" stroke="black" cx="413.68" cy="-18" rx="99.01" ry="18"/>
<text text-anchor="middle" x="413.68" y="-13.8" font-family="Times,serif" font-size="14.00">Handshake WebToken</text>
</g>
<!-- &#45;&gt;1 -->
<g id="edge1" class="edge">
<title>&#45;&gt;1</title>
<path fill="none" stroke="black" d="M278.44,-18C287.06,-18 295.66,-18 304.12,-18"/>
<polygon fill="black" stroke="black" points="304.35,-21.5 314.35,-18 304.35,-14.5 304.35,-21.5"/>
</g>
<!-- 2 -->
<g id="3" class="node">
<title>2</title>
<ellipse fill="none" stroke="black" cx="581.96" cy="-18" rx="33.06" ry="18"/>
<text text-anchor="middle" x="581.96" y="-13.8" font-family="Times,serif" font-size="14.00">string</text>
</g>
<!-- 1&#45;&gt;2 -->
<g id="edge2" class="edge">
<title>1&#45;&gt;2</title>
<path fill="none" stroke="black" d="M513.33,-18C522.18,-18 530.79,-18 538.73,-18"/>
<polygon fill="black" stroke="black" points="538.75,-21.5 548.75,-18 538.75,-14.5 538.75,-21.5"/>
</g>
</g>
</svg>
