<svg width="1884px" height="1502px"
 viewBox="0.00 0.00 1883.55 1502.00" xmlns="http://www.w3.org/2000/svg" xmlns:xlink="http://www.w3.org/1999/xlink">
<g id="graph0" class="graph" transform="scale(1.0 1.0) rotate(0.0) translate(4.0 1498.0)">
<title>ServerboundDiagnosticsPacket</title>
<polygon fill="white" stroke="transparent" points="-4,4 -4,-1498 1879.55,-1498 1879.55,4 -4,4"/>
<g id="0" class="node">
<title></title>
<ellipse fill="none" stroke="black" cx="131.71" cy="-1152" rx="131.92" ry="18"/>
<text text-anchor="middle" x="131.71" y="-1147.8" font-family="Times,serif" font-size="14.00">ServerboundDiagnosticsPacket</text>
</g>
<!-- 1 -->
<g id="70" class="node">
<title>1</title>
<ellipse fill="none" stroke="black" cx="711.78" cy="-1473" rx="41.73" ry="18"/>
<text text-anchor="middle" x="711.78" y="-1468.8" font-family="Times,serif" font-size="14.00">AvgFps</text>
</g>
<!-- &#45;&gt;1 -->
<g id="edge1" class="edge">
<title>&#45;&gt;1</title>
<path fill="none" stroke="black" d="M137.95,-1170.31C153.31,-1220.26 203.26,-1359.25 299.42,-1421 412.69,-1493.74 579.98,-1487.96 661.92,-1479.56"/>
<polygon fill="black" stroke="black" points="662.39,-1483.03 671.96,-1478.47 661.64,-1476.07 662.39,-1483.03"/>
</g>
<!-- 3 -->
<g id="70" class="node">
<title>3</title>
<ellipse fill="none" stroke="black" cx="711.78" cy="-1417" rx="120.42" ry="18"/>
<text text-anchor="middle" x="711.78" y="-1412.8" font-family="Times,serif" font-size="14.00">AvgServerSimTickTimeMS</text>
</g>
<!-- &#45;&gt;3 -->
<g id="edge2" class="edge">
<title>&#45;&gt;3</title>
<path fill="none" stroke="black" d="M139.61,-1170.07C157.81,-1214.96 211.87,-1331.52 299.42,-1381 395.78,-1435.46 525.52,-1437.32 613.34,-1430.23"/>
<polygon fill="black" stroke="black" points="613.91,-1433.69 623.57,-1429.34 613.31,-1426.72 613.91,-1433.69"/>
</g>
<!-- 5 -->
<g id="70" class="node">
<title>5</title>
<ellipse fill="none" stroke="black" cx="1251.67" cy="-1368" rx="118.74" ry="18"/>
<text text-anchor="middle" x="1251.67" y="-1363.8" font-family="Times,serif" font-size="14.00">AvgClientSimTickTimeMS</text>
</g>
<!-- &#45;&gt;5 -->
<g id="edge3" class="edge">
<title>&#45;&gt;5</title>
<path fill="none" stroke="black" d="M141.97,-1170.04C163.38,-1209.56 220.59,-1303.14 299.42,-1340 372,-1373.93 880.67,-1372.52 1122.95,-1369.84"/>
<polygon fill="black" stroke="black" points="1123.26,-1373.34 1133.22,-1369.73 1123.18,-1366.34 1123.26,-1373.34"/>
</g>
<!-- 7 -->
<g id="70" class="node">
<title>7</title>
<ellipse fill="none" stroke="black" cx="427.37" cy="-1313" rx="109.97" ry="18"/>
<text text-anchor="middle" x="427.37" y="-1308.8" font-family="Times,serif" font-size="14.00">AvgBeginFrameTimeMS</text>
</g>
<!-- &#45;&gt;7 -->
<g id="edge4" class="edge">
<title>&#45;&gt;7</title>
<path fill="none" stroke="black" d="M149.8,-1170.21C178.07,-1199.18 237.6,-1255.5 299.42,-1285 310.67,-1290.37 322.98,-1294.72 335.36,-1298.25"/>
<polygon fill="black" stroke="black" points="334.72,-1301.71 345.29,-1300.91 336.53,-1294.94 334.72,-1301.71"/>
</g>
<!-- 9 -->
<g id="70" class="node">
<title>9</title>
<ellipse fill="none" stroke="black" cx="427.37" cy="-1258" rx="82.27" ry="18"/>
<text text-anchor="middle" x="427.37" y="-1253.8" font-family="Times,serif" font-size="14.00">AvgInputTimeMS</text>
</g>
<!-- &#45;&gt;9 -->
<g id="edge5" class="edge">
<title>&#45;&gt;9</title>
<path fill="none" stroke="black" d="M165.09,-1169.42C198.09,-1186.57 251.14,-1212.54 299.42,-1229 316.85,-1234.94 336.03,-1240.04 354.09,-1244.22"/>
<polygon fill="black" stroke="black" points="353.46,-1247.67 363.99,-1246.46 355,-1240.84 353.46,-1247.67"/>
</g>
<!-- 11 -->
<g id="70" class="node">
<title>11</title>
<ellipse fill="none" stroke="black" cx="427.37" cy="-1202" rx="89.77" ry="18"/>
<text text-anchor="middle" x="427.37" y="-1197.8" font-family="Times,serif" font-size="14.00">AvgRenderTimeMS</text>
</g>
<!-- &#45;&gt;11 -->
<g id="edge6" class="edge">
<title>&#45;&gt;11</title>
<path fill="none" stroke="black" d="M214.9,-1165.99C256.6,-1173.09 306.98,-1181.67 348.11,-1188.68"/>
<polygon fill="black" stroke="black" points="347.64,-1192.15 358.09,-1190.37 348.82,-1185.24 347.64,-1192.15"/>
</g>
<!-- 13 -->
<g id="70" class="node">
<title>13</title>
<ellipse fill="none" stroke="black" cx="1251.67" cy="-1152" rx="102.45" ry="18"/>
<text text-anchor="middle" x="1251.67" y="-1147.8" font-family="Times,serif" font-size="14.00">AvgEndFrameTimeMS</text>
</g>
<!-- &#45;&gt;13 -->
<g id="edge7" class="edge">
<title>&#45;&gt;13</title>
<path fill="none" stroke="black" d="M263.69,-1152C485.51,-1152 931.19,-1152 1139.1,-1152"/>
<polygon fill="black" stroke="black" points="1139.13,-1155.5 1149.13,-1152 1139.13,-1148.5 1139.13,-1155.5"/>
</g>
<!-- 15 -->
<g id="70" class="node">
<title>15</title>
<ellipse fill="none" stroke="black" cx="427.37" cy="-1104" rx="119.24" ry="18"/>
<text text-anchor="middle" x="427.37" y="-1099.8" font-family="Times,serif" font-size="14.00">AvgRemainderTimePercent</text>
</g>
<!-- &#45;&gt;15 -->
<g id="edge8" class="edge">
<title>&#45;&gt;15</title>
<path fill="none" stroke="black" d="M216.86,-1138.25C254.05,-1132.17 297.83,-1125.01 335.73,-1118.81"/>
<polygon fill="black" stroke="black" points="336.44,-1122.25 345.75,-1117.18 335.31,-1115.34 336.44,-1122.25"/>
</g>
<!-- 17 -->
<g id="70" class="node">
<title>17</title>
<ellipse fill="none" stroke="black" cx="427.37" cy="-1046" rx="127.89" ry="18"/>
<text text-anchor="middle" x="427.37" y="-1041.8" font-family="Times,serif" font-size="14.00">AvgUnaccountedTimePercent</text>
</g>
<!-- &#45;&gt;17 -->
<g id="edge9" class="edge">
<title>&#45;&gt;17</title>
<path fill="none" stroke="black" d="M166.45,-1134.61C199.61,-1118.05 252,-1093.3 299.42,-1077 314.03,-1071.98 329.85,-1067.43 345.2,-1063.47"/>
<polygon fill="black" stroke="black" points="346.36,-1066.79 355.2,-1060.95 344.65,-1060 346.36,-1066.79"/>
</g>
<!-- 19 -->
<g id="70" class="node">
<title>19</title>
<ellipse fill="none" stroke="black" cx="427.37" cy="-990" rx="111.16" ry="18"/>
<text text-anchor="middle" x="427.37" y="-985.8" font-family="Times,serif" font-size="14.00">Memory Category Values</text>
</g>
<!-- &#45;&gt;19 -->
<g id="edge10" class="edge">
<title>&#45;&gt;19</title>
<path fill="none" stroke="black" d="M149.83,-1133.84C178.13,-1104.95 237.72,-1048.73 299.42,-1019 311.11,-1013.37 323.93,-1008.81 336.8,-1005.12"/>
<polygon fill="black" stroke="black" points="337.89,-1008.45 346.63,-1002.46 336.06,-1001.69 337.89,-1008.45"/>
</g>
<!-- 29 -->
<g id="70" class="node">
<title>29</title>
<ellipse fill="none" stroke="black" cx="711.78" cy="-828" rx="82.8" ry="18"/>
<text text-anchor="middle" x="711.78" y="-823.8" font-family="Times,serif" font-size="14.00">Entity Diagnostics</text>
</g>
<!-- &#45;&gt;29 -->
<g id="edge11" class="edge">
<title>&#45;&gt;29</title>
<path fill="none" stroke="black" d="M143.73,-1134.07C167.52,-1096.78 227.45,-1010.42 299.42,-963 404.33,-893.89 547.59,-857.48 634.41,-840.53"/>
<polygon fill="black" stroke="black" points="635.28,-843.92 644.45,-838.6 633.97,-837.05 635.28,-843.92"/>
</g>
<!-- 42 -->
<g id="70" class="node">
<title>42</title>
<ellipse fill="none" stroke="black" cx="711.78" cy="-558" rx="87.46" ry="18"/>
<text text-anchor="middle" x="711.78" y="-553.8" font-family="Times,serif" font-size="14.00">System Diagnostics</text>
</g>
<!-- &#45;&gt;42 -->
<g id="edge12" class="edge">
<title>&#45;&gt;42</title>
<path fill="none" stroke="black" d="M139.62,-1133.99C159.03,-1085.07 217.96,-947.33 299.42,-856 413.09,-728.58 590.14,-623.43 669.66,-579.76"/>
<polygon fill="black" stroke="black" points="671.76,-582.6 678.87,-574.74 668.41,-576.45 671.76,-582.6"/>
</g>
<!-- 55 -->
<g id="70" class="node">
<title>55</title>
<ellipse fill="none" stroke="black" cx="711.78" cy="-288" rx="73.54" ry="18"/>
<text text-anchor="middle" x="711.78" y="-283.8" font-family="Times,serif" font-size="14.00">Whisker Scopes</text>
</g>
<!-- &#45;&gt;55 -->
<g id="edge13" class="edge">
<title>&#45;&gt;55</title>
<path fill="none" stroke="black" d="M135.13,-1133.92C145.02,-1065.07 187.33,-814.71 299.42,-646 403.6,-489.21 594.11,-360.01 673.99,-310.13"/>
<polygon fill="black" stroke="black" points="676.06,-312.96 682.72,-304.71 672.38,-307.01 676.06,-312.96"/>
</g>
<!-- 2 -->
<g id="70" class="node">
<title>2</title>
<ellipse fill="none" stroke="black" cx="1804.7" cy="-1476" rx="28.97" ry="18"/>
<text text-anchor="middle" x="1804.7" y="-1471.8" font-family="Times,serif" font-size="14.00">float</text>
</g>
<!-- 1&#45;&gt;2 -->
<g id="edge14" class="edge">
<title>1&#45;&gt;2</title>
<path fill="none" stroke="black" d="M753.55,-1473.11C926.42,-1473.59 1597.64,-1475.43 1765.49,-1475.89"/>
<polygon fill="black" stroke="black" points="1765.58,-1479.4 1775.59,-1475.92 1765.6,-1472.4 1765.58,-1479.4"/>
</g>
<!-- 4 -->
<g id="70" class="node">
<title>4</title>
<ellipse fill="none" stroke="black" cx="1804.7" cy="-1422" rx="28.97" ry="18"/>
<text text-anchor="middle" x="1804.7" y="-1417.8" font-family="Times,serif" font-size="14.00">float</text>
</g>
<!-- 3&#45;&gt;4 -->
<g id="edge15" class="edge">
<title>3&#45;&gt;4</title>
<path fill="none" stroke="black" d="M832.38,-1417.55C1075.51,-1418.66 1616.96,-1421.14 1765.42,-1421.82"/>
<polygon fill="black" stroke="black" points="1765.8,-1425.33 1775.82,-1421.87 1765.83,-1418.33 1765.8,-1425.33"/>
</g>
<!-- 6 -->
<g id="70" class="node">
<title>6</title>
<ellipse fill="none" stroke="black" cx="1804.7" cy="-1368" rx="28.97" ry="18"/>
<text text-anchor="middle" x="1804.7" y="-1363.8" font-family="Times,serif" font-size="14.00">float</text>
</g>
<!-- 5&#45;&gt;6 -->
<g id="edge16" class="edge">
<title>5&#45;&gt;6</title>
<path fill="none" stroke="black" d="M1370.54,-1368C1495.35,-1368 1685.21,-1368 1765.61,-1368"/>
<polygon fill="black" stroke="black" points="1765.76,-1371.5 1775.76,-1368 1765.76,-1364.5 1765.76,-1371.5"/>
</g>
<!-- 8 -->
<g id="70" class="node">
<title>8</title>
<ellipse fill="none" stroke="black" cx="1804.7" cy="-1314" rx="28.97" ry="18"/>
<text text-anchor="middle" x="1804.7" y="-1309.8" font-family="Times,serif" font-size="14.00">float</text>
</g>
<!-- 7&#45;&gt;8 -->
<g id="edge17" class="edge">
<title>7&#45;&gt;8</title>
<path fill="none" stroke="black" d="M537.09,-1313.31C647.98,-1313.61 824.99,-1314 978.04,-1314 978.04,-1314 978.04,-1314 1252.67,-1314 1445.49,-1314 1676.26,-1314 1765.7,-1314"/>
<polygon fill="black" stroke="black" points="1765.9,-1317.5 1775.9,-1314 1765.9,-1310.5 1765.9,-1317.5"/>
</g>
<!-- 10 -->
<g id="70" class="node">
<title>10</title>
<ellipse fill="none" stroke="black" cx="1804.7" cy="-1260" rx="28.97" ry="18"/>
<text text-anchor="middle" x="1804.7" y="-1255.8" font-family="Times,serif" font-size="14.00">float</text>
</g>
<!-- 9&#45;&gt;10 -->
<g id="edge18" class="edge">
<title>9&#45;&gt;10</title>
<path fill="none" stroke="black" d="M509.86,-1258.48C617.17,-1259.07 811.75,-1260 978.04,-1260 978.04,-1260 978.04,-1260 1252.67,-1260 1445.49,-1260 1676.26,-1260 1765.7,-1260"/>
<polygon fill="black" stroke="black" points="1765.9,-1263.5 1775.9,-1260 1765.9,-1256.5 1765.9,-1263.5"/>
</g>
<!-- 12 -->
<g id="70" class="node">
<title>12</title>
<ellipse fill="none" stroke="black" cx="1804.7" cy="-1206" rx="28.97" ry="18"/>
<text text-anchor="middle" x="1804.7" y="-1201.8" font-family="Times,serif" font-size="14.00">float</text>
</g>
<!-- 11&#45;&gt;12 -->
<g id="edge19" class="edge">
<title>11&#45;&gt;12</title>
<path fill="none" stroke="black" d="M517.38,-1203.05C626.09,-1204.23 815.57,-1206 978.04,-1206 978.04,-1206 978.04,-1206 1252.67,-1206 1445.49,-1206 1676.26,-1206 1765.7,-1206"/>
<polygon fill="black" stroke="black" points="1765.9,-1209.5 1775.9,-1206 1765.9,-1202.5 1765.9,-1209.5"/>
</g>
<!-- 14 -->
<g id="70" class="node">
<title>14</title>
<ellipse fill="none" stroke="black" cx="1804.7" cy="-1152" rx="28.97" ry="18"/>
<text text-anchor="middle" x="1804.7" y="-1147.8" font-family="Times,serif" font-size="14.00">float</text>
</g>
<!-- 13&#45;&gt;14 -->
<g id="edge20" class="edge">
<title>13&#45;&gt;14</title>
<path fill="none" stroke="black" d="M1354.06,-1152C1478.06,-1152 1681.81,-1152 1765.75,-1152"/>
<polygon fill="black" stroke="black" points="1765.85,-1155.5 1775.85,-1152 1765.85,-1148.5 1765.85,-1155.5"/>
</g>
<!-- 16 -->
<g id="70" class="node">
<title>16</title>
<ellipse fill="none" stroke="black" cx="1804.7" cy="-1098" rx="28.97" ry="18"/>
<text text-anchor="middle" x="1804.7" y="-1093.8" font-family="Times,serif" font-size="14.00">float</text>
</g>
<!-- 15&#45;&gt;16 -->
<g id="edge21" class="edge">
<title>15&#45;&gt;16</title>
<path fill="none" stroke="black" d="M546.04,-1101.97C657.34,-1100.23 829.04,-1098 978.04,-1098 978.04,-1098 978.04,-1098 1252.67,-1098 1445.49,-1098 1676.26,-1098 1765.7,-1098"/>
<polygon fill="black" stroke="black" points="1765.9,-1101.5 1775.9,-1098 1765.9,-1094.5 1765.9,-1101.5"/>
</g>
<!-- 18 -->
<g id="70" class="node">
<title>18</title>
<ellipse fill="none" stroke="black" cx="1804.7" cy="-1044" rx="28.97" ry="18"/>
<text text-anchor="middle" x="1804.7" y="-1039.8" font-family="Times,serif" font-size="14.00">float</text>
</g>
<!-- 17&#45;&gt;18 -->
<g id="edge22" class="edge">
<title>17&#45;&gt;18</title>
<path fill="none" stroke="black" d="M555.27,-1045.28C666.68,-1044.7 833.1,-1044 978.04,-1044 978.04,-1044 978.04,-1044 1252.67,-1044 1445.49,-1044 1676.26,-1044 1765.7,-1044"/>
<polygon fill="black" stroke="black" points="1765.9,-1047.5 1775.9,-1044 1765.9,-1040.5 1765.9,-1047.5"/>
</g>
<!-- 20 -->
<g id="70" class="node">
<title>20</title>
<ellipse fill="none" stroke="black" cx="711.78" cy="-990" rx="45.2" ry="18"/>
<text text-anchor="middle" x="711.78" y="-985.8" font-family="Times,serif" font-size="14.00">List Size</text>
</g>
<!-- 19&#45;&gt;20 -->
<g id="edge23" class="edge">
<title>19&#45;&gt;20</title>
<path fill="none" stroke="black" d="M538.77,-990C578.97,-990 622.68,-990 655.97,-990"/>
<polygon fill="black" stroke="black" points="656.4,-993.5 666.4,-990 656.4,-986.5 656.4,-993.5"/>
</g>
<!-- 22 -->
<g id="70" class="node">
<title>22</title>
<ellipse fill="none" stroke="black" stroke-dasharray="1,5" cx="711.78" cy="-936" rx="76.96" ry="18"/>
<text text-anchor="middle" x="711.78" y="-931.8" font-family="Times,serif" font-size="14.00">example element</text>
</g>
<!-- 19&#45;&gt;22 -->
<g id="edge24" class="edge">
<title>19&#45;&gt;22</title>
<path fill="none" stroke="black" d="M500,-976.3C543.42,-968 598.53,-957.46 641.52,-949.24"/>
<polygon fill="black" stroke="black" points="642.44,-952.63 651.61,-947.31 641.13,-945.75 642.44,-952.63"/>
</g>
<!-- 21 -->
<g id="70" class="node">
<title>21</title>
<ellipse fill="none" stroke="black" cx="1804.7" cy="-990" rx="70.69" ry="18"/>
<text text-anchor="middle" x="1804.7" y="-985.8" font-family="Times,serif" font-size="14.00">unsigned varint</text>
</g>
<!-- 20&#45;&gt;21 -->
<g id="edge25" class="edge">
<title>20&#45;&gt;21</title>
<path fill="none" stroke="black" d="M756.89,-990C922.4,-990 1507.88,-990 1723.35,-990"/>
<polygon fill="black" stroke="black" points="1723.63,-993.5 1733.63,-990 1723.63,-986.5 1723.63,-993.5"/>
</g>
<!-- 23 -->
<g id="70" class="node">
<title>23</title>
<ellipse fill="none" stroke="black" cx="979.04" cy="-936" rx="110.6" ry="18"/>
<text text-anchor="middle" x="979.04" y="-931.8" font-family="Times,serif" font-size="14.00">MemoryCategoryCounter</text>
</g>
<!-- 22&#45;&gt;23 -->
<g id="edge26" class="edge">
<title>22&#45;&gt;23</title>
<path fill="none" stroke="black" d="M788.79,-936C810.36,-936 834.38,-936 857.88,-936"/>
<polygon fill="black" stroke="black" points="857.91,-939.5 867.91,-936 857.91,-932.5 857.91,-939.5"/>
</g>
<!-- 24 -->
<g id="70" class="node">
<title>24</title>
<ellipse fill="none" stroke="black" cx="1251.67" cy="-936" rx="46.37" ry="18"/>
<text text-anchor="middle" x="1251.67" y="-931.8" font-family="Times,serif" font-size="14.00">Category</text>
</g>
<!-- 23&#45;&gt;24 -->
<g id="edge27" class="edge">
<title>23&#45;&gt;24</title>
<path fill="none" stroke="black" d="M1090.11,-936C1126.11,-936 1164.58,-936 1194.84,-936"/>
<polygon fill="black" stroke="black" points="1195.18,-939.5 1205.18,-936 1195.18,-932.5 1195.18,-939.5"/>
</g>
<!-- 27 -->
<g id="70" class="node">
<title>27</title>
<ellipse fill="none" stroke="black" cx="1251.67" cy="-882" rx="64.89" ry="18"/>
<text text-anchor="middle" x="1251.67" y="-877.8" font-family="Times,serif" font-size="14.00">Current Bytes</text>
</g>
<!-- 23&#45;&gt;27 -->
<g id="edge28" class="edge">
<title>23&#45;&gt;27</title>
<path fill="none" stroke="black" d="M1049.73,-922.09C1092.56,-913.55 1146.96,-902.69 1188.35,-894.44"/>
<polygon fill="black" stroke="black" points="1189.19,-897.84 1198.31,-892.45 1187.82,-890.97 1189.19,-897.84"/>
</g>
<!-- 25 -->
<g id="70" class="node">
<title>25</title>
<ellipse fill="none" stroke="black" cx="1555.68" cy="-936" rx="142.36" ry="18"/>
<text text-anchor="middle" x="1555.68" y="-931.8" font-family="Times,serif" font-size="14.00">enum Memory::MemoryCategory</text>
</g>
<!-- 24&#45;&gt;25 -->
<g id="edge29" class="edge">
<title>24&#45;&gt;25</title>
<path fill="none" stroke="black" d="M1298.21,-936C1326.57,-936 1364.85,-936 1403.17,-936"/>
<polygon fill="black" stroke="black" points="1403.44,-939.5 1413.44,-936 1403.44,-932.5 1403.44,-939.5"/>
</g>
<!-- 26 -->
<g id="70" class="node">
<title>26</title>
<ellipse fill="none" stroke="black" cx="1804.7" cy="-936" rx="30.78" ry="18"/>
<text text-anchor="middle" x="1804.7" y="-931.8" font-family="Times,serif" font-size="14.00">uint8</text>
</g>
<!-- 25&#45;&gt;26 -->
<g id="edge30" class="edge">
<title>25&#45;&gt;26</title>
<path fill="none" stroke="black" d="M1697.87,-936C1722.01,-936 1745.24,-936 1763.75,-936"/>
<polygon fill="black" stroke="black" points="1763.8,-939.5 1773.8,-936 1763.8,-932.5 1763.8,-939.5"/>
</g>
<!-- 28 -->
<g id="70" class="node">
<title>28</title>
<ellipse fill="none" stroke="black" cx="1804.7" cy="-882" rx="35.94" ry="18"/>
<text text-anchor="middle" x="1804.7" y="-877.8" font-family="Times,serif" font-size="14.00">uint64</text>
</g>
<!-- 27&#45;&gt;28 -->
<g id="edge31" class="edge">
<title>27&#45;&gt;28</title>
<path fill="none" stroke="black" d="M1316.69,-882C1429.56,-882 1661.24,-882 1758.81,-882"/>
<polygon fill="black" stroke="black" points="1758.93,-885.5 1768.93,-882 1758.93,-878.5 1758.93,-885.5"/>
</g>
<!-- 30 -->
<g id="70" class="node">
<title>30</title>
<ellipse fill="none" stroke="black" cx="979.04" cy="-828" rx="45.2" ry="18"/>
<text text-anchor="middle" x="979.04" y="-823.8" font-family="Times,serif" font-size="14.00">List Size</text>
</g>
<!-- 29&#45;&gt;30 -->
<g id="edge32" class="edge">
<title>29&#45;&gt;30</title>
<path fill="none" stroke="black" d="M794.53,-828C836.41,-828 886.27,-828 923.44,-828"/>
<polygon fill="black" stroke="black" points="923.57,-831.5 933.57,-828 923.57,-824.5 923.57,-831.5"/>
</g>
<!-- 32 -->
<g id="70" class="node">
<title>32</title>
<ellipse fill="none" stroke="black" stroke-dasharray="1,5" cx="979.04" cy="-747" rx="76.96" ry="18"/>
<text text-anchor="middle" x="979.04" y="-742.8" font-family="Times,serif" font-size="14.00">example element</text>
</g>
<!-- 29&#45;&gt;32 -->
<g id="edge33" class="edge">
<title>29&#45;&gt;32</title>
<path fill="none" stroke="black" d="M760.51,-813.43C805.86,-799.58 874.06,-778.75 921.98,-764.12"/>
<polygon fill="black" stroke="black" points="923.04,-767.45 931.58,-761.19 921,-760.76 923.04,-767.45"/>
</g>
<!-- 31 -->
<g id="70" class="node">
<title>31</title>
<ellipse fill="none" stroke="black" cx="1804.7" cy="-828" rx="70.69" ry="18"/>
<text text-anchor="middle" x="1804.7" y="-823.8" font-family="Times,serif" font-size="14.00">unsigned varint</text>
</g>
<!-- 30&#45;&gt;31 -->
<g id="edge34" class="edge">
<title>30&#45;&gt;31</title>
<path fill="none" stroke="black" d="M1024.32,-828C1157.02,-828 1552.78,-828 1723.66,-828"/>
<polygon fill="black" stroke="black" points="1723.85,-831.5 1733.85,-828 1723.85,-824.5 1723.85,-831.5"/>
</g>
<!-- 33 -->
<g id="70" class="node">
<title>33</title>
<ellipse fill="none" stroke="black" cx="1251.67" cy="-720" rx="121.01" ry="18"/>
<text text-anchor="middle" x="1251.67" y="-715.8" font-family="Times,serif" font-size="14.00">EntityDiagnosticTimingInfo</text>
</g>
<!-- 32&#45;&gt;33 -->
<g id="edge35" class="edge">
<title>32&#45;&gt;33</title>
<path fill="none" stroke="black" d="M1050.08,-740.01C1077.66,-737.26 1110,-734.03 1140.56,-730.99"/>
<polygon fill="black" stroke="black" points="1141.24,-734.43 1150.84,-729.96 1140.54,-727.47 1141.24,-734.43"/>
</g>
<!-- 34 -->
<g id="70" class="node">
<title>34</title>
<ellipse fill="none" stroke="black" cx="1555.68" cy="-774" rx="66.59" ry="18"/>
<text text-anchor="middle" x="1555.68" y="-769.8" font-family="Times,serif" font-size="14.00">Display Name</text>
</g>
<!-- 33&#45;&gt;34 -->
<g id="edge36" class="edge">
<title>33&#45;&gt;34</title>
<path fill="none" stroke="black" d="M1329.66,-733.77C1379.16,-742.62 1442.75,-753.99 1489.69,-762.38"/>
<polygon fill="black" stroke="black" points="1489.29,-765.86 1499.75,-764.18 1490.52,-758.97 1489.29,-765.86"/>
</g>
<!-- 36 -->
<g id="70" class="node">
<title>36</title>
<ellipse fill="none" stroke="black" cx="1555.68" cy="-720" rx="34.79" ry="18"/>
<text text-anchor="middle" x="1555.68" y="-715.8" font-family="Times,serif" font-size="14.00">Entity</text>
</g>
<!-- 33&#45;&gt;36 -->
<g id="edge37" class="edge">
<title>33&#45;&gt;36</title>
<path fill="none" stroke="black" d="M1372.9,-720C1421.41,-720 1474.34,-720 1510.51,-720"/>
<polygon fill="black" stroke="black" points="1510.71,-723.5 1520.71,-720 1510.71,-716.5 1510.71,-723.5"/>
</g>
<!-- 38 -->
<g id="70" class="node">
<title>38</title>
<ellipse fill="none" stroke="black" cx="1555.68" cy="-666" rx="56.2" ry="18"/>
<text text-anchor="middle" x="1555.68" y="-661.8" font-family="Times,serif" font-size="14.00">Time in NS</text>
</g>
<!-- 33&#45;&gt;38 -->
<g id="edge38" class="edge">
<title>33&#45;&gt;38</title>
<path fill="none" stroke="black" d="M1329.66,-706.23C1381.44,-696.98 1448.63,-684.96 1496.07,-676.48"/>
<polygon fill="black" stroke="black" points="1496.95,-679.88 1506.18,-674.67 1495.72,-672.99 1496.95,-679.88"/>
</g>
<!-- 40 -->
<g id="70" class="node">
<title>40</title>
<ellipse fill="none" stroke="black" cx="1555.68" cy="-612" rx="73.49" ry="18"/>
<text text-anchor="middle" x="1555.68" y="-607.8" font-family="Times,serif" font-size="14.00">Percent of Total</text>
</g>
<!-- 33&#45;&gt;40 -->
<g id="edge39" class="edge">
<title>33&#45;&gt;40</title>
<path fill="none" stroke="black" d="M1281.24,-702.53C1312.6,-684.11 1364.96,-655.51 1413.5,-639 1434.81,-631.75 1458.62,-626.26 1480.54,-622.19"/>
<polygon fill="black" stroke="black" points="1481.23,-625.62 1490.46,-620.42 1480,-618.73 1481.23,-625.62"/>
</g>
<!-- 35 -->
<g id="70" class="node">
<title>35</title>
<ellipse fill="none" stroke="black" cx="1804.7" cy="-774" rx="33.06" ry="18"/>
<text text-anchor="middle" x="1804.7" y="-769.8" font-family="Times,serif" font-size="14.00">string</text>
</g>
<!-- 34&#45;&gt;35 -->
<g id="edge40" class="edge">
<title>34&#45;&gt;35</title>
<path fill="none" stroke="black" d="M1622.23,-774C1666.26,-774 1723,-774 1761.21,-774"/>
<polygon fill="black" stroke="black" points="1761.48,-777.5 1771.48,-774 1761.48,-770.5 1761.48,-777.5"/>
</g>
<!-- 37 -->
<g id="70" class="node">
<title>37</title>
<ellipse fill="none" stroke="black" cx="1804.7" cy="-720" rx="33.06" ry="18"/>
<text text-anchor="middle" x="1804.7" y="-715.8" font-family="Times,serif" font-size="14.00">string</text>
</g>
<!-- 36&#45;&gt;37 -->
<g id="edge41" class="edge">
<title>36&#45;&gt;37</title>
<path fill="none" stroke="black" d="M1590.51,-720C1634.95,-720 1713,-720 1761.33,-720"/>
<polygon fill="black" stroke="black" points="1761.46,-723.5 1771.46,-720 1761.46,-716.5 1761.46,-723.5"/>
</g>
<!-- 39 -->
<g id="70" class="node">
<title>39</title>
<ellipse fill="none" stroke="black" cx="1804.7" cy="-666" rx="35.94" ry="18"/>
<text text-anchor="middle" x="1804.7" y="-661.8" font-family="Times,serif" font-size="14.00">uint64</text>
</g>
<!-- 38&#45;&gt;39 -->
<g id="edge42" class="edge">
<title>38&#45;&gt;39</title>
<path fill="none" stroke="black" d="M1611.81,-666C1656.12,-666 1717.57,-666 1758.88,-666"/>
<polygon fill="black" stroke="black" points="1758.93,-669.5 1768.93,-666 1758.93,-662.5 1758.93,-669.5"/>
</g>
<!-- 41 -->
<g id="70" class="node">
<title>41</title>
<ellipse fill="none" stroke="black" cx="1804.7" cy="-612" rx="30.78" ry="18"/>
<text text-anchor="middle" x="1804.7" y="-607.8" font-family="Times,serif" font-size="14.00">uint8</text>
</g>
<!-- 40&#45;&gt;41 -->
<g id="edge43" class="edge">
<title>40&#45;&gt;41</title>
<path fill="none" stroke="black" d="M1629.13,-612C1672.92,-612 1727.11,-612 1763.4,-612"/>
<polygon fill="black" stroke="black" points="1763.59,-615.5 1773.59,-612 1763.59,-608.5 1763.59,-615.5"/>
</g>
<!-- 43 -->
<g id="70" class="node">
<title>43</title>
<ellipse fill="none" stroke="black" cx="979.04" cy="-558" rx="45.2" ry="18"/>
<text text-anchor="middle" x="979.04" y="-553.8" font-family="Times,serif" font-size="14.00">List Size</text>
</g>
<!-- 42&#45;&gt;43 -->
<g id="edge44" class="edge">
<title>42&#45;&gt;43</title>
<path fill="none" stroke="black" d="M799.27,-558C840.14,-558 887.68,-558 923.46,-558"/>
<polygon fill="black" stroke="black" points="923.7,-561.5 933.7,-558 923.7,-554.5 923.7,-561.5"/>
</g>
<!-- 45 -->
<g id="70" class="node">
<title>45</title>
<ellipse fill="none" stroke="black" stroke-dasharray="1,5" cx="979.04" cy="-477" rx="76.96" ry="18"/>
<text text-anchor="middle" x="979.04" y="-472.8" font-family="Times,serif" font-size="14.00">example element</text>
</g>
<!-- 42&#45;&gt;45 -->
<g id="edge45" class="edge">
<title>42&#45;&gt;45</title>
<path fill="none" stroke="black" d="M761.43,-543.14C806.67,-529.33 874.06,-508.75 921.64,-494.22"/>
<polygon fill="black" stroke="black" points="922.93,-497.49 931.47,-491.22 920.89,-490.79 922.93,-497.49"/>
</g>
<!-- 44 -->
<g id="70" class="node">
<title>44</title>
<ellipse fill="none" stroke="black" cx="1804.7" cy="-558" rx="70.69" ry="18"/>
<text text-anchor="middle" x="1804.7" y="-553.8" font-family="Times,serif" font-size="14.00">unsigned varint</text>
</g>
<!-- 43&#45;&gt;44 -->
<g id="edge46" class="edge">
<title>43&#45;&gt;44</title>
<path fill="none" stroke="black" d="M1024.32,-558C1157.02,-558 1552.78,-558 1723.66,-558"/>
<polygon fill="black" stroke="black" points="1723.85,-561.5 1733.85,-558 1723.85,-554.5 1723.85,-561.5"/>
</g>
<!-- 46 -->
<g id="70" class="node">
<title>46</title>
<ellipse fill="none" stroke="black" cx="1251.67" cy="-450" rx="125.66" ry="18"/>
<text text-anchor="middle" x="1251.67" y="-445.8" font-family="Times,serif" font-size="14.00">SystemDiagnosticTimingInfo</text>
</g>
<!-- 45&#45;&gt;46 -->
<g id="edge47" class="edge">
<title>45&#45;&gt;46</title>
<path fill="none" stroke="black" d="M1050.08,-470.01C1076.89,-467.34 1108.19,-464.21 1137.98,-461.24"/>
<polygon fill="black" stroke="black" points="1138.41,-464.72 1148.02,-460.24 1137.72,-457.75 1138.41,-464.72"/>
</g>
<!-- 47 -->
<g id="70" class="node">
<title>47</title>
<ellipse fill="none" stroke="black" cx="1555.68" cy="-504" rx="66.59" ry="18"/>
<text text-anchor="middle" x="1555.68" y="-499.8" font-family="Times,serif" font-size="14.00">Display Name</text>
</g>
<!-- 46&#45;&gt;47 -->
<g id="edge48" class="edge">
<title>46&#45;&gt;47</title>
<path fill="none" stroke="black" d="M1331.23,-464.05C1380.57,-472.87 1443.42,-484.11 1489.9,-492.42"/>
<polygon fill="black" stroke="black" points="1489.39,-495.88 1499.85,-494.2 1490.62,-488.99 1489.39,-495.88"/>
</g>
<!-- 49 -->
<g id="70" class="node">
<title>49</title>
<ellipse fill="none" stroke="black" cx="1555.68" cy="-450" rx="63.75" ry="18"/>
<text text-anchor="middle" x="1555.68" y="-445.8" font-family="Times,serif" font-size="14.00">System Index</text>
</g>
<!-- 46&#45;&gt;49 -->
<g id="edge49" class="edge">
<title>46&#45;&gt;49</title>
<path fill="none" stroke="black" d="M1377.69,-450C1412.97,-450 1450.2,-450 1481.37,-450"/>
<polygon fill="black" stroke="black" points="1481.69,-453.5 1491.69,-450 1481.69,-446.5 1481.69,-453.5"/>
</g>
<!-- 51 -->
<g id="70" class="node">
<title>51</title>
<ellipse fill="none" stroke="black" cx="1555.68" cy="-396" rx="56.2" ry="18"/>
<text text-anchor="middle" x="1555.68" y="-391.8" font-family="Times,serif" font-size="14.00">Time in NS</text>
</g>
<!-- 46&#45;&gt;51 -->
<g id="edge50" class="edge">
<title>46&#45;&gt;51</title>
<path fill="none" stroke="black" d="M1331.23,-435.95C1382.85,-426.72 1449.26,-414.85 1496.23,-406.45"/>
<polygon fill="black" stroke="black" points="1497.01,-409.87 1506.24,-404.66 1495.78,-402.98 1497.01,-409.87"/>
</g>
<!-- 53 -->
<g id="70" class="node">
<title>53</title>
<ellipse fill="none" stroke="black" cx="1555.68" cy="-342" rx="73.49" ry="18"/>
<text text-anchor="middle" x="1555.68" y="-337.8" font-family="Times,serif" font-size="14.00">Percent of Total</text>
</g>
<!-- 46&#45;&gt;53 -->
<g id="edge51" class="edge">
<title>46&#45;&gt;53</title>
<path fill="none" stroke="black" d="M1281.53,-432.36C1312.92,-413.93 1365.1,-385.46 1413.5,-369 1434.81,-361.75 1458.62,-356.26 1480.54,-352.19"/>
<polygon fill="black" stroke="black" points="1481.23,-355.62 1490.46,-350.42 1480,-348.73 1481.23,-355.62"/>
</g>
<!-- 48 -->
<g id="70" class="node">
<title>48</title>
<ellipse fill="none" stroke="black" cx="1804.7" cy="-504" rx="33.06" ry="18"/>
<text text-anchor="middle" x="1804.7" y="-499.8" font-family="Times,serif" font-size="14.00">string</text>
</g>
<!-- 47&#45;&gt;48 -->
<g id="edge52" class="edge">
<title>47&#45;&gt;48</title>
<path fill="none" stroke="black" d="M1622.23,-504C1666.26,-504 1723,-504 1761.21,-504"/>
<polygon fill="black" stroke="black" points="1761.48,-507.5 1771.48,-504 1761.48,-500.5 1761.48,-507.5"/>
</g>
<!-- 50 -->
<g id="70" class="node">
<title>50</title>
<ellipse fill="none" stroke="black" cx="1804.7" cy="-450" rx="35.94" ry="18"/>
<text text-anchor="middle" x="1804.7" y="-445.8" font-family="Times,serif" font-size="14.00">uint64</text>
</g>
<!-- 49&#45;&gt;50 -->
<g id="edge53" class="edge">
<title>49&#45;&gt;50</title>
<path fill="none" stroke="black" d="M1619.65,-450C1662.9,-450 1719.31,-450 1758.22,-450"/>
<polygon fill="black" stroke="black" points="1758.7,-453.5 1768.7,-450 1758.7,-446.5 1758.7,-453.5"/>
</g>
<!-- 52 -->
<g id="70" class="node">
<title>52</title>
<ellipse fill="none" stroke="black" cx="1804.7" cy="-396" rx="35.94" ry="18"/>
<text text-anchor="middle" x="1804.7" y="-391.8" font-family="Times,serif" font-size="14.00">uint64</text>
</g>
<!-- 51&#45;&gt;52 -->
<g id="edge54" class="edge">
<title>51&#45;&gt;52</title>
<path fill="none" stroke="black" d="M1611.81,-396C1656.12,-396 1717.57,-396 1758.88,-396"/>
<polygon fill="black" stroke="black" points="1758.93,-399.5 1768.93,-396 1758.93,-392.5 1758.93,-399.5"/>
</g>
<!-- 54 -->
<g id="70" class="node">
<title>54</title>
<ellipse fill="none" stroke="black" cx="1804.7" cy="-342" rx="30.78" ry="18"/>
<text text-anchor="middle" x="1804.7" y="-337.8" font-family="Times,serif" font-size="14.00">uint8</text>
</g>
<!-- 53&#45;&gt;54 -->
<g id="edge55" class="edge">
<title>53&#45;&gt;54</title>
<path fill="none" stroke="black" d="M1629.13,-342C1672.92,-342 1727.11,-342 1763.4,-342"/>
<polygon fill="black" stroke="black" points="1763.59,-345.5 1773.59,-342 1763.59,-338.5 1763.59,-345.5"/>
</g>
<!-- 56 -->
<g id="70" class="node">
<title>56</title>
<ellipse fill="none" stroke="black" cx="979.04" cy="-288" rx="45.2" ry="18"/>
<text text-anchor="middle" x="979.04" y="-283.8" font-family="Times,serif" font-size="14.00">List Size</text>
</g>
<!-- 55&#45;&gt;56 -->
<g id="edge56" class="edge">
<title>55&#45;&gt;56</title>
<path fill="none" stroke="black" d="M785.61,-288C829.21,-288 883.71,-288 923.57,-288"/>
<polygon fill="black" stroke="black" points="923.63,-291.5 933.63,-288 923.63,-284.5 923.63,-291.5"/>
</g>
<!-- 58 -->
<g id="70" class="node">
<title>58</title>
<ellipse fill="none" stroke="black" stroke-dasharray="1,5" cx="979.04" cy="-207" rx="76.96" ry="18"/>
<text text-anchor="middle" x="979.04" y="-202.8" font-family="Times,serif" font-size="14.00">example element</text>
</g>
<!-- 55&#45;&gt;58 -->
<g id="edge57" class="edge">
<title>55&#45;&gt;58</title>
<path fill="none" stroke="black" d="M758.38,-274.08C803.55,-260.28 872.85,-239.12 921.5,-224.26"/>
<polygon fill="black" stroke="black" points="922.71,-227.55 931.25,-221.29 920.67,-220.86 922.71,-227.55"/>
</g>
<!-- 57 -->
<g id="70" class="node">
<title>57</title>
<ellipse fill="none" stroke="black" cx="1804.7" cy="-288" rx="70.69" ry="18"/>
<text text-anchor="middle" x="1804.7" y="-283.8" font-family="Times,serif" font-size="14.00">unsigned varint</text>
</g>
<!-- 56&#45;&gt;57 -->
<g id="edge58" class="edge">
<title>56&#45;&gt;57</title>
<path fill="none" stroke="black" d="M1024.32,-288C1157.02,-288 1552.78,-288 1723.66,-288"/>
<polygon fill="black" stroke="black" points="1723.85,-291.5 1733.85,-288 1723.85,-284.5 1723.85,-291.5"/>
</g>
<!-- 59 -->
<g id="70" class="node">
<title>59</title>
<ellipse fill="none" stroke="black" cx="1251.67" cy="-153" rx="123.26" ry="18"/>
<text text-anchor="middle" x="1251.67" y="-148.8" font-family="Times,serif" font-size="14.00">WhiskerScopeDataSummary</text>
</g>
<!-- 58&#45;&gt;59 -->
<g id="edge59" class="edge">
<title>58&#45;&gt;59</title>
<path fill="none" stroke="black" d="M1038.09,-195.42C1076.05,-187.84 1126.21,-177.83 1168.27,-169.44"/>
<polygon fill="black" stroke="black" points="1169.1,-172.84 1178.22,-167.46 1167.73,-165.98 1169.1,-172.84"/>
</g>
<!-- 60 -->
<g id="70" class="node">
<title>60</title>
<ellipse fill="none" stroke="black" cx="1555.68" cy="-234" rx="33.04" ry="18"/>
<text text-anchor="middle" x="1555.68" y="-229.8" font-family="Times,serif" font-size="14.00">Label</text>
</g>
<!-- 59&#45;&gt;60 -->
<g id="edge60" class="edge">
<title>59&#45;&gt;60</title>
<path fill="none" stroke="black" d="M1297.24,-169.77C1329.25,-181.37 1373.61,-196.54 1413.5,-207 1446.82,-215.74 1485.26,-222.9 1513.61,-227.65"/>
<polygon fill="black" stroke="black" points="1513.13,-231.12 1523.56,-229.29 1514.27,-224.21 1513.13,-231.12"/>
</g>
<!-- 62 -->
<g id="70" class="node">
<title>62</title>
<ellipse fill="none" stroke="black" cx="1555.68" cy="-180" rx="55.04" ry="18"/>
<text text-anchor="middle" x="1555.68" y="-175.8" font-family="Times,serif" font-size="14.00">Indentation</text>
</g>
<!-- 59&#45;&gt;62 -->
<g id="edge61" class="edge">
<title>59&#45;&gt;62</title>
<path fill="none" stroke="black" d="M1357.03,-162.33C1402.1,-166.36 1453.33,-170.94 1492.33,-174.43"/>
<polygon fill="black" stroke="black" points="1492.21,-177.93 1502.48,-175.33 1492.83,-170.96 1492.21,-177.93"/>
</g>
<!-- 64 -->
<g id="70" class="node">
<title>64</title>
<ellipse fill="none" stroke="black" cx="1555.68" cy="-126" rx="80.56" ry="18"/>
<text text-anchor="middle" x="1555.68" y="-121.8" font-family="Times,serif" font-size="14.00">TotalHighCostNS</text>
</g>
<!-- 59&#45;&gt;64 -->
<g id="edge62" class="edge">
<title>59&#45;&gt;64</title>
<path fill="none" stroke="black" d="M1357.03,-143.67C1393.96,-140.37 1435.02,-136.7 1470.11,-133.56"/>
<polygon fill="black" stroke="black" points="1470.66,-137.03 1480.31,-132.65 1470.04,-130.05 1470.66,-137.03"/>
</g>
<!-- 66 -->
<g id="70" class="node">
<title>66</title>
<ellipse fill="none" stroke="black" cx="1555.68" cy="-72" rx="77.62" ry="18"/>
<text text-anchor="middle" x="1555.68" y="-67.8" font-family="Times,serif" font-size="14.00">TotalMidCostNS</text>
</g>
<!-- 59&#45;&gt;66 -->
<g id="edge63" class="edge">
<title>59&#45;&gt;66</title>
<path fill="none" stroke="black" d="M1297.24,-136.23C1329.25,-124.63 1373.61,-109.46 1413.5,-99 1435.37,-93.26 1459.45,-88.21 1481.43,-84.06"/>
<polygon fill="black" stroke="black" points="1482.17,-87.49 1491.37,-82.23 1480.9,-80.6 1482.17,-87.49"/>
</g>
<!-- 68 -->
<g id="70" class="node">
<title>68</title>
<ellipse fill="none" stroke="black" cx="1555.68" cy="-18" rx="79.33" ry="18"/>
<text text-anchor="middle" x="1555.68" y="-13.8" font-family="Times,serif" font-size="14.00">TotalLowCostNS</text>
</g>
<!-- 59&#45;&gt;68 -->
<g id="edge64" class="edge">
<title>59&#45;&gt;68</title>
<path fill="none" stroke="black" d="M1273.43,-134.96C1302.63,-110.6 1358.44,-67.64 1413.5,-45 1432.54,-37.17 1453.97,-31.58 1474.27,-27.61"/>
<polygon fill="black" stroke="black" points="1474.94,-31.04 1484.13,-25.78 1473.66,-24.16 1474.94,-31.04"/>
</g>
<!-- 61 -->
<g id="70" class="node">
<title>61</title>
<ellipse fill="none" stroke="black" cx="1804.7" cy="-234" rx="33.06" ry="18"/>
<text text-anchor="middle" x="1804.7" y="-229.8" font-family="Times,serif" font-size="14.00">string</text>
</g>
<!-- 60&#45;&gt;61 -->
<g id="edge65" class="edge">
<title>60&#45;&gt;61</title>
<path fill="none" stroke="black" d="M1588.72,-234C1632.75,-234 1712.05,-234 1761.06,-234"/>
<polygon fill="black" stroke="black" points="1761.33,-237.5 1771.33,-234 1761.33,-230.5 1761.33,-237.5"/>
</g>
<!-- 63 -->
<g id="70" class="node">
<title>63</title>
<ellipse fill="none" stroke="black" cx="1804.7" cy="-180" rx="33.06" ry="18"/>
<text text-anchor="middle" x="1804.7" y="-175.8" font-family="Times,serif" font-size="14.00">string</text>
</g>
<!-- 62&#45;&gt;63 -->
<g id="edge66" class="edge">
<title>62&#45;&gt;63</title>
<path fill="none" stroke="black" d="M1610.89,-180C1656.19,-180 1719.88,-180 1761.47,-180"/>
<polygon fill="black" stroke="black" points="1761.54,-183.5 1771.54,-180 1761.54,-176.5 1761.54,-183.5"/>
</g>
<!-- 65 -->
<g id="70" class="node">
<title>65</title>
<ellipse fill="none" stroke="black" cx="1804.7" cy="-126" rx="35.94" ry="18"/>
<text text-anchor="middle" x="1804.7" y="-121.8" font-family="Times,serif" font-size="14.00">uint64</text>
</g>
<!-- 64&#45;&gt;65 -->
<g id="edge67" class="edge">
<title>64&#45;&gt;65</title>
<path fill="none" stroke="black" d="M1636.54,-126C1677.04,-126 1724.72,-126 1758.77,-126"/>
<polygon fill="black" stroke="black" points="1758.88,-129.5 1768.88,-126 1758.88,-122.5 1758.88,-129.5"/>
</g>
<!-- 67 -->
<g id="70" class="node">
<title>67</title>
<ellipse fill="none" stroke="black" cx="1804.7" cy="-72" rx="35.94" ry="18"/>
<text text-anchor="middle" x="1804.7" y="-67.8" font-family="Times,serif" font-size="14.00">uint64</text>
</g>
<!-- 66&#45;&gt;67 -->
<g id="edge68" class="edge">
<title>66&#45;&gt;67</title>
<path fill="none" stroke="black" d="M1633.49,-72C1674.56,-72 1723.71,-72 1758.62,-72"/>
<polygon fill="black" stroke="black" points="1758.97,-75.5 1768.97,-72 1758.97,-68.5 1758.97,-75.5"/>
</g>
<!-- 69 -->
<g id="70" class="node">
<title>69</title>
<ellipse fill="none" stroke="black" cx="1804.7" cy="-18" rx="35.94" ry="18"/>
<text text-anchor="middle" x="1804.7" y="-13.8" font-family="Times,serif" font-size="14.00">uint64</text>
</g>
<!-- 68&#45;&gt;69 -->
<g id="edge69" class="edge">
<title>68&#45;&gt;69</title>
<path fill="none" stroke="black" d="M1635.18,-18C1675.89,-18 1724.17,-18 1758.59,-18"/>
<polygon fill="black" stroke="black" points="1758.8,-21.5 1768.8,-18 1758.8,-14.5 1758.8,-21.5"/>
</g>
</g>
</svg>
