<svg width="997px" height="260px"
 viewBox="0.00 0.00 996.65 260.00" xmlns="http://www.w3.org/2000/svg" xmlns:xlink="http://www.w3.org/1999/xlink">
<g id="graph0" class="graph" transform="scale(1.0 1.0) rotate(0.0) translate(4.0 256.0)">
<title>SetActorMotionPacket</title>
<polygon fill="white" stroke="transparent" points="-4,4 -4,-256 992.65,-256 992.65,4 -4,4"/>
<g id="0" class="node">
<title></title>
<ellipse fill="none" stroke="black" cx="99.54" cy="-126" rx="99.58" ry="18"/>
<text text-anchor="middle" x="99.54" y="-121.8" font-family="Times,serif" font-size="14.00">SetActorMotionPacket</text>
</g>
<!-- 1 -->
<g id="17" class="node">
<title>1</title>
<ellipse fill="none" stroke="black" cx="319.59" cy="-194" rx="84.53" ry="18"/>
<text text-anchor="middle" x="319.59" y="-189.8" font-family="Times,serif" font-size="14.00">Target Runtime ID</text>
</g>
<!-- &#45;&gt;1 -->
<g id="edge1" class="edge">
<title>&#45;&gt;1</title>
<path fill="none" stroke="black" d="M150.29,-141.52C183.24,-151.79 226.56,-165.3 261,-176.04"/>
<polygon fill="black" stroke="black" points="260.33,-179.5 270.92,-179.13 262.42,-172.82 260.33,-179.5"/>
</g>
<!-- 5 -->
<g id="17" class="node">
<title>5</title>
<ellipse fill="none" stroke="black" cx="319.59" cy="-126" rx="39.45" ry="18"/>
<text text-anchor="middle" x="319.59" y="-121.8" font-family="Times,serif" font-size="14.00">Motion</text>
</g>
<!-- &#45;&gt;5 -->
<g id="edge2" class="edge">
<title>&#45;&gt;5</title>
<path fill="none" stroke="black" d="M199.36,-126C223.84,-126 249.02,-126 269.89,-126"/>
<polygon fill="black" stroke="black" points="270.08,-129.5 280.08,-126 270.08,-122.5 270.08,-129.5"/>
</g>
<!-- 13 -->
<g id="17" class="node">
<title>13</title>
<ellipse fill="none" stroke="black" cx="319.59" cy="-59" rx="28.97" ry="18"/>
<text text-anchor="middle" x="319.59" y="-54.8" font-family="Times,serif" font-size="14.00">Tick</text>
</g>
<!-- &#45;&gt;13 -->
<g id="edge3" class="edge">
<title>&#45;&gt;13</title>
<path fill="none" stroke="black" d="M150.84,-110.54C191.47,-98.06 247.63,-80.8 283.53,-69.77"/>
<polygon fill="black" stroke="black" points="285.01,-72.98 293.54,-66.7 282.95,-66.29 285.01,-72.98"/>
</g>
<!-- 2 -->
<g id="17" class="node">
<title>2</title>
<ellipse fill="none" stroke="black" cx="516.57" cy="-207" rx="76.44" ry="18"/>
<text text-anchor="middle" x="516.57" y="-202.8" font-family="Times,serif" font-size="14.00">ActorRuntimeID</text>
</g>
<!-- 1&#45;&gt;2 -->
<g id="edge4" class="edge">
<title>1&#45;&gt;2</title>
<path fill="none" stroke="black" d="M400.46,-199.33C411.06,-200.03 421.95,-200.76 432.6,-201.47"/>
<polygon fill="black" stroke="black" points="432.51,-204.97 442.72,-202.14 432.98,-197.99 432.51,-204.97"/>
</g>
<!-- 3 -->
<g id="17" class="node">
<title>3</title>
<ellipse fill="none" stroke="black" cx="710.35" cy="-234" rx="81.1" ry="18"/>
<text text-anchor="middle" x="710.35" y="-229.8" font-family="Times,serif" font-size="14.00">Actor Runtime ID</text>
</g>
<!-- 2&#45;&gt;3 -->
<g id="edge5" class="edge">
<title>2&#45;&gt;3</title>
<path fill="none" stroke="black" d="M582.5,-216.14C598.16,-218.35 615.05,-220.72 631.24,-223"/>
<polygon fill="black" stroke="black" points="630.82,-226.48 641.21,-224.41 631.8,-219.55 630.82,-226.48"/>
</g>
<!-- 4 -->
<g id="17" class="node">
<title>4</title>
<ellipse fill="none" stroke="black" cx="908.15" cy="-234" rx="80.5" ry="18"/>
<text text-anchor="middle" x="908.15" y="-229.8" font-family="Times,serif" font-size="14.00">unsigned varint64</text>
</g>
<!-- 3&#45;&gt;4 -->
<g id="edge6" class="edge">
<title>3&#45;&gt;4</title>
<path fill="none" stroke="black" d="M791.83,-234C800.32,-234 809,-234 817.58,-234"/>
<polygon fill="black" stroke="black" points="817.6,-237.5 827.6,-234 817.6,-230.5 817.6,-237.5"/>
</g>
<!-- 6 -->
<g id="17" class="node">
<title>6</title>
<ellipse fill="none" stroke="black" cx="516.57" cy="-126" rx="31.32" ry="18"/>
<text text-anchor="middle" x="516.57" y="-121.8" font-family="Times,serif" font-size="14.00">Vec3</text>
</g>
<!-- 5&#45;&gt;6 -->
<g id="edge7" class="edge">
<title>5&#45;&gt;6</title>
<path fill="none" stroke="black" d="M359.11,-126C392.61,-126 440.97,-126 475.04,-126"/>
<polygon fill="black" stroke="black" points="475.13,-129.5 485.13,-126 475.13,-122.5 475.13,-129.5"/>
</g>
<!-- 7 -->
<g id="17" class="node">
<title>7</title>
<ellipse fill="none" stroke="black" cx="710.35" cy="-180" rx="27" ry="18"/>
<text text-anchor="middle" x="710.35" y="-175.8" font-family="Times,serif" font-size="14.00">X</text>
</g>
<!-- 6&#45;&gt;7 -->
<g id="edge8" class="edge">
<title>6&#45;&gt;7</title>
<path fill="none" stroke="black" d="M545.05,-133.74C579.41,-143.41 638.24,-159.98 675.39,-170.44"/>
<polygon fill="black" stroke="black" points="674.68,-173.87 685.25,-173.22 676.58,-167.14 674.68,-173.87"/>
</g>
<!-- 9 -->
<g id="17" class="node">
<title>9</title>
<ellipse fill="none" stroke="black" cx="710.35" cy="-126" rx="27" ry="18"/>
<text text-anchor="middle" x="710.35" y="-121.8" font-family="Times,serif" font-size="14.00">Y</text>
</g>
<!-- 6&#45;&gt;9 -->
<g id="edge9" class="edge">
<title>6&#45;&gt;9</title>
<path fill="none" stroke="black" d="M548.39,-126C582.4,-126 637.11,-126 673.14,-126"/>
<polygon fill="black" stroke="black" points="673.23,-129.5 683.23,-126 673.23,-122.5 673.23,-129.5"/>
</g>
<!-- 11 -->
<g id="17" class="node">
<title>11</title>
<ellipse fill="none" stroke="black" cx="710.35" cy="-72" rx="27" ry="18"/>
<text text-anchor="middle" x="710.35" y="-67.8" font-family="Times,serif" font-size="14.00">Z</text>
</g>
<!-- 6&#45;&gt;11 -->
<g id="edge10" class="edge">
<title>6&#45;&gt;11</title>
<path fill="none" stroke="black" d="M545.05,-118.26C579.41,-108.59 638.24,-92.02 675.39,-81.56"/>
<polygon fill="black" stroke="black" points="676.58,-84.86 685.25,-78.78 674.68,-78.13 676.58,-84.86"/>
</g>
<!-- 8 -->
<g id="17" class="node">
<title>8</title>
<ellipse fill="none" stroke="black" cx="908.15" cy="-180" rx="28.97" ry="18"/>
<text text-anchor="middle" x="908.15" y="-175.8" font-family="Times,serif" font-size="14.00">float</text>
</g>
<!-- 7&#45;&gt;8 -->
<g id="edge11" class="edge">
<title>7&#45;&gt;8</title>
<path fill="none" stroke="black" d="M737.35,-180C771.01,-180 829.94,-180 868.76,-180"/>
<polygon fill="black" stroke="black" points="869.14,-183.5 879.14,-180 869.14,-176.5 869.14,-183.5"/>
</g>
<!-- 10 -->
<g id="17" class="node">
<title>10</title>
<ellipse fill="none" stroke="black" cx="908.15" cy="-126" rx="28.97" ry="18"/>
<text text-anchor="middle" x="908.15" y="-121.8" font-family="Times,serif" font-size="14.00">float</text>
</g>
<!-- 9&#45;&gt;10 -->
<g id="edge12" class="edge">
<title>9&#45;&gt;10</title>
<path fill="none" stroke="black" d="M737.35,-126C771.01,-126 829.94,-126 868.76,-126"/>
<polygon fill="black" stroke="black" points="869.14,-129.5 879.14,-126 869.14,-122.5 869.14,-129.5"/>
</g>
<!-- 12 -->
<g id="17" class="node">
<title>12</title>
<ellipse fill="none" stroke="black" cx="908.15" cy="-72" rx="28.97" ry="18"/>
<text text-anchor="middle" x="908.15" y="-67.8" font-family="Times,serif" font-size="14.00">float</text>
</g>
<!-- 11&#45;&gt;12 -->
<g id="edge13" class="edge">
<title>11&#45;&gt;12</title>
<path fill="none" stroke="black" d="M737.35,-72C771.01,-72 829.94,-72 868.76,-72"/>
<polygon fill="black" stroke="black" points="869.14,-75.5 879.14,-72 869.14,-68.5 869.14,-75.5"/>
</g>
<!-- 14 -->
<g id="17" class="node">
<title>14</title>
<ellipse fill="none" stroke="black" cx="516.57" cy="-32" rx="73.58" ry="18"/>
<text text-anchor="middle" x="516.57" y="-27.8" font-family="Times,serif" font-size="14.00">PlayerInputTick</text>
</g>
<!-- 13&#45;&gt;14 -->
<g id="edge14" class="edge">
<title>13&#45;&gt;14</title>
<path fill="none" stroke="black" d="M347.7,-55.25C372.07,-51.87 409.01,-46.76 442.04,-42.18"/>
<polygon fill="black" stroke="black" points="442.72,-45.62 452.14,-40.78 441.76,-38.69 442.72,-45.62"/>
</g>
<!-- 15 -->
<g id="17" class="node">
<title>15</title>
<ellipse fill="none" stroke="black" cx="710.35" cy="-18" rx="48.13" ry="18"/>
<text text-anchor="middle" x="710.35" y="-13.8" font-family="Times,serif" font-size="14.00">Input tick</text>
</g>
<!-- 14&#45;&gt;15 -->
<g id="edge15" class="edge">
<title>14&#45;&gt;15</title>
<path fill="none" stroke="black" d="M587.35,-26.91C608.79,-25.34 632.11,-23.64 652.57,-22.14"/>
<polygon fill="black" stroke="black" points="652.95,-25.63 662.67,-21.41 652.44,-18.65 652.95,-25.63"/>
</g>
<!-- 16 -->
<g id="17" class="node">
<title>16</title>
<ellipse fill="none" stroke="black" cx="908.15" cy="-18" rx="80.5" ry="18"/>
<text text-anchor="middle" x="908.15" y="-13.8" font-family="Times,serif" font-size="14.00">unsigned varint64</text>
</g>
<!-- 15&#45;&gt;16 -->
<g id="edge16" class="edge">
<title>15&#45;&gt;16</title>
<path fill="none" stroke="black" d="M758.74,-18C776.36,-18 796.99,-18 817.17,-18"/>
<polygon fill="black" stroke="black" points="817.34,-21.5 827.34,-18 817.34,-14.5 817.34,-21.5"/>
</g>
</g>
</svg>
