<svg width="639px" height="44px"
 viewBox="0.00 0.00 639.27 44.00" xmlns="http://www.w3.org/2000/svg" xmlns:xlink="http://www.w3.org/1999/xlink">
<g id="graph0" class="graph" transform="scale(1.0 1.0) rotate(0.0) translate(4.0 40.0)">
<title>SetLastHurtByPacket</title>
<polygon fill="white" stroke="transparent" points="-4,4 -4,-40 635.27,-40 635.27,4 -4,4"/>
<g id="0" class="node">
<title></title>
<ellipse fill="none" stroke="black" cx="94.71" cy="-18" rx="94.92" ry="18"/>
<text text-anchor="middle" x="94.71" y="-13.8" font-family="Times,serif" font-size="14.00">SetLastHurtByPacket</text>
</g>
<!-- 1 -->
<g id="4" class="node">
<title>1</title>
<ellipse fill="none" stroke="black" cx="282.05" cy="-18" rx="56.76" ry="18"/>
<text text-anchor="middle" x="282.05" y="-13.8" font-family="Times,serif" font-size="14.00">LastHurtBy</text>
</g>
<!-- &#45;&gt;1 -->
<g id="edge1" class="edge">
<title>&#45;&gt;1</title>
<path fill="none" stroke="black" d="M189.46,-18C198.14,-18 206.81,-18 215.16,-18"/>
<polygon fill="black" stroke="black" points="215.17,-21.5 225.17,-18 215.17,-14.5 215.17,-21.5"/>
</g>
<!-- 2 -->
<g id="4" class="node">
<title>2</title>
<ellipse fill="none" stroke="black" cx="451.41" cy="-18" rx="76.97" ry="18"/>
<text text-anchor="middle" x="451.41" y="-13.8" font-family="Times,serif" font-size="14.00">enum ActorType</text>
</g>
<!-- 1&#45;&gt;2 -->
<g id="edge2" class="edge">
<title>1&#45;&gt;2</title>
<path fill="none" stroke="black" d="M338.77,-18C347.04,-18 355.73,-18 364.44,-18"/>
<polygon fill="black" stroke="black" points="364.66,-21.5 374.66,-18 364.66,-14.5 364.66,-21.5"/>
</g>
<!-- 3 -->
<g id="4" class="node">
<title>3</title>
<ellipse fill="none" stroke="black" cx="597.71" cy="-18" rx="33.62" ry="18"/>
<text text-anchor="middle" x="597.71" y="-13.8" font-family="Times,serif" font-size="14.00">varint</text>
</g>
<!-- 2&#45;&gt;3 -->
<g id="edge3" class="edge">
<title>2&#45;&gt;3</title>
<path fill="none" stroke="black" d="M528.36,-18C537.05,-18 545.66,-18 553.69,-18"/>
<polygon fill="black" stroke="black" points="553.88,-21.5 563.88,-18 553.88,-14.5 553.88,-21.5"/>
</g>
</g>
</svg>
