<svg width="739px" height="44px"
 viewBox="0.00 0.00 738.97 44.00" xmlns="http://www.w3.org/2000/svg" xmlns:xlink="http://www.w3.org/1999/xlink">
<g id="graph0" class="graph" transform="scale(1.0 1.0) rotate(0.0) translate(4.0 40.0)">
<title>SetPlayerGameTypePacket</title>
<polygon fill="white" stroke="transparent" points="-4,4 -4,-40 734.97,-40 734.97,4 -4,4"/>
<g id="0" class="node">
<title></title>
<ellipse fill="none" stroke="black" cx="116.68" cy="-18" rx="116.87" ry="18"/>
<text text-anchor="middle" x="116.68" y="-13.8" font-family="Times,serif" font-size="14.00">SetPlayerGameTypePacket</text>
</g>
<!-- 1 -->
<g id="4" class="node">
<title>1</title>
<ellipse fill="none" stroke="black" cx="352.8" cy="-18" rx="83.37" ry="18"/>
<text text-anchor="middle" x="352.8" y="-13.8" font-family="Times,serif" font-size="14.00">Player Game Type</text>
</g>
<!-- &#45;&gt;1 -->
<g id="edge1" class="edge">
<title>&#45;&gt;1</title>
<path fill="none" stroke="black" d="M233.37,-18C241.97,-18 250.58,-18 259.01,-18"/>
<polygon fill="black" stroke="black" points="259.2,-21.5 269.2,-18 259.2,-14.5 259.2,-21.5"/>
</g>
<!-- 2 -->
<g id="4" class="node">
<title>2</title>
<ellipse fill="none" stroke="black" cx="550.04" cy="-18" rx="77.61" ry="18"/>
<text text-anchor="middle" x="550.04" y="-13.8" font-family="Times,serif" font-size="14.00">enum GameType</text>
</g>
<!-- 1&#45;&gt;2 -->
<g id="edge2" class="edge">
<title>1&#45;&gt;2</title>
<path fill="none" stroke="black" d="M436.32,-18C444.75,-18 453.34,-18 461.83,-18"/>
<polygon fill="black" stroke="black" points="462.1,-21.5 472.1,-18 462.1,-14.5 462.1,-21.5"/>
</g>
<!-- 3 -->
<g id="4" class="node">
<title>3</title>
<ellipse fill="none" stroke="black" cx="697.41" cy="-18" rx="33.62" ry="18"/>
<text text-anchor="middle" x="697.41" y="-13.8" font-family="Times,serif" font-size="14.00">varint</text>
</g>
<!-- 2&#45;&gt;3 -->
<g id="edge3" class="edge">
<title>2&#45;&gt;3</title>
<path fill="none" stroke="black" d="M627.98,-18C636.7,-18 645.33,-18 653.37,-18"/>
<polygon fill="black" stroke="black" points="653.57,-21.5 663.57,-18 653.57,-14.5 653.57,-21.5"/>
</g>
</g>
</svg>
