<svg width="910px" height="422px"
 viewBox="0.00 0.00 909.83 422.00" xmlns="http://www.w3.org/2000/svg" xmlns:xlink="http://www.w3.org/1999/xlink">
<g id="graph0" class="graph" transform="scale(1.0 1.0) rotate(0.0) translate(4.0 418.0)">
<title>SetSpawnPositionPacket</title>
<polygon fill="white" stroke="transparent" points="-4,4 -4,-418 905.83,-418 905.83,4 -4,4"/>
<g id="0" class="node">
<title></title>
<ellipse fill="none" stroke="black" cx="107.06" cy="-234" rx="107.12" ry="18"/>
<text text-anchor="middle" x="107.06" y="-229.8" font-family="Times,serif" font-size="14.00">SetSpawnPositionPacket</text>
</g>
<!-- 1 -->
<g id="24" class="node">
<title>1</title>
<ellipse fill="none" stroke="black" cx="343.77" cy="-362" rx="93.8" ry="18"/>
<text text-anchor="middle" x="343.77" y="-357.8" font-family="Times,serif" font-size="14.00">Spawn Position Type</text>
</g>
<!-- &#45;&gt;1 -->
<g id="edge1" class="edge">
<title>&#45;&gt;1</title>
<path fill="none" stroke="black" d="M139.71,-251.26C181.94,-274.29 256.73,-315.08 302.8,-340.2"/>
<polygon fill="black" stroke="black" points="301.16,-343.3 311.62,-345.01 304.51,-337.15 301.16,-343.3"/>
</g>
<!-- 4 -->
<g id="24" class="node">
<title>4</title>
<ellipse fill="none" stroke="black" cx="343.77" cy="-274" rx="68.36" ry="18"/>
<text text-anchor="middle" x="343.77" y="-269.8" font-family="Times,serif" font-size="14.00">Block Position</text>
</g>
<!-- &#45;&gt;4 -->
<g id="edge2" class="edge">
<title>&#45;&gt;4</title>
<path fill="none" stroke="black" d="M182.97,-246.77C212.85,-251.86 246.98,-257.67 276,-262.62"/>
<polygon fill="black" stroke="black" points="275.59,-266.1 286.04,-264.33 276.77,-259.2 275.59,-266.1"/>
</g>
<!-- 12 -->
<g id="24" class="node">
<title>12</title>
<ellipse fill="none" stroke="black" cx="343.77" cy="-207" rx="72.41" ry="18"/>
<text text-anchor="middle" x="343.77" y="-202.8" font-family="Times,serif" font-size="14.00">Dimension type</text>
</g>
<!-- &#45;&gt;12 -->
<g id="edge3" class="edge">
<title>&#45;&gt;12</title>
<path fill="none" stroke="black" d="M195.79,-223.91C219.38,-221.19 244.68,-218.28 267.53,-215.66"/>
<polygon fill="black" stroke="black" points="267.96,-219.13 277.5,-214.51 267.16,-212.17 267.96,-219.13"/>
</g>
<!-- 16 -->
<g id="24" class="node">
<title>16</title>
<ellipse fill="none" stroke="black" cx="343.77" cy="-126" rx="79.34" ry="18"/>
<text text-anchor="middle" x="343.77" y="-121.8" font-family="Times,serif" font-size="14.00">Spawn Block Pos</text>
</g>
<!-- &#45;&gt;16 -->
<g id="edge4" class="edge">
<title>&#45;&gt;16</title>
<path fill="none" stroke="black" d="M144.73,-217.12C186.38,-197.96 254.3,-166.71 298.77,-146.25"/>
<polygon fill="black" stroke="black" points="300.26,-149.41 307.89,-142.05 297.34,-143.05 300.26,-149.41"/>
</g>
<!-- 2 -->
<g id="24" class="node">
<title>2</title>
<ellipse fill="none" stroke="black" cx="586.12" cy="-379" rx="112.89" ry="18"/>
<text text-anchor="middle" x="586.12" y="-374.8" font-family="Times,serif" font-size="14.00">enum SpawnPositionType</text>
</g>
<!-- 1&#45;&gt;2 -->
<g id="edge5" class="edge">
<title>1&#45;&gt;2</title>
<path fill="none" stroke="black" d="M431.88,-368.16C445.05,-369.09 458.79,-370.06 472.4,-371.03"/>
<polygon fill="black" stroke="black" points="472.55,-374.55 482.78,-371.76 473.05,-367.56 472.55,-374.55"/>
</g>
<!-- 3 -->
<g id="24" class="node">
<title>3</title>
<ellipse fill="none" stroke="black" cx="868.27" cy="-396" rx="33.62" ry="18"/>
<text text-anchor="middle" x="868.27" y="-391.8" font-family="Times,serif" font-size="14.00">varint</text>
</g>
<!-- 2&#45;&gt;3 -->
<g id="edge6" class="edge">
<title>2&#45;&gt;3</title>
<path fill="none" stroke="black" d="M691.83,-385.35C737.75,-388.14 789.09,-391.26 824.31,-393.39"/>
<polygon fill="black" stroke="black" points="824.5,-396.91 834.69,-394.02 824.92,-389.92 824.5,-396.91"/>
</g>
<!-- 5 -->
<g id="24" class="node">
<title>5</title>
<ellipse fill="none" stroke="black" cx="586.12" cy="-274" rx="48.11" ry="18"/>
<text text-anchor="middle" x="586.12" y="-269.8" font-family="Times,serif" font-size="14.00">BlockPos</text>
</g>
<!-- 4&#45;&gt;5 -->
<g id="edge7" class="edge">
<title>4&#45;&gt;5</title>
<path fill="none" stroke="black" d="M412.04,-274C448.57,-274 493.24,-274 528.05,-274"/>
<polygon fill="black" stroke="black" points="528.06,-277.5 538.06,-274 528.06,-270.5 528.06,-277.5"/>
</g>
<!-- 6 -->
<g id="24" class="node">
<title>6</title>
<ellipse fill="none" stroke="black" cx="766.76" cy="-342" rx="27" ry="18"/>
<text text-anchor="middle" x="766.76" y="-337.8" font-family="Times,serif" font-size="14.00">X</text>
</g>
<!-- 5&#45;&gt;6 -->
<g id="edge8" class="edge">
<title>5&#45;&gt;6</title>
<path fill="none" stroke="black" d="M620.72,-286.79C653,-299.08 701.46,-317.52 733.34,-329.66"/>
<polygon fill="black" stroke="black" points="732.48,-333.08 743.07,-333.36 734.97,-326.53 732.48,-333.08"/>
</g>
<!-- 8 -->
<g id="24" class="node">
<title>8</title>
<ellipse fill="none" stroke="black" cx="766.76" cy="-288" rx="27" ry="18"/>
<text text-anchor="middle" x="766.76" y="-283.8" font-family="Times,serif" font-size="14.00">Y</text>
</g>
<!-- 5&#45;&gt;8 -->
<g id="edge9" class="edge">
<title>5&#45;&gt;8</title>
<path fill="none" stroke="black" d="M633.59,-277.64C663.56,-279.99 701.98,-283 729.66,-285.17"/>
<polygon fill="black" stroke="black" points="729.46,-288.67 739.7,-285.96 730.01,-281.69 729.46,-288.67"/>
</g>
<!-- 10 -->
<g id="24" class="node">
<title>10</title>
<ellipse fill="none" stroke="black" cx="766.76" cy="-234" rx="27" ry="18"/>
<text text-anchor="middle" x="766.76" y="-229.8" font-family="Times,serif" font-size="14.00">Z</text>
</g>
<!-- 5&#45;&gt;10 -->
<g id="edge10" class="edge">
<title>5&#45;&gt;10</title>
<path fill="none" stroke="black" d="M627.65,-264.92C658.78,-257.95 701.3,-248.43 730.91,-241.8"/>
<polygon fill="black" stroke="black" points="731.81,-245.19 740.8,-239.59 730.28,-238.36 731.81,-245.19"/>
</g>
<!-- 7 -->
<g id="24" class="node">
<title>7</title>
<ellipse fill="none" stroke="black" cx="868.27" cy="-342" rx="33.62" ry="18"/>
<text text-anchor="middle" x="868.27" y="-337.8" font-family="Times,serif" font-size="14.00">varint</text>
</g>
<!-- 6&#45;&gt;7 -->
<g id="edge11" class="edge">
<title>6&#45;&gt;7</title>
<path fill="none" stroke="black" d="M793.9,-342C803.23,-342 814,-342 824.37,-342"/>
<polygon fill="black" stroke="black" points="824.53,-345.5 834.53,-342 824.53,-338.5 824.53,-345.5"/>
</g>
<!-- 9 -->
<g id="24" class="node">
<title>9</title>
<ellipse fill="none" stroke="black" cx="868.27" cy="-288" rx="33.62" ry="18"/>
<text text-anchor="middle" x="868.27" y="-283.8" font-family="Times,serif" font-size="14.00">varint</text>
</g>
<!-- 8&#45;&gt;9 -->
<g id="edge12" class="edge">
<title>8&#45;&gt;9</title>
<path fill="none" stroke="black" d="M793.9,-288C803.23,-288 814,-288 824.37,-288"/>
<polygon fill="black" stroke="black" points="824.53,-291.5 834.53,-288 824.53,-284.5 824.53,-291.5"/>
</g>
<!-- 11 -->
<g id="24" class="node">
<title>11</title>
<ellipse fill="none" stroke="black" cx="868.27" cy="-234" rx="33.62" ry="18"/>
<text text-anchor="middle" x="868.27" y="-229.8" font-family="Times,serif" font-size="14.00">varint</text>
</g>
<!-- 10&#45;&gt;11 -->
<g id="edge13" class="edge">
<title>10&#45;&gt;11</title>
<path fill="none" stroke="black" d="M793.9,-234C803.23,-234 814,-234 824.37,-234"/>
<polygon fill="black" stroke="black" points="824.53,-237.5 834.53,-234 824.53,-230.5 824.53,-237.5"/>
</g>
<!-- 13 -->
<g id="24" class="node">
<title>13</title>
<ellipse fill="none" stroke="black" cx="586.12" cy="-207" rx="73.02" ry="18"/>
<text text-anchor="middle" x="586.12" y="-202.8" font-family="Times,serif" font-size="14.00">DimensionType</text>
</g>
<!-- 12&#45;&gt;13 -->
<g id="edge14" class="edge">
<title>12&#45;&gt;13</title>
<path fill="none" stroke="black" d="M416.23,-207C443.34,-207 474.44,-207 502.5,-207"/>
<polygon fill="black" stroke="black" points="502.68,-210.5 512.68,-207 502.68,-203.5 502.68,-210.5"/>
</g>
<!-- 14 -->
<g id="24" class="node">
<title>14</title>
<ellipse fill="none" stroke="black" cx="766.76" cy="-180" rx="31.9" ry="18"/>
<text text-anchor="middle" x="766.76" y="-175.8" font-family="Times,serif" font-size="14.00">value</text>
</g>
<!-- 13&#45;&gt;14 -->
<g id="edge15" class="edge">
<title>13&#45;&gt;14</title>
<path fill="none" stroke="black" d="M648.84,-197.67C674.21,-193.84 702.86,-189.51 725.45,-186.09"/>
<polygon fill="black" stroke="black" points="726.01,-189.55 735.37,-184.59 724.96,-182.63 726.01,-189.55"/>
</g>
<!-- 15 -->
<g id="24" class="node">
<title>15</title>
<ellipse fill="none" stroke="black" cx="868.27" cy="-180" rx="33.62" ry="18"/>
<text text-anchor="middle" x="868.27" y="-175.8" font-family="Times,serif" font-size="14.00">varint</text>
</g>
<!-- 14&#45;&gt;15 -->
<g id="edge16" class="edge">
<title>14&#45;&gt;15</title>
<path fill="none" stroke="black" d="M798.97,-180C807,-180 815.77,-180 824.28,-180"/>
<polygon fill="black" stroke="black" points="824.45,-183.5 834.45,-180 824.45,-176.5 824.45,-183.5"/>
</g>
<!-- 17 -->
<g id="24" class="node">
<title>17</title>
<ellipse fill="none" stroke="black" cx="586.12" cy="-99" rx="48.11" ry="18"/>
<text text-anchor="middle" x="586.12" y="-94.8" font-family="Times,serif" font-size="14.00">BlockPos</text>
</g>
<!-- 16&#45;&gt;17 -->
<g id="edge17" class="edge">
<title>16&#45;&gt;17</title>
<path fill="none" stroke="black" d="M415.26,-118.08C451.66,-113.99 495.45,-109.07 529.44,-105.25"/>
<polygon fill="black" stroke="black" points="530.12,-108.7 539.66,-104.11 529.33,-101.74 530.12,-108.7"/>
</g>
<!-- 18 -->
<g id="24" class="node">
<title>18</title>
<ellipse fill="none" stroke="black" cx="766.76" cy="-126" rx="27" ry="18"/>
<text text-anchor="middle" x="766.76" y="-121.8" font-family="Times,serif" font-size="14.00">X</text>
</g>
<!-- 17&#45;&gt;18 -->
<g id="edge18" class="edge">
<title>17&#45;&gt;18</title>
<path fill="none" stroke="black" d="M631.27,-105.67C661.83,-110.29 701.94,-116.35 730.39,-120.65"/>
<polygon fill="black" stroke="black" points="729.89,-124.12 740.3,-122.15 730.94,-117.2 729.89,-124.12"/>
</g>
<!-- 20 -->
<g id="24" class="node">
<title>20</title>
<ellipse fill="none" stroke="black" cx="766.76" cy="-72" rx="27" ry="18"/>
<text text-anchor="middle" x="766.76" y="-67.8" font-family="Times,serif" font-size="14.00">Y</text>
</g>
<!-- 17&#45;&gt;20 -->
<g id="edge19" class="edge">
<title>17&#45;&gt;20</title>
<path fill="none" stroke="black" d="M631.27,-92.33C661.83,-87.71 701.94,-81.65 730.39,-77.35"/>
<polygon fill="black" stroke="black" points="730.94,-80.8 740.3,-75.85 729.89,-73.88 730.94,-80.8"/>
</g>
<!-- 22 -->
<g id="24" class="node">
<title>22</title>
<ellipse fill="none" stroke="black" cx="766.76" cy="-18" rx="27" ry="18"/>
<text text-anchor="middle" x="766.76" y="-13.8" font-family="Times,serif" font-size="14.00">Z</text>
</g>
<!-- 17&#45;&gt;22 -->
<g id="edge20" class="edge">
<title>17&#45;&gt;22</title>
<path fill="none" stroke="black" d="M617.42,-85.26C650.13,-70.43 701.95,-46.93 734.88,-32"/>
<polygon fill="black" stroke="black" points="736.38,-35.17 744.04,-27.85 733.49,-28.79 736.38,-35.17"/>
</g>
<!-- 19 -->
<g id="24" class="node">
<title>19</title>
<ellipse fill="none" stroke="black" cx="868.27" cy="-126" rx="33.62" ry="18"/>
<text text-anchor="middle" x="868.27" y="-121.8" font-family="Times,serif" font-size="14.00">varint</text>
</g>
<!-- 18&#45;&gt;19 -->
<g id="edge21" class="edge">
<title>18&#45;&gt;19</title>
<path fill="none" stroke="black" d="M793.9,-126C803.23,-126 814,-126 824.37,-126"/>
<polygon fill="black" stroke="black" points="824.53,-129.5 834.53,-126 824.53,-122.5 824.53,-129.5"/>
</g>
<!-- 21 -->
<g id="24" class="node">
<title>21</title>
<ellipse fill="none" stroke="black" cx="868.27" cy="-72" rx="33.62" ry="18"/>
<text text-anchor="middle" x="868.27" y="-67.8" font-family="Times,serif" font-size="14.00">varint</text>
</g>
<!-- 20&#45;&gt;21 -->
<g id="edge22" class="edge">
<title>20&#45;&gt;21</title>
<path fill="none" stroke="black" d="M793.9,-72C803.23,-72 814,-72 824.37,-72"/>
<polygon fill="black" stroke="black" points="824.53,-75.5 834.53,-72 824.53,-68.5 824.53,-75.5"/>
</g>
<!-- 23 -->
<g id="24" class="node">
<title>23</title>
<ellipse fill="none" stroke="black" cx="868.27" cy="-18" rx="33.62" ry="18"/>
<text text-anchor="middle" x="868.27" y="-13.8" font-family="Times,serif" font-size="14.00">varint</text>
</g>
<!-- 22&#45;&gt;23 -->
<g id="edge23" class="edge">
<title>22&#45;&gt;23</title>
<path fill="none" stroke="black" d="M793.9,-18C803.23,-18 814,-18 824.37,-18"/>
<polygon fill="black" stroke="black" points="824.53,-21.5 834.53,-18 824.53,-14.5 824.53,-21.5"/>
</g>
</g>
</svg>
