<svg width="349px" height="44px"
 viewBox="0.00 0.00 348.96 44.00" xmlns="http://www.w3.org/2000/svg" xmlns:xlink="http://www.w3.org/1999/xlink">
<g id="graph0" class="graph" transform="scale(1.0 1.0) rotate(0.0) translate(4.0 40.0)">
<title>SetTimePacket</title>
<polygon fill="white" stroke="transparent" points="-4,4 -4,-40 344.96,-40 344.96,4 -4,4"/>
<g id="0" class="node">
<title></title>
<ellipse fill="none" stroke="black" cx="69.5" cy="-18" rx="69.5" ry="18"/>
<text text-anchor="middle" x="69.5" y="-13.8" font-family="Times,serif" font-size="14.00">SetTimePacket</text>
</g>
<!-- 1 -->
<g id="3" class="node">
<title>1</title>
<ellipse fill="none" stroke="black" cx="206.41" cy="-18" rx="31.34" ry="18"/>
<text text-anchor="middle" x="206.41" y="-13.8" font-family="Times,serif" font-size="14.00">Time</text>
</g>
<!-- &#45;&gt;1 -->
<g id="edge1" class="edge">
<title>&#45;&gt;1</title>
<path fill="none" stroke="black" d="M139.14,-18C147.83,-18 156.5,-18 164.56,-18"/>
<polygon fill="black" stroke="black" points="164.76,-21.5 174.76,-18 164.76,-14.5 164.76,-21.5"/>
</g>
<!-- 2 -->
<g id="3" class="node">
<title>2</title>
<ellipse fill="none" stroke="black" cx="307.39" cy="-18" rx="33.62" ry="18"/>
<text text-anchor="middle" x="307.39" y="-13.8" font-family="Times,serif" font-size="14.00">varint</text>
</g>
<!-- 1&#45;&gt;2 -->
<g id="edge2" class="edge">
<title>1&#45;&gt;2</title>
<path fill="none" stroke="black" d="M237.92,-18C246.08,-18 255.06,-18 263.75,-18"/>
<polygon fill="black" stroke="black" points="263.76,-21.5 273.76,-18 263.76,-14.5 263.76,-21.5"/>
</g>
</g>
</svg>
