<svg width="668px" height="44px"
 viewBox="0.00 0.00 667.78 44.00" xmlns="http://www.w3.org/2000/svg" xmlns:xlink="http://www.w3.org/1999/xlink">
<g id="graph0" class="graph" transform="scale(1.0 1.0) rotate(0.0) translate(4.0 40.0)">
<title>SimulationTypePacket</title>
<polygon fill="white" stroke="transparent" points="-4,4 -4,-40 663.78,-40 663.78,4 -4,4"/>
<g id="0" class="node">
<title></title>
<ellipse fill="none" stroke="black" cx="99.01" cy="-18" rx="99.01" ry="18"/>
<text text-anchor="middle" x="99.01" y="-13.8" font-family="Times,serif" font-size="14.00">SimulationTypePacket</text>
</g>
<!-- 1 -->
<g id="4" class="node">
<title>1</title>
<ellipse fill="none" stroke="black" cx="282.87" cy="-18" rx="48.72" ry="18"/>
<text text-anchor="middle" x="282.87" y="-13.8" font-family="Times,serif" font-size="14.00">Sim Type</text>
</g>
<!-- &#45;&gt;1 -->
<g id="edge1" class="edge">
<title>&#45;&gt;1</title>
<path fill="none" stroke="black" d="M198.13,-18C206.86,-18 215.5,-18 223.72,-18"/>
<polygon fill="black" stroke="black" points="223.9,-21.5 233.9,-18 223.9,-14.5 223.9,-21.5"/>
</g>
<!-- 2 -->
<g id="4" class="node">
<title>2</title>
<ellipse fill="none" stroke="black" cx="464.87" cy="-18" rx="97.27" ry="18"/>
<text text-anchor="middle" x="464.87" y="-13.8" font-family="Times,serif" font-size="14.00">enum SimulationType</text>
</g>
<!-- 1&#45;&gt;2 -->
<g id="edge2" class="edge">
<title>1&#45;&gt;2</title>
<path fill="none" stroke="black" d="M332.11,-18C340.13,-18 348.72,-18 357.52,-18"/>
<polygon fill="black" stroke="black" points="357.53,-21.5 367.53,-18 357.53,-14.5 357.53,-21.5"/>
</g>
<!-- 3 -->
<g id="4" class="node">
<title>3</title>
<ellipse fill="none" stroke="black" cx="628.89" cy="-18" rx="30.78" ry="18"/>
<text text-anchor="middle" x="628.89" y="-13.8" font-family="Times,serif" font-size="14.00">uint8</text>
</g>
<!-- 2&#45;&gt;3 -->
<g id="edge3" class="edge">
<title>2&#45;&gt;3</title>
<path fill="none" stroke="black" d="M562.46,-18C571.22,-18 579.72,-18 587.55,-18"/>
<polygon fill="black" stroke="black" points="587.75,-21.5 597.75,-18 587.75,-14.5 587.75,-21.5"/>
</g>
</g>
</svg>
