<svg width="983px" height="98px"
 viewBox="0.00 0.00 982.66 98.00" xmlns="http://www.w3.org/2000/svg" xmlns:xlink="http://www.w3.org/1999/xlink">
<g id="graph0" class="graph" transform="scale(1.0 1.0) rotate(0.0) translate(4.0 94.0)">
<title>TakeItemActorPacket</title>
<polygon fill="white" stroke="transparent" points="-4,4 -4,-94 978.66,-94 978.66,4 -4,4"/>
<g id="0" class="node">
<title></title>
<ellipse fill="none" stroke="black" cx="95.76" cy="-45" rx="95.52" ry="18"/>
<text text-anchor="middle" x="95.76" y="-40.8" font-family="Times,serif" font-size="14.00">TakeItemActorPacket</text>
</g>
<!-- 1 -->
<g id="9" class="node">
<title>1</title>
<ellipse fill="none" stroke="black" cx="308.82" cy="-72" rx="77.02" ry="18"/>
<text text-anchor="middle" x="308.82" y="-67.8" font-family="Times,serif" font-size="14.00">Item Runtime ID</text>
</g>
<!-- &#45;&gt;1 -->
<g id="edge1" class="edge">
<title>&#45;&gt;1</title>
<path fill="none" stroke="black" d="M175.35,-55.05C193.55,-57.38 212.89,-59.86 231.01,-62.17"/>
<polygon fill="black" stroke="black" points="230.57,-65.65 240.93,-63.44 231.46,-58.7 230.57,-65.65"/>
</g>
<!-- 5 -->
<g id="9" class="node">
<title>5</title>
<ellipse fill="none" stroke="black" cx="308.82" cy="-18" rx="81.1" ry="18"/>
<text text-anchor="middle" x="308.82" y="-13.8" font-family="Times,serif" font-size="14.00">Actor Runtime ID</text>
</g>
<!-- &#45;&gt;5 -->
<g id="edge2" class="edge">
<title>&#45;&gt;5</title>
<path fill="none" stroke="black" d="M175.35,-34.95C192.5,-32.75 210.66,-30.43 227.86,-28.23"/>
<polygon fill="black" stroke="black" points="228.38,-31.69 237.86,-26.95 227.49,-24.75 228.38,-31.69"/>
</g>
<!-- 2 -->
<g id="9" class="node">
<title>2</title>
<ellipse fill="none" stroke="black" cx="502.59" cy="-72" rx="76.44" ry="18"/>
<text text-anchor="middle" x="502.59" y="-67.8" font-family="Times,serif" font-size="14.00">ActorRuntimeID</text>
</g>
<!-- 1&#45;&gt;2 -->
<g id="edge3" class="edge">
<title>1&#45;&gt;2</title>
<path fill="none" stroke="black" d="M385.89,-72C395.67,-72 405.74,-72 415.66,-72"/>
<polygon fill="black" stroke="black" points="415.93,-75.5 425.93,-72 415.93,-68.5 415.93,-75.5"/>
</g>
<!-- 3 -->
<g id="9" class="node">
<title>3</title>
<ellipse fill="none" stroke="black" cx="696.36" cy="-72" rx="81.1" ry="18"/>
<text text-anchor="middle" x="696.36" y="-67.8" font-family="Times,serif" font-size="14.00">Actor Runtime ID</text>
</g>
<!-- 2&#45;&gt;3 -->
<g id="edge4" class="edge">
<title>2&#45;&gt;3</title>
<path fill="none" stroke="black" d="M579.11,-72C587.55,-72 596.2,-72 604.81,-72"/>
<polygon fill="black" stroke="black" points="604.86,-75.5 614.86,-72 604.86,-68.5 604.86,-75.5"/>
</g>
<!-- 4 -->
<g id="9" class="node">
<title>4</title>
<ellipse fill="none" stroke="black" cx="894.16" cy="-72" rx="80.5" ry="18"/>
<text text-anchor="middle" x="894.16" y="-67.8" font-family="Times,serif" font-size="14.00">unsigned varint64</text>
</g>
<!-- 3&#45;&gt;4 -->
<g id="edge5" class="edge">
<title>3&#45;&gt;4</title>
<path fill="none" stroke="black" d="M777.85,-72C786.34,-72 795.01,-72 803.6,-72"/>
<polygon fill="black" stroke="black" points="803.62,-75.5 813.62,-72 803.62,-68.5 803.62,-75.5"/>
</g>
<!-- 6 -->
<g id="9" class="node">
<title>6</title>
<ellipse fill="none" stroke="black" cx="502.59" cy="-18" rx="76.44" ry="18"/>
<text text-anchor="middle" x="502.59" y="-13.8" font-family="Times,serif" font-size="14.00">ActorRuntimeID</text>
</g>
<!-- 5&#45;&gt;6 -->
<g id="edge6" class="edge">
<title>5&#45;&gt;6</title>
<path fill="none" stroke="black" d="M390.32,-18C398.7,-18 407.24,-18 415.67,-18"/>
<polygon fill="black" stroke="black" points="415.9,-21.5 425.9,-18 415.9,-14.5 415.9,-21.5"/>
</g>
<!-- 7 -->
<g id="9" class="node">
<title>7</title>
<ellipse fill="none" stroke="black" cx="696.36" cy="-18" rx="81.1" ry="18"/>
<text text-anchor="middle" x="696.36" y="-13.8" font-family="Times,serif" font-size="14.00">Actor Runtime ID</text>
</g>
<!-- 6&#45;&gt;7 -->
<g id="edge7" class="edge">
<title>6&#45;&gt;7</title>
<path fill="none" stroke="black" d="M579.11,-18C587.55,-18 596.2,-18 604.81,-18"/>
<polygon fill="black" stroke="black" points="604.86,-21.5 614.86,-18 604.86,-14.5 604.86,-21.5"/>
</g>
<!-- 8 -->
<g id="9" class="node">
<title>8</title>
<ellipse fill="none" stroke="black" cx="894.16" cy="-18" rx="80.5" ry="18"/>
<text text-anchor="middle" x="894.16" y="-13.8" font-family="Times,serif" font-size="14.00">unsigned varint64</text>
</g>
<!-- 7&#45;&gt;8 -->
<g id="edge8" class="edge">
<title>7&#45;&gt;8</title>
<path fill="none" stroke="black" d="M777.85,-18C786.34,-18 795.01,-18 803.6,-18"/>
<polygon fill="black" stroke="black" points="803.62,-21.5 813.62,-18 803.62,-14.5 803.62,-21.5"/>
</g>
</g>
</svg>
