<svg width="582px" height="44px"
 viewBox="0.00 0.00 581.74 44.00" xmlns="http://www.w3.org/2000/svg" xmlns:xlink="http://www.w3.org/1999/xlink">
<g id="graph0" class="graph" transform="scale(1.0 1.0) rotate(0.0) translate(4.0 40.0)">
<title>TickingAreasLoadStatusPacket</title>
<polygon fill="white" stroke="transparent" points="-4,4 -4,-40 577.74,-40 577.74,4 -4,4"/>
<g id="0" class="node">
<title></title>
<ellipse fill="none" stroke="black" cx="132.78" cy="-18" rx="132.56" ry="18"/>
<text text-anchor="middle" x="132.78" y="-13.8" font-family="Times,serif" font-size="14.00">TickingAreasLoadStatusPacket</text>
</g>
<!-- 1 -->
<g id="3" class="node">
<title>1</title>
<ellipse fill="none" stroke="black" cx="391.44" cy="-18" rx="89.77" ry="18"/>
<text text-anchor="middle" x="391.44" y="-13.8" font-family="Times,serif" font-size="14.00">Waiting For Preload</text>
</g>
<!-- &#45;&gt;1 -->
<g id="edge1" class="edge">
<title>&#45;&gt;1</title>
<path fill="none" stroke="black" d="M265.87,-18C274.43,-18 282.97,-18 291.33,-18"/>
<polygon fill="black" stroke="black" points="291.43,-21.5 301.43,-18 291.43,-14.5 291.43,-21.5"/>
</g>
<!-- 2 -->
<g id="3" class="node">
<title>2</title>
<ellipse fill="none" stroke="black" cx="545.53" cy="-18" rx="28.41" ry="18"/>
<text text-anchor="middle" x="545.53" y="-13.8" font-family="Times,serif" font-size="14.00">bool</text>
</g>
<!-- 1&#45;&gt;2 -->
<g id="edge2" class="edge">
<title>1&#45;&gt;2</title>
<path fill="none" stroke="black" d="M481.36,-18C490.4,-18 499.19,-18 507.19,-18"/>
<polygon fill="black" stroke="black" points="507.23,-21.5 517.23,-18 507.23,-14.5 507.23,-21.5"/>
</g>
</g>
</svg>
