<svg width="725px" height="44px"
 viewBox="0.00 0.00 724.96 44.00" xmlns="http://www.w3.org/2000/svg" xmlns:xlink="http://www.w3.org/1999/xlink">
<g id="graph0" class="graph" transform="scale(1.0 1.0) rotate(0.0) translate(4.0 40.0)">
<title>UpdateClientInputLocksPacket</title>
<polygon fill="white" stroke="transparent" points="-4,4 -4,-40 720.96,-40 720.96,4 -4,4"/>
<g id="0" class="node">
<title></title>
<ellipse fill="none" stroke="black" cx="132.25" cy="-18" rx="132" ry="18"/>
<text text-anchor="middle" x="132.25" y="-13.8" font-family="Times,serif" font-size="14.00">UpdateClientInputLocksPacket</text>
</g>
<!-- 1 -->
<g id="3" class="node">
<title>1</title>
<ellipse fill="none" stroke="black" cx="419.89" cy="-18" rx="119.27" ry="18"/>
<text text-anchor="middle" x="419.89" y="-13.8" font-family="Times,serif" font-size="14.00">Input Lock ComponentData</text>
</g>
<!-- &#45;&gt;1 -->
<g id="edge1" class="edge">
<title>&#45;&gt;1</title>
<path fill="none" stroke="black" d="M264.78,-18C273.21,-18 281.7,-18 290.12,-18"/>
<polygon fill="black" stroke="black" points="290.35,-21.5 300.35,-18 290.35,-14.5 290.35,-21.5"/>
</g>
<!-- 2 -->
<g id="3" class="node">
<title>2</title>
<ellipse fill="none" stroke="black" cx="646.12" cy="-18" rx="70.69" ry="18"/>
<text text-anchor="middle" x="646.12" y="-13.8" font-family="Times,serif" font-size="14.00">unsigned varint</text>
</g>
<!-- 1&#45;&gt;2 -->
<g id="edge2" class="edge">
<title>1&#45;&gt;2</title>
<path fill="none" stroke="black" d="M539.57,-18C548.23,-18 556.84,-18 565.19,-18"/>
<polygon fill="black" stroke="black" points="565.24,-21.5 575.24,-18 565.24,-14.5 565.24,-21.5"/>
</g>
</g>
</svg>
