<svg width="978px" height="260px"
 viewBox="0.00 0.00 977.88 260.00" xmlns="http://www.w3.org/2000/svg" xmlns:xlink="http://www.w3.org/1999/xlink">
<g id="graph0" class="graph" transform="scale(1.0 1.0) rotate(0.0) translate(4.0 256.0)">
<title>UpdateAdventureSettingsPacket</title>
<polygon fill="white" stroke="transparent" points="-4,4 -4,-256 973.88,-256 973.88,4 -4,4"/>
<g id="0" class="node">
<title></title>
<ellipse fill="none" stroke="black" cx="136.54" cy="-126" rx="136.58" ry="18"/>
<text text-anchor="middle" x="136.54" y="-121.8" font-family="Times,serif" font-size="14.00">UpdateAdventureSettingsPacket</text>
</g>
<!-- 1 -->
<g id="13" class="node">
<title>1</title>
<ellipse fill="none" stroke="black" cx="394.4" cy="-126" rx="85.15" ry="18"/>
<text text-anchor="middle" x="394.4" y="-121.8" font-family="Times,serif" font-size="14.00">Adventure Settings</text>
</g>
<!-- &#45;&gt;1 -->
<g id="edge1" class="edge">
<title>&#45;&gt;1</title>
<path fill="none" stroke="black" d="M273.34,-126C281.93,-126 290.47,-126 298.8,-126"/>
<polygon fill="black" stroke="black" points="298.86,-129.5 308.86,-126 298.86,-122.5 298.86,-129.5"/>
</g>
<!-- 2 -->
<g id="13" class="node">
<title>2</title>
<ellipse fill="none" stroke="black" cx="598.64" cy="-126" rx="82.82" ry="18"/>
<text text-anchor="middle" x="598.64" y="-121.8" font-family="Times,serif" font-size="14.00">AdventureSettings</text>
</g>
<!-- 1&#45;&gt;2 -->
<g id="edge2" class="edge">
<title>1&#45;&gt;2</title>
<path fill="none" stroke="black" d="M480,-126C488.39,-126 496.93,-126 505.39,-126"/>
<polygon fill="black" stroke="black" points="505.65,-129.5 515.65,-126 505.65,-122.5 505.65,-129.5"/>
</g>
<!-- 3 -->
<g id="13" class="node">
<title>3</title>
<ellipse fill="none" stroke="black" cx="797.51" cy="-234" rx="41.78" ry="18"/>
<text text-anchor="middle" x="797.51" y="-229.8" font-family="Times,serif" font-size="14.00">no PvM</text>
</g>
<!-- 2&#45;&gt;3 -->
<g id="edge3" class="edge">
<title>2&#45;&gt;3</title>
<path fill="none" stroke="black" d="M621.12,-143.44C643.94,-161.3 681.6,-188.93 717.55,-207 728.48,-212.49 740.78,-217.29 752.36,-221.27"/>
<polygon fill="black" stroke="black" points="751.28,-224.6 761.87,-224.41 753.47,-217.95 751.28,-224.6"/>
</g>
<!-- 5 -->
<g id="13" class="node">
<title>5</title>
<ellipse fill="none" stroke="black" cx="797.51" cy="-180" rx="41.78" ry="18"/>
<text text-anchor="middle" x="797.51" y="-175.8" font-family="Times,serif" font-size="14.00">no MvP</text>
</g>
<!-- 2&#45;&gt;5 -->
<g id="edge4" class="edge">
<title>2&#45;&gt;5</title>
<path fill="none" stroke="black" d="M650.85,-140.05C682.17,-148.64 721.86,-159.52 751.89,-167.76"/>
<polygon fill="black" stroke="black" points="751.11,-171.18 761.68,-170.45 752.96,-164.42 751.11,-171.18"/>
</g>
<!-- 7 -->
<g id="13" class="node">
<title>7</title>
<ellipse fill="none" stroke="black" cx="797.51" cy="-126" rx="79.92" ry="18"/>
<text text-anchor="middle" x="797.51" y="-121.8" font-family="Times,serif" font-size="14.00">Immutable World</text>
</g>
<!-- 2&#45;&gt;7 -->
<g id="edge5" class="edge">
<title>2&#45;&gt;7</title>
<path fill="none" stroke="black" d="M681.71,-126C690.11,-126 698.67,-126 707.15,-126"/>
<polygon fill="black" stroke="black" points="707.42,-129.5 717.42,-126 707.42,-122.5 707.42,-129.5"/>
</g>
<!-- 9 -->
<g id="13" class="node">
<title>9</title>
<ellipse fill="none" stroke="black" cx="797.51" cy="-72" rx="79.88" ry="18"/>
<text text-anchor="middle" x="797.51" y="-67.8" font-family="Times,serif" font-size="14.00">Show Name Tags</text>
</g>
<!-- 2&#45;&gt;9 -->
<g id="edge6" class="edge">
<title>2&#45;&gt;9</title>
<path fill="none" stroke="black" d="M650.85,-111.95C677.03,-104.77 709.05,-95.99 736.39,-88.49"/>
<polygon fill="black" stroke="black" points="737.52,-91.81 746.24,-85.79 735.67,-85.06 737.52,-91.81"/>
</g>
<!-- 11 -->
<g id="13" class="node">
<title>11</title>
<ellipse fill="none" stroke="black" cx="797.51" cy="-18" rx="53.88" ry="18"/>
<text text-anchor="middle" x="797.51" y="-13.8" font-family="Times,serif" font-size="14.00">Auto Jump</text>
</g>
<!-- 2&#45;&gt;11 -->
<g id="edge7" class="edge">
<title>2&#45;&gt;11</title>
<path fill="none" stroke="black" d="M621.12,-108.56C643.94,-90.7 681.6,-63.07 717.55,-45 726.58,-40.46 736.55,-36.39 746.28,-32.87"/>
<polygon fill="black" stroke="black" points="747.59,-36.13 755.89,-29.54 745.29,-29.51 747.59,-36.13"/>
</g>
<!-- 4 -->
<g id="13" class="node">
<title>4</title>
<ellipse fill="none" stroke="black" cx="941.68" cy="-234" rx="28.41" ry="18"/>
<text text-anchor="middle" x="941.68" y="-229.8" font-family="Times,serif" font-size="14.00">bool</text>
</g>
<!-- 3&#45;&gt;4 -->
<g id="edge8" class="edge">
<title>3&#45;&gt;4</title>
<path fill="none" stroke="black" d="M839.63,-234C859.65,-234 883.55,-234 903.08,-234"/>
<polygon fill="black" stroke="black" points="903.14,-237.5 913.14,-234 903.14,-230.5 903.14,-237.5"/>
</g>
<!-- 6 -->
<g id="13" class="node">
<title>6</title>
<ellipse fill="none" stroke="black" cx="941.68" cy="-180" rx="28.41" ry="18"/>
<text text-anchor="middle" x="941.68" y="-175.8" font-family="Times,serif" font-size="14.00">bool</text>
</g>
<!-- 5&#45;&gt;6 -->
<g id="edge9" class="edge">
<title>5&#45;&gt;6</title>
<path fill="none" stroke="black" d="M839.63,-180C859.65,-180 883.55,-180 903.08,-180"/>
<polygon fill="black" stroke="black" points="903.14,-183.5 913.14,-180 903.14,-176.5 903.14,-183.5"/>
</g>
<!-- 8 -->
<g id="13" class="node">
<title>8</title>
<ellipse fill="none" stroke="black" cx="941.68" cy="-126" rx="28.41" ry="18"/>
<text text-anchor="middle" x="941.68" y="-121.8" font-family="Times,serif" font-size="14.00">bool</text>
</g>
<!-- 7&#45;&gt;8 -->
<g id="edge10" class="edge">
<title>7&#45;&gt;8</title>
<path fill="none" stroke="black" d="M877.49,-126C886.47,-126 895.27,-126 903.33,-126"/>
<polygon fill="black" stroke="black" points="903.43,-129.5 913.43,-126 903.43,-122.5 903.43,-129.5"/>
</g>
<!-- 10 -->
<g id="13" class="node">
<title>10</title>
<ellipse fill="none" stroke="black" cx="941.68" cy="-72" rx="28.41" ry="18"/>
<text text-anchor="middle" x="941.68" y="-67.8" font-family="Times,serif" font-size="14.00">bool</text>
</g>
<!-- 9&#45;&gt;10 -->
<g id="edge11" class="edge">
<title>9&#45;&gt;10</title>
<path fill="none" stroke="black" d="M877.49,-72C886.47,-72 895.27,-72 903.33,-72"/>
<polygon fill="black" stroke="black" points="903.43,-75.5 913.43,-72 903.43,-68.5 903.43,-75.5"/>
</g>
<!-- 12 -->
<g id="13" class="node">
<title>12</title>
<ellipse fill="none" stroke="black" cx="941.68" cy="-18" rx="28.41" ry="18"/>
<text text-anchor="middle" x="941.68" y="-13.8" font-family="Times,serif" font-size="14.00">bool</text>
</g>
<!-- 11&#45;&gt;12 -->
<g id="edge12" class="edge">
<title>11&#45;&gt;12</title>
<path fill="none" stroke="black" d="M851.45,-18C868.51,-18 887.07,-18 902.82,-18"/>
<polygon fill="black" stroke="black" points="903.22,-21.5 913.22,-18 903.22,-14.5 903.22,-21.5"/>
</g>
</g>
</svg>
