<svg width="1247px" height="98px"
 viewBox="0.00 0.00 1246.93 98.00" xmlns="http://www.w3.org/2000/svg" xmlns:xlink="http://www.w3.org/1999/xlink">
<g id="graph0" class="graph" transform="scale(1.0 1.0) rotate(0.0) translate(4.0 94.0)">
<title>BiomeLegacyWorldGenRulesData</title>
<polygon fill="white" stroke="none" points="-4,4 -4,-94 1242.93,-94 1242.93,4 -4,4"/>
<!-- 360 -->
<!-- name: &quot;BiomeLegacyWorldGenRulesData&quot;, typeName: &quot;&quot;, id: 360, branchId: 0, recurseId: &#45;1, attributes: 0, notes: &quot;&quot; -->
<g id="node1" class="node">
<title>360</title>
<ellipse fill="none" stroke="black" cx="140.41" cy="-45" rx="140.41" ry="18"/>
<text text-anchor="middle" x="140.41" y="-39.95" font-family="Times,serif" font-size="14.00">BiomeLegacyWorldGenRulesData</text>
</g>
<!-- 361 -->
<!-- name: &quot;conditional transformation&quot;, typeName: &quot;&quot;, id: 361, branchId: 0, recurseId: &#45;1, attributes: 8, notes: &quot;&quot; -->
<g id="node2" class="node">
<title>361</title>
<ellipse fill="none" stroke="black" cx="426.51" cy="-45" rx="109.7" ry="18"/>
<text text-anchor="middle" x="426.51" y="-39.95" font-family="Times,serif" font-size="14.00">conditional transformation</text>
</g>
<!-- 360&#45;&gt;361 -->
<g id="edge1" class="edge">
<title>360&#45;&gt;361</title>
<path fill="none" stroke="black" d="M280.96,-45C289.07,-45 297.19,-45 305.21,-45"/>
<polygon fill="black" stroke="black" points="304.97,-48.5 314.97,-45 304.97,-41.5 304.97,-48.5"/>
</g>
<!-- 362 -->
<!-- name: &quot;List Size&quot;, typeName: &quot;&quot;, id: 362, branchId: 0, recurseId: &#45;1, attributes: 0, notes: &quot;&quot; -->
<g id="node3" class="node">
<title>362</title>
<ellipse fill="none" stroke="black" cx="825.73" cy="-72" rx="43.67" ry="18"/>
<text text-anchor="middle" x="825.73" y="-66.95" font-family="Times,serif" font-size="14.00">List Size</text>
</g>
<!-- 361&#45;&gt;362 -->
<g id="edge2" class="edge">
<title>361&#45;&gt;362</title>
<path fill="none" stroke="black" d="M528.77,-51.88C605.86,-57.12 708.95,-64.13 770.89,-68.34"/>
<polygon fill="black" stroke="black" points="770.61,-71.83 780.83,-69.02 771.09,-64.85 770.61,-71.83"/>
</g>
<!-- 364 -->
<!-- name: &quot;example element&quot;, typeName: &quot;&quot;, id: 364, branchId: 0, recurseId: &#45;1, attributes: 16, notes: &quot;&quot; -->
<g id="node5" class="node">
<title>364</title>
<ellipse fill="none" stroke="black" stroke-dasharray="1,5" cx="647.1" cy="-22" rx="74.89" ry="18"/>
<text text-anchor="middle" x="647.1" y="-16.95" font-family="Times,serif" font-size="14.00">example element</text>
</g>
<!-- 361&#45;&gt;364 -->
<g id="edge4" class="edge">
<title>361&#45;&gt;364</title>
<path fill="none" stroke="black" d="M519.9,-35.28C535.4,-33.65 551.37,-31.97 566.52,-30.37"/>
<polygon fill="black" stroke="black" points="566.84,-33.86 576.42,-29.33 566.11,-26.9 566.84,-33.86"/>
</g>
<!-- 363 -->
<!-- name: &quot;unsigned varint&quot;, typeName: &quot;&quot;, id: 363, branchId: 0, recurseId: &#45;1, attributes: 512, notes: &quot;&quot; -->
<g id="node4" class="node">
<title>363</title>
<ellipse fill="none" stroke="black" cx="1084.19" cy="-72" rx="68.24" ry="18"/>
<text text-anchor="middle" x="1084.19" y="-66.95" font-family="Times,serif" font-size="14.00">unsigned varint</text>
</g>
<!-- 362&#45;&gt;363 -->
<g id="edge3" class="edge">
<title>362&#45;&gt;363</title>
<path fill="none" stroke="black" d="M869.65,-72C906.25,-72 959.82,-72 1004.14,-72"/>
<polygon fill="black" stroke="black" points="1003.98,-75.5 1013.98,-72 1003.98,-68.5 1003.98,-75.5"/>
</g>
<!-- 365 -->
<!-- name: &quot;legacy pre hills&quot;, typeName: &quot;BiomeConditionalTransformationData&quot;, id: 365, branchId: 0, recurseId: &#45;1, attributes: 256, notes: &quot;&quot; -->
<g id="node6" class="node">
<title>365</title>
<ellipse fill="none" stroke="black" cx="825.73" cy="-18" rx="67.73" ry="18"/>
<text text-anchor="middle" x="825.73" y="-12.95" font-family="Times,serif" font-size="14.00">legacy pre hills</text>
</g>
<!-- 364&#45;&gt;365 -->
<g id="edge5" class="edge">
<title>364&#45;&gt;365</title>
<path fill="none" stroke="black" d="M721.98,-20.33C730.08,-20.14 738.34,-19.96 746.49,-19.77"/>
<polygon fill="black" stroke="black" points="746.47,-23.27 756.38,-19.55 746.31,-16.28 746.47,-23.27"/>
</g>
<!-- 366 -->
<!-- name: &quot;BiomeConditionalTransformationData&quot;, typeName: &quot;&quot;, id: 366, branchId: 0, recurseId: &#45;1, attributes: 512, notes: &quot;&quot; -->
<g id="node7" class="node">
<title>366</title>
<ellipse fill="none" stroke="black" cx="1084.19" cy="-18" rx="154.74" ry="18"/>
<text text-anchor="middle" x="1084.19" y="-12.95" font-family="Times,serif" font-size="14.00">BiomeConditionalTransformationData</text>
</g>
<!-- 365&#45;&gt;366 -->
<g id="edge6" class="edge">
<title>365&#45;&gt;366</title>
<path fill="none" stroke="black" d="M893.77,-18C901.43,-18 909.46,-18 917.72,-18"/>
<polygon fill="black" stroke="black" points="917.59,-21.5 927.59,-18 917.59,-14.5 917.59,-21.5"/>
</g>
</g>
</svg>
