<svg width="1043px" height="476px"
 viewBox="0.00 0.00 1043.23 476.00" xmlns="http://www.w3.org/2000/svg" xmlns:xlink="http://www.w3.org/1999/xlink">
<g id="graph0" class="graph" transform="scale(1.0 1.0) rotate(0.0) translate(4.0 472.0)">
<title>BiomeScatterParamData</title>
<polygon fill="white" stroke="none" points="-4,4 -4,-472 1039.23,-472 1039.23,4 -4,4"/>
<!-- 96 -->
<!-- name: &quot;BiomeScatterParamData&quot;, typeName: &quot;&quot;, id: 96, branchId: 0, recurseId: &#45;1, attributes: 0, notes: &quot;&quot; -->
<g id="node1" class="node">
<title>96</title>
<ellipse fill="none" stroke="black" cx="103.04" cy="-202" rx="103.04" ry="18"/>
<text text-anchor="middle" x="103.04" y="-196.95" font-family="Times,serif" font-size="14.00">BiomeScatterParamData</text>
</g>
<!-- 97 -->
<!-- name: &quot;coordinate&quot;, typeName: &quot;&quot;, id: 97, branchId: 0, recurseId: &#45;1, attributes: 8, notes: &quot;&quot; -->
<g id="node2" class="node">
<title>97</title>
<ellipse fill="none" stroke="black" cx="326.71" cy="-396" rx="49.82" ry="18"/>
<text text-anchor="middle" x="326.71" y="-390.95" font-family="Times,serif" font-size="14.00">coordinate</text>
</g>
<!-- 96&#45;&gt;97 -->
<g id="edge1" class="edge">
<title>96&#45;&gt;97</title>
<path fill="none" stroke="black" d="M115.01,-220.32C135.8,-253.61 184.1,-324.33 242.09,-365 251.89,-371.87 263.39,-377.42 274.68,-381.82"/>
<polygon fill="black" stroke="black" points="273.35,-385.06 283.95,-385.17 275.74,-378.48 273.35,-385.06"/>
</g>
<!-- 118 -->
<!-- name: &quot;eval order&quot;, typeName: &quot;&quot;, id: 118, branchId: 0, recurseId: &#45;1, attributes: 0, notes: &quot;&quot; -->
<g id="node8" class="node">
<title>118</title>
<ellipse fill="none" stroke="black" cx="326.71" cy="-338" rx="48.28" ry="18"/>
<text text-anchor="middle" x="326.71" y="-332.95" font-family="Times,serif" font-size="14.00">eval order</text>
</g>
<!-- 96&#45;&gt;118 -->
<g id="edge7" class="edge">
<title>96&#45;&gt;118</title>
<path fill="none" stroke="black" d="M126.05,-219.96C152.52,-241.04 198.82,-276.26 242.09,-301 254.7,-308.21 268.99,-315 282.13,-320.74"/>
<polygon fill="black" stroke="black" points="280.41,-323.81 290.99,-324.51 283.16,-317.37 280.41,-323.81"/>
</g>
<!-- 120 -->
<!-- name: &quot;chance percent type&quot;, typeName: &quot;&quot;, id: 120, branchId: 0, recurseId: &#45;1, attributes: 0, notes: &quot;&quot; -->
<g id="node10" class="node">
<title>120</title>
<ellipse fill="none" stroke="black" cx="326.71" cy="-274" rx="84.62" ry="18"/>
<text text-anchor="middle" x="326.71" y="-268.95" font-family="Times,serif" font-size="14.00">chance percent type</text>
</g>
<!-- 96&#45;&gt;120 -->
<g id="edge9" class="edge">
<title>96&#45;&gt;120</title>
<path fill="none" stroke="black" d="M153.51,-218.07C187.51,-229.11 232.75,-243.81 268.33,-255.36"/>
<polygon fill="black" stroke="black" points="267.01,-258.61 277.6,-258.37 269.17,-251.96 267.01,-258.61"/>
</g>
<!-- 122 -->
<!-- name: &quot;chance percent&quot;, typeName: &quot;short&quot;, id: 122, branchId: 0, recurseId: &#45;1, attributes: 256, notes: &quot;&quot; -->
<g id="node12" class="node">
<title>122</title>
<ellipse fill="none" stroke="black" cx="533.48" cy="-230" rx="66.19" ry="18"/>
<text text-anchor="middle" x="533.48" y="-224.95" font-family="Times,serif" font-size="14.00">chance percent</text>
</g>
<!-- 96&#45;&gt;122 -->
<g id="edge11" class="edge">
<title>96&#45;&gt;122</title>
<path fill="none" stroke="black" d="M200.19,-208.28C277.94,-213.36 385.87,-220.42 457.37,-225.09"/>
<polygon fill="black" stroke="black" points="456.8,-228.56 467.01,-225.72 457.26,-221.58 456.8,-228.56"/>
</g>
<!-- 124 -->
<!-- name: &quot;chance numerator&quot;, typeName: &quot;&quot;, id: 124, branchId: 0, recurseId: &#45;1, attributes: 0, notes: &quot;&quot; -->
<g id="node14" class="node">
<title>124</title>
<ellipse fill="none" stroke="black" cx="733.09" cy="-181" rx="77.45" ry="18"/>
<text text-anchor="middle" x="733.09" y="-175.95" font-family="Times,serif" font-size="14.00">chance numerator</text>
</g>
<!-- 96&#45;&gt;124 -->
<g id="edge13" class="edge">
<title>96&#45;&gt;124</title>
<path fill="none" stroke="black" d="M204.6,-198.64C326.34,-194.57 529.35,-187.78 644.8,-183.92"/>
<polygon fill="black" stroke="black" points="644.64,-187.43 654.52,-183.59 644.41,-180.43 644.64,-187.43"/>
</g>
<!-- 126 -->
<!-- name: &quot;chance denominator&quot;, typeName: &quot;&quot;, id: 126, branchId: 0, recurseId: &#45;1, attributes: 0, notes: &quot;&quot; -->
<g id="node16" class="node">
<title>126</title>
<ellipse fill="none" stroke="black" cx="533.48" cy="-135" rx="86.15" ry="18"/>
<text text-anchor="middle" x="533.48" y="-129.95" font-family="Times,serif" font-size="14.00">chance denominator</text>
</g>
<!-- 96&#45;&gt;126 -->
<g id="edge15" class="edge">
<title>96&#45;&gt;126</title>
<path fill="none" stroke="black" d="M161.15,-186.75C185.89,-180.56 215.28,-173.76 242.09,-169 308.51,-157.22 384.22,-148.5 441.68,-142.85"/>
<polygon fill="black" stroke="black" points="441.8,-146.36 451.42,-141.91 441.12,-139.39 441.8,-146.36"/>
</g>
<!-- 128 -->
<!-- name: &quot;iterations type&quot;, typeName: &quot;&quot;, id: 128, branchId: 0, recurseId: &#45;1, attributes: 0, notes: &quot;&quot; -->
<g id="node18" class="node">
<title>128</title>
<ellipse fill="none" stroke="black" cx="733.09" cy="-78" rx="63.63" ry="18"/>
<text text-anchor="middle" x="733.09" y="-72.95" font-family="Times,serif" font-size="14.00">iterations type</text>
</g>
<!-- 96&#45;&gt;128 -->
<g id="edge17" class="edge">
<title>96&#45;&gt;128</title>
<path fill="none" stroke="black" d="M137.49,-184.68C164.93,-171.17 205.12,-152.91 242.09,-142 385.59,-99.63 561,-85.29 658.23,-80.45"/>
<polygon fill="black" stroke="black" points="658.36,-83.95 668.18,-79.98 658.02,-76.95 658.36,-83.95"/>
</g>
<!-- 130 -->
<!-- name: &quot;iterations&quot;, typeName: &quot;short&quot;, id: 130, branchId: 0, recurseId: &#45;1, attributes: 256, notes: &quot;&quot; -->
<g id="node20" class="node">
<title>130</title>
<ellipse fill="none" stroke="black" cx="733.09" cy="-20" rx="45.21" ry="18"/>
<text text-anchor="middle" x="733.09" y="-14.95" font-family="Times,serif" font-size="14.00">iterations</text>
</g>
<!-- 96&#45;&gt;130 -->
<g id="edge19" class="edge">
<title>96&#45;&gt;130</title>
<path fill="none" stroke="black" d="M122.88,-184.11C147.97,-161.39 194.72,-122.75 242.09,-103 390.63,-41.08 582.84,-25.33 676.23,-21.34"/>
<polygon fill="black" stroke="black" points="676.29,-24.84 686.14,-20.95 676.01,-17.84 676.29,-24.84"/>
</g>
<!-- 98 -->
<!-- name: &quot;List Size&quot;, typeName: &quot;&quot;, id: 98, branchId: 0, recurseId: &#45;1, attributes: 0, notes: &quot;&quot; -->
<g id="node3" class="node">
<title>98</title>
<ellipse fill="none" stroke="black" cx="533.48" cy="-450" rx="43.67" ry="18"/>
<text text-anchor="middle" x="533.48" y="-444.95" font-family="Times,serif" font-size="14.00">List Size</text>
</g>
<!-- 97&#45;&gt;98 -->
<g id="edge2" class="edge">
<title>97&#45;&gt;98</title>
<path fill="none" stroke="black" d="M367.68,-406.54C401.28,-415.4 449.4,-428.09 484.97,-437.47"/>
<polygon fill="black" stroke="black" points="484.02,-440.84 494.58,-440.01 485.81,-434.07 484.02,-440.84"/>
</g>
<!-- 100 -->
<!-- name: &quot;example element&quot;, typeName: &quot;&quot;, id: 100, branchId: 0, recurseId: &#45;1, attributes: 16, notes: &quot;&quot; -->
<g id="node5" class="node">
<title>100</title>
<ellipse fill="none" stroke="black" stroke-dasharray="1,5" cx="533.48" cy="-396" rx="74.89" ry="18"/>
<text text-anchor="middle" x="533.48" y="-390.95" font-family="Times,serif" font-size="14.00">example element</text>
</g>
<!-- 97&#45;&gt;100 -->
<g id="edge4" class="edge">
<title>97&#45;&gt;100</title>
<path fill="none" stroke="black" d="M377.02,-396C398.06,-396 423.24,-396 447.15,-396"/>
<polygon fill="black" stroke="black" points="446.87,-399.5 456.87,-396 446.87,-392.5 446.87,-399.5"/>
</g>
<!-- 99 -->
<!-- name: &quot;unsigned varint&quot;, typeName: &quot;&quot;, id: 99, branchId: 0, recurseId: &#45;1, attributes: 512, notes: &quot;&quot; -->
<g id="node4" class="node">
<title>99</title>
<ellipse fill="none" stroke="black" cx="940.89" cy="-450" rx="68.24" ry="18"/>
<text text-anchor="middle" x="940.89" y="-444.95" font-family="Times,serif" font-size="14.00">unsigned varint</text>
</g>
<!-- 98&#45;&gt;99 -->
<g id="edge3" class="edge">
<title>98&#45;&gt;99</title>
<path fill="none" stroke="black" d="M577.48,-450C644.79,-450 776.09,-450 860.8,-450"/>
<polygon fill="black" stroke="black" points="860.66,-453.5 870.66,-450 860.66,-446.5 860.66,-453.5"/>
</g>
<!-- 101 -->
<!-- name: &quot;coordinates&quot;, typeName: &quot;BiomeCoordinateData&quot;, id: 101, branchId: 0, recurseId: &#45;1, attributes: 256, notes: &quot;&quot; -->
<g id="node6" class="node">
<title>101</title>
<ellipse fill="none" stroke="black" cx="733.09" cy="-396" rx="53.4" ry="18"/>
<text text-anchor="middle" x="733.09" y="-390.95" font-family="Times,serif" font-size="14.00">coordinates</text>
</g>
<!-- 100&#45;&gt;101 -->
<g id="edge5" class="edge">
<title>100&#45;&gt;101</title>
<path fill="none" stroke="black" d="M608.62,-396C628.12,-396 648.99,-396 667.92,-396"/>
<polygon fill="black" stroke="black" points="667.91,-399.5 677.91,-396 667.91,-392.5 667.91,-399.5"/>
</g>
<!-- 117 -->
<!-- name: &quot;BiomeCoordinateData&quot;, typeName: &quot;&quot;, id: 117, branchId: 0, recurseId: &#45;1, attributes: 512, notes: &quot;&quot; -->
<g id="node7" class="node">
<title>117</title>
<ellipse fill="none" stroke="black" cx="940.89" cy="-396" rx="94.34" ry="18"/>
<text text-anchor="middle" x="940.89" y="-390.95" font-family="Times,serif" font-size="14.00">BiomeCoordinateData</text>
</g>
<!-- 101&#45;&gt;117 -->
<g id="edge6" class="edge">
<title>101&#45;&gt;117</title>
<path fill="none" stroke="black" d="M786.82,-396C801.53,-396 818.04,-396 834.64,-396"/>
<polygon fill="black" stroke="black" points="834.61,-399.5 844.61,-396 834.61,-392.5 834.61,-399.5"/>
</g>
<!-- 119 -->
<!-- name: &quot;varint&quot;, typeName: &quot;&quot;, id: 119, branchId: 0, recurseId: &#45;1, attributes: 512, notes: &quot;&quot; -->
<g id="node9" class="node">
<title>119</title>
<ellipse fill="none" stroke="black" cx="940.89" cy="-342" rx="32.41" ry="18"/>
<text text-anchor="middle" x="940.89" y="-336.95" font-family="Times,serif" font-size="14.00">varint</text>
</g>
<!-- 118&#45;&gt;119 -->
<g id="edge8" class="edge">
<title>118&#45;&gt;119</title>
<path fill="none" stroke="black" d="M375.23,-338.31C490.97,-339.07 786.05,-340.99 896.92,-341.72"/>
<polygon fill="black" stroke="black" points="896.75,-345.22 906.77,-341.78 896.79,-338.22 896.75,-345.22"/>
</g>
<!-- 121 -->
<!-- name: &quot;varint&quot;, typeName: &quot;&quot;, id: 121, branchId: 0, recurseId: &#45;1, attributes: 512, notes: &quot;&quot; -->
<g id="node11" class="node">
<title>121</title>
<ellipse fill="none" stroke="black" cx="940.89" cy="-288" rx="32.41" ry="18"/>
<text text-anchor="middle" x="940.89" y="-282.95" font-family="Times,serif" font-size="14.00">varint</text>
</g>
<!-- 120&#45;&gt;121 -->
<g id="edge10" class="edge">
<title>120&#45;&gt;121</title>
<path fill="none" stroke="black" d="M411.22,-275.91C543.41,-278.93 796.15,-284.71 896.89,-287.02"/>
<polygon fill="black" stroke="black" points="896.53,-290.51 906.61,-287.24 896.69,-283.51 896.53,-290.51"/>
</g>
<!-- 123 -->
<!-- name: &quot;short&quot;, typeName: &quot;&quot;, id: 123, branchId: 0, recurseId: &#45;1, attributes: 512, notes: &quot;&quot; -->
<g id="node13" class="node">
<title>123</title>
<ellipse fill="none" stroke="black" cx="940.89" cy="-234" rx="29.34" ry="18"/>
<text text-anchor="middle" x="940.89" y="-228.95" font-family="Times,serif" font-size="14.00">short</text>
</g>
<!-- 122&#45;&gt;123 -->
<g id="edge12" class="edge">
<title>122&#45;&gt;123</title>
<path fill="none" stroke="black" d="M600.07,-230.65C684.8,-231.48 829.72,-232.91 899.72,-233.6"/>
<polygon fill="black" stroke="black" points="899.54,-237.1 909.57,-233.7 899.61,-230.1 899.54,-237.1"/>
</g>
<!-- 125 -->
<!-- name: &quot;int&quot;, typeName: &quot;&quot;, id: 125, branchId: 0, recurseId: &#45;1, attributes: 512, notes: &quot;&quot; -->
<g id="node15" class="node">
<title>125</title>
<ellipse fill="none" stroke="black" cx="940.89" cy="-180" rx="27" ry="18"/>
<text text-anchor="middle" x="940.89" y="-174.95" font-family="Times,serif" font-size="14.00">int</text>
</g>
<!-- 124&#45;&gt;125 -->
<g id="edge14" class="edge">
<title>124&#45;&gt;125</title>
<path fill="none" stroke="black" d="M811.01,-180.63C842.16,-180.47 876.7,-180.31 902.18,-180.18"/>
<polygon fill="black" stroke="black" points="902.05,-183.68 912.03,-180.14 902.02,-176.68 902.05,-183.68"/>
</g>
<!-- 127 -->
<!-- name: &quot;int&quot;, typeName: &quot;&quot;, id: 127, branchId: 0, recurseId: &#45;1, attributes: 512, notes: &quot;&quot; -->
<g id="node17" class="node">
<title>127</title>
<ellipse fill="none" stroke="black" cx="940.89" cy="-126" rx="27" ry="18"/>
<text text-anchor="middle" x="940.89" y="-120.95" font-family="Times,serif" font-size="14.00">int</text>
</g>
<!-- 126&#45;&gt;127 -->
<g id="edge16" class="edge">
<title>126&#45;&gt;127</title>
<path fill="none" stroke="black" d="M619.47,-133.11C706.68,-131.18 838.38,-128.25 902.36,-126.83"/>
<polygon fill="black" stroke="black" points="902.06,-130.34 911.98,-126.62 901.9,-123.34 902.06,-130.34"/>
</g>
<!-- 129 -->
<!-- name: &quot;varint&quot;, typeName: &quot;&quot;, id: 129, branchId: 0, recurseId: &#45;1, attributes: 512, notes: &quot;&quot; -->
<g id="node19" class="node">
<title>129</title>
<ellipse fill="none" stroke="black" cx="940.89" cy="-72" rx="32.41" ry="18"/>
<text text-anchor="middle" x="940.89" y="-66.95" font-family="Times,serif" font-size="14.00">varint</text>
</g>
<!-- 128&#45;&gt;129 -->
<g id="edge18" class="edge">
<title>128&#45;&gt;129</title>
<path fill="none" stroke="black" d="M796.67,-76.18C829.1,-75.23 867.87,-74.1 896.89,-73.25"/>
<polygon fill="black" stroke="black" points="896.88,-76.76 906.78,-72.97 896.68,-69.76 896.88,-76.76"/>
</g>
<!-- 131 -->
<!-- name: &quot;short&quot;, typeName: &quot;&quot;, id: 131, branchId: 0, recurseId: &#45;1, attributes: 512, notes: &quot;&quot; -->
<g id="node21" class="node">
<title>131</title>
<ellipse fill="none" stroke="black" cx="940.89" cy="-18" rx="29.34" ry="18"/>
<text text-anchor="middle" x="940.89" y="-12.95" font-family="Times,serif" font-size="14.00">short</text>
</g>
<!-- 130&#45;&gt;131 -->
<g id="edge20" class="edge">
<title>130&#45;&gt;131</title>
<path fill="none" stroke="black" d="M778.74,-19.57C814.85,-19.22 865.24,-18.73 900.01,-18.39"/>
<polygon fill="black" stroke="black" points="899.68,-21.89 909.64,-18.29 899.61,-14.89 899.68,-21.89"/>
</g>
</g>
</svg>
