<svg width="1050px" height="530px"
 viewBox="0.00 0.00 1050.39 530.00" xmlns="http://www.w3.org/2000/svg" xmlns:xlink="http://www.w3.org/1999/xlink">
<g id="graph0" class="graph" transform="scale(1.0 1.0) rotate(0.0) translate(4.0 526.0)">
<title>BiomeDefinitionData</title>
<polygon fill="white" stroke="none" points="-4,4 -4,-526 1046.39,-526 1046.39,4 -4,4"/>
<!-- 11 -->
<!-- name: &quot;BiomeDefinitionData&quot;, typeName: &quot;&quot;, id: 11, branchId: 0, recurseId: &#45;1, attributes: 0, notes: &quot;&quot; -->
<g id="node1" class="node">
<title>11</title>
<ellipse fill="none" stroke="black" cx="91.27" cy="-261" rx="91.27" ry="18"/>
<text text-anchor="middle" x="91.27" y="-255.95" font-family="Times,serif" font-size="14.00">BiomeDefinitionData</text>
</g>
<!-- 12 -->
<!-- name: &quot;id&quot;, typeName: &quot;BiomeIdType&quot;, id: 12, branchId: 0, recurseId: &#45;1, attributes: 256, notes: &quot;&quot; -->
<g id="node2" class="node">
<title>12</title>
<ellipse fill="none" stroke="black" cx="400.92" cy="-504" rx="27" ry="18"/>
<text text-anchor="middle" x="400.92" y="-498.95" font-family="Times,serif" font-size="14.00">id</text>
</g>
<!-- 11&#45;&gt;12 -->
<g id="edge1" class="edge">
<title>11&#45;&gt;12</title>
<path fill="none" stroke="black" d="M97.06,-279.22C109.26,-321.77 145.87,-427.83 218.54,-477 261.56,-506.1 323.4,-509.08 362.61,-507.41"/>
<polygon fill="black" stroke="black" points="362.71,-510.91 372.49,-506.85 362.31,-503.92 362.71,-510.91"/>
</g>
<!-- 17 -->
<!-- name: &quot;temperature&quot;, typeName: &quot;&quot;, id: 17, branchId: 0, recurseId: &#45;1, attributes: 0, notes: &quot;&quot; -->
<g id="node4" class="node">
<title>17</title>
<ellipse fill="none" stroke="black" cx="400.92" cy="-450" rx="55.45" ry="18"/>
<text text-anchor="middle" x="400.92" y="-444.95" font-family="Times,serif" font-size="14.00">temperature</text>
</g>
<!-- 11&#45;&gt;17 -->
<g id="edge3" class="edge">
<title>11&#45;&gt;17</title>
<path fill="none" stroke="black" d="M100.65,-279.3C117.52,-313.85 159.1,-388.31 218.54,-423 253.28,-443.27 297.9,-450.11 334.19,-451.84"/>
<polygon fill="black" stroke="black" points="334.03,-455.33 344.15,-452.18 334.27,-448.34 334.03,-455.33"/>
</g>
<!-- 19 -->
<!-- name: &quot;downfall&quot;, typeName: &quot;&quot;, id: 19, branchId: 0, recurseId: &#45;1, attributes: 0, notes: &quot;&quot; -->
<g id="node6" class="node">
<title>19</title>
<ellipse fill="none" stroke="black" cx="400.92" cy="-396" rx="43.67" ry="18"/>
<text text-anchor="middle" x="400.92" y="-390.95" font-family="Times,serif" font-size="14.00">downfall</text>
</g>
<!-- 11&#45;&gt;19 -->
<g id="edge5" class="edge">
<title>11&#45;&gt;19</title>
<path fill="none" stroke="black" d="M107.28,-279.04C129.03,-303.81 171.82,-347.7 218.54,-369 258.71,-387.31 308.58,-393.7 345.85,-395.72"/>
<polygon fill="black" stroke="black" points="345.33,-399.2 355.48,-396.15 345.64,-392.21 345.33,-399.2"/>
</g>
<!-- 99 -->
<!-- name: &quot;foliage snow (0&#45;1 how frozen the leaves look)&quot;, typeName: &quot;&quot;, id: 99, branchId: 0, recurseId: &#45;1, attributes: 0, notes: &quot;&quot; -->
<g id="node8" class="node">
<title>99</title>
<ellipse fill="none" stroke="black" cx="400.92" cy="-342" rx="182.37" ry="18"/>
<text text-anchor="middle" x="400.92" y="-336.95" font-family="Times,serif" font-size="14.00">foliage snow (0&#45;1 how frozen the leaves look)</text>
</g>
<!-- 11&#45;&gt;99 -->
<g id="edge7" class="edge">
<title>11&#45;&gt;99</title>
<path fill="none" stroke="black" d="M125.71,-278.1C150.68,-290.17 185.97,-305.78 218.54,-315 234.25,-319.45 250.94,-323.2 267.59,-326.35"/>
<polygon fill="black" stroke="black" points="266.56,-329.72 277.02,-328.06 267.81,-322.83 266.56,-329.72"/>
</g>
<!-- 29 -->
<!-- name: &quot;depth&quot;, typeName: &quot;&quot;, id: 29, branchId: 0, recurseId: &#45;1, attributes: 0, notes: &quot;&quot; -->
<g id="node10" class="node">
<title>29</title>
<ellipse fill="none" stroke="black" cx="400.92" cy="-288" rx="31.39" ry="18"/>
<text text-anchor="middle" x="400.92" y="-282.95" font-family="Times,serif" font-size="14.00">depth</text>
</g>
<!-- 11&#45;&gt;29 -->
<g id="edge9" class="edge">
<title>11&#45;&gt;29</title>
<path fill="none" stroke="black" d="M175.53,-268.31C234.75,-273.5 311.79,-280.27 358.46,-284.36"/>
<polygon fill="black" stroke="black" points="357.87,-287.82 368.13,-285.21 358.48,-280.85 357.87,-287.82"/>
</g>
<!-- 31 -->
<!-- name: &quot;scale&quot;, typeName: &quot;&quot;, id: 31, branchId: 0, recurseId: &#45;1, attributes: 0, notes: &quot;&quot; -->
<g id="node12" class="node">
<title>31</title>
<ellipse fill="none" stroke="black" cx="400.92" cy="-234" rx="29.34" ry="18"/>
<text text-anchor="middle" x="400.92" y="-228.95" font-family="Times,serif" font-size="14.00">scale</text>
</g>
<!-- 11&#45;&gt;31 -->
<g id="edge11" class="edge">
<title>11&#45;&gt;31</title>
<path fill="none" stroke="black" d="M175.53,-253.69C235.44,-248.44 313.59,-241.58 360.09,-237.5"/>
<polygon fill="black" stroke="black" points="360.31,-240.99 369.97,-236.63 359.7,-234.02 360.31,-240.99"/>
</g>
<!-- 33 -->
<!-- name: &quot;map water color ARGB&quot;, typeName: &quot;&quot;, id: 33, branchId: 0, recurseId: &#45;1, attributes: 0, notes: &quot;&quot; -->
<g id="node14" class="node">
<title>33</title>
<ellipse fill="none" stroke="black" cx="400.92" cy="-180" rx="99.46" ry="18"/>
<text text-anchor="middle" x="400.92" y="-174.95" font-family="Times,serif" font-size="14.00">map water color ARGB</text>
</g>
<!-- 11&#45;&gt;33 -->
<g id="edge13" class="edge">
<title>11&#45;&gt;33</title>
<path fill="none" stroke="black" d="M125.71,-243.9C150.68,-231.83 185.97,-216.22 218.54,-207 244.93,-199.53 274.09,-194.03 301.17,-190.02"/>
<polygon fill="black" stroke="black" points="301.33,-193.53 310.74,-188.66 300.35,-186.6 301.33,-193.53"/>
</g>
<!-- 35 -->
<!-- name: &quot;rain&quot;, typeName: &quot;&quot;, id: 35, branchId: 0, recurseId: &#45;1, attributes: 0, notes: &quot;&quot; -->
<g id="node16" class="node">
<title>35</title>
<ellipse fill="none" stroke="black" cx="400.92" cy="-126" rx="27" ry="18"/>
<text text-anchor="middle" x="400.92" y="-120.95" font-family="Times,serif" font-size="14.00">rain</text>
</g>
<!-- 11&#45;&gt;35 -->
<g id="edge15" class="edge">
<title>11&#45;&gt;35</title>
<path fill="none" stroke="black" d="M107.28,-242.96C129.03,-218.19 171.82,-174.3 218.54,-153 265.14,-131.76 324.79,-126.55 362.69,-125.61"/>
<polygon fill="black" stroke="black" points="362.26,-129.12 372.21,-125.47 362.15,-122.12 362.26,-129.12"/>
</g>
<!-- 37 -->
<!-- name: &quot;tags&quot;, typeName: &quot;std::optional&lt;struct BiomeTagsData&gt;&quot;, id: 37, branchId: 0, recurseId: &#45;1, attributes: 256, notes: &quot;&quot; -->
<g id="node18" class="node">
<title>37</title>
<ellipse fill="none" stroke="black" cx="400.92" cy="-72" rx="27" ry="18"/>
<text text-anchor="middle" x="400.92" y="-66.95" font-family="Times,serif" font-size="14.00">tags</text>
</g>
<!-- 11&#45;&gt;37 -->
<g id="edge17" class="edge">
<title>11&#45;&gt;37</title>
<path fill="none" stroke="black" d="M100.65,-242.7C117.52,-208.15 159.1,-133.69 218.54,-99 262.93,-73.1 323.45,-69.13 362.11,-69.73"/>
<polygon fill="black" stroke="black" points="362,-73.23 372.1,-70.01 362.2,-66.23 362,-73.23"/>
</g>
<!-- 51 -->
<!-- name: &quot;chunk gen data&quot;, typeName: &quot;std::optional&lt;struct BiomeDefinitionChunkGenData&gt;&quot;, id: 51, branchId: 0, recurseId: &#45;1, attributes: 256, notes: &quot;Only used with client&#45;side chunk generation&quot; -->
<g id="node20" class="node">
<title>51</title>
<ellipse fill="none" stroke="black" cx="400.92" cy="-18" rx="67.22" ry="18"/>
<text text-anchor="middle" x="400.92" y="-12.95" font-family="Times,serif" font-size="14.00">chunk gen data</text>
</g>
<!-- 11&#45;&gt;51 -->
<g id="edge19" class="edge">
<title>11&#45;&gt;51</title>
<path fill="none" stroke="black" d="M97.06,-242.78C109.26,-200.23 145.87,-94.17 218.54,-45 248.87,-24.49 288.55,-16.95 323.06,-14.88"/>
<polygon fill="black" stroke="black" points="323.2,-18.38 333.03,-14.44 322.89,-11.38 323.2,-18.38"/>
</g>
<!-- 16 -->
<!-- name: &quot;BiomeIdType&quot;, typeName: &quot;&quot;, id: 16, branchId: 0, recurseId: &#45;1, attributes: 512, notes: &quot;&quot; -->
<g id="node3" class="node">
<title>16</title>
<ellipse fill="none" stroke="black" cx="830.84" cy="-504" rx="62.61" ry="18"/>
<text text-anchor="middle" x="830.84" y="-498.95" font-family="Times,serif" font-size="14.00">BiomeIdType</text>
</g>
<!-- 12&#45;&gt;16 -->
<g id="edge2" class="edge">
<title>12&#45;&gt;16</title>
<path fill="none" stroke="black" d="M428.36,-504C492.71,-504 659.29,-504 756.46,-504"/>
<polygon fill="black" stroke="black" points="756.44,-507.5 766.44,-504 756.44,-500.5 756.44,-507.5"/>
</g>
<!-- 18 -->
<!-- name: &quot;float&quot;, typeName: &quot;&quot;, id: 18, branchId: 0, recurseId: &#45;1, attributes: 512, notes: &quot;&quot; -->
<g id="node5" class="node">
<title>18</title>
<ellipse fill="none" stroke="black" cx="830.84" cy="-450" rx="27.81" ry="18"/>
<text text-anchor="middle" x="830.84" y="-444.95" font-family="Times,serif" font-size="14.00">float</text>
</g>
<!-- 17&#45;&gt;18 -->
<g id="edge4" class="edge">
<title>17&#45;&gt;18</title>
<path fill="none" stroke="black" d="M456.55,-450C544.35,-450 714.71,-450 791.12,-450"/>
<polygon fill="black" stroke="black" points="791.04,-453.5 801.04,-450 791.04,-446.5 791.04,-453.5"/>
</g>
<!-- 20 -->
<!-- name: &quot;float&quot;, typeName: &quot;&quot;, id: 20, branchId: 0, recurseId: &#45;1, attributes: 512, notes: &quot;&quot; -->
<g id="node7" class="node">
<title>20</title>
<ellipse fill="none" stroke="black" cx="830.84" cy="-396" rx="27.81" ry="18"/>
<text text-anchor="middle" x="830.84" y="-390.95" font-family="Times,serif" font-size="14.00">float</text>
</g>
<!-- 19&#45;&gt;20 -->
<g id="edge6" class="edge">
<title>19&#45;&gt;20</title>
<path fill="none" stroke="black" d="M444.91,-396C528.37,-396 711.15,-396 791.1,-396"/>
<polygon fill="black" stroke="black" points="791.06,-399.5 801.06,-396 791.06,-392.5 791.06,-399.5"/>
</g>
<!-- 100 -->
<!-- name: &quot;float&quot;, typeName: &quot;&quot;, id: 100, branchId: 0, recurseId: &#45;1, attributes: 512, notes: &quot;&quot; -->
<g id="node9" class="node">
<title>100</title>
<ellipse fill="none" stroke="black" cx="830.84" cy="-342" rx="27.81" ry="18"/>
<text text-anchor="middle" x="830.84" y="-336.95" font-family="Times,serif" font-size="14.00">float</text>
</g>
<!-- 99&#45;&gt;100 -->
<g id="edge8" class="edge">
<title>99&#45;&gt;100</title>
<path fill="none" stroke="black" d="M583.71,-342C660.98,-342 743.98,-342 791.15,-342"/>
<polygon fill="black" stroke="black" points="791.11,-345.5 801.11,-342 791.11,-338.5 791.11,-345.5"/>
</g>
<!-- 30 -->
<!-- name: &quot;float&quot;, typeName: &quot;&quot;, id: 30, branchId: 0, recurseId: &#45;1, attributes: 512, notes: &quot;&quot; -->
<g id="node11" class="node">
<title>30</title>
<ellipse fill="none" stroke="black" cx="830.84" cy="-288" rx="27.81" ry="18"/>
<text text-anchor="middle" x="830.84" y="-282.95" font-family="Times,serif" font-size="14.00">float</text>
</g>
<!-- 29&#45;&gt;30 -->
<g id="edge10" class="edge">
<title>29&#45;&gt;30</title>
<path fill="none" stroke="black" d="M432.69,-288C509.12,-288 707.45,-288 791.4,-288"/>
<polygon fill="black" stroke="black" points="791.18,-291.5 801.18,-288 791.18,-284.5 791.18,-291.5"/>
</g>
<!-- 32 -->
<!-- name: &quot;float&quot;, typeName: &quot;&quot;, id: 32, branchId: 0, recurseId: &#45;1, attributes: 512, notes: &quot;&quot; -->
<g id="node13" class="node">
<title>32</title>
<ellipse fill="none" stroke="black" cx="830.84" cy="-234" rx="27.81" ry="18"/>
<text text-anchor="middle" x="830.84" y="-228.95" font-family="Times,serif" font-size="14.00">float</text>
</g>
<!-- 31&#45;&gt;32 -->
<g id="edge12" class="edge">
<title>31&#45;&gt;32</title>
<path fill="none" stroke="black" d="M430.66,-234C505.49,-234 706.38,-234 791.2,-234"/>
<polygon fill="black" stroke="black" points="791.1,-237.5 801.1,-234 791.1,-230.5 791.1,-237.5"/>
</g>
<!-- 34 -->
<!-- name: &quot;int&quot;, typeName: &quot;&quot;, id: 34, branchId: 0, recurseId: &#45;1, attributes: 512, notes: &quot;&quot; -->
<g id="node15" class="node">
<title>34</title>
<ellipse fill="none" stroke="black" cx="830.84" cy="-180" rx="27" ry="18"/>
<text text-anchor="middle" x="830.84" y="-174.95" font-family="Times,serif" font-size="14.00">int</text>
</g>
<!-- 33&#45;&gt;34 -->
<g id="edge14" class="edge">
<title>33&#45;&gt;34</title>
<path fill="none" stroke="black" d="M500.63,-180C593.58,-180 727.88,-180 792.43,-180"/>
<polygon fill="black" stroke="black" points="792.13,-183.5 802.13,-180 792.13,-176.5 792.13,-183.5"/>
</g>
<!-- 36 -->
<!-- name: &quot;bool&quot;, typeName: &quot;&quot;, id: 36, branchId: 0, recurseId: &#45;1, attributes: 512, notes: &quot;&quot; -->
<g id="node17" class="node">
<title>36</title>
<ellipse fill="none" stroke="black" cx="830.84" cy="-126" rx="27.3" ry="18"/>
<text text-anchor="middle" x="830.84" y="-120.95" font-family="Times,serif" font-size="14.00">bool</text>
</g>
<!-- 35&#45;&gt;36 -->
<g id="edge16" class="edge">
<title>35&#45;&gt;36</title>
<path fill="none" stroke="black" d="M428.36,-126C501.47,-126 706.52,-126 791.84,-126"/>
<polygon fill="black" stroke="black" points="791.79,-129.5 801.79,-126 791.79,-122.5 791.79,-129.5"/>
</g>
<!-- 50 -->
<!-- name: &quot;std::optional&lt;struct BiomeTagsData&gt;&quot;, typeName: &quot;&quot;, id: 50, branchId: 0, recurseId: &#45;1, attributes: 512, notes: &quot;&quot; -->
<g id="node19" class="node">
<title>50</title>
<ellipse fill="none" stroke="black" cx="830.84" cy="-72" rx="151.67" ry="18"/>
<text text-anchor="middle" x="830.84" y="-66.95" font-family="Times,serif" font-size="14.00">std::optional&lt;struct BiomeTagsData&gt;</text>
</g>
<!-- 37&#45;&gt;50 -->
<g id="edge18" class="edge">
<title>37&#45;&gt;50</title>
<path fill="none" stroke="black" d="M428.36,-72C475.59,-72 577.87,-72 667.37,-72"/>
<polygon fill="black" stroke="black" points="667.27,-75.5 677.27,-72 667.27,-68.5 667.27,-75.5"/>
</g>
<!-- 368 -->
<!-- name: &quot;std::optional&lt;struct BiomeDefinitionChunkGenData&gt;&quot;, typeName: &quot;&quot;, id: 368, branchId: 0, recurseId: &#45;1, attributes: 512, notes: &quot;&quot; -->
<g id="node21" class="node">
<title>368</title>
<ellipse fill="none" stroke="black" cx="830.84" cy="-18" rx="211.55" ry="18"/>
<text text-anchor="middle" x="830.84" y="-12.95" font-family="Times,serif" font-size="14.00">std::optional&lt;struct BiomeDefinitionChunkGenData&gt;</text>
</g>
<!-- 51&#45;&gt;368 -->
<g id="edge20" class="edge">
<title>51&#45;&gt;368</title>
<path fill="none" stroke="black" d="M468.31,-18C506.48,-18 556.85,-18 607.84,-18"/>
<polygon fill="black" stroke="black" points="607.56,-21.5 617.56,-18 607.56,-14.5 607.56,-21.5"/>
</g>
</g>
</svg>
