<svg width="584px" height="206px"
 viewBox="0.00 0.00 583.62 206.00" xmlns="http://www.w3.org/2000/svg" xmlns:xlink="http://www.w3.org/1999/xlink">
<g id="graph0" class="graph" transform="scale(1.0 1.0) rotate(0.0) translate(4.0 202.0)">
<title>CameraInstruction::FovInstruction</title>
<polygon fill="white" stroke="none" points="-4,4 -4,-202 579.62,-202 579.62,4 -4,4"/>
<!-- 150 -->
<!-- name: &quot;CameraInstruction::FovInstruction&quot;, typeName: &quot;&quot;, id: 150, branchId: 0, recurseId: &#45;1, attributes: 0, notes: &quot;&quot; -->
<g id="node1" class="node">
<title>150</title>
<ellipse fill="none" stroke="black" cx="139.38" cy="-99" rx="139.38" ry="18"/>
<text text-anchor="middle" x="139.38" y="-93.95" font-family="Times,serif" font-size="14.00">CameraInstruction::FovInstruction</text>
</g>
<!-- 151 -->
<!-- name: &quot;Field of View&quot;, typeName: &quot;&quot;, id: 151, branchId: 0, recurseId: &#45;1, attributes: 0, notes: &quot;&quot; -->
<g id="node2" class="node">
<title>151</title>
<ellipse fill="none" stroke="black" cx="399.38" cy="-180" rx="62.1" ry="18"/>
<text text-anchor="middle" x="399.38" y="-174.95" font-family="Times,serif" font-size="14.00">Field of View</text>
</g>
<!-- 150&#45;&gt;151 -->
<g id="edge1" class="edge">
<title>150&#45;&gt;151</title>
<path fill="none" stroke="black" d="M194.47,-115.98C238.88,-129.92 301.41,-149.55 345.49,-163.39"/>
<polygon fill="black" stroke="black" points="344.24,-166.67 354.83,-166.33 346.34,-159.99 344.24,-166.67"/>
</g>
<!-- 153 -->
<!-- name: &quot;FOV Ease Time&quot;, typeName: &quot;&quot;, id: 153, branchId: 0, recurseId: &#45;1, attributes: 0, notes: &quot;&quot; -->
<g id="node4" class="node">
<title>153</title>
<ellipse fill="none" stroke="black" cx="399.38" cy="-126" rx="70.8" ry="18"/>
<text text-anchor="middle" x="399.38" y="-120.95" font-family="Times,serif" font-size="14.00">FOV Ease Time</text>
</g>
<!-- 150&#45;&gt;153 -->
<g id="edge3" class="edge">
<title>150&#45;&gt;153</title>
<path fill="none" stroke="black" d="M249.42,-110.41C273.9,-112.97 299.35,-115.64 322.15,-118.02"/>
<polygon fill="black" stroke="black" points="321.64,-121.49 331.95,-119.05 322.37,-114.53 321.64,-121.49"/>
</g>
<!-- 155 -->
<!-- name: &quot;FOV Ease Type&quot;, typeName: &quot;&quot;, id: 155, branchId: 0, recurseId: &#45;1, attributes: 0, notes: &quot;&quot; -->
<g id="node6" class="node">
<title>155</title>
<ellipse fill="none" stroke="black" cx="399.38" cy="-72" rx="69.78" ry="18"/>
<text text-anchor="middle" x="399.38" y="-66.95" font-family="Times,serif" font-size="14.00">FOV Ease Type</text>
</g>
<!-- 150&#45;&gt;155 -->
<g id="edge5" class="edge">
<title>150&#45;&gt;155</title>
<path fill="none" stroke="black" d="M249.42,-87.59C274.13,-85 299.84,-82.31 322.8,-79.91"/>
<polygon fill="black" stroke="black" points="323.1,-83.4 332.68,-78.88 322.37,-76.44 323.1,-83.4"/>
</g>
<!-- 157 -->
<!-- name: &quot;Field of View Clear&quot;, typeName: &quot;bool&quot;, id: 157, branchId: 0, recurseId: &#45;1, attributes: 256, notes: &quot;&quot; -->
<g id="node8" class="node">
<title>157</title>
<ellipse fill="none" stroke="black" cx="399.38" cy="-18" rx="84.62" ry="18"/>
<text text-anchor="middle" x="399.38" y="-12.95" font-family="Times,serif" font-size="14.00">Field of View Clear</text>
</g>
<!-- 150&#45;&gt;157 -->
<g id="edge7" class="edge">
<title>150&#45;&gt;157</title>
<path fill="none" stroke="black" d="M194.47,-82.02C236.97,-68.68 296.07,-50.12 339.71,-36.42"/>
<polygon fill="black" stroke="black" points="340.51,-39.84 349.01,-33.5 338.42,-33.16 340.51,-39.84"/>
</g>
<!-- 152 -->
<!-- name: &quot;float&quot;, typeName: &quot;&quot;, id: 152, branchId: 0, recurseId: &#45;1, attributes: 512, notes: &quot;&quot; -->
<g id="node3" class="node">
<title>152</title>
<ellipse fill="none" stroke="black" cx="547.81" cy="-180" rx="27.81" ry="18"/>
<text text-anchor="middle" x="547.81" y="-174.95" font-family="Times,serif" font-size="14.00">float</text>
</g>
<!-- 151&#45;&gt;152 -->
<g id="edge2" class="edge">
<title>151&#45;&gt;152</title>
<path fill="none" stroke="black" d="M461.63,-180C477.43,-180 493.99,-180 508.26,-180"/>
<polygon fill="black" stroke="black" points="508.14,-183.5 518.14,-180 508.14,-176.5 508.14,-183.5"/>
</g>
<!-- 154 -->
<!-- name: &quot;float&quot;, typeName: &quot;&quot;, id: 154, branchId: 0, recurseId: &#45;1, attributes: 512, notes: &quot;&quot; -->
<g id="node5" class="node">
<title>154</title>
<ellipse fill="none" stroke="black" cx="547.81" cy="-126" rx="27.81" ry="18"/>
<text text-anchor="middle" x="547.81" y="-120.95" font-family="Times,serif" font-size="14.00">float</text>
</g>
<!-- 153&#45;&gt;154 -->
<g id="edge4" class="edge">
<title>153&#45;&gt;154</title>
<path fill="none" stroke="black" d="M470.6,-126C483.56,-126 496.65,-126 508.24,-126"/>
<polygon fill="black" stroke="black" points="508.19,-129.5 518.19,-126 508.19,-122.5 508.19,-129.5"/>
</g>
<!-- 156 -->
<!-- name: &quot;byte&quot;, typeName: &quot;&quot;, id: 156, branchId: 0, recurseId: &#45;1, attributes: 512, notes: &quot;&quot; -->
<g id="node7" class="node">
<title>156</title>
<ellipse fill="none" stroke="black" cx="547.81" cy="-72" rx="27" ry="18"/>
<text text-anchor="middle" x="547.81" y="-66.95" font-family="Times,serif" font-size="14.00">byte</text>
</g>
<!-- 155&#45;&gt;156 -->
<g id="edge6" class="edge">
<title>155&#45;&gt;156</title>
<path fill="none" stroke="black" d="M469.31,-72C483.14,-72 497.17,-72 509.43,-72"/>
<polygon fill="black" stroke="black" points="509.05,-75.5 519.05,-72 509.05,-68.5 509.05,-75.5"/>
</g>
<!-- 158 -->
<!-- name: &quot;bool&quot;, typeName: &quot;&quot;, id: 158, branchId: 0, recurseId: &#45;1, attributes: 512, notes: &quot;&quot; -->
<g id="node9" class="node">
<title>158</title>
<ellipse fill="none" stroke="black" cx="547.81" cy="-18" rx="27.3" ry="18"/>
<text text-anchor="middle" x="547.81" y="-12.95" font-family="Times,serif" font-size="14.00">bool</text>
</g>
<!-- 157&#45;&gt;158 -->
<g id="edge8" class="edge">
<title>157&#45;&gt;158</title>
<path fill="none" stroke="black" d="M484.29,-18C492.84,-18 501.2,-18 508.87,-18"/>
<polygon fill="black" stroke="black" points="508.79,-21.5 518.79,-18 508.79,-14.5 508.79,-21.5"/>
</g>
</g>
</svg>
