<svg width="494px" height="260px"
 viewBox="0.00 0.00 493.54 260.00" xmlns="http://www.w3.org/2000/svg" xmlns:xlink="http://www.w3.org/1999/xlink">
<g id="graph0" class="graph" transform="scale(1.0 1.0) rotate(0.0) translate(4.0 256.0)">
<title>ItemData</title>
<polygon fill="white" stroke="none" points="-4,4 -4,-256 489.54,-256 489.54,4 -4,4"/>
<!-- 180 -->
<!-- name: &quot;ItemData&quot;, typeName: &quot;&quot;, id: 180, branchId: 0, recurseId: &#45;1, attributes: 0, notes: &quot;&quot; -->
<g id="node1" class="node">
<title>180</title>
<ellipse fill="none" stroke="black" cx="45.72" cy="-126" rx="45.72" ry="18"/>
<text text-anchor="middle" x="45.72" y="-120.95" font-family="Times,serif" font-size="14.00">ItemData</text>
</g>
<!-- 181 -->
<!-- name: &quot;Item Name&quot;, typeName: &quot;&quot;, id: 181, branchId: 0, recurseId: &#45;1, attributes: 0, notes: &quot;&quot; -->
<g id="node2" class="node">
<title>181</title>
<ellipse fill="none" stroke="black" cx="221.79" cy="-234" rx="53.4" ry="18"/>
<text text-anchor="middle" x="221.79" y="-228.95" font-family="Times,serif" font-size="14.00">Item Name</text>
</g>
<!-- 180&#45;&gt;181 -->
<g id="edge1" class="edge">
<title>180&#45;&gt;181</title>
<path fill="none" stroke="black" d="M59.65,-143.44C74.18,-161.84 99.42,-190.42 127.44,-207 138.45,-213.51 151.12,-218.53 163.5,-222.38"/>
<polygon fill="black" stroke="black" points="162.23,-225.66 172.81,-225.05 164.16,-218.93 162.23,-225.66"/>
</g>
<!-- 183 -->
<!-- name: &quot;Item Id&quot;, typeName: &quot;&quot;, id: 183, branchId: 0, recurseId: &#45;1, attributes: 0, notes: &quot;Block id&#39;s &lt; 256 (can be negative); Item id&#39;s &gt; 257&quot; -->
<g id="node4" class="node">
<title>183</title>
<ellipse fill="none" stroke="black" cx="221.79" cy="-180" rx="38.56" ry="18"/>
<text text-anchor="middle" x="221.79" y="-174.95" font-family="Times,serif" font-size="14.00">Item Id</text>
</g>
<!-- 180&#45;&gt;183 -->
<g id="edge3" class="edge">
<title>180&#45;&gt;183</title>
<path fill="none" stroke="black" d="M80.79,-137.74C95.15,-142.6 112.07,-148.21 127.44,-153 143.64,-158.05 161.52,-163.3 177.26,-167.81"/>
<polygon fill="black" stroke="black" points="176.26,-171.17 186.83,-170.54 178.18,-164.43 176.26,-171.17"/>
</g>
<!-- 185 -->
<!-- name: &quot;Is Component Based&quot;, typeName: &quot;&quot;, id: 185, branchId: 0, recurseId: &#45;1, attributes: 0, notes: &quot;&quot; -->
<g id="node6" class="node">
<title>185</title>
<ellipse fill="none" stroke="black" cx="221.79" cy="-126" rx="88.71" ry="18"/>
<text text-anchor="middle" x="221.79" y="-120.95" font-family="Times,serif" font-size="14.00">Is Component Based</text>
</g>
<!-- 180&#45;&gt;185 -->
<g id="edge5" class="edge">
<title>180&#45;&gt;185</title>
<path fill="none" stroke="black" d="M91.55,-126C100.87,-126 111.04,-126 121.45,-126"/>
<polygon fill="black" stroke="black" points="121.3,-129.5 131.3,-126 121.3,-122.5 121.3,-129.5"/>
</g>
<!-- 99 -->
<!-- name: &quot;Item Version&quot;, typeName: &quot;&quot;, id: 99, branchId: 0, recurseId: &#45;1, attributes: 512, notes: &quot;&quot; -->
<g id="node8" class="node">
<title>99</title>
<ellipse fill="none" stroke="black" cx="221.79" cy="-72" rx="58.52" ry="18"/>
<text text-anchor="middle" x="221.79" y="-66.95" font-family="Times,serif" font-size="14.00">Item Version</text>
</g>
<!-- 180&#45;&gt;99 -->
<g id="edge7" class="edge">
<title>180&#45;&gt;99</title>
<path fill="none" stroke="black" d="M80.79,-114.26C95.15,-109.4 112.07,-103.79 127.44,-99 140.02,-95.08 153.62,-91.04 166.44,-87.31"/>
<polygon fill="black" stroke="black" points="167.36,-90.69 176,-84.55 165.42,-83.96 167.36,-90.69"/>
</g>
<!-- 101 -->
<!-- name: &quot;Item Component Data&quot;, typeName: &quot;&quot;, id: 101, branchId: 0, recurseId: &#45;1, attributes: 512, notes: &quot;&quot; -->
<g id="node10" class="node">
<title>101</title>
<ellipse fill="none" stroke="black" cx="221.79" cy="-18" rx="94.34" ry="18"/>
<text text-anchor="middle" x="221.79" y="-12.95" font-family="Times,serif" font-size="14.00">Item Component Data</text>
</g>
<!-- 180&#45;&gt;101 -->
<g id="edge9" class="edge">
<title>180&#45;&gt;101</title>
<path fill="none" stroke="black" d="M59.65,-108.56C74.18,-90.16 99.42,-61.58 127.44,-45 133.54,-41.39 140.15,-38.24 146.94,-35.49"/>
<polygon fill="black" stroke="black" points="148.13,-38.79 156.29,-32.03 145.7,-32.22 148.13,-38.79"/>
</g>
<!-- 182 -->
<!-- name: &quot;string&quot;, typeName: &quot;&quot;, id: 182, branchId: 0, recurseId: &#45;1, attributes: 512, notes: &quot;&quot; -->
<g id="node3" class="node">
<title>182</title>
<ellipse fill="none" stroke="black" cx="418.84" cy="-234" rx="31.9" ry="18"/>
<text text-anchor="middle" x="418.84" y="-228.95" font-family="Times,serif" font-size="14.00">string</text>
</g>
<!-- 181&#45;&gt;182 -->
<g id="edge2" class="edge">
<title>181&#45;&gt;182</title>
<path fill="none" stroke="black" d="M275.57,-234C306.8,-234 345.86,-234 375.14,-234"/>
<polygon fill="black" stroke="black" points="375.13,-237.5 385.13,-234 375.13,-230.5 375.13,-237.5"/>
</g>
<!-- 184 -->
<!-- name: &quot;short&quot;, typeName: &quot;&quot;, id: 184, branchId: 0, recurseId: &#45;1, attributes: 512, notes: &quot;&quot; -->
<g id="node5" class="node">
<title>184</title>
<ellipse fill="none" stroke="black" cx="418.84" cy="-180" rx="29.34" ry="18"/>
<text text-anchor="middle" x="418.84" y="-174.95" font-family="Times,serif" font-size="14.00">short</text>
</g>
<!-- 183&#45;&gt;184 -->
<g id="edge4" class="edge">
<title>183&#45;&gt;184</title>
<path fill="none" stroke="black" d="M260.39,-180C294.06,-180 343.29,-180 377.71,-180"/>
<polygon fill="black" stroke="black" points="377.7,-183.5 387.7,-180 377.7,-176.5 377.7,-183.5"/>
</g>
<!-- 186 -->
<!-- name: &quot;bool&quot;, typeName: &quot;&quot;, id: 186, branchId: 0, recurseId: &#45;1, attributes: 512, notes: &quot;&quot; -->
<g id="node7" class="node">
<title>186</title>
<ellipse fill="none" stroke="black" cx="418.84" cy="-126" rx="27.3" ry="18"/>
<text text-anchor="middle" x="418.84" y="-120.95" font-family="Times,serif" font-size="14.00">bool</text>
</g>
<!-- 185&#45;&gt;186 -->
<g id="edge6" class="edge">
<title>185&#45;&gt;186</title>
<path fill="none" stroke="black" d="M310.9,-126C335.25,-126 360.41,-126 380.19,-126"/>
<polygon fill="black" stroke="black" points="379.95,-129.5 389.95,-126 379.95,-122.5 379.95,-129.5"/>
</g>
<!-- 100 -->
<!-- name: &quot;varint&quot;, typeName: &quot;&quot;, id: 100, branchId: 0, recurseId: &#45;1, attributes: 512, notes: &quot;&quot; -->
<g id="node9" class="node">
<title>100</title>
<ellipse fill="none" stroke="black" cx="418.84" cy="-72" rx="32.41" ry="18"/>
<text text-anchor="middle" x="418.84" y="-66.95" font-family="Times,serif" font-size="14.00">varint</text>
</g>
<!-- 99&#45;&gt;100 -->
<g id="edge8" class="edge">
<title>99&#45;&gt;100</title>
<path fill="none" stroke="black" d="M280.78,-72C310.94,-72 347.18,-72 374.82,-72"/>
<polygon fill="black" stroke="black" points="374.58,-75.5 384.58,-72 374.58,-68.5 374.58,-75.5"/>
</g>
<!-- 102 -->
<!-- name: &quot;CompoundTag&quot;, typeName: &quot;&quot;, id: 102, branchId: 0, recurseId: &#45;1, attributes: 512, notes: &quot;&quot; -->
<g id="node11" class="node">
<title>102</title>
<ellipse fill="none" stroke="black" cx="418.84" cy="-18" rx="66.71" ry="18"/>
<text text-anchor="middle" x="418.84" y="-12.95" font-family="Times,serif" font-size="14.00">CompoundTag</text>
</g>
<!-- 101&#45;&gt;102 -->
<g id="edge10" class="edge">
<title>101&#45;&gt;102</title>
<path fill="none" stroke="black" d="M316.6,-18C324.6,-18 332.63,-18 340.48,-18"/>
<polygon fill="black" stroke="black" points="340.31,-21.5 350.31,-18 340.31,-14.5 340.31,-21.5"/>
</g>
</g>
</svg>
