<svg width="482px" height="260px"
 viewBox="0.00 0.00 482.28 260.00" xmlns="http://www.w3.org/2000/svg" xmlns:xlink="http://www.w3.org/1999/xlink">
<g id="graph0" class="graph" transform="scale(1.0 1.0) rotate(0.0) translate(4.0 256.0)">
<title>ItemData</title>
<polygon fill="white" stroke="none" points="-4,4 -4,-256 478.28,-256 478.28,4 -4,4"/>
<!-- 180 -->
<!-- name: &quot;ItemData&quot;, typeName: &quot;&quot;, id: 180, branchId: 0, recurseId: &#45;1, attributes: 0, notes: &quot;&quot; -->
<g id="node1" class="node">
<title>180</title>
<ellipse fill="none" stroke="black" cx="45.72" cy="-126" rx="45.72" ry="18"/>
<text text-anchor="middle" x="45.72" y="-120.95" font-family="Times,serif" font-size="14.00">ItemData</text>
</g>
<!-- 181 -->
<!-- name: &quot;Item Name&quot;, typeName: &quot;&quot;, id: 181, branchId: 0, recurseId: &#45;1, attributes: 0, notes: &quot;&quot; -->
<g id="node2" class="node">
<title>181</title>
<ellipse fill="none" stroke="black" cx="216.16" cy="-234" rx="53.4" ry="18"/>
<text text-anchor="middle" x="216.16" y="-228.95" font-family="Times,serif" font-size="14.00">Item Name</text>
</g>
<!-- 180&#45;&gt;181 -->
<g id="edge1" class="edge">
<title>180&#45;&gt;181</title>
<path fill="none" stroke="black" d="M59.7,-143.35C74.28,-161.67 99.56,-190.18 127.44,-207 137.16,-212.86 148.27,-217.56 159.23,-221.27"/>
<polygon fill="black" stroke="black" points="158.06,-224.57 168.65,-224.22 160.15,-217.89 158.06,-224.57"/>
</g>
<!-- 183 -->
<!-- name: &quot;Item Id&quot;, typeName: &quot;&quot;, id: 183, branchId: 0, recurseId: &#45;1, attributes: 0, notes: &quot;Block id&#39;s &lt; 256 (can be negative); Item id&#39;s &gt; 257&quot; -->
<g id="node4" class="node">
<title>183</title>
<ellipse fill="none" stroke="black" cx="216.16" cy="-180" rx="38.56" ry="18"/>
<text text-anchor="middle" x="216.16" y="-174.95" font-family="Times,serif" font-size="14.00">Item Id</text>
</g>
<!-- 180&#45;&gt;183 -->
<g id="edge3" class="edge">
<title>180&#45;&gt;183</title>
<path fill="none" stroke="black" d="M81.23,-137.75C95.51,-142.55 112.25,-148.12 127.44,-153 141.93,-157.65 157.81,-162.59 172.03,-166.95"/>
<polygon fill="black" stroke="black" points="170.99,-170.29 181.57,-169.87 173.03,-163.6 170.99,-170.29"/>
</g>
<!-- 185 -->
<!-- name: &quot;Is Component Based&quot;, typeName: &quot;&quot;, id: 185, branchId: 0, recurseId: &#45;1, attributes: 0, notes: &quot;&quot; -->
<g id="node6" class="node">
<title>185</title>
<ellipse fill="none" stroke="black" cx="216.16" cy="-126" rx="88.71" ry="18"/>
<text text-anchor="middle" x="216.16" y="-120.95" font-family="Times,serif" font-size="14.00">Is Component Based</text>
</g>
<!-- 180&#45;&gt;185 -->
<g id="edge5" class="edge">
<title>180&#45;&gt;185</title>
<path fill="none" stroke="black" d="M91.86,-126C99.36,-126 107.4,-126 115.63,-126"/>
<polygon fill="black" stroke="black" points="115.45,-129.5 125.45,-126 115.45,-122.5 115.45,-129.5"/>
</g>
<!-- 99 -->
<!-- name: &quot;Item Version&quot;, typeName: &quot;&quot;, id: 99, branchId: 0, recurseId: &#45;1, attributes: 512, notes: &quot;&quot; -->
<g id="node8" class="node">
<title>99</title>
<ellipse fill="none" stroke="black" cx="216.16" cy="-72" rx="58.52" ry="18"/>
<text text-anchor="middle" x="216.16" y="-66.95" font-family="Times,serif" font-size="14.00">Item Version</text>
</g>
<!-- 180&#45;&gt;99 -->
<g id="edge7" class="edge">
<title>180&#45;&gt;99</title>
<path fill="none" stroke="black" d="M81.23,-114.25C95.51,-109.45 112.25,-103.88 127.44,-99 138.82,-95.35 151.07,-91.51 162.69,-87.92"/>
<polygon fill="black" stroke="black" points="163.62,-91.3 172.15,-85.01 161.56,-84.61 163.62,-91.3"/>
</g>
<!-- 101 -->
<!-- name: &quot;Components&quot;, typeName: &quot;&quot;, id: 101, branchId: 0, recurseId: &#45;1, attributes: 512, notes: &quot;&quot; -->
<g id="node10" class="node">
<title>101</title>
<ellipse fill="none" stroke="black" cx="216.16" cy="-18" rx="58" ry="18"/>
<text text-anchor="middle" x="216.16" y="-12.95" font-family="Times,serif" font-size="14.00">Components</text>
</g>
<!-- 180&#45;&gt;101 -->
<g id="edge9" class="edge">
<title>180&#45;&gt;101</title>
<path fill="none" stroke="black" d="M59.7,-108.65C74.28,-90.33 99.56,-61.82 127.44,-45 136.36,-39.62 146.44,-35.23 156.51,-31.67"/>
<polygon fill="black" stroke="black" points="157.51,-35.02 165.94,-28.6 155.35,-28.37 157.51,-35.02"/>
</g>
<!-- 182 -->
<!-- name: &quot;string&quot;, typeName: &quot;&quot;, id: 182, branchId: 0, recurseId: &#45;1, attributes: 512, notes: &quot;&quot; -->
<g id="node3" class="node">
<title>182</title>
<ellipse fill="none" stroke="black" cx="407.58" cy="-234" rx="31.9" ry="18"/>
<text text-anchor="middle" x="407.58" y="-228.95" font-family="Times,serif" font-size="14.00">string</text>
</g>
<!-- 181&#45;&gt;182 -->
<g id="edge2" class="edge">
<title>181&#45;&gt;182</title>
<path fill="none" stroke="black" d="M269.92,-234C299.61,-234 336.2,-234 364.04,-234"/>
<polygon fill="black" stroke="black" points="363.88,-237.5 373.88,-234 363.88,-230.5 363.88,-237.5"/>
</g>
<!-- 184 -->
<!-- name: &quot;short&quot;, typeName: &quot;&quot;, id: 184, branchId: 0, recurseId: &#45;1, attributes: 512, notes: &quot;&quot; -->
<g id="node5" class="node">
<title>184</title>
<ellipse fill="none" stroke="black" cx="407.58" cy="-180" rx="29.34" ry="18"/>
<text text-anchor="middle" x="407.58" y="-174.95" font-family="Times,serif" font-size="14.00">short</text>
</g>
<!-- 183&#45;&gt;184 -->
<g id="edge4" class="edge">
<title>183&#45;&gt;184</title>
<path fill="none" stroke="black" d="M255.03,-180C287.24,-180 333.38,-180 366.26,-180"/>
<polygon fill="black" stroke="black" points="366.22,-183.5 376.22,-180 366.22,-176.5 366.22,-183.5"/>
</g>
<!-- 186 -->
<!-- name: &quot;bool&quot;, typeName: &quot;&quot;, id: 186, branchId: 0, recurseId: &#45;1, attributes: 512, notes: &quot;&quot; -->
<g id="node7" class="node">
<title>186</title>
<ellipse fill="none" stroke="black" cx="407.58" cy="-126" rx="27.3" ry="18"/>
<text text-anchor="middle" x="407.58" y="-120.95" font-family="Times,serif" font-size="14.00">bool</text>
</g>
<!-- 185&#45;&gt;186 -->
<g id="edge6" class="edge">
<title>185&#45;&gt;186</title>
<path fill="none" stroke="black" d="M305.21,-126C327.56,-126 350.41,-126 368.74,-126"/>
<polygon fill="black" stroke="black" points="368.57,-129.5 378.57,-126 368.57,-122.5 368.57,-129.5"/>
</g>
<!-- 100 -->
<!-- name: &quot;varint&quot;, typeName: &quot;&quot;, id: 100, branchId: 0, recurseId: &#45;1, attributes: 512, notes: &quot;&quot; -->
<g id="node9" class="node">
<title>100</title>
<ellipse fill="none" stroke="black" cx="407.58" cy="-72" rx="32.41" ry="18"/>
<text text-anchor="middle" x="407.58" y="-66.95" font-family="Times,serif" font-size="14.00">varint</text>
</g>
<!-- 99&#45;&gt;100 -->
<g id="edge8" class="edge">
<title>99&#45;&gt;100</title>
<path fill="none" stroke="black" d="M275.02,-72C303.51,-72 337.28,-72 363.46,-72"/>
<polygon fill="black" stroke="black" points="363.4,-75.5 373.4,-72 363.4,-68.5 363.4,-75.5"/>
</g>
<!-- 102 -->
<!-- name: &quot;CompoundTag&quot;, typeName: &quot;&quot;, id: 102, branchId: 0, recurseId: &#45;1, attributes: 512, notes: &quot;&quot; -->
<g id="node11" class="node">
<title>102</title>
<ellipse fill="none" stroke="black" cx="407.58" cy="-18" rx="66.71" ry="18"/>
<text text-anchor="middle" x="407.58" y="-12.95" font-family="Times,serif" font-size="14.00">CompoundTag</text>
</g>
<!-- 101&#45;&gt;102 -->
<g id="edge10" class="edge">
<title>101&#45;&gt;102</title>
<path fill="none" stroke="black" d="M274.5,-18C291.64,-18 310.73,-18 328.95,-18"/>
<polygon fill="black" stroke="black" points="328.94,-21.5 338.94,-18 328.94,-14.5 328.94,-21.5"/>
</g>
</g>
</svg>
