<svg width="895px" height="98px"
 viewBox="0.00 0.00 894.80 98.00" xmlns="http://www.w3.org/2000/svg" xmlns:xlink="http://www.w3.org/1999/xlink">
<g id="graph0" class="graph" transform="scale(1.0 1.0) rotate(0.0) translate(4.0 94.0)">
<title>ClientCameraAimAssistPacket</title>
<polygon fill="white" stroke="none" points="-4,4 -4,-94 890.8,-94 890.8,4 -4,4"/>
<!-- 0 -->
<!-- name: &quot;SharedTypes::v1_21_60::CraftingCatalogGroupIdentifier&quot;, typeName: &quot;&quot;, id: 0, branchId: 78, recurseId: &#45;1, attributes: 0, notes: &quot;&quot; -->
<g id="node1" class="node">
<title>0</title>
<ellipse fill="none" stroke="black" cx="223.32" cy="-45" rx="223.32" ry="18"/>
<text text-anchor="middle" x="223.32" y="-39.95" font-family="Times,serif" font-size="14.00">SharedTypes::v1_21_60::CraftingCatalogGroupIdentifier</text>
</g>
<!-- 1 -->
<!-- name: &quot;Name&quot;, typeName: &quot;&quot;, id: 1, branchId: 0, recurseId: &#45;1, attributes: 0, notes: &quot;&quot; -->
<g id="node2" class="node">
<title>1</title>
<ellipse fill="none" stroke="black" cx="516.08" cy="-72" rx="33.44" ry="18"/>
<text text-anchor="middle" x="516.08" y="-66.95" font-family="Times,serif" font-size="14.00">Name</text>
</g>
<!-- 0&#45;&gt;1 -->
<g id="edge1" class="edge">
<title>0&#45;&gt;1</title>
<path fill="none" stroke="black" d="M372.68,-58.78C408.9,-62.14 444.87,-65.48 471.6,-67.96"/>
<polygon fill="black" stroke="black" points="471.04,-71.43 481.32,-68.87 471.69,-64.46 471.04,-71.43"/>
</g>
<!-- 3 -->
<!-- name: &quot;Icon&quot;, typeName: &quot;&quot;, id: 1, branchId: 0, recurseId: &#45;1, attributes: 0, notes: &quot;&quot; -->
<g id="node4" class="node">
<title>3</title>
<ellipse fill="none" stroke="black" cx="516.08" cy="-18" rx="27.3" ry="18"/>
<text text-anchor="middle" x="516.08" y="-12.95" font-family="Times,serif" font-size="14.00">Icon</text>
</g>
<!-- 0&#45;&gt;3 -->
<g id="edge3" class="edge">
<title>0&#45;&gt;3</title>
<path fill="none" stroke="black" d="M372.68,-31.22C411.58,-27.61 450.2,-24.02 477.39,-21.5"/>
<polygon fill="black" stroke="black" points="477.53,-25 487.16,-20.59 476.88,-18.03 477.53,-25"/>
</g>
<!-- 2 -->
<!-- name: &quot;string&quot;, typeName: &quot;&quot;, id: 2, branchId: 0, recurseId: &#45;1, attributes: 512, notes: &quot;&quot; -->
<g id="node3" class="node">
<title>2</title>
<ellipse fill="none" stroke="black" cx="736.16" cy="-72" rx="31.9" ry="18"/>
<text text-anchor="middle" x="736.16" y="-66.95" font-family="Times,serif" font-size="14.00">string</text>
</g>
<!-- 1&#45;&gt;2 -->
<g id="edge2" class="edge">
<title>1&#45;&gt;2</title>
<path fill="none" stroke="black" d="M549.72,-72C587.77,-72 650.74,-72 692.58,-72"/>
<polygon fill="black" stroke="black" points="692.54,-75.5 702.54,-72 692.54,-68.5 692.54,-75.5"/>
</g>
<!-- 4 -->
<!-- name: &quot;NetworkItemStackInstanceDescriptor&quot;, typeName: &quot;&quot;, id: 1, branchId: 0, recurseId: &#45;1, attributes: 0, notes: &quot;&quot; -->
<g id="node5" class="node">
<title>4</title>
<ellipse fill="none" stroke="black" cx="736.16" cy="-18" rx="150.64" ry="18"/>
<text text-anchor="middle" x="736.16" y="-12.95" font-family="Times,serif" font-size="14.00">NetworkItemStackInstanceDescriptor</text>
</g>
<!-- 3&#45;&gt;4 -->
<g id="edge4" class="edge">
<title>3&#45;&gt;4</title>
<path fill="none" stroke="black" d="M543.82,-18C552.52,-18 562.9,-18 574.26,-18"/>
<polygon fill="black" stroke="black" points="573.91,-21.5 583.91,-18 573.91,-14.5 573.91,-21.5"/>
</g>
</g>
</svg>
