<svg width="1817px" height="530px"
 viewBox="0.00 0.00 1817.08 530.00" xmlns="http://www.w3.org/2000/svg" xmlns:xlink="http://www.w3.org/1999/xlink">
<g id="graph0" class="graph" transform="scale(1.0 1.0) rotate(0.0) translate(4.0 526.0)">
<title>SharedTypes::v1_21_50::CameraAimAssistPresetDefinition</title>
<polygon fill="white" stroke="none" points="-4,4 -4,-526 1813.08,-526 1813.08,4 -4,4"/>
<!-- 55 -->
<!-- name: &quot;SharedTypes::v1_21_50::CameraAimAssistPresetDefinition&quot;, typeName: &quot;&quot;, id: 55, branchId: 0, recurseId: &#45;1, attributes: 0, notes: &quot;&quot; -->
<g id="node1" class="node">
<title>55</title>
<ellipse fill="none" stroke="black" cx="235.09" cy="-261" rx="235.09" ry="18"/>
<text text-anchor="middle" x="235.09" y="-255.95" font-family="Times,serif" font-size="14.00">SharedTypes::v1_21_50::CameraAimAssistPresetDefinition</text>
</g>
<!-- 56 -->
<!-- name: &quot;Identifier&quot;, typeName: &quot;&quot;, id: 56, branchId: 0, recurseId: &#45;1, attributes: 0, notes: &quot;&quot; -->
<g id="node2" class="node">
<title>56</title>
<ellipse fill="none" stroke="black" cx="954.7" cy="-504" rx="45.21" ry="18"/>
<text text-anchor="middle" x="954.7" y="-498.95" font-family="Times,serif" font-size="14.00">Identifier</text>
</g>
<!-- 55&#45;&gt;56 -->
<g id="edge1" class="edge">
<title>55&#45;&gt;56</title>
<path fill="none" stroke="black" d="M259.87,-279.38C305.12,-313.4 407.92,-386.05 506.18,-423 641.49,-473.88 812.15,-493.41 898.4,-500.41"/>
<polygon fill="black" stroke="black" points="897.99,-503.89 908.23,-501.18 898.54,-496.91 897.99,-503.89"/>
</g>
<!-- 60 -->
<!-- name: &quot;Exclusion List&quot;, typeName: &quot;&quot;, id: 60, branchId: 0, recurseId: &#45;1, attributes: 8, notes: &quot;&quot; -->
<g id="node4" class="node">
<title>60</title>
<ellipse fill="none" stroke="black" cx="596.94" cy="-396" rx="64.66" ry="18"/>
<text text-anchor="middle" x="596.94" y="-390.95" font-family="Times,serif" font-size="14.00">Exclusion List</text>
</g>
<!-- 55&#45;&gt;60 -->
<g id="edge3" class="edge">
<title>55&#45;&gt;60</title>
<path fill="none" stroke="black" d="M284.25,-279.07C352.69,-304.74 477.45,-351.55 546.56,-377.47"/>
<polygon fill="black" stroke="black" points="545.15,-380.68 555.74,-380.92 547.6,-374.13 545.15,-380.68"/>
</g>
<!-- 66 -->
<!-- name: &quot;Liquid Targeting List&quot;, typeName: &quot;&quot;, id: 66, branchId: 0, recurseId: &#45;1, attributes: 8, notes: &quot;&quot; -->
<g id="node10" class="node">
<title>66</title>
<ellipse fill="none" stroke="black" cx="596.94" cy="-288" rx="90.25" ry="18"/>
<text text-anchor="middle" x="596.94" y="-282.95" font-family="Times,serif" font-size="14.00">Liquid Targeting List</text>
</g>
<!-- 55&#45;&gt;66 -->
<g id="edge9" class="edge">
<title>55&#45;&gt;66</title>
<path fill="none" stroke="black" d="M405.74,-273.73C438.22,-276.17 471.15,-278.64 500.27,-280.82"/>
<polygon fill="black" stroke="black" points="499.92,-284.3 510.15,-281.56 500.44,-277.32 499.92,-284.3"/>
</g>
<!-- 72 -->
<!-- name: &quot;Item Settings&quot;, typeName: &quot;&quot;, id: 72, branchId: 0, recurseId: &#45;1, attributes: 8, notes: &quot;&quot; -->
<g id="node16" class="node">
<title>72</title>
<ellipse fill="none" stroke="black" cx="596.94" cy="-234" rx="60.56" ry="18"/>
<text text-anchor="middle" x="596.94" y="-228.95" font-family="Times,serif" font-size="14.00">Item Settings</text>
</g>
<!-- 55&#45;&gt;72 -->
<g id="edge15" class="edge">
<title>55&#45;&gt;72</title>
<path fill="none" stroke="black" d="M405.74,-248.27C448.45,-245.07 491.94,-241.8 526.53,-239.21"/>
<polygon fill="black" stroke="black" points="526.68,-242.71 536.39,-238.47 526.16,-235.73 526.68,-242.71"/>
</g>
<!-- 80 -->
<!-- name: &quot;Default Item Settings&quot;, typeName: &quot;std::optional&lt;class std::basic_string&lt;char,struct std::char_traits&lt;char&gt;,class std::allocator&lt;char&gt; &gt; &gt;&quot;, id: 80, branchId: 0, recurseId: &#45;1, attributes: 256, notes: &quot;&quot; -->
<g id="node24" class="node">
<title>80</title>
<ellipse fill="none" stroke="black" cx="596.94" cy="-153" rx="90.76" ry="18"/>
<text text-anchor="middle" x="596.94" y="-147.95" font-family="Times,serif" font-size="14.00">Default Item Settings</text>
</g>
<!-- 55&#45;&gt;80 -->
<g id="edge23" class="edge">
<title>55&#45;&gt;80</title>
<path fill="none" stroke="black" d="M295.51,-243.17C361.6,-223.33 467.84,-191.45 534.67,-171.39"/>
<polygon fill="black" stroke="black" points="535.43,-174.82 544,-168.59 533.41,-168.11 535.43,-174.82"/>
</g>
<!-- 82 -->
<!-- name: &quot;Hand Settings&quot;, typeName: &quot;std::optional&lt;class std::basic_string&lt;char,struct std::char_traits&lt;char&gt;,class std::allocator&lt;char&gt; &gt; &gt;&quot;, id: 82, branchId: 0, recurseId: &#45;1, attributes: 256, notes: &quot;&quot; -->
<g id="node26" class="node">
<title>82</title>
<ellipse fill="none" stroke="black" cx="596.94" cy="-45" rx="63.12" ry="18"/>
<text text-anchor="middle" x="596.94" y="-39.95" font-family="Times,serif" font-size="14.00">Hand Settings</text>
</g>
<!-- 55&#45;&gt;82 -->
<g id="edge25" class="edge">
<title>55&#45;&gt;82</title>
<path fill="none" stroke="black" d="M266.46,-242.77C332.33,-203.23 488.09,-109.74 559.29,-67"/>
<polygon fill="black" stroke="black" points="560.69,-70.24 567.46,-62.1 557.08,-64.24 560.69,-70.24"/>
</g>
<!-- 57 -->
<!-- name: &quot;string&quot;, typeName: &quot;&quot;, id: 57, branchId: 0, recurseId: &#45;1, attributes: 512, notes: &quot;&quot; -->
<g id="node3" class="node">
<title>57</title>
<ellipse fill="none" stroke="black" cx="1422.5" cy="-504" rx="31.9" ry="18"/>
<text text-anchor="middle" x="1422.5" y="-498.95" font-family="Times,serif" font-size="14.00">string</text>
</g>
<!-- 56&#45;&gt;57 -->
<g id="edge2" class="edge">
<title>56&#45;&gt;57</title>
<path fill="none" stroke="black" d="M1000.36,-504C1090.06,-504 1291,-504 1378.93,-504"/>
<polygon fill="black" stroke="black" points="1378.8,-507.5 1388.8,-504 1378.8,-500.5 1378.8,-507.5"/>
</g>
<!-- 61 -->
<!-- name: &quot;List Size&quot;, typeName: &quot;&quot;, id: 61, branchId: 0, recurseId: &#45;1, attributes: 0, notes: &quot;&quot; -->
<g id="node5" class="node">
<title>61</title>
<ellipse fill="none" stroke="black" cx="954.7" cy="-450" rx="43.67" ry="18"/>
<text text-anchor="middle" x="954.7" y="-444.95" font-family="Times,serif" font-size="14.00">List Size</text>
</g>
<!-- 60&#45;&gt;61 -->
<g id="edge4" class="edge">
<title>60&#45;&gt;61</title>
<path fill="none" stroke="black" d="M647.31,-407.73C670.42,-412.93 698.37,-418.8 723.7,-423 783.85,-432.96 853.45,-440.6 900.19,-445.17"/>
<polygon fill="black" stroke="black" points="899.77,-448.64 910.06,-446.12 900.44,-441.67 899.77,-448.64"/>
</g>
<!-- 63 -->
<!-- name: &quot;example element&quot;, typeName: &quot;&quot;, id: 63, branchId: 0, recurseId: &#45;1, attributes: 16, notes: &quot;&quot; -->
<g id="node7" class="node">
<title>63</title>
<ellipse fill="none" stroke="black" stroke-dasharray="1,5" cx="798.6" cy="-396" rx="74.89" ry="18"/>
<text text-anchor="middle" x="798.6" y="-390.95" font-family="Times,serif" font-size="14.00">example element</text>
</g>
<!-- 60&#45;&gt;63 -->
<g id="edge6" class="edge">
<title>60&#45;&gt;63</title>
<path fill="none" stroke="black" d="M661.94,-396C678.03,-396 695.56,-396 712.5,-396"/>
<polygon fill="black" stroke="black" points="712.02,-399.5 722.02,-396 712.02,-392.5 712.02,-399.5"/>
</g>
<!-- 62 -->
<!-- name: &quot;unsigned varint&quot;, typeName: &quot;&quot;, id: 62, branchId: 0, recurseId: &#45;1, attributes: 512, notes: &quot;&quot; -->
<g id="node6" class="node">
<title>62</title>
<ellipse fill="none" stroke="black" cx="1422.5" cy="-450" rx="68.24" ry="18"/>
<text text-anchor="middle" x="1422.5" y="-444.95" font-family="Times,serif" font-size="14.00">unsigned varint</text>
</g>
<!-- 61&#45;&gt;62 -->
<g id="edge5" class="edge">
<title>61&#45;&gt;62</title>
<path fill="none" stroke="black" d="M998.69,-450C1076.89,-450 1243.51,-450 1342.63,-450"/>
<polygon fill="black" stroke="black" points="1342.56,-453.5 1352.56,-450 1342.56,-446.5 1342.56,-453.5"/>
</g>
<!-- 64 -->
<!-- name: &quot;Block Id&quot;, typeName: &quot;&quot;, id: 64, branchId: 0, recurseId: &#45;1, attributes: 0, notes: &quot;&quot; -->
<g id="node8" class="node">
<title>64</title>
<ellipse fill="none" stroke="black" cx="954.7" cy="-396" rx="43.16" ry="18"/>
<text text-anchor="middle" x="954.7" y="-390.95" font-family="Times,serif" font-size="14.00">Block Id</text>
</g>
<!-- 63&#45;&gt;64 -->
<g id="edge7" class="edge">
<title>63&#45;&gt;64</title>
<path fill="none" stroke="black" d="M873.94,-396C882.62,-396 891.35,-396 899.69,-396"/>
<polygon fill="black" stroke="black" points="899.65,-399.5 909.65,-396 899.65,-392.5 899.65,-399.5"/>
</g>
<!-- 65 -->
<!-- name: &quot;string&quot;, typeName: &quot;&quot;, id: 65, branchId: 0, recurseId: &#45;1, attributes: 512, notes: &quot;&quot; -->
<g id="node9" class="node">
<title>65</title>
<ellipse fill="none" stroke="black" cx="1422.5" cy="-396" rx="31.9" ry="18"/>
<text text-anchor="middle" x="1422.5" y="-390.95" font-family="Times,serif" font-size="14.00">string</text>
</g>
<!-- 64&#45;&gt;65 -->
<g id="edge8" class="edge">
<title>64&#45;&gt;65</title>
<path fill="none" stroke="black" d="M998.27,-396C1086.84,-396 1290.07,-396 1378.77,-396"/>
<polygon fill="black" stroke="black" points="1378.74,-399.5 1388.74,-396 1378.74,-392.5 1378.74,-399.5"/>
</g>
<!-- 67 -->
<!-- name: &quot;List Size&quot;, typeName: &quot;&quot;, id: 67, branchId: 0, recurseId: &#45;1, attributes: 0, notes: &quot;&quot; -->
<g id="node11" class="node">
<title>67</title>
<ellipse fill="none" stroke="black" cx="798.6" cy="-342" rx="43.67" ry="18"/>
<text text-anchor="middle" x="798.6" y="-336.95" font-family="Times,serif" font-size="14.00">List Size</text>
</g>
<!-- 66&#45;&gt;67 -->
<g id="edge10" class="edge">
<title>66&#45;&gt;67</title>
<path fill="none" stroke="black" d="M651.97,-302.61C682.79,-310.95 721.06,-321.3 750.62,-329.3"/>
<polygon fill="black" stroke="black" points="749.47,-332.61 760.03,-331.84 751.3,-325.85 749.47,-332.61"/>
</g>
<!-- 69 -->
<!-- name: &quot;example element&quot;, typeName: &quot;&quot;, id: 69, branchId: 0, recurseId: &#45;1, attributes: 16, notes: &quot;&quot; -->
<g id="node13" class="node">
<title>69</title>
<ellipse fill="none" stroke="black" stroke-dasharray="1,5" cx="798.6" cy="-288" rx="74.89" ry="18"/>
<text text-anchor="middle" x="798.6" y="-282.95" font-family="Times,serif" font-size="14.00">example element</text>
</g>
<!-- 66&#45;&gt;69 -->
<g id="edge12" class="edge">
<title>66&#45;&gt;69</title>
<path fill="none" stroke="black" d="M687.55,-288C695.65,-288 703.85,-288 711.91,-288"/>
<polygon fill="black" stroke="black" points="711.7,-291.5 721.7,-288 711.7,-284.5 711.7,-291.5"/>
</g>
<!-- 68 -->
<!-- name: &quot;unsigned varint&quot;, typeName: &quot;&quot;, id: 68, branchId: 0, recurseId: &#45;1, attributes: 512, notes: &quot;&quot; -->
<g id="node12" class="node">
<title>68</title>
<ellipse fill="none" stroke="black" cx="1422.5" cy="-342" rx="68.24" ry="18"/>
<text text-anchor="middle" x="1422.5" y="-336.95" font-family="Times,serif" font-size="14.00">unsigned varint</text>
</g>
<!-- 67&#45;&gt;68 -->
<g id="edge11" class="edge">
<title>67&#45;&gt;68</title>
<path fill="none" stroke="black" d="M842.34,-342C945.54,-342 1209.56,-342 1342.5,-342"/>
<polygon fill="black" stroke="black" points="1342.27,-345.5 1352.27,-342 1342.27,-338.5 1342.27,-345.5"/>
</g>
<!-- 70 -->
<!-- name: &quot;Item Id&quot;, typeName: &quot;&quot;, id: 70, branchId: 0, recurseId: &#45;1, attributes: 0, notes: &quot;&quot; -->
<g id="node14" class="node">
<title>70</title>
<ellipse fill="none" stroke="black" cx="954.7" cy="-288" rx="38.56" ry="18"/>
<text text-anchor="middle" x="954.7" y="-282.95" font-family="Times,serif" font-size="14.00">Item Id</text>
</g>
<!-- 69&#45;&gt;70 -->
<g id="edge13" class="edge">
<title>69&#45;&gt;70</title>
<path fill="none" stroke="black" d="M873.94,-288C884.23,-288 894.58,-288 904.26,-288"/>
<polygon fill="black" stroke="black" points="904.17,-291.5 914.17,-288 904.17,-284.5 904.17,-291.5"/>
</g>
<!-- 71 -->
<!-- name: &quot;string&quot;, typeName: &quot;&quot;, id: 71, branchId: 0, recurseId: &#45;1, attributes: 512, notes: &quot;&quot; -->
<g id="node15" class="node">
<title>71</title>
<ellipse fill="none" stroke="black" cx="1422.5" cy="-288" rx="31.9" ry="18"/>
<text text-anchor="middle" x="1422.5" y="-282.95" font-family="Times,serif" font-size="14.00">string</text>
</g>
<!-- 70&#45;&gt;71 -->
<g id="edge14" class="edge">
<title>70&#45;&gt;71</title>
<path fill="none" stroke="black" d="M993.42,-288C1079.24,-288 1288.59,-288 1378.89,-288"/>
<polygon fill="black" stroke="black" points="1378.79,-291.5 1388.79,-288 1378.79,-284.5 1378.79,-291.5"/>
</g>
<!-- 73 -->
<!-- name: &quot;Map Size&quot;, typeName: &quot;&quot;, id: 73, branchId: 0, recurseId: &#45;1, attributes: 0, notes: &quot;&quot; -->
<g id="node17" class="node">
<title>73</title>
<ellipse fill="none" stroke="black" cx="798.6" cy="-234" rx="46.75" ry="18"/>
<text text-anchor="middle" x="798.6" y="-228.95" font-family="Times,serif" font-size="14.00">Map Size</text>
</g>
<!-- 72&#45;&gt;73 -->
<g id="edge16" class="edge">
<title>72&#45;&gt;73</title>
<path fill="none" stroke="black" d="M657.84,-234C683.84,-234 714.17,-234 739.91,-234"/>
<polygon fill="black" stroke="black" points="739.87,-237.5 749.87,-234 739.87,-230.5 739.87,-237.5"/>
</g>
<!-- 75 -->
<!-- name: &quot;example element&quot;, typeName: &quot;&quot;, id: 75, branchId: 0, recurseId: &#45;1, attributes: 16, notes: &quot;&quot; -->
<g id="node19" class="node">
<title>75</title>
<ellipse fill="none" stroke="black" stroke-dasharray="1,5" cx="798.6" cy="-180" rx="74.89" ry="18"/>
<text text-anchor="middle" x="798.6" y="-174.95" font-family="Times,serif" font-size="14.00">example element</text>
</g>
<!-- 72&#45;&gt;75 -->
<g id="edge18" class="edge">
<title>72&#45;&gt;75</title>
<path fill="none" stroke="black" d="M642.75,-221.88C670.5,-214.38 706.5,-204.64 736.8,-196.44"/>
<polygon fill="black" stroke="black" points="737.48,-199.89 746.22,-193.9 735.65,-193.13 737.48,-199.89"/>
</g>
<!-- 74 -->
<!-- name: &quot;unsigned varint&quot;, typeName: &quot;&quot;, id: 74, branchId: 0, recurseId: &#45;1, attributes: 512, notes: &quot;&quot; -->
<g id="node18" class="node">
<title>74</title>
<ellipse fill="none" stroke="black" cx="1422.5" cy="-234" rx="68.24" ry="18"/>
<text text-anchor="middle" x="1422.5" y="-228.95" font-family="Times,serif" font-size="14.00">unsigned varint</text>
</g>
<!-- 73&#45;&gt;74 -->
<g id="edge17" class="edge">
<title>73&#45;&gt;74</title>
<path fill="none" stroke="black" d="M845.83,-234C951.41,-234 1211.23,-234 1342.65,-234"/>
<polygon fill="black" stroke="black" points="1342.29,-237.5 1352.29,-234 1342.29,-230.5 1342.29,-237.5"/>
</g>
<!-- 76 -->
<!-- name: &quot;Item Id&quot;, typeName: &quot;&quot;, id: 76, branchId: 0, recurseId: &#45;1, attributes: 0, notes: &quot;&quot; -->
<g id="node20" class="node">
<title>76</title>
<ellipse fill="none" stroke="black" cx="954.7" cy="-180" rx="38.56" ry="18"/>
<text text-anchor="middle" x="954.7" y="-174.95" font-family="Times,serif" font-size="14.00">Item Id</text>
</g>
<!-- 75&#45;&gt;76 -->
<g id="edge19" class="edge">
<title>75&#45;&gt;76</title>
<path fill="none" stroke="black" d="M873.94,-180C884.23,-180 894.58,-180 904.26,-180"/>
<polygon fill="black" stroke="black" points="904.17,-183.5 914.17,-180 904.17,-176.5 904.17,-183.5"/>
</g>
<!-- 78 -->
<!-- name: &quot;Category&quot;, typeName: &quot;&quot;, id: 78, branchId: 0, recurseId: &#45;1, attributes: 0, notes: &quot;&quot; -->
<g id="node22" class="node">
<title>78</title>
<ellipse fill="none" stroke="black" cx="954.7" cy="-126" rx="44.7" ry="18"/>
<text text-anchor="middle" x="954.7" y="-120.95" font-family="Times,serif" font-size="14.00">Category</text>
</g>
<!-- 75&#45;&gt;78 -->
<g id="edge21" class="edge">
<title>75&#45;&gt;78</title>
<path fill="none" stroke="black" d="M842.11,-165.1C863.05,-157.76 888.28,-148.92 909.45,-141.51"/>
<polygon fill="black" stroke="black" points="910.4,-144.88 918.68,-138.27 908.08,-138.28 910.4,-144.88"/>
</g>
<!-- 77 -->
<!-- name: &quot;string&quot;, typeName: &quot;&quot;, id: 77, branchId: 0, recurseId: &#45;1, attributes: 512, notes: &quot;&quot; -->
<g id="node21" class="node">
<title>77</title>
<ellipse fill="none" stroke="black" cx="1422.5" cy="-180" rx="31.9" ry="18"/>
<text text-anchor="middle" x="1422.5" y="-174.95" font-family="Times,serif" font-size="14.00">string</text>
</g>
<!-- 76&#45;&gt;77 -->
<g id="edge20" class="edge">
<title>76&#45;&gt;77</title>
<path fill="none" stroke="black" d="M993.42,-180C1079.24,-180 1288.59,-180 1378.89,-180"/>
<polygon fill="black" stroke="black" points="1378.79,-183.5 1388.79,-180 1378.79,-176.5 1378.79,-183.5"/>
</g>
<!-- 79 -->
<!-- name: &quot;string&quot;, typeName: &quot;&quot;, id: 79, branchId: 0, recurseId: &#45;1, attributes: 512, notes: &quot;&quot; -->
<g id="node23" class="node">
<title>79</title>
<ellipse fill="none" stroke="black" cx="1422.5" cy="-126" rx="31.9" ry="18"/>
<text text-anchor="middle" x="1422.5" y="-120.95" font-family="Times,serif" font-size="14.00">string</text>
</g>
<!-- 78&#45;&gt;79 -->
<g id="edge22" class="edge">
<title>78&#45;&gt;79</title>
<path fill="none" stroke="black" d="M999.52,-126C1088.73,-126 1290.43,-126 1378.73,-126"/>
<polygon fill="black" stroke="black" points="1378.66,-129.5 1388.66,-126 1378.66,-122.5 1378.66,-129.5"/>
</g>
<!-- 81 -->
<!-- name: &quot;std::optional&lt;class std::basic_string&lt;char,struct std::char_traits&lt;char&gt;,class std::allocator&lt;char&gt; &gt; &gt;&quot;, typeName: &quot;&quot;, id: 81, branchId: 0, recurseId: &#45;1, attributes: 512, notes: &quot;&quot; -->
<g id="node25" class="node">
<title>81</title>
<ellipse fill="none" stroke="black" cx="1422.5" cy="-72" rx="386.59" ry="18"/>
<text text-anchor="middle" x="1422.5" y="-66.95" font-family="Times,serif" font-size="14.00">std::optional&lt;class std::basic_string&lt;char,struct std::char_traits&lt;char&gt;,class std::allocator&lt;char&gt; &gt; &gt;</text>
</g>
<!-- 80&#45;&gt;81 -->
<g id="edge24" class="edge">
<title>80&#45;&gt;81</title>
<path fill="none" stroke="black" d="M660.88,-139.82C723.58,-127.23 822.76,-108.77 909.49,-99 969.57,-92.23 1033.81,-87.16 1095.78,-83.35"/>
<polygon fill="black" stroke="black" points="1095.63,-86.87 1105.4,-82.77 1095.21,-79.88 1095.63,-86.87"/>
</g>
<!-- 83 -->
<!-- name: &quot;std::optional&lt;class std::basic_string&lt;char,struct std::char_traits&lt;char&gt;,class std::allocator&lt;char&gt; &gt; &gt;&quot;, typeName: &quot;&quot;, id: 83, branchId: 0, recurseId: &#45;1, attributes: 512, notes: &quot;&quot; -->
<g id="node27" class="node">
<title>83</title>
<ellipse fill="none" stroke="black" cx="1422.5" cy="-18" rx="386.59" ry="18"/>
<text text-anchor="middle" x="1422.5" y="-12.95" font-family="Times,serif" font-size="14.00">std::optional&lt;class std::basic_string&lt;char,struct std::char_traits&lt;char&gt;,class std::allocator&lt;char&gt; &gt; &gt;</text>
</g>
<!-- 82&#45;&gt;83 -->
<g id="edge26" class="edge">
<title>82&#45;&gt;83</title>
<path fill="none" stroke="black" d="M659.84,-42.97C751.72,-39.96 930.71,-34.09 1092.11,-28.8"/>
<polygon fill="black" stroke="black" points="1091.81,-32.31 1101.69,-28.48 1091.58,-25.31 1091.81,-32.31"/>
</g>
</g>
</svg>
