<svg width="528px" height="314px"
 viewBox="0.00 0.00 528.34 314.00" xmlns="http://www.w3.org/2000/svg" xmlns:xlink="http://www.w3.org/1999/xlink">
<g id="graph0" class="graph" transform="scale(1.0 1.0) rotate(0.0) translate(4.0 310.0)">
<title>CameraAimAssistPacket</title>
<polygon fill="white" stroke="none" points="-4,4 -4,-310 524.34,-310 524.34,4 -4,4"/>
<!-- 0 -->
<!-- name: &quot;CameraAimAssistPacket&quot;, typeName: &quot;&quot;, id: 0, branchId: 316, recurseId: &#45;1, attributes: 0, notes: &quot;&quot; -->
<g id="node1" class="node">
<title>0</title>
<ellipse fill="none" stroke="black" cx="104.07" cy="-153" rx="104.07" ry="18"/>
<text text-anchor="middle" x="104.07" y="-147.95" font-family="Times,serif" font-size="14.00">CameraAimAssistPacket</text>
</g>
<!-- 1 -->
<!-- name: &quot;Preset Id&quot;, typeName: &quot;&quot;, id: 1, branchId: 0, recurseId: &#45;1, attributes: 0, notes: &quot;&quot; -->
<g id="node2" class="node">
<title>1</title>
<ellipse fill="none" stroke="black" cx="332.34" cy="-288" rx="43.67" ry="18"/>
<text text-anchor="middle" x="332.34" y="-282.95" font-family="Times,serif" font-size="14.00">Preset Id</text>
</g>
<!-- 0&#45;&gt;1 -->
<g id="edge1" class="edge">
<title>0&#45;&gt;1</title>
<path fill="none" stroke="black" d="M123.34,-170.77C148.58,-194.42 196.42,-236.14 244.14,-261 255.98,-267.17 269.49,-272.21 282.27,-276.19"/>
<polygon fill="black" stroke="black" points="281.22,-279.53 291.8,-278.98 283.19,-272.81 281.22,-279.53"/>
</g>
<!-- 3 -->
<!-- name: &quot;View Angle&quot;, typeName: &quot;Vec2&quot;, id: 3, branchId: 0, recurseId: &#45;1, attributes: 256, notes: &quot;&quot; -->
<g id="node4" class="node">
<title>3</title>
<ellipse fill="none" stroke="black" cx="332.34" cy="-234" rx="55.45" ry="18"/>
<text text-anchor="middle" x="332.34" y="-228.95" font-family="Times,serif" font-size="14.00">View Angle</text>
</g>
<!-- 0&#45;&gt;3 -->
<g id="edge3" class="edge">
<title>0&#45;&gt;3</title>
<path fill="none" stroke="black" d="M146.17,-169.83C173.7,-180.89 210.87,-195.41 244.14,-207 255.48,-210.95 267.74,-214.93 279.4,-218.57"/>
<polygon fill="black" stroke="black" points="278.3,-221.9 288.88,-221.5 280.36,-215.21 278.3,-221.9"/>
</g>
<!-- 5 -->
<!-- name: &quot;Distance&quot;, typeName: &quot;&quot;, id: 5, branchId: 0, recurseId: &#45;1, attributes: 0, notes: &quot;&quot; -->
<g id="node6" class="node">
<title>5</title>
<ellipse fill="none" stroke="black" cx="332.34" cy="-180" rx="43.16" ry="18"/>
<text text-anchor="middle" x="332.34" y="-174.95" font-family="Times,serif" font-size="14.00">Distance</text>
</g>
<!-- 0&#45;&gt;5 -->
<g id="edge5" class="edge">
<title>0&#45;&gt;5</title>
<path fill="none" stroke="black" d="M190.93,-163.25C220.66,-166.79 253.07,-170.66 279.24,-173.78"/>
<polygon fill="black" stroke="black" points="278.58,-177.23 288.93,-174.94 279.41,-170.28 278.58,-177.23"/>
</g>
<!-- 7 -->
<!-- name: &quot;Target Mode&quot;, typeName: &quot;&quot;, id: 7, branchId: 0, recurseId: &#45;1, attributes: 0, notes: &quot;&quot; -->
<g id="node8" class="node">
<title>7</title>
<ellipse fill="none" stroke="black" cx="332.34" cy="-126" rx="59.54" ry="18"/>
<text text-anchor="middle" x="332.34" y="-120.95" font-family="Times,serif" font-size="14.00">Target Mode</text>
</g>
<!-- 0&#45;&gt;7 -->
<g id="edge7" class="edge">
<title>0&#45;&gt;7</title>
<path fill="none" stroke="black" d="M190.93,-142.75C215.54,-139.82 241.97,-136.66 265.19,-133.89"/>
<polygon fill="black" stroke="black" points="265.29,-137.41 274.81,-132.75 264.46,-130.46 265.29,-137.41"/>
</g>
<!-- 9 -->
<!-- name: &quot;Action&quot;, typeName: &quot;&quot;, id: 9, branchId: 0, recurseId: &#45;1, attributes: 0, notes: &quot;&quot; -->
<g id="node10" class="node">
<title>9</title>
<ellipse fill="none" stroke="black" cx="332.34" cy="-72" rx="36" ry="18"/>
<text text-anchor="middle" x="332.34" y="-66.95" font-family="Times,serif" font-size="14.00">Action</text>
</g>
<!-- 0&#45;&gt;9 -->
<g id="edge9" class="edge">
<title>0&#45;&gt;9</title>
<path fill="none" stroke="black" d="M146.17,-136.17C173.7,-125.11 210.87,-110.59 244.14,-99 258.92,-93.85 275.29,-88.65 289.81,-84.21"/>
<polygon fill="black" stroke="black" points="290.49,-87.66 299.05,-81.41 288.46,-80.96 290.49,-87.66"/>
</g>
<!-- 11 -->
<!-- name: &quot;Show Debug Render&quot;, typeName: &quot;&quot;, id: 11, branchId: 0, recurseId: &#45;1, attributes: 0, notes: &quot;&quot; -->
<g id="node12" class="node">
<title>11</title>
<ellipse fill="none" stroke="black" cx="332.34" cy="-18" rx="88.2" ry="18"/>
<text text-anchor="middle" x="332.34" y="-12.95" font-family="Times,serif" font-size="14.00">Show Debug Render</text>
</g>
<!-- 0&#45;&gt;11 -->
<g id="edge11" class="edge">
<title>0&#45;&gt;11</title>
<path fill="none" stroke="black" d="M123.34,-135.23C148.58,-111.58 196.42,-69.86 244.14,-45 250.65,-41.61 257.67,-38.55 264.79,-35.83"/>
<polygon fill="black" stroke="black" points="265.59,-39.26 273.82,-32.6 263.23,-32.68 265.59,-39.26"/>
</g>
<!-- 2 -->
<!-- name: &quot;string&quot;, typeName: &quot;&quot;, id: 2, branchId: 0, recurseId: &#45;1, attributes: 512, notes: &quot;&quot; -->
<g id="node3" class="node">
<title>2</title>
<ellipse fill="none" stroke="black" cx="488.44" cy="-288" rx="31.9" ry="18"/>
<text text-anchor="middle" x="488.44" y="-282.95" font-family="Times,serif" font-size="14.00">string</text>
</g>
<!-- 1&#45;&gt;2 -->
<g id="edge2" class="edge">
<title>1&#45;&gt;2</title>
<path fill="none" stroke="black" d="M376.26,-288C397.75,-288 423.68,-288 445.09,-288"/>
<polygon fill="black" stroke="black" points="444.95,-291.5 454.95,-288 444.95,-284.5 444.95,-291.5"/>
</g>
<!-- 4 -->
<!-- name: &quot;Vec2&quot;, typeName: &quot;&quot;, id: 4, branchId: 0, recurseId: &#45;1, attributes: 512, notes: &quot;&quot; -->
<g id="node5" class="node">
<title>4</title>
<ellipse fill="none" stroke="black" cx="488.44" cy="-234" rx="29.34" ry="18"/>
<text text-anchor="middle" x="488.44" y="-228.95" font-family="Times,serif" font-size="14.00">Vec2</text>
</g>
<!-- 3&#45;&gt;4 -->
<g id="edge4" class="edge">
<title>3&#45;&gt;4</title>
<path fill="none" stroke="black" d="M388.1,-234C407.69,-234 429.38,-234 447.48,-234"/>
<polygon fill="black" stroke="black" points="447.29,-237.5 457.29,-234 447.29,-230.5 447.29,-237.5"/>
</g>
<!-- 6 -->
<!-- name: &quot;float&quot;, typeName: &quot;&quot;, id: 6, branchId: 0, recurseId: &#45;1, attributes: 512, notes: &quot;&quot; -->
<g id="node7" class="node">
<title>6</title>
<ellipse fill="none" stroke="black" cx="488.44" cy="-180" rx="27.81" ry="18"/>
<text text-anchor="middle" x="488.44" y="-174.95" font-family="Times,serif" font-size="14.00">float</text>
</g>
<!-- 5&#45;&gt;6 -->
<g id="edge6" class="edge">
<title>5&#45;&gt;6</title>
<path fill="none" stroke="black" d="M375.85,-180C398.81,-180 426.93,-180 449.19,-180"/>
<polygon fill="black" stroke="black" points="449.05,-183.5 459.05,-180 449.05,-176.5 449.05,-183.5"/>
</g>
<!-- 8 -->
<!-- name: &quot;byte&quot;, typeName: &quot;&quot;, id: 8, branchId: 0, recurseId: &#45;1, attributes: 512, notes: &quot;&quot; -->
<g id="node9" class="node">
<title>8</title>
<ellipse fill="none" stroke="black" cx="488.44" cy="-126" rx="27" ry="18"/>
<text text-anchor="middle" x="488.44" y="-120.95" font-family="Times,serif" font-size="14.00">byte</text>
</g>
<!-- 7&#45;&gt;8 -->
<g id="edge8" class="edge">
<title>7&#45;&gt;8</title>
<path fill="none" stroke="black" d="M392.04,-126C411.39,-126 432.38,-126 449.73,-126"/>
<polygon fill="black" stroke="black" points="449.58,-129.5 459.58,-126 449.58,-122.5 449.58,-129.5"/>
</g>
<!-- 10 -->
<!-- name: &quot;byte&quot;, typeName: &quot;&quot;, id: 10, branchId: 0, recurseId: &#45;1, attributes: 512, notes: &quot;&quot; -->
<g id="node11" class="node">
<title>10</title>
<ellipse fill="none" stroke="black" cx="488.44" cy="-72" rx="27" ry="18"/>
<text text-anchor="middle" x="488.44" y="-66.95" font-family="Times,serif" font-size="14.00">byte</text>
</g>
<!-- 9&#45;&gt;10 -->
<g id="edge10" class="edge">
<title>9&#45;&gt;10</title>
<path fill="none" stroke="black" d="M368.69,-72C392.98,-72 425.17,-72 449.91,-72"/>
<polygon fill="black" stroke="black" points="449.87,-75.5 459.87,-72 449.87,-68.5 449.87,-75.5"/>
</g>
<!-- 12 -->
<!-- name: &quot;bool&quot;, typeName: &quot;&quot;, id: 12, branchId: 0, recurseId: &#45;1, attributes: 512, notes: &quot;&quot; -->
<g id="node13" class="node">
<title>12</title>
<ellipse fill="none" stroke="black" cx="488.44" cy="-18" rx="27.3" ry="18"/>
<text text-anchor="middle" x="488.44" y="-12.95" font-family="Times,serif" font-size="14.00">bool</text>
</g>
<!-- 11&#45;&gt;12 -->
<g id="edge12" class="edge">
<title>11&#45;&gt;12</title>
<path fill="none" stroke="black" d="M420.75,-18C430.74,-18 440.5,-18 449.33,-18"/>
<polygon fill="black" stroke="black" points="449.22,-21.5 459.22,-18 449.22,-14.5 449.22,-21.5"/>
</g>
</g>
</svg>
