<svg width="1184px" height="692px"
 viewBox="0.00 0.00 1184.19 692.00" xmlns="http://www.w3.org/2000/svg" xmlns:xlink="http://www.w3.org/1999/xlink">
<g id="graph0" class="graph" transform="scale(1.0 1.0) rotate(0.0) translate(4.0 688.0)">
<title>CommandBlockUpdatePacket</title>
<polygon fill="white" stroke="none" points="-4,4 -4,-688 1180.19,-688 1180.19,4 -4,4"/>
<!-- 0 -->
<!-- name: &quot;CommandBlockUpdatePacket&quot;, typeName: &quot;&quot;, id: 0, branchId: 78, recurseId: &#45;1, attributes: 0, notes: &quot;&quot; -->
<g id="node1" class="node">
<title>0</title>
<ellipse fill="none" stroke="black" cx="123.52" cy="-234" rx="123.52" ry="18"/>
<text text-anchor="middle" x="123.52" y="-228.95" font-family="Times,serif" font-size="14.00">CommandBlockUpdatePacket</text>
</g>
<!-- 1 -->
<!-- name: &quot;Is Block?&quot;, typeName: &quot;&quot;, id: 1, branchId: 0, recurseId: &#45;1, attributes: 0, notes: &quot;&quot; -->
<g id="node2" class="node">
<title>1</title>
<ellipse fill="none" stroke="black" cx="597.16" cy="-645" rx="46.23" ry="18"/>
<text text-anchor="middle" x="597.16" y="-639.95" font-family="Times,serif" font-size="14.00">Is Block?</text>
</g>
<!-- 0&#45;&gt;1 -->
<g id="edge1" class="edge">
<title>0&#45;&gt;1</title>
<path fill="none" stroke="black" d="M130.86,-252.21C148.17,-299.59 200.56,-428.27 283.03,-504 360.14,-574.81 478.79,-614.82 545.71,-632.96"/>
<polygon fill="black" stroke="black" points="544.76,-636.33 555.32,-635.51 546.55,-629.57 544.76,-636.33"/>
</g>
<!-- 3 -->
<!-- name: &quot;Dependency on &#39;Is Block?&#39;&quot;, typeName: &quot;&quot;, id: 3, branchId: 0, recurseId: &#45;1, attributes: 2, notes: &quot;&quot; -->
<g id="node4" class="node">
<title>3</title>
<polygon fill="none" stroke="black" points="437.78,-495 283.03,-495 283.03,-459 443.78,-459 443.78,-489 437.78,-495"/>
<polyline fill="none" stroke="black" points="437.78,-495 437.78,-489"/>
<polyline fill="none" stroke="black" points="443.78,-489 437.78,-489"/>
<text text-anchor="middle" x="363.41" y="-471.95" font-family="Times,serif" font-size="14.00">Dependency on &#39;Is Block?&#39;</text>
</g>
<!-- 0&#45;&gt;3 -->
<g id="edge3" class="edge">
<title>0&#45;&gt;3</title>
<path fill="none" stroke="black" d="M142.4,-252.26C184.07,-294.84 287.81,-400.8 336.45,-450.49"/>
<polygon fill="black" stroke="black" points="333.76,-452.74 343.26,-457.44 338.77,-447.85 333.76,-452.74"/>
</g>
<!-- 16 -->
<!-- name: &quot;Command&quot;, typeName: &quot;&quot;, id: 16, branchId: 0, recurseId: &#45;1, attributes: 0, notes: &quot;&quot; -->
<g id="node17" class="node">
<title>16</title>
<ellipse fill="none" stroke="black" cx="597.16" cy="-341" rx="50.33" ry="18"/>
<text text-anchor="middle" x="597.16" y="-335.95" font-family="Times,serif" font-size="14.00">Command</text>
</g>
<!-- 0&#45;&gt;16 -->
<g id="edge16" class="edge">
<title>0&#45;&gt;16</title>
<path fill="none" stroke="black" d="M173.72,-250.84C204.81,-261.07 245.97,-273.87 283.03,-283 371.47,-304.78 475.76,-322.55 538.87,-332.45"/>
<polygon fill="black" stroke="black" points="538.25,-335.89 548.67,-333.97 539.33,-328.98 538.25,-335.89"/>
</g>
<!-- 18 -->
<!-- name: &quot;Last Output&quot;, typeName: &quot;&quot;, id: 18, branchId: 0, recurseId: &#45;1, attributes: 0, notes: &quot;&quot; -->
<g id="node19" class="node">
<title>18</title>
<ellipse fill="none" stroke="black" cx="597.16" cy="-286" rx="54.93" ry="18"/>
<text text-anchor="middle" x="597.16" y="-280.95" font-family="Times,serif" font-size="14.00">Last Output</text>
</g>
<!-- 0&#45;&gt;18 -->
<g id="edge18" class="edge">
<title>0&#45;&gt;18</title>
<path fill="none" stroke="black" d="M200.91,-248.43C226.9,-252.96 256.16,-257.65 283.03,-261 368.49,-271.67 467.67,-278.69 531.12,-282.5"/>
<polygon fill="black" stroke="black" points="530.84,-285.99 541.03,-283.09 531.26,-279 530.84,-285.99"/>
</g>
<!-- 20 -->
<!-- name: &quot;Name&quot;, typeName: &quot;&quot;, id: 20, branchId: 0, recurseId: &#45;1, attributes: 0, notes: &quot;&quot; -->
<g id="node21" class="node">
<title>20</title>
<ellipse fill="none" stroke="black" cx="363.41" cy="-234" rx="33.44" ry="18"/>
<text text-anchor="middle" x="363.41" y="-228.95" font-family="Times,serif" font-size="14.00">Name</text>
</g>
<!-- 0&#45;&gt;20 -->
<g id="edge20" class="edge">
<title>0&#45;&gt;20</title>
<path fill="none" stroke="black" d="M247.29,-234C272.75,-234 297.96,-234 318.28,-234"/>
<polygon fill="black" stroke="black" points="318.13,-237.5 328.13,-234 318.13,-230.5 318.13,-237.5"/>
</g>
<!-- 99 -->
<!-- name: &quot;Filtered Name&quot;, typeName: &quot;&quot;, id: 99, branchId: 0, recurseId: &#45;1, attributes: 0, notes: &quot;&quot; -->
<g id="node23" class="node">
<title>99</title>
<ellipse fill="none" stroke="black" cx="363.41" cy="-180" rx="64.66" ry="18"/>
<text text-anchor="middle" x="363.41" y="-174.95" font-family="Times,serif" font-size="14.00">Filtered Name</text>
</g>
<!-- 0&#45;&gt;99 -->
<g id="edge22" class="edge">
<title>0&#45;&gt;99</title>
<path fill="none" stroke="black" d="M192.05,-218.67C226.48,-210.85 268.03,-201.42 301.48,-193.83"/>
<polygon fill="black" stroke="black" points="302.03,-197.29 311.01,-191.67 300.49,-190.47 302.03,-197.29"/>
</g>
<!-- 22 -->
<!-- name: &quot;Track Output?&quot;, typeName: &quot;&quot;, id: 22, branchId: 0, recurseId: &#45;1, attributes: 0, notes: &quot;&quot; -->
<g id="node25" class="node">
<title>22</title>
<ellipse fill="none" stroke="black" cx="363.41" cy="-126" rx="64.66" ry="18"/>
<text text-anchor="middle" x="363.41" y="-120.95" font-family="Times,serif" font-size="14.00">Track Output?</text>
</g>
<!-- 0&#45;&gt;22 -->
<g id="edge24" class="edge">
<title>0&#45;&gt;22</title>
<path fill="none" stroke="black" d="M156.05,-216.17C187.59,-198.75 237.78,-172.14 283.03,-153 291.14,-149.57 299.84,-146.26 308.41,-143.19"/>
<polygon fill="black" stroke="black" points="309.42,-146.55 317.71,-139.95 307.12,-139.94 309.42,-146.55"/>
</g>
<!-- 24 -->
<!-- name: &quot;Tick Delay&quot;, typeName: &quot;&quot;, id: 24, branchId: 0, recurseId: &#45;1, attributes: 0, notes: &quot;&quot; -->
<g id="node27" class="node">
<title>24</title>
<ellipse fill="none" stroke="black" cx="363.41" cy="-72" rx="52.38" ry="18"/>
<text text-anchor="middle" x="363.41" y="-66.95" font-family="Times,serif" font-size="14.00">Tick Delay</text>
</g>
<!-- 0&#45;&gt;24 -->
<g id="edge26" class="edge">
<title>0&#45;&gt;24</title>
<path fill="none" stroke="black" d="M141.36,-215.77C168.61,-187.22 225.2,-131.86 283.03,-99 291.4,-94.25 300.74,-90.15 310,-86.68"/>
<polygon fill="black" stroke="black" points="311.05,-90.02 319.33,-83.4 308.73,-83.41 311.05,-90.02"/>
</g>
<!-- 26 -->
<!-- name: &quot;Should execute on first tick?&quot;, typeName: &quot;&quot;, id: 26, branchId: 0, recurseId: &#45;1, attributes: 0, notes: &quot;If a delay is set on a repeating command block, should the command execute on first tick, or on first delay?&quot; -->
<g id="node29" class="node">
<title>26</title>
<ellipse fill="none" stroke="black" cx="597.16" cy="-22" rx="117.37" ry="18"/>
<text text-anchor="middle" x="597.16" y="-16.95" font-family="Times,serif" font-size="14.00">Should execute on first tick?</text>
</g>
<!-- 0&#45;&gt;26 -->
<g id="edge28" class="edge">
<title>0&#45;&gt;26</title>
<path fill="none" stroke="black" d="M133.31,-215.84C153.46,-176.5 207.17,-83.83 283.03,-45 347.57,-11.96 429.58,-7.05 493.48,-9.95"/>
<polygon fill="black" stroke="black" points="493.1,-13.44 503.27,-10.47 493.47,-6.44 493.1,-13.44"/>
</g>
<!-- 2 -->
<!-- name: &quot;bool&quot;, typeName: &quot;&quot;, id: 2, branchId: 0, recurseId: &#45;1, attributes: 512, notes: &quot;&quot; -->
<g id="node3" class="node">
<title>2</title>
<ellipse fill="none" stroke="black" cx="1080.82" cy="-666" rx="27.3" ry="18"/>
<text text-anchor="middle" x="1080.82" y="-660.95" font-family="Times,serif" font-size="14.00">bool</text>
</g>
<!-- 1&#45;&gt;2 -->
<g id="edge2" class="edge">
<title>1&#45;&gt;2</title>
<path fill="none" stroke="black" d="M643.47,-646.98C737.86,-651.09 954.04,-660.52 1041.77,-664.34"/>
<polygon fill="black" stroke="black" points="1041.62,-667.84 1051.76,-664.78 1041.92,-660.84 1041.62,-667.84"/>
</g>
<!-- 4 -->
<!-- name: &quot;If False&quot;, typeName: &quot;&quot;, id: 4, branchId: 0, recurseId: &#45;1, attributes: 4, notes: &quot;&quot; -->
<g id="node5" class="node">
<title>4</title>
<polygon fill="none" stroke="black" points="597.16,-589 541.91,-571 597.16,-553 652.41,-571 597.16,-589"/>
<text text-anchor="middle" x="597.16" y="-565.95" font-family="Times,serif" font-size="14.00">If False</text>
</g>
<!-- 3&#45;&gt;4 -->
<g id="edge4" class="edge">
<title>3&#45;&gt;4</title>
<path fill="none" stroke="black" d="M409.92,-495.46C454.23,-513.43 520.64,-540.37 561.03,-556.75"/>
<polygon fill="black" stroke="black" points="559.46,-559.89 570.04,-560.41 562.09,-553.41 559.46,-559.89"/>
</g>
<!-- 7 -->
<!-- name: &quot;If True&quot;, typeName: &quot;&quot;, id: 7, branchId: 1, recurseId: &#45;1, attributes: 4, notes: &quot;&quot; -->
<g id="node8" class="node">
<title>7</title>
<polygon fill="none" stroke="black" points="597.16,-495 545.53,-477 597.16,-459 648.79,-477 597.16,-495"/>
<text text-anchor="middle" x="597.16" y="-471.95" font-family="Times,serif" font-size="14.00">If True</text>
</g>
<!-- 3&#45;&gt;7 -->
<g id="edge7" class="edge">
<title>3&#45;&gt;7</title>
<path fill="none" stroke="black" d="M444.16,-477C473.15,-477 505.48,-477 532.85,-477"/>
<polygon fill="black" stroke="black" points="532.74,-480.5 542.74,-477 532.74,-473.5 532.74,-480.5"/>
</g>
<!-- 5 -->
<!-- name: &quot;Target Runtime ID&quot;, typeName: &quot;ActorRuntimeID&quot;, id: 5, branchId: 0, recurseId: &#45;1, attributes: 256, notes: &quot;&quot; -->
<g id="node6" class="node">
<title>5</title>
<ellipse fill="none" stroke="black" cx="849.99" cy="-612" rx="82.06" ry="18"/>
<text text-anchor="middle" x="849.99" y="-606.95" font-family="Times,serif" font-size="14.00">Target Runtime ID</text>
</g>
<!-- 4&#45;&gt;5 -->
<g id="edge5" class="edge">
<title>4&#45;&gt;5</title>
<path fill="none" stroke="black" d="M635.17,-577.05C670.97,-582.9 726.34,-591.95 771.76,-599.38"/>
<polygon fill="black" stroke="black" points="771.15,-602.82 781.58,-600.98 772.28,-595.91 771.15,-602.82"/>
</g>
<!-- 6 -->
<!-- name: &quot;ActorRuntimeID&quot;, typeName: &quot;&quot;, id: 6, branchId: 0, recurseId: &#45;1, attributes: 512, notes: &quot;&quot; -->
<g id="node7" class="node">
<title>6</title>
<ellipse fill="none" stroke="black" cx="1080.82" cy="-612" rx="73.87" ry="18"/>
<text text-anchor="middle" x="1080.82" y="-606.95" font-family="Times,serif" font-size="14.00">ActorRuntimeID</text>
</g>
<!-- 5&#45;&gt;6 -->
<g id="edge6" class="edge">
<title>5&#45;&gt;6</title>
<path fill="none" stroke="black" d="M932.31,-612C952.8,-612 974.83,-612 995.46,-612"/>
<polygon fill="black" stroke="black" points="995.25,-615.5 1005.25,-612 995.25,-608.5 995.25,-615.5"/>
</g>
<!-- 8 -->
<!-- name: &quot;Block Position&quot;, typeName: &quot;NetworkBlockPosition&quot;, id: 8, branchId: 0, recurseId: &#45;1, attributes: 256, notes: &quot;&quot; -->
<g id="node9" class="node">
<title>8</title>
<ellipse fill="none" stroke="black" cx="849.99" cy="-558" rx="65.68" ry="18"/>
<text text-anchor="middle" x="849.99" y="-552.95" font-family="Times,serif" font-size="14.00">Block Position</text>
</g>
<!-- 7&#45;&gt;8 -->
<g id="edge8" class="edge">
<title>7&#45;&gt;8</title>
<path fill="none" stroke="black" d="M623.04,-486.45C653.06,-497.7 705.14,-516.75 750.53,-531 763.35,-535.02 777.2,-539.03 790.36,-542.68"/>
<polygon fill="black" stroke="black" points="789.18,-545.98 799.75,-545.25 791.03,-539.23 789.18,-545.98"/>
</g>
<!-- 10 -->
<!-- name: &quot;Command Block Mode&quot;, typeName: &quot;&quot;, id: 10, branchId: 0, recurseId: &#45;1, attributes: 0, notes: &quot;&quot; -->
<g id="node11" class="node">
<title>10</title>
<ellipse fill="none" stroke="black" cx="849.99" cy="-504" rx="99.46" ry="18"/>
<text text-anchor="middle" x="849.99" y="-498.95" font-family="Times,serif" font-size="14.00">Command Block Mode</text>
</g>
<!-- 7&#45;&gt;10 -->
<g id="edge10" class="edge">
<title>7&#45;&gt;10</title>
<path fill="none" stroke="black" d="M637.9,-481.28C668.58,-484.58 712.37,-489.29 752.11,-493.57"/>
<polygon fill="black" stroke="black" points="751.65,-497.04 761.97,-494.63 752.4,-490.08 751.65,-497.04"/>
</g>
<!-- 12 -->
<!-- name: &quot;Redstone Mode&quot;, typeName: &quot;&quot;, id: 12, branchId: 0, recurseId: &#45;1, attributes: 0, notes: &quot;&quot; -->
<g id="node13" class="node">
<title>12</title>
<ellipse fill="none" stroke="black" cx="849.99" cy="-450" rx="69.78" ry="18"/>
<text text-anchor="middle" x="849.99" y="-444.95" font-family="Times,serif" font-size="14.00">Redstone Mode</text>
</g>
<!-- 7&#45;&gt;12 -->
<g id="edge12" class="edge">
<title>7&#45;&gt;12</title>
<path fill="none" stroke="black" d="M637.9,-472.72C674.25,-468.81 728.98,-462.92 773.6,-458.11"/>
<polygon fill="black" stroke="black" points="773.94,-461.6 783.5,-457.05 773.19,-454.64 773.94,-461.6"/>
</g>
<!-- 14 -->
<!-- name: &quot;Is Conditional?&quot;, typeName: &quot;&quot;, id: 14, branchId: 0, recurseId: &#45;1, attributes: 0, notes: &quot;&quot; -->
<g id="node15" class="node">
<title>14</title>
<ellipse fill="none" stroke="black" cx="849.99" cy="-396" rx="67.73" ry="18"/>
<text text-anchor="middle" x="849.99" y="-390.95" font-family="Times,serif" font-size="14.00">Is Conditional?</text>
</g>
<!-- 7&#45;&gt;14 -->
<g id="edge14" class="edge">
<title>7&#45;&gt;14</title>
<path fill="none" stroke="black" d="M623.04,-467.55C653.06,-456.3 705.14,-437.25 750.53,-423 762.96,-419.1 776.36,-415.21 789.16,-411.66"/>
<polygon fill="black" stroke="black" points="790.03,-415.05 798.75,-409.02 788.18,-408.3 790.03,-415.05"/>
</g>
<!-- 9 -->
<!-- name: &quot;NetworkBlockPosition&quot;, typeName: &quot;&quot;, id: 9, branchId: 0, recurseId: &#45;1, attributes: 512, notes: &quot;&quot; -->
<g id="node10" class="node">
<title>9</title>
<ellipse fill="none" stroke="black" cx="1080.82" cy="-558" rx="95.37" ry="18"/>
<text text-anchor="middle" x="1080.82" y="-552.95" font-family="Times,serif" font-size="14.00">NetworkBlockPosition</text>
</g>
<!-- 8&#45;&gt;9 -->
<g id="edge9" class="edge">
<title>8&#45;&gt;9</title>
<path fill="none" stroke="black" d="M915.95,-558C934.04,-558 954.17,-558 973.96,-558"/>
<polygon fill="black" stroke="black" points="973.71,-561.5 983.71,-558 973.71,-554.5 973.71,-561.5"/>
</g>
<!-- 11 -->
<!-- name: &quot;unsigned varint&quot;, typeName: &quot;&quot;, id: 11, branchId: 0, recurseId: &#45;1, attributes: 512, notes: &quot;&quot; -->
<g id="node12" class="node">
<title>11</title>
<ellipse fill="none" stroke="black" cx="1080.82" cy="-504" rx="68.24" ry="18"/>
<text text-anchor="middle" x="1080.82" y="-498.95" font-family="Times,serif" font-size="14.00">unsigned varint</text>
</g>
<!-- 10&#45;&gt;11 -->
<g id="edge11" class="edge">
<title>10&#45;&gt;11</title>
<path fill="none" stroke="black" d="M949.7,-504C966.8,-504 984.38,-504 1000.86,-504"/>
<polygon fill="black" stroke="black" points="1000.57,-507.5 1010.57,-504 1000.57,-500.5 1000.57,-507.5"/>
</g>
<!-- 13 -->
<!-- name: &quot;bool&quot;, typeName: &quot;&quot;, id: 13, branchId: 0, recurseId: &#45;1, attributes: 512, notes: &quot;&quot; -->
<g id="node14" class="node">
<title>13</title>
<ellipse fill="none" stroke="black" cx="1080.82" cy="-450" rx="27.3" ry="18"/>
<text text-anchor="middle" x="1080.82" y="-444.95" font-family="Times,serif" font-size="14.00">bool</text>
</g>
<!-- 12&#45;&gt;13 -->
<g id="edge13" class="edge">
<title>12&#45;&gt;13</title>
<path fill="none" stroke="black" d="M919.96,-450C959.93,-450 1008.73,-450 1041.82,-450"/>
<polygon fill="black" stroke="black" points="1041.74,-453.5 1051.74,-450 1041.74,-446.5 1041.74,-453.5"/>
</g>
<!-- 15 -->
<!-- name: &quot;bool&quot;, typeName: &quot;&quot;, id: 15, branchId: 0, recurseId: &#45;1, attributes: 512, notes: &quot;&quot; -->
<g id="node16" class="node">
<title>15</title>
<ellipse fill="none" stroke="black" cx="1080.82" cy="-396" rx="27.3" ry="18"/>
<text text-anchor="middle" x="1080.82" y="-390.95" font-family="Times,serif" font-size="14.00">bool</text>
</g>
<!-- 14&#45;&gt;15 -->
<g id="edge15" class="edge">
<title>14&#45;&gt;15</title>
<path fill="none" stroke="black" d="M918.1,-396C958.45,-396 1008.32,-396 1041.92,-396"/>
<polygon fill="black" stroke="black" points="1041.58,-399.5 1051.58,-396 1041.58,-392.5 1041.58,-399.5"/>
</g>
<!-- 17 -->
<!-- name: &quot;string&quot;, typeName: &quot;&quot;, id: 17, branchId: 0, recurseId: &#45;1, attributes: 512, notes: &quot;&quot; -->
<g id="node18" class="node">
<title>17</title>
<ellipse fill="none" stroke="black" cx="1080.82" cy="-342" rx="31.9" ry="18"/>
<text text-anchor="middle" x="1080.82" y="-336.95" font-family="Times,serif" font-size="14.00">string</text>
</g>
<!-- 16&#45;&gt;17 -->
<g id="edge17" class="edge">
<title>16&#45;&gt;17</title>
<path fill="none" stroke="black" d="M647.89,-341.1C742.78,-341.3 948.13,-341.73 1037.19,-341.91"/>
<polygon fill="black" stroke="black" points="1036.94,-345.41 1046.94,-341.93 1036.95,-338.41 1036.94,-345.41"/>
</g>
<!-- 19 -->
<!-- name: &quot;string&quot;, typeName: &quot;&quot;, id: 19, branchId: 0, recurseId: &#45;1, attributes: 512, notes: &quot;&quot; -->
<g id="node20" class="node">
<title>19</title>
<ellipse fill="none" stroke="black" cx="1080.82" cy="-288" rx="31.9" ry="18"/>
<text text-anchor="middle" x="1080.82" y="-282.95" font-family="Times,serif" font-size="14.00">string</text>
</g>
<!-- 18&#45;&gt;19 -->
<g id="edge19" class="edge">
<title>18&#45;&gt;19</title>
<path fill="none" stroke="black" d="M652.47,-286.23C749.27,-286.63 949.63,-287.46 1037.25,-287.82"/>
<polygon fill="black" stroke="black" points="1037.06,-291.32 1047.08,-287.86 1037.09,-284.32 1037.06,-291.32"/>
</g>
<!-- 21 -->
<!-- name: &quot;string&quot;, typeName: &quot;&quot;, id: 21, branchId: 0, recurseId: &#45;1, attributes: 512, notes: &quot;&quot; -->
<g id="node22" class="node">
<title>21</title>
<ellipse fill="none" stroke="black" cx="1080.82" cy="-234" rx="31.9" ry="18"/>
<text text-anchor="middle" x="1080.82" y="-228.95" font-family="Times,serif" font-size="14.00">string</text>
</g>
<!-- 20&#45;&gt;21 -->
<g id="edge21" class="edge">
<title>20&#45;&gt;21</title>
<path fill="none" stroke="black" d="M397.01,-234C513.11,-234 906.49,-234 1037.2,-234"/>
<polygon fill="black" stroke="black" points="1037.14,-237.5 1047.14,-234 1037.14,-230.5 1037.14,-237.5"/>
</g>
<!-- 100 -->
<!-- name: &quot;string&quot;, typeName: &quot;&quot;, id: 100, branchId: 0, recurseId: &#45;1, attributes: 512, notes: &quot;&quot; -->
<g id="node24" class="node">
<title>100</title>
<ellipse fill="none" stroke="black" cx="1080.82" cy="-180" rx="31.9" ry="18"/>
<text text-anchor="middle" x="1080.82" y="-174.95" font-family="Times,serif" font-size="14.00">string</text>
</g>
<!-- 99&#45;&gt;100 -->
<g id="edge23" class="edge">
<title>99&#45;&gt;100</title>
<path fill="none" stroke="black" d="M428.53,-180C572.24,-180 916.99,-180 1037.43,-180"/>
<polygon fill="black" stroke="black" points="1037.18,-183.5 1047.18,-180 1037.18,-176.5 1037.18,-183.5"/>
</g>
<!-- 23 -->
<!-- name: &quot;bool&quot;, typeName: &quot;&quot;, id: 23, branchId: 0, recurseId: &#45;1, attributes: 512, notes: &quot;&quot; -->
<g id="node26" class="node">
<title>23</title>
<ellipse fill="none" stroke="black" cx="1080.82" cy="-126" rx="27.3" ry="18"/>
<text text-anchor="middle" x="1080.82" y="-120.95" font-family="Times,serif" font-size="14.00">bool</text>
</g>
<!-- 22&#45;&gt;23 -->
<g id="edge25" class="edge">
<title>22&#45;&gt;23</title>
<path fill="none" stroke="black" d="M428.53,-126C573.94,-126 925.16,-126 1041.6,-126"/>
<polygon fill="black" stroke="black" points="1041.55,-129.5 1051.55,-126 1041.55,-122.5 1041.55,-129.5"/>
</g>
<!-- 25 -->
<!-- name: &quot;unsigned int&quot;, typeName: &quot;&quot;, id: 25, branchId: 0, recurseId: &#45;1, attributes: 512, notes: &quot;&quot; -->
<g id="node28" class="node">
<title>25</title>
<ellipse fill="none" stroke="black" cx="1080.82" cy="-72" rx="56.47" ry="18"/>
<text text-anchor="middle" x="1080.82" y="-66.95" font-family="Times,serif" font-size="14.00">unsigned int</text>
</g>
<!-- 24&#45;&gt;25 -->
<g id="edge27" class="edge">
<title>24&#45;&gt;25</title>
<path fill="none" stroke="black" d="M416.15,-72C543.33,-72 871.2,-72 1012.92,-72"/>
<polygon fill="black" stroke="black" points="1012.5,-75.5 1022.5,-72 1012.5,-68.5 1012.5,-75.5"/>
</g>
<!-- 27 -->
<!-- name: &quot;bool&quot;, typeName: &quot;&quot;, id: 27, branchId: 0, recurseId: &#45;1, attributes: 512, notes: &quot;&quot; -->
<g id="node30" class="node">
<title>27</title>
<ellipse fill="none" stroke="black" cx="1080.82" cy="-18" rx="27.3" ry="18"/>
<text text-anchor="middle" x="1080.82" y="-12.95" font-family="Times,serif" font-size="14.00">bool</text>
</g>
<!-- 26&#45;&gt;27 -->
<g id="edge29" class="edge">
<title>26&#45;&gt;27</title>
<path fill="none" stroke="black" d="M714.75,-21.03C821.35,-20.15 972.65,-18.89 1042.2,-18.31"/>
<polygon fill="black" stroke="black" points="1041.94,-21.81 1051.91,-18.23 1041.89,-14.82 1041.94,-21.81"/>
</g>
</g>
</svg>
