<svg width="1257px" height="314px"
 viewBox="0.00 0.00 1257.16 314.00" xmlns="http://www.w3.org/2000/svg" xmlns:xlink="http://www.w3.org/1999/xlink">
<g id="graph0" class="graph" transform="scale(1.0 1.0) rotate(0.0) translate(4.0 310.0)">
<title>CreativeContentPacket</title>
<polygon fill="white" stroke="none" points="-4,4 -4,-310 1253.16,-310 1253.16,4 -4,4"/>
<!-- 0 -->
<!-- name: &quot;CreativeContentPacket&quot;, typeName: &quot;&quot;, id: 0, branchId: 145, recurseId: &#45;1, attributes: 0, notes: &quot;&quot; -->
<g id="node1" class="node">
<title>0</title>
<ellipse fill="none" stroke="black" cx="95.88" cy="-207" rx="95.88" ry="18"/>
<text text-anchor="middle" x="95.88" y="-201.95" font-family="Times,serif" font-size="14.00">CreativeContentPacket</text>
</g>
<!-- 99 -->
<!-- name: &quot;Groups&quot;, typeName: &quot;&quot;, id: 1, branchId: 0, recurseId: &#45;1, attributes: 8, notes: &quot;&quot; -->
<g id="node2" class="node">
<title>99</title>
<ellipse fill="none" stroke="black" cx="288.32" cy="-234" rx="38.04" ry="18"/>
<text text-anchor="middle" x="288.32" y="-228.95" font-family="Times,serif" font-size="14.00">Groups</text>
</g>
<!-- 0&#45;&gt;99 -->
<g id="edge1" class="edge">
<title>0&#45;&gt;99</title>
<path fill="none" stroke="black" d="M173.52,-217.87C195.98,-221.05 219.88,-224.44 239.95,-227.28"/>
<polygon fill="black" stroke="black" points="239.39,-230.74 249.78,-228.68 240.37,-223.81 239.39,-230.74"/>
</g>
<!-- 1 -->
<!-- name: &quot;Write Entries&quot;, typeName: &quot;&quot;, id: 1, branchId: 0, recurseId: &#45;1, attributes: 8, notes: &quot;&quot; -->
<g id="node8" class="node">
<title>1</title>
<ellipse fill="none" stroke="black" cx="288.32" cy="-180" rx="60.56" ry="18"/>
<text text-anchor="middle" x="288.32" y="-174.95" font-family="Times,serif" font-size="14.00">Write Entries</text>
</g>
<!-- 0&#45;&gt;1 -->
<g id="edge7" class="edge">
<title>0&#45;&gt;1</title>
<path fill="none" stroke="black" d="M173.52,-196.13C189.57,-193.86 206.35,-191.48 221.95,-189.27"/>
<polygon fill="black" stroke="black" points="222.16,-192.77 231.57,-187.9 221.18,-185.84 222.16,-192.77"/>
</g>
<!-- 100 -->
<!-- name: &quot;List Size&quot;, typeName: &quot;&quot;, id: 2, branchId: 0, recurseId: &#45;1, attributes: 0, notes: &quot;&quot; -->
<g id="node3" class="node">
<title>100</title>
<ellipse fill="none" stroke="black" cx="459.78" cy="-288" rx="43.67" ry="18"/>
<text text-anchor="middle" x="459.78" y="-282.95" font-family="Times,serif" font-size="14.00">List Size</text>
</g>
<!-- 99&#45;&gt;100 -->
<g id="edge2" class="edge">
<title>99&#45;&gt;100</title>
<path fill="none" stroke="black" d="M320.4,-243.9C346.5,-252.22 384.13,-264.21 413.56,-273.59"/>
<polygon fill="black" stroke="black" points="412.37,-276.88 422.96,-276.58 414.49,-270.21 412.37,-276.88"/>
</g>
<!-- 102 -->
<!-- name: &quot;example element&quot;, typeName: &quot;&quot;, id: 12, branchId: 0, recurseId: &#45;1, attributes: 16, notes: &quot;&quot; -->
<g id="node5" class="node">
<title>102</title>
<ellipse fill="none" stroke="black" stroke-dasharray="1,5" cx="459.78" cy="-234" rx="74.89" ry="18"/>
<text text-anchor="middle" x="459.78" y="-228.95" font-family="Times,serif" font-size="14.00">example element</text>
</g>
<!-- 99&#45;&gt;102 -->
<g id="edge4" class="edge">
<title>99&#45;&gt;102</title>
<path fill="none" stroke="black" d="M326.51,-234C340.36,-234 356.72,-234 373.13,-234"/>
<polygon fill="black" stroke="black" points="372.95,-237.5 382.95,-234 372.95,-230.5 372.95,-237.5"/>
</g>
<!-- 101 -->
<!-- name: &quot;unsigned varint&quot;, typeName: &quot;&quot;, id: 3, branchId: 0, recurseId: &#45;1, attributes: 512, notes: &quot;&quot; -->
<g id="node4" class="node">
<title>101</title>
<ellipse fill="none" stroke="black" cx="996.16" cy="-288" rx="68.24" ry="18"/>
<text text-anchor="middle" x="996.16" y="-282.95" font-family="Times,serif" font-size="14.00">unsigned varint</text>
</g>
<!-- 100&#45;&gt;101 -->
<g id="edge3" class="edge">
<title>100&#45;&gt;101</title>
<path fill="none" stroke="black" d="M503.61,-288C593.16,-288 801.38,-288 916,-288"/>
<polygon fill="black" stroke="black" points="915.95,-291.5 925.95,-288 915.95,-284.5 915.95,-291.5"/>
</g>
<!-- 103 -->
<!-- name: &quot;Group&quot;, typeName: &quot;&quot;, id: 3, branchId: 0, recurseId: &#45;1, attributes: 512, notes: &quot;&quot; -->
<g id="node6" class="node">
<title>103</title>
<ellipse fill="none" stroke="black" cx="638.92" cy="-234" rx="34.46" ry="18"/>
<text text-anchor="middle" x="638.92" y="-228.95" font-family="Times,serif" font-size="14.00">Group</text>
</g>
<!-- 102&#45;&gt;103 -->
<g id="edge5" class="edge">
<title>102&#45;&gt;103</title>
<path fill="none" stroke="black" d="M535.13,-234C554.76,-234 575.35,-234 592.91,-234"/>
<polygon fill="black" stroke="black" points="592.73,-237.5 602.73,-234 592.73,-230.5 592.73,-237.5"/>
</g>
<!-- 104 -->
<!-- name: &quot;SharedTypes::v1_21_60::CraftingCatalogGroup&quot;, typeName: &quot;&quot;, id: 3, branchId: 0, recurseId: &#45;1, attributes: 512, notes: &quot;&quot; -->
<g id="node7" class="node">
<title>104</title>
<ellipse fill="none" stroke="black" cx="996.16" cy="-234" rx="189.03" ry="18"/>
<text text-anchor="middle" x="996.16" y="-228.95" font-family="Times,serif" font-size="14.00">SharedTypes::v1_21_60::CraftingCatalogGroup</text>
</g>
<!-- 103&#45;&gt;104 -->
<g id="edge6" class="edge">
<title>103&#45;&gt;104</title>
<path fill="none" stroke="black" d="M673.66,-234C703,-234 748.12,-234 795.38,-234"/>
<polygon fill="black" stroke="black" points="795.26,-237.5 805.26,-234 795.26,-230.5 795.26,-237.5"/>
</g>
<!-- 2 -->
<!-- name: &quot;List Size&quot;, typeName: &quot;&quot;, id: 2, branchId: 0, recurseId: &#45;1, attributes: 0, notes: &quot;&quot; -->
<g id="node9" class="node">
<title>2</title>
<ellipse fill="none" stroke="black" cx="459.78" cy="-180" rx="43.67" ry="18"/>
<text text-anchor="middle" x="459.78" y="-174.95" font-family="Times,serif" font-size="14.00">List Size</text>
</g>
<!-- 1&#45;&gt;2 -->
<g id="edge8" class="edge">
<title>1&#45;&gt;2</title>
<path fill="none" stroke="black" d="M349.07,-180C367.12,-180 386.84,-180 404.52,-180"/>
<polygon fill="black" stroke="black" points="404.29,-183.5 414.29,-180 404.29,-176.5 404.29,-183.5"/>
</g>
<!-- 4 -->
<!-- name: &quot;example element&quot;, typeName: &quot;&quot;, id: 4, branchId: 0, recurseId: &#45;1, attributes: 16, notes: &quot;&quot; -->
<g id="node11" class="node">
<title>4</title>
<ellipse fill="none" stroke="black" stroke-dasharray="1,5" cx="459.78" cy="-99" rx="74.89" ry="18"/>
<text text-anchor="middle" x="459.78" y="-93.95" font-family="Times,serif" font-size="14.00">example element</text>
</g>
<!-- 1&#45;&gt;4 -->
<g id="edge10" class="edge">
<title>1&#45;&gt;4</title>
<path fill="none" stroke="black" d="M321.59,-164.57C347.85,-152.02 385.19,-134.18 414.28,-120.27"/>
<polygon fill="black" stroke="black" points="415.71,-123.46 423.23,-115.99 412.69,-117.15 415.71,-123.46"/>
</g>
<!-- 3 -->
<!-- name: &quot;unsigned varint&quot;, typeName: &quot;&quot;, id: 3, branchId: 0, recurseId: &#45;1, attributes: 512, notes: &quot;&quot; -->
<g id="node10" class="node">
<title>3</title>
<ellipse fill="none" stroke="black" cx="996.16" cy="-180" rx="68.24" ry="18"/>
<text text-anchor="middle" x="996.16" y="-174.95" font-family="Times,serif" font-size="14.00">unsigned varint</text>
</g>
<!-- 2&#45;&gt;3 -->
<g id="edge9" class="edge">
<title>2&#45;&gt;3</title>
<path fill="none" stroke="black" d="M503.61,-180C593.16,-180 801.38,-180 916,-180"/>
<polygon fill="black" stroke="black" points="915.95,-183.5 925.95,-180 915.95,-176.5 915.95,-183.5"/>
</g>
<!-- 5 -->
<!-- name: &quot;Creative Net Id&quot;, typeName: &quot;TypedServerNetId&lt;struct CreativeItemNetIdTag,unsigned int,0&gt;&quot;, id: 5, branchId: 0, recurseId: &#45;1, attributes: 256, notes: &quot;&quot; -->
<g id="node12" class="node">
<title>5</title>
<ellipse fill="none" stroke="black" cx="638.92" cy="-126" rx="68.24" ry="18"/>
<text text-anchor="middle" x="638.92" y="-120.95" font-family="Times,serif" font-size="14.00">Creative Net Id</text>
</g>
<!-- 4&#45;&gt;5 -->
<g id="edge11" class="edge">
<title>4&#45;&gt;5</title>
<path fill="none" stroke="black" d="M523.73,-108.6C538.07,-110.78 553.4,-113.12 568.01,-115.34"/>
<polygon fill="black" stroke="black" points="567.11,-118.75 577.52,-116.79 568.16,-111.83 567.11,-118.75"/>
</g>
<!-- 10 -->
<!-- name: &quot;Item Instance&quot;, typeName: &quot;NetworkItemInstanceDescriptor&quot;, id: 10, branchId: 0, recurseId: &#45;1, attributes: 256, notes: &quot;&quot; -->
<g id="node14" class="node">
<title>10</title>
<ellipse fill="none" stroke="black" cx="638.92" cy="-72" rx="61.59" ry="18"/>
<text text-anchor="middle" x="638.92" y="-66.95" font-family="Times,serif" font-size="14.00">Item Instance</text>
</g>
<!-- 4&#45;&gt;10 -->
<g id="edge13" class="edge">
<title>4&#45;&gt;10</title>
<path fill="none" stroke="black" d="M523.73,-89.4C539.49,-87 556.44,-84.42 572.33,-82"/>
<polygon fill="black" stroke="black" points="572.83,-85.46 582.18,-80.49 571.77,-78.54 572.83,-85.46"/>
</g>
<!-- 12 -->
<!-- name: &quot;Item Instance&quot;, typeName: &quot;Group Index&quot;, id: 10, branchId: 0, recurseId: &#45;1, attributes: 256, notes: &quot;&quot; -->
<g id="node16" class="node">
<title>12</title>
<ellipse fill="none" stroke="black" cx="638.92" cy="-18" rx="58" ry="18"/>
<text text-anchor="middle" x="638.92" y="-12.95" font-family="Times,serif" font-size="14.00">Group Index</text>
</g>
<!-- 4&#45;&gt;12 -->
<g id="edge15" class="edge">
<title>4&#45;&gt;12</title>
<path fill="none" stroke="black" d="M492.7,-82.53C514.47,-71.49 544.07,-56.86 570.67,-45 577.16,-42.11 584.05,-39.18 590.86,-36.37"/>
<polygon fill="black" stroke="black" points="592.07,-39.66 600.01,-32.65 589.43,-33.18 592.07,-39.66"/>
</g>
<!-- 9 -->
<!-- name: &quot;TypedServerNetId&lt;struct CreativeItemNetIdTag,unsigned int,0&gt;&quot;, typeName: &quot;&quot;, id: 9, branchId: 0, recurseId: &#45;1, attributes: 512, notes: &quot;&quot; -->
<g id="node13" class="node">
<title>9</title>
<ellipse fill="none" stroke="black" cx="996.16" cy="-126" rx="253" ry="18"/>
<text text-anchor="middle" x="996.16" y="-120.95" font-family="Times,serif" font-size="14.00">TypedServerNetId&lt;struct CreativeItemNetIdTag,unsigned int,0&gt;</text>
</g>
<!-- 5&#45;&gt;9 -->
<g id="edge12" class="edge">
<title>5&#45;&gt;9</title>
<path fill="none" stroke="black" d="M707.57,-126C715.2,-126 723.27,-126 731.69,-126"/>
<polygon fill="black" stroke="black" points="731.42,-129.5 741.42,-126 731.42,-122.5 731.42,-129.5"/>
</g>
<!-- 11 -->
<!-- name: &quot;NetworkItemInstanceDescriptor&quot;, typeName: &quot;&quot;, id: 11, branchId: 0, recurseId: &#45;1, attributes: 512, notes: &quot;&quot; -->
<g id="node15" class="node">
<title>11</title>
<ellipse fill="none" stroke="black" cx="996.16" cy="-72" rx="130.17" ry="18"/>
<text text-anchor="middle" x="996.16" y="-66.95" font-family="Times,serif" font-size="14.00">NetworkItemInstanceDescriptor</text>
</g>
<!-- 10&#45;&gt;11 -->
<g id="edge14" class="edge">
<title>10&#45;&gt;11</title>
<path fill="none" stroke="black" d="M700.98,-72C743.21,-72 801.17,-72 854.49,-72"/>
<polygon fill="black" stroke="black" points="854.27,-75.5 864.27,-72 854.27,-68.5 854.27,-75.5"/>
</g>
<!-- 13 -->
<!-- name: &quot;unsigned varint&quot;, typeName: &quot;&quot;, id: 11, branchId: 0, recurseId: &#45;1, attributes: 512, notes: &quot;&quot; -->
<g id="node17" class="node">
<title>13</title>
<ellipse fill="none" stroke="black" cx="996.16" cy="-18" rx="68.24" ry="18"/>
<text text-anchor="middle" x="996.16" y="-12.95" font-family="Times,serif" font-size="14.00">unsigned varint</text>
</g>
<!-- 12&#45;&gt;13 -->
<g id="edge16" class="edge">
<title>12&#45;&gt;13</title>
<path fill="none" stroke="black" d="M697.39,-18C756.79,-18 849.94,-18 916.23,-18"/>
<polygon fill="black" stroke="black" points="915.94,-21.5 925.94,-18 915.94,-14.5 915.94,-21.5"/>
</g>
</g>
</svg>
