<svg width="567px" height="368px"
 viewBox="0.00 0.00 567.24 368.00" xmlns="http://www.w3.org/2000/svg" xmlns:xlink="http://www.w3.org/1999/xlink">
<g id="graph0" class="graph" transform="scale(1.0 1.0) rotate(0.0) translate(4.0 364.0)">
<title>LevelSoundEventPacket</title>
<polygon fill="white" stroke="none" points="-4,4 -4,-364 563.24,-364 563.24,4 -4,4"/>
<!-- 0 -->
<!-- name: &quot;LevelSoundEventPacket&quot;, typeName: &quot;&quot;, id: 0, branchId: 123, recurseId: &#45;1, attributes: 0, notes: &quot;&quot; -->
<g id="node1" class="node">
<title>0</title>
<ellipse fill="none" stroke="black" cx="101.51" cy="-180" rx="101.51" ry="18"/>
<text text-anchor="middle" x="101.51" y="-174.95" font-family="Times,serif" font-size="14.00">LevelSoundEventPacket</text>
</g>
<!-- 1 -->
<!-- name: &quot;Event ID&quot;, typeName: &quot;&quot;, id: 1, branchId: 0, recurseId: &#45;1, attributes: 0, notes: &quot;&quot; -->
<g id="node2" class="node">
<title>1</title>
<ellipse fill="none" stroke="black" cx="312.89" cy="-342" rx="44.7" ry="18"/>
<text text-anchor="middle" x="312.89" y="-336.95" font-family="Times,serif" font-size="14.00">Event ID</text>
</g>
<!-- 0&#45;&gt;1 -->
<g id="edge1" class="edge">
<title>0&#45;&gt;1</title>
<path fill="none" stroke="black" d="M116.56,-198.21C139.4,-226.72 187.3,-282.04 239.02,-315 246.86,-320 255.77,-324.27 264.6,-327.83"/>
<polygon fill="black" stroke="black" points="263.24,-331.06 273.83,-331.3 265.7,-324.5 263.24,-331.06"/>
</g>
<!-- 3 -->
<!-- name: &quot;Position&quot;, typeName: &quot;Vec3&quot;, id: 3, branchId: 0, recurseId: &#45;1, attributes: 256, notes: &quot;&quot; -->
<g id="node4" class="node">
<title>3</title>
<ellipse fill="none" stroke="black" cx="312.89" cy="-288" rx="41.12" ry="18"/>
<text text-anchor="middle" x="312.89" y="-282.95" font-family="Times,serif" font-size="14.00">Position</text>
</g>
<!-- 0&#45;&gt;3 -->
<g id="edge3" class="edge">
<title>0&#45;&gt;3</title>
<path fill="none" stroke="black" d="M129.17,-197.78C156.12,-215.29 199.35,-242.07 239.02,-261 248.31,-265.43 258.53,-269.62 268.31,-273.32"/>
<polygon fill="black" stroke="black" points="267.07,-276.59 277.66,-276.75 269.48,-270.02 267.07,-276.59"/>
</g>
<!-- 5 -->
<!-- name: &quot;Data&quot;, typeName: &quot;&quot;, id: 5, branchId: 0, recurseId: &#45;1, attributes: 0, notes: &quot;&quot; -->
<g id="node6" class="node">
<title>5</title>
<ellipse fill="none" stroke="black" cx="312.89" cy="-234" rx="28.32" ry="18"/>
<text text-anchor="middle" x="312.89" y="-228.95" font-family="Times,serif" font-size="14.00">Data</text>
</g>
<!-- 0&#45;&gt;5 -->
<g id="edge5" class="edge">
<title>0&#45;&gt;5</title>
<path fill="none" stroke="black" d="M160.83,-195.04C197.47,-204.49 243.61,-216.39 275.2,-224.54"/>
<polygon fill="black" stroke="black" points="274.11,-227.87 284.66,-226.98 275.85,-221.09 274.11,-227.87"/>
</g>
<!-- 7 -->
<!-- name: &quot;Actor Identifier&quot;, typeName: &quot;&quot;, id: 7, branchId: 0, recurseId: &#45;1, attributes: 0, notes: &quot;&quot; -->
<g id="node8" class="node">
<title>7</title>
<ellipse fill="none" stroke="black" cx="312.89" cy="-180" rx="68.75" ry="18"/>
<text text-anchor="middle" x="312.89" y="-174.95" font-family="Times,serif" font-size="14.00">Actor Identifier</text>
</g>
<!-- 0&#45;&gt;7 -->
<g id="edge7" class="edge">
<title>0&#45;&gt;7</title>
<path fill="none" stroke="black" d="M203.21,-180C212.97,-180 222.77,-180 232.28,-180"/>
<polygon fill="black" stroke="black" points="232.2,-183.5 242.2,-180 232.2,-176.5 232.2,-183.5"/>
</g>
<!-- 9 -->
<!-- name: &quot;Is Baby Mob&quot;, typeName: &quot;&quot;, id: 9, branchId: 0, recurseId: &#45;1, attributes: 0, notes: &quot;&quot; -->
<g id="node10" class="node">
<title>9</title>
<ellipse fill="none" stroke="black" cx="312.89" cy="-126" rx="60.05" ry="18"/>
<text text-anchor="middle" x="312.89" y="-120.95" font-family="Times,serif" font-size="14.00">Is Baby Mob</text>
</g>
<!-- 0&#45;&gt;9 -->
<g id="edge9" class="edge">
<title>0&#45;&gt;9</title>
<path fill="none" stroke="black" d="M160.83,-164.96C190.45,-157.32 226.26,-148.08 255.59,-140.52"/>
<polygon fill="black" stroke="black" points="256.21,-143.98 265.01,-138.09 254.46,-137.2 256.21,-143.98"/>
</g>
<!-- 11 -->
<!-- name: &quot;Is Global&quot;, typeName: &quot;&quot;, id: 11, branchId: 0, recurseId: &#45;1, attributes: 0, notes: &quot;&quot; -->
<g id="node12" class="node">
<title>11</title>
<ellipse fill="none" stroke="black" cx="312.89" cy="-72" rx="45.21" ry="18"/>
<text text-anchor="middle" x="312.89" y="-66.95" font-family="Times,serif" font-size="14.00">Is Global</text>
</g>
<!-- 0&#45;&gt;11 -->
<g id="edge11" class="edge">
<title>0&#45;&gt;11</title>
<path fill="none" stroke="black" d="M129.17,-162.22C156.12,-144.71 199.35,-117.93 239.02,-99 247.77,-94.82 257.35,-90.86 266.61,-87.33"/>
<polygon fill="black" stroke="black" points="267.67,-90.67 275.83,-83.91 265.24,-84.1 267.67,-90.67"/>
</g>
<!-- 13 -->
<!-- name: &quot;Actor Unique ID&quot;, typeName: &quot;&quot;, id: 13, branchId: 0, recurseId: &#45;1, attributes: 0, notes: &quot;&quot; -->
<g id="node14" class="node">
<title>13</title>
<ellipse fill="none" stroke="black" cx="312.89" cy="-18" rx="73.87" ry="18"/>
<text text-anchor="middle" x="312.89" y="-12.95" font-family="Times,serif" font-size="14.00">Actor Unique ID</text>
</g>
<!-- 0&#45;&gt;13 -->
<g id="edge13" class="edge">
<title>0&#45;&gt;13</title>
<path fill="none" stroke="black" d="M116.56,-161.79C139.4,-133.28 187.3,-77.96 239.02,-45 243.87,-41.91 249.13,-39.1 254.52,-36.56"/>
<polygon fill="black" stroke="black" points="255.83,-39.81 263.61,-32.61 253.04,-33.39 255.83,-39.81"/>
</g>
<!-- 2 -->
<!-- name: &quot;unsigned varint&quot;, typeName: &quot;&quot;, id: 2, branchId: 0, recurseId: &#45;1, attributes: 512, notes: &quot;&quot; -->
<g id="node3" class="node">
<title>2</title>
<ellipse fill="none" stroke="black" cx="491" cy="-342" rx="68.24" ry="18"/>
<text text-anchor="middle" x="491" y="-336.95" font-family="Times,serif" font-size="14.00">unsigned varint</text>
</g>
<!-- 1&#45;&gt;2 -->
<g id="edge2" class="edge">
<title>1&#45;&gt;2</title>
<path fill="none" stroke="black" d="M357.87,-342C373.99,-342 392.76,-342 411,-342"/>
<polygon fill="black" stroke="black" points="410.75,-345.5 420.75,-342 410.75,-338.5 410.75,-345.5"/>
</g>
<!-- 4 -->
<!-- name: &quot;Vec3&quot;, typeName: &quot;&quot;, id: 4, branchId: 0, recurseId: &#45;1, attributes: 512, notes: &quot;&quot; -->
<g id="node5" class="node">
<title>4</title>
<ellipse fill="none" stroke="black" cx="491" cy="-288" rx="29.34" ry="18"/>
<text text-anchor="middle" x="491" y="-282.95" font-family="Times,serif" font-size="14.00">Vec3</text>
</g>
<!-- 3&#45;&gt;4 -->
<g id="edge4" class="edge">
<title>3&#45;&gt;4</title>
<path fill="none" stroke="black" d="M354.29,-288C383.03,-288 421.46,-288 450.09,-288"/>
<polygon fill="black" stroke="black" points="449.8,-291.5 459.8,-288 449.8,-284.5 449.8,-291.5"/>
</g>
<!-- 6 -->
<!-- name: &quot;varint&quot;, typeName: &quot;&quot;, id: 6, branchId: 0, recurseId: &#45;1, attributes: 512, notes: &quot;&quot; -->
<g id="node7" class="node">
<title>6</title>
<ellipse fill="none" stroke="black" cx="491" cy="-234" rx="32.41" ry="18"/>
<text text-anchor="middle" x="491" y="-228.95" font-family="Times,serif" font-size="14.00">varint</text>
</g>
<!-- 5&#45;&gt;6 -->
<g id="edge6" class="edge">
<title>5&#45;&gt;6</title>
<path fill="none" stroke="black" d="M341.41,-234C369.7,-234 414.17,-234 447.09,-234"/>
<polygon fill="black" stroke="black" points="446.7,-237.5 456.7,-234 446.7,-230.5 446.7,-237.5"/>
</g>
<!-- 8 -->
<!-- name: &quot;string&quot;, typeName: &quot;&quot;, id: 8, branchId: 0, recurseId: &#45;1, attributes: 512, notes: &quot;&quot; -->
<g id="node9" class="node">
<title>8</title>
<ellipse fill="none" stroke="black" cx="491" cy="-180" rx="31.9" ry="18"/>
<text text-anchor="middle" x="491" y="-174.95" font-family="Times,serif" font-size="14.00">string</text>
</g>
<!-- 7&#45;&gt;8 -->
<g id="edge8" class="edge">
<title>7&#45;&gt;8</title>
<path fill="none" stroke="black" d="M381.98,-180C404.04,-180 427.88,-180 447.53,-180"/>
<polygon fill="black" stroke="black" points="447.35,-183.5 457.35,-180 447.35,-176.5 447.35,-183.5"/>
</g>
<!-- 10 -->
<!-- name: &quot;bool&quot;, typeName: &quot;&quot;, id: 10, branchId: 0, recurseId: &#45;1, attributes: 512, notes: &quot;&quot; -->
<g id="node11" class="node">
<title>10</title>
<ellipse fill="none" stroke="black" cx="491" cy="-126" rx="27.3" ry="18"/>
<text text-anchor="middle" x="491" y="-120.95" font-family="Times,serif" font-size="14.00">bool</text>
</g>
<!-- 9&#45;&gt;10 -->
<g id="edge10" class="edge">
<title>9&#45;&gt;10</title>
<path fill="none" stroke="black" d="M373.02,-126C399.06,-126 428.89,-126 451.92,-126"/>
<polygon fill="black" stroke="black" points="451.76,-129.5 461.76,-126 451.76,-122.5 451.76,-129.5"/>
</g>
<!-- 12 -->
<!-- name: &quot;bool&quot;, typeName: &quot;&quot;, id: 12, branchId: 0, recurseId: &#45;1, attributes: 512, notes: &quot;&quot; -->
<g id="node13" class="node">
<title>12</title>
<ellipse fill="none" stroke="black" cx="491" cy="-72" rx="27.3" ry="18"/>
<text text-anchor="middle" x="491" y="-66.95" font-family="Times,serif" font-size="14.00">bool</text>
</g>
<!-- 11&#45;&gt;12 -->
<g id="edge12" class="edge">
<title>11&#45;&gt;12</title>
<path fill="none" stroke="black" d="M358.33,-72C387.18,-72 424.38,-72 451.88,-72"/>
<polygon fill="black" stroke="black" points="451.88,-75.5 461.88,-72 451.88,-68.5 451.88,-75.5"/>
</g>
<!-- 14 -->
<!-- name: &quot;int64&quot;, typeName: &quot;&quot;, id: 14, branchId: 0, recurseId: &#45;1, attributes: 512, notes: &quot;&quot; -->
<g id="node15" class="node">
<title>14</title>
<ellipse fill="none" stroke="black" cx="491" cy="-18" rx="29.86" ry="18"/>
<text text-anchor="middle" x="491" y="-12.95" font-family="Times,serif" font-size="14.00">int64</text>
</g>
<!-- 13&#45;&gt;14 -->
<g id="edge14" class="edge">
<title>13&#45;&gt;14</title>
<path fill="none" stroke="black" d="M387.05,-18C408.39,-18 430.93,-18 449.47,-18"/>
<polygon fill="black" stroke="black" points="449.22,-21.5 459.22,-18 449.22,-14.5 449.22,-21.5"/>
</g>
</g>
</svg>
