<svg width="975px" height="260px"
 viewBox="0.00 0.00 975.20 260.00" xmlns="http://www.w3.org/2000/svg" xmlns:xlink="http://www.w3.org/1999/xlink">
<g id="graph0" class="graph" transform="scale(1.0 1.0) rotate(0.0) translate(4.0 256.0)">
<title>PlayerVideoCapturePacket</title>
<polygon fill="white" stroke="none" points="-4,4 -4,-256 971.2,-256 971.2,4 -4,4"/>
<!-- 0 -->
<!-- name: &quot;PlayerVideoCapturePacket&quot;, typeName: &quot;&quot;, id: 0, branchId: 324, recurseId: &#45;1, attributes: 0, notes: &quot;&quot; -->
<g id="node1" class="node">
<title>0</title>
<ellipse fill="none" stroke="black" cx="110.72" cy="-72" rx="110.72" ry="18"/>
<text text-anchor="middle" x="110.72" y="-66.95" font-family="Times,serif" font-size="14.00">PlayerVideoCapturePacket</text>
</g>
<!-- 1 -->
<!-- name: &quot;Dependency on &#39;Action&#39;&quot;, typeName: &quot;&quot;, id: 1, branchId: 0, recurseId: &#45;1, attributes: 2, notes: &quot;&quot; -->
<g id="node2" class="node">
<title>1</title>
<polygon fill="none" stroke="black" points="397.19,-90 257.44,-90 257.44,-54 403.19,-54 403.19,-84 397.19,-90"/>
<polyline fill="none" stroke="black" points="397.19,-90 397.19,-84"/>
<polyline fill="none" stroke="black" points="403.19,-84 397.19,-84"/>
<text text-anchor="middle" x="330.32" y="-66.95" font-family="Times,serif" font-size="14.00">Dependency on &#39;Action&#39;</text>
</g>
<!-- 0&#45;&gt;1 -->
<g id="edge1" class="edge">
<title>0&#45;&gt;1</title>
<path fill="none" stroke="black" d="M221.79,-72C229.87,-72 237.93,-72 245.81,-72"/>
<polygon fill="black" stroke="black" points="245.68,-75.5 255.68,-72 245.68,-68.5 245.68,-75.5"/>
</g>
<!-- 2 -->
<!-- name: &quot;Start Video Capture&quot;, typeName: &quot;&quot;, id: 2, branchId: 0, recurseId: &#45;1, attributes: 4, notes: &quot;&quot; -->
<g id="node3" class="node">
<title>2</title>
<polygon fill="none" stroke="black" points="558.86,-171 439.19,-153 558.86,-135 678.53,-153 558.86,-171"/>
<text text-anchor="middle" x="558.86" y="-147.95" font-family="Times,serif" font-size="14.00">Start Video Capture</text>
</g>
<!-- 1&#45;&gt;2 -->
<g id="edge2" class="edge">
<title>1&#45;&gt;2</title>
<path fill="none" stroke="black" d="M383.01,-90.48C421.64,-104.29 473.99,-123.01 511.32,-136.36"/>
<polygon fill="black" stroke="black" points="509.89,-139.56 520.48,-139.64 512.25,-132.97 509.89,-139.56"/>
</g>
<!-- 9 -->
<!-- name: &quot;Stop Video Capture&quot;, typeName: &quot;&quot;, id: 9, branchId: 1, recurseId: &#45;1, attributes: 4, notes: &quot;&quot; -->
<g id="node10" class="node">
<title>9</title>
<polygon fill="none" stroke="black" points="558.86,-90 439.92,-72 558.86,-54 677.81,-72 558.86,-90"/>
<text text-anchor="middle" x="558.86" y="-66.95" font-family="Times,serif" font-size="14.00">Stop Video Capture</text>
</g>
<!-- 1&#45;&gt;9 -->
<g id="edge9" class="edge">
<title>1&#45;&gt;9</title>
<path fill="none" stroke="black" d="M403.62,-72C410.67,-72 417.97,-72 425.38,-72"/>
<polygon fill="black" stroke="black" points="425.18,-75.5 435.18,-72 425.18,-68.5 425.18,-75.5"/>
</g>
<!-- 12 -->
<!-- name: &quot;Default&quot;, typeName: &quot;&quot;, id: 12, branchId: 2, recurseId: &#45;1, attributes: 4, notes: &quot;&quot; -->
<g id="node13" class="node">
<title>12</title>
<polygon fill="none" stroke="black" points="558.86,-36 504.33,-18 558.86,0 613.39,-18 558.86,-36"/>
<text text-anchor="middle" x="558.86" y="-12.95" font-family="Times,serif" font-size="14.00">Default</text>
</g>
<!-- 1&#45;&gt;12 -->
<g id="edge12" class="edge">
<title>1&#45;&gt;12</title>
<path fill="none" stroke="black" d="M403.51,-53.7C415.42,-50.75 427.64,-47.76 439.19,-45 463.87,-39.11 491.5,-32.8 513.89,-27.77"/>
<polygon fill="black" stroke="black" points="514.61,-31.19 523.6,-25.59 513.08,-24.36 514.61,-31.19"/>
</g>
<!-- 3 -->
<!-- name: &quot;Action&quot;, typeName: &quot;&quot;, id: 3, branchId: 0, recurseId: &#45;1, attributes: 0, notes: &quot;&quot; -->
<g id="node4" class="node">
<title>3</title>
<ellipse fill="none" stroke="black" cx="766.39" cy="-234" rx="36" ry="18"/>
<text text-anchor="middle" x="766.39" y="-228.95" font-family="Times,serif" font-size="14.00">Action</text>
</g>
<!-- 2&#45;&gt;3 -->
<g id="edge3" class="edge">
<title>2&#45;&gt;3</title>
<path fill="none" stroke="black" d="M593.34,-166.19C629.94,-180.62 688.49,-203.69 726.94,-218.85"/>
<polygon fill="black" stroke="black" points="725.22,-221.93 735.81,-222.34 727.79,-215.42 725.22,-221.93"/>
</g>
<!-- 5 -->
<!-- name: &quot;FrameRate&quot;, typeName: &quot;&quot;, id: 5, branchId: 0, recurseId: &#45;1, attributes: 0, notes: &quot;&quot; -->
<g id="node6" class="node">
<title>5</title>
<ellipse fill="none" stroke="black" cx="766.39" cy="-180" rx="51.86" ry="18"/>
<text text-anchor="middle" x="766.39" y="-174.95" font-family="Times,serif" font-size="14.00">FrameRate</text>
</g>
<!-- 2&#45;&gt;5 -->
<g id="edge5" class="edge">
<title>2&#45;&gt;5</title>
<path fill="none" stroke="black" d="M624.89,-161.54C650.9,-164.96 680.65,-168.87 706.06,-172.21"/>
<polygon fill="black" stroke="black" points="705.53,-175.67 715.9,-173.5 706.44,-168.73 705.53,-175.67"/>
</g>
<!-- 7 -->
<!-- name: &quot;FilePrefix&quot;, typeName: &quot;&quot;, id: 7, branchId: 0, recurseId: &#45;1, attributes: 0, notes: &quot;&quot; -->
<g id="node8" class="node">
<title>7</title>
<ellipse fill="none" stroke="black" cx="766.39" cy="-126" rx="47.77" ry="18"/>
<text text-anchor="middle" x="766.39" y="-120.95" font-family="Times,serif" font-size="14.00">FilePrefix</text>
</g>
<!-- 2&#45;&gt;7 -->
<g id="edge7" class="edge">
<title>2&#45;&gt;7</title>
<path fill="none" stroke="black" d="M624.89,-144.46C652.14,-140.88 683.51,-136.76 709.68,-133.32"/>
<polygon fill="black" stroke="black" points="709.96,-136.81 719.42,-132.04 709.05,-129.87 709.96,-136.81"/>
</g>
<!-- 4 -->
<!-- name: &quot;bool&quot;, typeName: &quot;&quot;, id: 4, branchId: 0, recurseId: &#45;1, attributes: 512, notes: &quot;&quot; -->
<g id="node5" class="node">
<title>4</title>
<ellipse fill="none" stroke="black" cx="910.73" cy="-234" rx="27.3" ry="18"/>
<text text-anchor="middle" x="910.73" y="-228.95" font-family="Times,serif" font-size="14.00">bool</text>
</g>
<!-- 3&#45;&gt;4 -->
<g id="edge4" class="edge">
<title>3&#45;&gt;4</title>
<path fill="none" stroke="black" d="M802.58,-234C823.55,-234 850.19,-234 871.66,-234"/>
<polygon fill="black" stroke="black" points="871.47,-237.5 881.47,-234 871.47,-230.5 871.47,-237.5"/>
</g>
<!-- 6 -->
<!-- name: &quot;unsigned int&quot;, typeName: &quot;&quot;, id: 6, branchId: 0, recurseId: &#45;1, attributes: 512, notes: &quot;&quot; -->
<g id="node7" class="node">
<title>6</title>
<ellipse fill="none" stroke="black" cx="910.73" cy="-180" rx="56.47" ry="18"/>
<text text-anchor="middle" x="910.73" y="-174.95" font-family="Times,serif" font-size="14.00">unsigned int</text>
</g>
<!-- 5&#45;&gt;6 -->
<g id="edge6" class="edge">
<title>5&#45;&gt;6</title>
<path fill="none" stroke="black" d="M818.38,-180C826.18,-180 834.35,-180 842.44,-180"/>
<polygon fill="black" stroke="black" points="842.28,-183.5 852.28,-180 842.28,-176.5 842.28,-183.5"/>
</g>
<!-- 8 -->
<!-- name: &quot;string&quot;, typeName: &quot;&quot;, id: 8, branchId: 0, recurseId: &#45;1, attributes: 512, notes: &quot;&quot; -->
<g id="node9" class="node">
<title>8</title>
<ellipse fill="none" stroke="black" cx="910.73" cy="-126" rx="31.9" ry="18"/>
<text text-anchor="middle" x="910.73" y="-120.95" font-family="Times,serif" font-size="14.00">string</text>
</g>
<!-- 7&#45;&gt;8 -->
<g id="edge8" class="edge">
<title>7&#45;&gt;8</title>
<path fill="none" stroke="black" d="M814.39,-126C831.5,-126 850.72,-126 867.4,-126"/>
<polygon fill="black" stroke="black" points="866.96,-129.5 876.96,-126 866.96,-122.5 866.96,-129.5"/>
</g>
<!-- 10 -->
<!-- name: &quot;Action&quot;, typeName: &quot;&quot;, id: 10, branchId: 0, recurseId: &#45;1, attributes: 0, notes: &quot;&quot; -->
<g id="node11" class="node">
<title>10</title>
<ellipse fill="none" stroke="black" cx="766.39" cy="-72" rx="36" ry="18"/>
<text text-anchor="middle" x="766.39" y="-66.95" font-family="Times,serif" font-size="14.00">Action</text>
</g>
<!-- 9&#45;&gt;10 -->
<g id="edge10" class="edge">
<title>9&#45;&gt;10</title>
<path fill="none" stroke="black" d="M680.91,-72C694.23,-72 707.13,-72 718.67,-72"/>
<polygon fill="black" stroke="black" points="718.66,-75.5 728.66,-72 718.65,-68.5 718.66,-75.5"/>
</g>
<!-- 11 -->
<!-- name: &quot;bool&quot;, typeName: &quot;&quot;, id: 11, branchId: 0, recurseId: &#45;1, attributes: 512, notes: &quot;&quot; -->
<g id="node12" class="node">
<title>11</title>
<ellipse fill="none" stroke="black" cx="910.73" cy="-72" rx="27.3" ry="18"/>
<text text-anchor="middle" x="910.73" y="-66.95" font-family="Times,serif" font-size="14.00">bool</text>
</g>
<!-- 10&#45;&gt;11 -->
<g id="edge11" class="edge">
<title>10&#45;&gt;11</title>
<path fill="none" stroke="black" d="M802.58,-72C823.55,-72 850.19,-72 871.66,-72"/>
<polygon fill="black" stroke="black" points="871.47,-75.5 881.47,-72 871.47,-68.5 871.47,-75.5"/>
</g>
<!-- 13 -->
<!-- name: &quot;[No Data]&quot;, typeName: &quot;&quot;, id: 13, branchId: 0, recurseId: &#45;1, attributes: 512, notes: &quot;&quot; -->
<g id="node14" class="node">
<title>13</title>
<ellipse fill="none" stroke="black" cx="910.73" cy="-18" rx="48.28" ry="18"/>
<text text-anchor="middle" x="910.73" y="-12.95" font-family="Times,serif" font-size="14.00">[No Data]</text>
</g>
<!-- 12&#45;&gt;13 -->
<g id="edge13" class="edge">
<title>12&#45;&gt;13</title>
<path fill="none" stroke="black" d="M614.91,-18C679.09,-18 784.73,-18 850.6,-18"/>
<polygon fill="black" stroke="black" points="850.5,-21.5 860.5,-18 850.5,-14.5 850.5,-21.5"/>
</g>
</g>
</svg>
