<svg width="1080px" height="314px"
 viewBox="0.00 0.00 1079.64 314.00" xmlns="http://www.w3.org/2000/svg" xmlns:xlink="http://www.w3.org/1999/xlink">
<g id="graph0" class="graph" transform="scale(1.0 1.0) rotate(0.0) translate(4.0 310.0)">
<title>PlayerUpdateEntityOverridesPacket</title>
<polygon fill="white" stroke="none" points="-4,4 -4,-310 1075.64,-310 1075.64,4 -4,4"/>
<!-- 0 -->
<!-- name: &quot;PlayerUpdateEntityOverridesPacket&quot;, typeName: &quot;&quot;, id: 0, branchId: 325, recurseId: &#45;1, attributes: 0, notes: &quot;&quot; -->
<g id="node1" class="node">
<title>0</title>
<ellipse fill="none" stroke="black" cx="144.5" cy="-207" rx="144.5" ry="18"/>
<text text-anchor="middle" x="144.5" y="-201.95" font-family="Times,serif" font-size="14.00">PlayerUpdateEntityOverridesPacket</text>
</g>
<!-- 1 -->
<!-- name: &quot;Target ID&quot;, typeName: &quot;ActorUniqueID&quot;, id: 1, branchId: 0, recurseId: &#45;1, attributes: 256, notes: &quot;&quot; -->
<g id="node2" class="node">
<title>1</title>
<ellipse fill="none" stroke="black" cx="845.25" cy="-286" rx="47.26" ry="18"/>
<text text-anchor="middle" x="845.25" y="-280.95" font-family="Times,serif" font-size="14.00">Target ID</text>
</g>
<!-- 0&#45;&gt;1 -->
<g id="edge1" class="edge">
<title>0&#45;&gt;1</title>
<path fill="none" stroke="black" d="M191.99,-224.41C227.79,-236.97 278.82,-253.06 325,-261 490.82,-289.49 690.49,-289.75 786.78,-287.78"/>
<polygon fill="black" stroke="black" points="786.56,-291.28 796.48,-287.56 786.41,-284.29 786.56,-291.28"/>
</g>
<!-- 3 -->
<!-- name: &quot;Property Index&quot;, typeName: &quot;&quot;, id: 3, branchId: 0, recurseId: &#45;1, attributes: 0, notes: &quot;&quot; -->
<g id="node4" class="node">
<title>3</title>
<ellipse fill="none" stroke="black" cx="410.25" cy="-234" rx="66.19" ry="18"/>
<text text-anchor="middle" x="410.25" y="-228.95" font-family="Times,serif" font-size="14.00">Property Index</text>
</g>
<!-- 0&#45;&gt;3 -->
<g id="edge3" class="edge">
<title>0&#45;&gt;3</title>
<path fill="none" stroke="black" d="M257.74,-218.49C284.37,-221.22 312.09,-224.05 336.43,-226.54"/>
<polygon fill="black" stroke="black" points="335.91,-230.01 346.21,-227.55 336.62,-223.05 335.91,-230.01"/>
</g>
<!-- 5 -->
<!-- name: &quot;Update Type&quot;, typeName: &quot;&quot;, id: 5, branchId: 0, recurseId: &#45;1, attributes: 0, notes: &quot;&quot; -->
<g id="node6" class="node">
<title>5</title>
<ellipse fill="none" stroke="black" cx="410.25" cy="-180" rx="58.52" ry="18"/>
<text text-anchor="middle" x="410.25" y="-174.95" font-family="Times,serif" font-size="14.00">Update Type</text>
</g>
<!-- 0&#45;&gt;5 -->
<g id="edge5" class="edge">
<title>0&#45;&gt;5</title>
<path fill="none" stroke="black" d="M257.74,-195.51C286.8,-192.53 317.17,-189.43 343.03,-186.78"/>
<polygon fill="black" stroke="black" points="343.09,-190.29 352.68,-185.79 342.38,-183.33 343.09,-190.29"/>
</g>
<!-- 7 -->
<!-- name: &quot;Dependency on &#39;Value Type&#39;&quot;, typeName: &quot;&quot;, id: 7, branchId: 0, recurseId: &#45;1, attributes: 2, notes: &quot;&quot; -->
<g id="node8" class="node">
<title>7</title>
<polygon fill="none" stroke="black" points="489.5,-117 325,-117 325,-81 495.5,-81 495.5,-111 489.5,-117"/>
<polyline fill="none" stroke="black" points="489.5,-117 489.5,-111"/>
<polyline fill="none" stroke="black" points="495.5,-111 489.5,-111"/>
<text text-anchor="middle" x="410.25" y="-93.95" font-family="Times,serif" font-size="14.00">Dependency on &#39;Value Type&#39;</text>
</g>
<!-- 0&#45;&gt;7 -->
<g id="edge7" class="edge">
<title>0&#45;&gt;7</title>
<path fill="none" stroke="black" d="M188.46,-189.41C233.48,-170.98 304.36,-141.95 353.62,-121.78"/>
<polygon fill="black" stroke="black" points="354.77,-125.09 362.7,-118.06 352.12,-118.61 354.77,-125.09"/>
</g>
<!-- 2 -->
<!-- name: &quot;ActorUniqueID&quot;, typeName: &quot;&quot;, id: 2, branchId: 0, recurseId: &#45;1, attributes: 512, notes: &quot;&quot; -->
<g id="node3" class="node">
<title>2</title>
<ellipse fill="none" stroke="black" cx="1002.89" cy="-288" rx="68.75" ry="18"/>
<text text-anchor="middle" x="1002.89" y="-282.95" font-family="Times,serif" font-size="14.00">ActorUniqueID</text>
</g>
<!-- 1&#45;&gt;2 -->
<g id="edge2" class="edge">
<title>1&#45;&gt;2</title>
<path fill="none" stroke="black" d="M892.95,-286.6C902.32,-286.72 912.4,-286.85 922.53,-286.98"/>
<polygon fill="black" stroke="black" points="922.38,-290.48 932.42,-287.11 922.47,-283.48 922.38,-290.48"/>
</g>
<!-- 4 -->
<!-- name: &quot;unsigned varint&quot;, typeName: &quot;&quot;, id: 4, branchId: 0, recurseId: &#45;1, attributes: 512, notes: &quot;&quot; -->
<g id="node5" class="node">
<title>4</title>
<ellipse fill="none" stroke="black" cx="1002.89" cy="-234" rx="68.24" ry="18"/>
<text text-anchor="middle" x="1002.89" y="-228.95" font-family="Times,serif" font-size="14.00">unsigned varint</text>
</g>
<!-- 3&#45;&gt;4 -->
<g id="edge4" class="edge">
<title>3&#45;&gt;4</title>
<path fill="none" stroke="black" d="M476.72,-234C586.01,-234 805.22,-234 922.9,-234"/>
<polygon fill="black" stroke="black" points="922.8,-237.5 932.8,-234 922.8,-230.5 922.8,-237.5"/>
</g>
<!-- 6 -->
<!-- name: &quot;byte&quot;, typeName: &quot;&quot;, id: 6, branchId: 0, recurseId: &#45;1, attributes: 512, notes: &quot;&quot; -->
<g id="node7" class="node">
<title>6</title>
<ellipse fill="none" stroke="black" cx="1002.89" cy="-180" rx="27" ry="18"/>
<text text-anchor="middle" x="1002.89" y="-174.95" font-family="Times,serif" font-size="14.00">byte</text>
</g>
<!-- 5&#45;&gt;6 -->
<g id="edge6" class="edge">
<title>5&#45;&gt;6</title>
<path fill="none" stroke="black" d="M469.23,-180C589.61,-180 863.78,-180 964.16,-180"/>
<polygon fill="black" stroke="black" points="964.01,-183.5 974.01,-180 964.01,-176.5 964.01,-183.5"/>
</g>
<!-- 8 -->
<!-- name: &quot;Set Int Override&quot;, typeName: &quot;&quot;, id: 8, branchId: 0, recurseId: &#45;1, attributes: 4, notes: &quot;&quot; -->
<g id="node9" class="node">
<title>8</title>
<polygon fill="none" stroke="black" points="643.93,-144 543.81,-126 643.93,-108 744.06,-126 643.93,-144"/>
<text text-anchor="middle" x="643.93" y="-120.95" font-family="Times,serif" font-size="14.00">Set Int Override</text>
</g>
<!-- 7&#45;&gt;8 -->
<g id="edge8" class="edge">
<title>7&#45;&gt;8</title>
<path fill="none" stroke="black" d="M495.88,-108.86C520.2,-111.7 546.52,-114.76 570.07,-117.51"/>
<polygon fill="black" stroke="black" points="569.55,-120.97 579.88,-118.65 570.36,-114.02 569.55,-120.97"/>
</g>
<!-- 11 -->
<!-- name: &quot;Set Float Override&quot;, typeName: &quot;&quot;, id: 11, branchId: 1, recurseId: &#45;1, attributes: 4, notes: &quot;&quot; -->
<g id="node12" class="node">
<title>11</title>
<polygon fill="none" stroke="black" points="643.93,-90 531.5,-72 643.93,-54 756.36,-72 643.93,-90"/>
<text text-anchor="middle" x="643.93" y="-66.95" font-family="Times,serif" font-size="14.00">Set Float Override</text>
</g>
<!-- 7&#45;&gt;11 -->
<g id="edge11" class="edge">
<title>7&#45;&gt;11</title>
<path fill="none" stroke="black" d="M495.88,-89.14C518.66,-86.48 543.18,-83.63 565.54,-81.02"/>
<polygon fill="black" stroke="black" points="565.64,-84.53 575.17,-79.9 564.83,-77.58 565.64,-84.53"/>
</g>
<!-- 14 -->
<!-- name: &quot;Default&quot;, typeName: &quot;&quot;, id: 14, branchId: 2, recurseId: &#45;1, attributes: 4, notes: &quot;&quot; -->
<g id="node15" class="node">
<title>14</title>
<polygon fill="none" stroke="black" points="643.93,-36 589.41,-18 643.93,0 698.46,-18 643.93,-36"/>
<text text-anchor="middle" x="643.93" y="-12.95" font-family="Times,serif" font-size="14.00">Default</text>
</g>
<!-- 7&#45;&gt;14 -->
<g id="edge14" class="edge">
<title>7&#45;&gt;14</title>
<path fill="none" stroke="black" d="M447.65,-80.54C471.14,-69.16 502.6,-54.9 531.5,-45 552.69,-37.74 576.79,-31.65 597.14,-27.1"/>
<polygon fill="black" stroke="black" points="597.82,-30.53 606.85,-24.99 596.33,-23.69 597.82,-30.53"/>
</g>
<!-- 9 -->
<!-- name: &quot;Int Value&quot;, typeName: &quot;&quot;, id: 9, branchId: 0, recurseId: &#45;1, attributes: 0, notes: &quot;&quot; -->
<g id="node10" class="node">
<title>9</title>
<ellipse fill="none" stroke="black" cx="845.25" cy="-126" rx="44.19" ry="18"/>
<text text-anchor="middle" x="845.25" y="-120.95" font-family="Times,serif" font-size="14.00">Int Value</text>
</g>
<!-- 8&#45;&gt;9 -->
<g id="edge9" class="edge">
<title>8&#45;&gt;9</title>
<path fill="none" stroke="black" d="M746.63,-126C761.33,-126 775.97,-126 789.27,-126"/>
<polygon fill="black" stroke="black" points="789.07,-129.5 799.07,-126 789.07,-122.5 789.07,-129.5"/>
</g>
<!-- 10 -->
<!-- name: &quot;int&quot;, typeName: &quot;&quot;, id: 10, branchId: 0, recurseId: &#45;1, attributes: 512, notes: &quot;&quot; -->
<g id="node11" class="node">
<title>10</title>
<ellipse fill="none" stroke="black" cx="1002.89" cy="-126" rx="27" ry="18"/>
<text text-anchor="middle" x="1002.89" y="-120.95" font-family="Times,serif" font-size="14.00">int</text>
</g>
<!-- 9&#45;&gt;10 -->
<g id="edge10" class="edge">
<title>9&#45;&gt;10</title>
<path fill="none" stroke="black" d="M889.6,-126C913.09,-126 941.82,-126 964.34,-126"/>
<polygon fill="black" stroke="black" points="964.3,-129.5 974.3,-126 964.3,-122.5 964.3,-129.5"/>
</g>
<!-- 12 -->
<!-- name: &quot;Float Value&quot;, typeName: &quot;&quot;, id: 12, branchId: 0, recurseId: &#45;1, attributes: 0, notes: &quot;&quot; -->
<g id="node13" class="node">
<title>12</title>
<ellipse fill="none" stroke="black" cx="845.25" cy="-72" rx="52.89" ry="18"/>
<text text-anchor="middle" x="845.25" y="-66.95" font-family="Times,serif" font-size="14.00">Float Value</text>
</g>
<!-- 11&#45;&gt;12 -->
<g id="edge12" class="edge">
<title>11&#45;&gt;12</title>
<path fill="none" stroke="black" d="M759.43,-72C766.57,-72 773.6,-72 780.38,-72"/>
<polygon fill="black" stroke="black" points="780.38,-75.5 790.38,-72 780.38,-68.5 780.38,-75.5"/>
</g>
<!-- 13 -->
<!-- name: &quot;float&quot;, typeName: &quot;&quot;, id: 13, branchId: 0, recurseId: &#45;1, attributes: 512, notes: &quot;&quot; -->
<g id="node14" class="node">
<title>13</title>
<ellipse fill="none" stroke="black" cx="1002.89" cy="-72" rx="27.81" ry="18"/>
<text text-anchor="middle" x="1002.89" y="-66.95" font-family="Times,serif" font-size="14.00">float</text>
</g>
<!-- 12&#45;&gt;13 -->
<g id="edge13" class="edge">
<title>12&#45;&gt;13</title>
<path fill="none" stroke="black" d="M898.51,-72C919.82,-72 944,-72 963.62,-72"/>
<polygon fill="black" stroke="black" points="963.37,-75.5 973.37,-72 963.37,-68.5 963.37,-75.5"/>
</g>
<!-- 15 -->
<!-- name: &quot;[No Data]&quot;, typeName: &quot;&quot;, id: 15, branchId: 0, recurseId: &#45;1, attributes: 512, notes: &quot;&quot; -->
<g id="node16" class="node">
<title>15</title>
<ellipse fill="none" stroke="black" cx="1002.89" cy="-18" rx="48.28" ry="18"/>
<text text-anchor="middle" x="1002.89" y="-12.95" font-family="Times,serif" font-size="14.00">[No Data]</text>
</g>
<!-- 14&#45;&gt;15 -->
<g id="edge15" class="edge">
<title>14&#45;&gt;15</title>
<path fill="none" stroke="black" d="M699.92,-18C765.74,-18 875.49,-18 942.99,-18"/>
<polygon fill="black" stroke="black" points="942.75,-21.5 952.75,-18 942.75,-14.5 942.75,-21.5"/>
</g>
</g>
</svg>
