<svg width="1347px" height="854px"
 viewBox="0.00 0.00 1347.35 854.00" xmlns="http://www.w3.org/2000/svg" xmlns:xlink="http://www.w3.org/1999/xlink">
<g id="graph0" class="graph" transform="scale(1.0 1.0) rotate(0.0) translate(4.0 850.0)">
<title>PlayerListPacket</title>
<polygon fill="white" stroke="none" points="-4,4 -4,-850 1343.35,-850 1343.35,4 -4,4"/>
<!-- 0 -->
<!-- name: &quot;PlayerListPacket&quot;, typeName: &quot;&quot;, id: 0, branchId: 63, recurseId: &#45;1, attributes: 0, notes: &quot;&quot; -->
<g id="node1" class="node">
<title>0</title>
<ellipse fill="none" stroke="black" cx="73.36" cy="-774" rx="73.36" ry="18"/>
<text text-anchor="middle" x="73.36" y="-768.95" font-family="Times,serif" font-size="14.00">PlayerListPacket</text>
</g>
<!-- 1 -->
<!-- name: &quot;Action&quot;, typeName: &quot;&quot;, id: 1, branchId: 0, recurseId: &#45;1, attributes: 0, notes: &quot;&quot; -->
<g id="node2" class="node">
<title>1</title>
<ellipse fill="none" stroke="black" cx="300.6" cy="-828" rx="36" ry="18"/>
<text text-anchor="middle" x="300.6" y="-822.95" font-family="Times,serif" font-size="14.00">Action</text>
</g>
<!-- 0&#45;&gt;1 -->
<g id="edge1" class="edge">
<title>0&#45;&gt;1</title>
<path fill="none" stroke="black" d="M125.58,-786.95C143.62,-791.47 164.05,-796.52 182.72,-801 207.03,-806.84 234.25,-813.14 256.3,-818.18"/>
<polygon fill="black" stroke="black" points="255.32,-821.55 265.85,-820.36 256.88,-814.72 255.32,-821.55"/>
</g>
<!-- 3 -->
<!-- name: &quot;Entries Count (for each List)&quot;, typeName: &quot;&quot;, id: 3, branchId: 0, recurseId: &#45;1, attributes: 0, notes: &quot;&quot; -->
<g id="node4" class="node">
<title>3</title>
<ellipse fill="none" stroke="black" cx="300.6" cy="-774" rx="117.89" ry="18"/>
<text text-anchor="middle" x="300.6" y="-768.95" font-family="Times,serif" font-size="14.00">Entries Count (for each List)</text>
</g>
<!-- 0&#45;&gt;3 -->
<g id="edge3" class="edge">
<title>0&#45;&gt;3</title>
<path fill="none" stroke="black" d="M147.18,-774C154.87,-774 162.84,-774 170.92,-774"/>
<polygon fill="black" stroke="black" points="170.9,-777.5 180.9,-774 170.9,-770.5 170.9,-777.5"/>
</g>
<!-- 5 -->
<!-- name: &quot;Dependency on &#39;Action&#39;&quot;, typeName: &quot;&quot;, id: 5, branchId: 0, recurseId: &#45;1, attributes: 2, notes: &quot;&quot; -->
<g id="node6" class="node">
<title>5</title>
<polygon fill="none" stroke="black" points="367.48,-117 227.73,-117 227.73,-81 373.48,-81 373.48,-111 367.48,-117"/>
<polyline fill="none" stroke="black" points="367.48,-117 367.48,-111"/>
<polyline fill="none" stroke="black" points="373.48,-111 367.48,-111"/>
<text text-anchor="middle" x="300.6" y="-93.95" font-family="Times,serif" font-size="14.00">Dependency on &#39;Action&#39;</text>
</g>
<!-- 0&#45;&gt;5 -->
<g id="edge5" class="edge">
<title>0&#45;&gt;5</title>
<path fill="none" stroke="black" d="M80.5,-755.6C111.59,-662.44 251.59,-242.9 289.89,-128.11"/>
<polygon fill="black" stroke="black" points="293.14,-129.42 292.99,-118.82 286.5,-127.2 293.14,-129.42"/>
</g>
<!-- 2 -->
<!-- name: &quot;byte&quot;, typeName: &quot;&quot;, id: 2, branchId: 0, recurseId: &#45;1, attributes: 512, notes: &quot;&quot; -->
<g id="node3" class="node">
<title>2</title>
<ellipse fill="none" stroke="black" cx="1270.6" cy="-828" rx="27" ry="18"/>
<text text-anchor="middle" x="1270.6" y="-822.95" font-family="Times,serif" font-size="14.00">byte</text>
</g>
<!-- 1&#45;&gt;2 -->
<g id="edge2" class="edge">
<title>1&#45;&gt;2</title>
<path fill="none" stroke="black" d="M337.03,-828C405.8,-828 562.22,-828 693.81,-828 693.81,-828 693.81,-828 891.83,-828 1016.5,-828 1164.31,-828 1232.16,-828"/>
<polygon fill="black" stroke="black" points="1231.98,-831.5 1241.98,-828 1231.98,-824.5 1231.98,-831.5"/>
</g>
<!-- 4 -->
<!-- name: &quot;unsigned varint&quot;, typeName: &quot;&quot;, id: 4, branchId: 0, recurseId: &#45;1, attributes: 512, notes: &quot;&quot; -->
<g id="node5" class="node">
<title>4</title>
<ellipse fill="none" stroke="black" cx="1270.6" cy="-774" rx="68.24" ry="18"/>
<text text-anchor="middle" x="1270.6" y="-768.95" font-family="Times,serif" font-size="14.00">unsigned varint</text>
</g>
<!-- 3&#45;&gt;4 -->
<g id="edge4" class="edge">
<title>3&#45;&gt;4</title>
<path fill="none" stroke="black" d="M418.73,-774C496.69,-774 601.38,-774 693.81,-774 693.81,-774 693.81,-774 891.83,-774 995.08,-774 1114.19,-774 1190.62,-774"/>
<polygon fill="black" stroke="black" points="1190.53,-777.5 1200.53,-774 1190.53,-770.5 1190.53,-777.5"/>
</g>
<!-- 6 -->
<!-- name: &quot;Add&quot;, typeName: &quot;&quot;, id: 6, branchId: 0, recurseId: &#45;1, attributes: 4, notes: &quot;&quot; -->
<g id="node7" class="node">
<title>6</title>
<polygon fill="none" stroke="black" points="514.08,-144 476.21,-126 514.08,-108 551.96,-126 514.08,-144"/>
<text text-anchor="middle" x="514.08" y="-120.95" font-family="Times,serif" font-size="14.00">Add</text>
</g>
<!-- 5&#45;&gt;6 -->
<g id="edge6" class="edge">
<title>5&#45;&gt;6</title>
<path fill="none" stroke="black" d="M373.79,-108.22C406.56,-112.4 444.13,-117.2 471.99,-120.75"/>
<polygon fill="black" stroke="black" points="471.42,-124.21 481.79,-122 472.31,-117.27 471.42,-124.21"/>
</g>
<!-- 124 -->
<!-- name: &quot;Remove&quot;, typeName: &quot;&quot;, id: 124, branchId: 1, recurseId: &#45;1, attributes: 4, notes: &quot;&quot; -->
<g id="node36" class="node">
<title>124</title>
<polygon fill="none" stroke="black" points="514.08,-90 454.49,-72 514.08,-54 573.68,-72 514.08,-90"/>
<text text-anchor="middle" x="514.08" y="-66.95" font-family="Times,serif" font-size="14.00">Remove</text>
</g>
<!-- 5&#45;&gt;124 -->
<g id="edge35" class="edge">
<title>5&#45;&gt;124</title>
<path fill="none" stroke="black" d="M373.79,-89.78C401.94,-86.19 433.62,-82.15 459.64,-78.82"/>
<polygon fill="black" stroke="black" points="459.82,-82.33 469.3,-77.59 458.93,-75.39 459.82,-82.33"/>
</g>
<!-- 129 -->
<!-- name: &quot;Default&quot;, typeName: &quot;&quot;, id: 129, branchId: 2, recurseId: &#45;1, attributes: 4, notes: &quot;&quot; -->
<g id="node41" class="node">
<title>129</title>
<polygon fill="none" stroke="black" points="514.08,-36 459.56,-18 514.08,0 568.61,-18 514.08,-36"/>
<text text-anchor="middle" x="514.08" y="-12.95" font-family="Times,serif" font-size="14.00">Default</text>
</g>
<!-- 5&#45;&gt;129 -->
<g id="edge40" class="edge">
<title>5&#45;&gt;129</title>
<path fill="none" stroke="black" d="M349.86,-80.52C388.58,-65.69 442.07,-45.2 477.11,-31.78"/>
<polygon fill="black" stroke="black" points="478.3,-35.07 486.38,-28.23 475.79,-28.53 478.3,-35.07"/>
</g>
<!-- 7 -->
<!-- name: &quot;Add Player List&quot;, typeName: &quot;&quot;, id: 7, branchId: 0, recurseId: &#45;1, attributes: 8, notes: &quot;&quot; -->
<g id="node8" class="node">
<title>7</title>
<ellipse fill="none" stroke="black" cx="694.81" cy="-288" rx="69.78" ry="18"/>
<text text-anchor="middle" x="694.81" y="-282.95" font-family="Times,serif" font-size="14.00">Add Player List</text>
</g>
<!-- 6&#45;&gt;7 -->
<g id="edge7" class="edge">
<title>6&#45;&gt;7</title>
<path fill="none" stroke="black" d="M527.94,-137.65C556.74,-163.75 626.97,-227.41 666.18,-262.96"/>
<polygon fill="black" stroke="black" points="663.63,-265.37 673.39,-269.5 668.33,-260.19 663.63,-265.37"/>
</g>
<!-- 120 -->
<!-- name: &quot;Trusted Skin List&quot;, typeName: &quot;&quot;, id: 120, branchId: 0, recurseId: &#45;1, attributes: 8, notes: &quot;&quot; -->
<g id="node32" class="node">
<title>120</title>
<ellipse fill="none" stroke="black" cx="694.81" cy="-126" rx="75.41" ry="18"/>
<text text-anchor="middle" x="694.81" y="-120.95" font-family="Times,serif" font-size="14.00">Trusted Skin List</text>
</g>
<!-- 6&#45;&gt;120 -->
<g id="edge31" class="edge">
<title>6&#45;&gt;120</title>
<path fill="none" stroke="black" d="M552.99,-126C569.09,-126 588.58,-126 607.85,-126"/>
<polygon fill="black" stroke="black" points="607.63,-129.5 617.63,-126 607.63,-122.5 607.63,-129.5"/>
</g>
<!-- 8 -->
<!-- name: &quot;example element&quot;, typeName: &quot;&quot;, id: 8, branchId: 0, recurseId: &#45;1, attributes: 16, notes: &quot;&quot; -->
<g id="node9" class="node">
<title>8</title>
<ellipse fill="none" stroke="black" stroke-dasharray="1,5" cx="890.83" cy="-423" rx="74.89" ry="18"/>
<text text-anchor="middle" x="890.83" y="-417.95" font-family="Times,serif" font-size="14.00">example element</text>
</g>
<!-- 7&#45;&gt;8 -->
<g id="edge8" class="edge">
<title>7&#45;&gt;8</title>
<path fill="none" stroke="black" d="M720.38,-305.1C754.69,-328.97 817.09,-372.39 855.84,-399.35"/>
<polygon fill="black" stroke="black" points="853.7,-402.13 863.91,-404.96 857.7,-396.38 853.7,-402.13"/>
</g>
<!-- 9 -->
<!-- name: &quot;UUID&quot;, typeName: &quot;mce::UUID&quot;, id: 9, branchId: 0, recurseId: &#45;1, attributes: 256, notes: &quot;&quot; -->
<g id="node10" class="node">
<title>9</title>
<ellipse fill="none" stroke="black" cx="1083.79" cy="-720" rx="33.95" ry="18"/>
<text text-anchor="middle" x="1083.79" y="-714.95" font-family="Times,serif" font-size="14.00">UUID</text>
</g>
<!-- 8&#45;&gt;9 -->
<g id="edge9" class="edge">
<title>8&#45;&gt;9</title>
<path fill="none" stroke="black" d="M894.02,-441.37C900.73,-489.69 925.47,-621.54 1001.73,-693 1012.13,-702.75 1026.14,-708.98 1039.59,-712.96"/>
<polygon fill="black" stroke="black" points="1038.64,-716.33 1049.2,-715.43 1040.39,-709.55 1038.64,-716.33"/>
</g>
<!-- 11 -->
<!-- name: &quot;Target Actor ID&quot;, typeName: &quot;ActorUniqueID&quot;, id: 11, branchId: 0, recurseId: &#45;1, attributes: 256, notes: &quot;&quot; -->
<g id="node12" class="node">
<title>11</title>
<ellipse fill="none" stroke="black" cx="1083.79" cy="-666" rx="70.29" ry="18"/>
<text text-anchor="middle" x="1083.79" y="-660.95" font-family="Times,serif" font-size="14.00">Target Actor ID</text>
</g>
<!-- 8&#45;&gt;11 -->
<g id="edge11" class="edge">
<title>8&#45;&gt;11</title>
<path fill="none" stroke="black" d="M896.08,-441.29C906.6,-482.64 937.8,-583.96 1001.73,-639 1006.7,-643.28 1012.37,-646.88 1018.35,-649.92"/>
<polygon fill="black" stroke="black" points="1016.7,-653.02 1027.25,-653.9 1019.55,-646.63 1016.7,-653.02"/>
</g>
<!-- 13 -->
<!-- name: &quot;Player Name&quot;, typeName: &quot;&quot;, id: 13, branchId: 0, recurseId: &#45;1, attributes: 0, notes: &quot;&quot; -->
<g id="node14" class="node">
<title>13</title>
<ellipse fill="none" stroke="black" cx="1083.79" cy="-612" rx="59.54" ry="18"/>
<text text-anchor="middle" x="1083.79" y="-606.95" font-family="Times,serif" font-size="14.00">Player Name</text>
</g>
<!-- 8&#45;&gt;13 -->
<g id="edge13" class="edge">
<title>8&#45;&gt;13</title>
<path fill="none" stroke="black" d="M899.37,-441.19C914.09,-474.55 949.84,-545.71 1001.73,-585 1008.31,-589.99 1015.87,-594.08 1023.66,-597.44"/>
<polygon fill="black" stroke="black" points="1022.36,-600.69 1032.95,-601.02 1024.89,-594.16 1022.36,-600.69"/>
</g>
<!-- 15 -->
<!-- name: &quot;XBL XUID&quot;, typeName: &quot;&quot;, id: 15, branchId: 0, recurseId: &#45;1, attributes: 0, notes: &quot;&quot; -->
<g id="node16" class="node">
<title>15</title>
<ellipse fill="none" stroke="black" cx="1083.79" cy="-558" rx="54.42" ry="18"/>
<text text-anchor="middle" x="1083.79" y="-552.95" font-family="Times,serif" font-size="14.00">XBL XUID</text>
</g>
<!-- 8&#45;&gt;15 -->
<g id="edge15" class="edge">
<title>8&#45;&gt;15</title>
<path fill="none" stroke="black" d="M905.56,-440.85C924.69,-464.6 961.57,-506.43 1001.73,-531 1009.91,-536.01 1019.14,-540.21 1028.35,-543.69"/>
<polygon fill="black" stroke="black" points="1027.08,-546.95 1037.68,-546.95 1029.39,-540.35 1027.08,-546.95"/>
</g>
<!-- 17 -->
<!-- name: &quot;Platform Chat Id&quot;, typeName: &quot;&quot;, id: 17, branchId: 0, recurseId: &#45;1, attributes: 0, notes: &quot;&quot; -->
<g id="node18" class="node">
<title>17</title>
<ellipse fill="none" stroke="black" cx="1083.79" cy="-504" rx="73.87" ry="18"/>
<text text-anchor="middle" x="1083.79" y="-498.95" font-family="Times,serif" font-size="14.00">Platform Chat Id</text>
</g>
<!-- 8&#45;&gt;17 -->
<g id="edge17" class="edge">
<title>8&#45;&gt;17</title>
<path fill="none" stroke="black" d="M922.58,-439.5C944.34,-450.83 974.39,-465.79 1001.73,-477 1009.46,-480.17 1017.71,-483.25 1025.88,-486.13"/>
<polygon fill="black" stroke="black" points="1024.5,-489.36 1035.09,-489.3 1026.77,-482.74 1024.5,-489.36"/>
</g>
<!-- 19 -->
<!-- name: &quot;Build Platform&quot;, typeName: &quot;&quot;, id: 19, branchId: 0, recurseId: &#45;1, attributes: 0, notes: &quot;&quot; -->
<g id="node20" class="node">
<title>19</title>
<ellipse fill="none" stroke="black" cx="1083.79" cy="-450" rx="66.71" ry="18"/>
<text text-anchor="middle" x="1083.79" y="-444.95" font-family="Times,serif" font-size="14.00">Build Platform</text>
</g>
<!-- 8&#45;&gt;19 -->
<g id="edge19" class="edge">
<title>8&#45;&gt;19</title>
<path fill="none" stroke="black" d="M956.22,-432.1C974.33,-434.66 994.12,-437.46 1012.55,-440.07"/>
<polygon fill="black" stroke="black" points="1011.94,-443.52 1022.33,-441.45 1012.92,-436.59 1011.94,-443.52"/>
</g>
<!-- 21 -->
<!-- name: &quot;Serialized Skin&quot;, typeName: &quot;SerializedSkin&quot;, id: 21, branchId: 0, recurseId: &#45;1, attributes: 256, notes: &quot;&quot; -->
<g id="node22" class="node">
<title>21</title>
<ellipse fill="none" stroke="black" cx="1083.79" cy="-396" rx="67.22" ry="18"/>
<text text-anchor="middle" x="1083.79" y="-390.95" font-family="Times,serif" font-size="14.00">Serialized Skin</text>
</g>
<!-- 8&#45;&gt;21 -->
<g id="edge21" class="edge">
<title>8&#45;&gt;21</title>
<path fill="none" stroke="black" d="M956.22,-413.9C974.24,-411.35 993.92,-408.57 1012.28,-405.97"/>
<polygon fill="black" stroke="black" points="1012.6,-409.46 1022.01,-404.59 1011.62,-402.53 1012.6,-409.46"/>
</g>
<!-- 114 -->
<!-- name: &quot;Is Teacher?&quot;, typeName: &quot;&quot;, id: 114, branchId: 0, recurseId: &#45;1, attributes: 0, notes: &quot;&quot; -->
<g id="node24" class="node">
<title>114</title>
<ellipse fill="none" stroke="black" cx="1083.79" cy="-342" rx="53.4" ry="18"/>
<text text-anchor="middle" x="1083.79" y="-336.95" font-family="Times,serif" font-size="14.00">Is Teacher?</text>
</g>
<!-- 8&#45;&gt;114 -->
<g id="edge23" class="edge">
<title>8&#45;&gt;114</title>
<path fill="none" stroke="black" d="M922.58,-406.5C944.34,-395.17 974.39,-380.21 1001.73,-369 1011.5,-364.99 1022.12,-361.12 1032.34,-357.63"/>
<polygon fill="black" stroke="black" points="1033.42,-360.96 1041.79,-354.47 1031.2,-354.32 1033.42,-360.96"/>
</g>
<!-- 116 -->
<!-- name: &quot;Is Host?&quot;, typeName: &quot;&quot;, id: 116, branchId: 0, recurseId: &#45;1, attributes: 0, notes: &quot;&quot; -->
<g id="node26" class="node">
<title>116</title>
<ellipse fill="none" stroke="black" cx="1083.79" cy="-288" rx="41.63" ry="18"/>
<text text-anchor="middle" x="1083.79" y="-282.95" font-family="Times,serif" font-size="14.00">Is Host?</text>
</g>
<!-- 8&#45;&gt;116 -->
<g id="edge25" class="edge">
<title>8&#45;&gt;116</title>
<path fill="none" stroke="black" d="M905.56,-405.15C924.69,-381.4 961.57,-339.57 1001.73,-315 1012.08,-308.66 1024.1,-303.62 1035.66,-299.69"/>
<polygon fill="black" stroke="black" points="1036.61,-303.06 1045.09,-296.71 1034.5,-296.38 1036.61,-303.06"/>
</g>
<!-- 118 -->
<!-- name: &quot;Is SubClient&quot;, typeName: &quot;&quot;, id: 118, branchId: 0, recurseId: &#45;1, attributes: 0, notes: &quot;&quot; -->
<g id="node28" class="node">
<title>118</title>
<ellipse fill="none" stroke="black" cx="1083.79" cy="-234" rx="56.98" ry="18"/>
<text text-anchor="middle" x="1083.79" y="-228.95" font-family="Times,serif" font-size="14.00">Is SubClient</text>
</g>
<!-- 8&#45;&gt;118 -->
<g id="edge27" class="edge">
<title>8&#45;&gt;118</title>
<path fill="none" stroke="black" d="M899.37,-404.81C914.09,-371.45 949.84,-300.29 1001.73,-261 1008.71,-255.71 1016.79,-251.43 1025.08,-247.96"/>
<polygon fill="black" stroke="black" points="1026.09,-251.32 1034.22,-244.53 1023.63,-244.77 1026.09,-251.32"/>
</g>
<!-- 198 -->
<!-- name: &quot;LocatorIconColor&quot;, typeName: &quot;&quot;, id: 198, branchId: 0, recurseId: &#45;1, attributes: 0, notes: &quot;&quot; -->
<g id="node30" class="node">
<title>198</title>
<ellipse fill="none" stroke="black" cx="1083.79" cy="-180" rx="82.06" ry="18"/>
<text text-anchor="middle" x="1083.79" y="-174.95" font-family="Times,serif" font-size="14.00">Locator Icon Color</text>
</g>
<!-- 8&#45;&gt;198 -->
<g id="edge29" class="edge">
<title>8&#45;&gt;198</title>
<path fill="none" stroke="black" d="M896.08,-404.71C906.6,-363.36 937.8,-262.04 1001.73,-207 1005.8,-203.49 1010.34,-200.44 1015.14,-197.78"/>
<polygon fill="black" stroke="black" points="1016.45,-201.03 1023.92,-193.52 1013.39,-194.74 1016.45,-201.03"/>
</g>
<!-- 10 -->
<!-- name: &quot;mce::UUID&quot;, typeName: &quot;&quot;, id: 10, branchId: 0, recurseId: &#45;1, attributes: 512, notes: &quot;&quot; -->
<g id="node11" class="node">
<title>10</title>
<ellipse fill="none" stroke="black" cx="1270.6" cy="-720" rx="54.93" ry="18"/>
<text text-anchor="middle" x="1270.6" y="-714.95" font-family="Times,serif" font-size="14.00">mce::UUID</text>
</g>
<!-- 9&#45;&gt;10 -->
<g id="edge10" class="edge">
<title>9&#45;&gt;10</title>
<path fill="none" stroke="black" d="M1117.83,-720C1141.75,-720 1174.88,-720 1204.08,-720"/>
<polygon fill="black" stroke="black" points="1203.96,-723.5 1213.96,-720 1203.96,-716.5 1203.96,-723.5"/>
</g>
<!-- 12 -->
<!-- name: &quot;ActorUniqueID&quot;, typeName: &quot;&quot;, id: 12, branchId: 0, recurseId: &#45;1, attributes: 512, notes: &quot;&quot; -->
<g id="node13" class="node">
<title>12</title>
<ellipse fill="none" stroke="black" cx="1270.6" cy="-666" rx="68.75" ry="18"/>
<text text-anchor="middle" x="1270.6" y="-660.95" font-family="Times,serif" font-size="14.00">ActorUniqueID</text>
</g>
<!-- 11&#45;&gt;12 -->
<g id="edge12" class="edge">
<title>11&#45;&gt;12</title>
<path fill="none" stroke="black" d="M1154.39,-666C1166.1,-666 1178.33,-666 1190.27,-666"/>
<polygon fill="black" stroke="black" points="1190.08,-669.5 1200.08,-666 1190.08,-662.5 1190.08,-669.5"/>
</g>
<!-- 14 -->
<!-- name: &quot;string&quot;, typeName: &quot;&quot;, id: 14, branchId: 0, recurseId: &#45;1, attributes: 512, notes: &quot;&quot; -->
<g id="node15" class="node">
<title>14</title>
<ellipse fill="none" stroke="black" cx="1270.6" cy="-612" rx="31.9" ry="18"/>
<text text-anchor="middle" x="1270.6" y="-606.95" font-family="Times,serif" font-size="14.00">string</text>
</g>
<!-- 13&#45;&gt;14 -->
<g id="edge14" class="edge">
<title>13&#45;&gt;14</title>
<path fill="none" stroke="black" d="M1143.77,-612C1170.86,-612 1202.37,-612 1227.08,-612"/>
<polygon fill="black" stroke="black" points="1226.76,-615.5 1236.76,-612 1226.76,-608.5 1226.76,-615.5"/>
</g>
<!-- 16 -->
<!-- name: &quot;string&quot;, typeName: &quot;&quot;, id: 16, branchId: 0, recurseId: &#45;1, attributes: 512, notes: &quot;&quot; -->
<g id="node17" class="node">
<title>16</title>
<ellipse fill="none" stroke="black" cx="1270.6" cy="-558" rx="31.9" ry="18"/>
<text text-anchor="middle" x="1270.6" y="-552.95" font-family="Times,serif" font-size="14.00">string</text>
</g>
<!-- 15&#45;&gt;16 -->
<g id="edge16" class="edge">
<title>15&#45;&gt;16</title>
<path fill="none" stroke="black" d="M1138.24,-558C1166.47,-558 1200.64,-558 1227.05,-558"/>
<polygon fill="black" stroke="black" points="1226.71,-561.5 1236.71,-558 1226.71,-554.5 1226.71,-561.5"/>
</g>
<!-- 18 -->
<!-- name: &quot;string&quot;, typeName: &quot;&quot;, id: 18, branchId: 0, recurseId: &#45;1, attributes: 512, notes: &quot;&quot; -->
<g id="node19" class="node">
<title>18</title>
<ellipse fill="none" stroke="black" cx="1270.6" cy="-504" rx="31.9" ry="18"/>
<text text-anchor="middle" x="1270.6" y="-498.95" font-family="Times,serif" font-size="14.00">string</text>
</g>
<!-- 17&#45;&gt;18 -->
<g id="edge18" class="edge">
<title>17&#45;&gt;18</title>
<path fill="none" stroke="black" d="M1158.1,-504C1181.52,-504 1206.65,-504 1227.11,-504"/>
<polygon fill="black" stroke="black" points="1227.06,-507.5 1237.06,-504 1227.06,-500.5 1227.06,-507.5"/>
</g>
<!-- 20 -->
<!-- name: &quot;int&quot;, typeName: &quot;&quot;, id: 20, branchId: 0, recurseId: &#45;1, attributes: 512, notes: &quot;&quot; -->
<g id="node21" class="node">
<title>20</title>
<ellipse fill="none" stroke="black" cx="1270.6" cy="-450" rx="27" ry="18"/>
<text text-anchor="middle" x="1270.6" y="-444.95" font-family="Times,serif" font-size="14.00">int</text>
</g>
<!-- 19&#45;&gt;20 -->
<g id="edge20" class="edge">
<title>19&#45;&gt;20</title>
<path fill="none" stroke="black" d="M1150.99,-450C1178.15,-450 1208.61,-450 1231.86,-450"/>
<polygon fill="black" stroke="black" points="1231.8,-453.5 1241.8,-450 1231.8,-446.5 1231.8,-453.5"/>
</g>
<!-- 113 -->
<!-- name: &quot;SerializedSkin&quot;, typeName: &quot;&quot;, id: 113, branchId: 0, recurseId: &#45;1, attributes: 512, notes: &quot;&quot; -->
<g id="node23" class="node">
<title>113</title>
<ellipse fill="none" stroke="black" cx="1270.6" cy="-396" rx="64.66" ry="18"/>
<text text-anchor="middle" x="1270.6" y="-390.95" font-family="Times,serif" font-size="14.00">SerializedSkin</text>
</g>
<!-- 21&#45;&gt;113 -->
<g id="edge22" class="edge">
<title>21&#45;&gt;113</title>
<path fill="none" stroke="black" d="M1151.25,-396C1165.21,-396 1180.04,-396 1194.3,-396"/>
<polygon fill="black" stroke="black" points="1194.07,-399.5 1204.07,-396 1194.07,-392.5 1194.07,-399.5"/>
</g>
<!-- 115 -->
<!-- name: &quot;bool&quot;, typeName: &quot;&quot;, id: 115, branchId: 0, recurseId: &#45;1, attributes: 512, notes: &quot;&quot; -->
<g id="node25" class="node">
<title>115</title>
<ellipse fill="none" stroke="black" cx="1270.6" cy="-342" rx="27.3" ry="18"/>
<text text-anchor="middle" x="1270.6" y="-336.95" font-family="Times,serif" font-size="14.00">bool</text>
</g>
<!-- 114&#45;&gt;115 -->
<g id="edge24" class="edge">
<title>114&#45;&gt;115</title>
<path fill="none" stroke="black" d="M1137.25,-342C1167.28,-342 1204.27,-342 1231.51,-342"/>
<polygon fill="black" stroke="black" points="1231.39,-345.5 1241.39,-342 1231.39,-338.5 1231.39,-345.5"/>
</g>
<!-- 117 -->
<!-- name: &quot;bool&quot;, typeName: &quot;&quot;, id: 117, branchId: 0, recurseId: &#45;1, attributes: 512, notes: &quot;&quot; -->
<g id="node27" class="node">
<title>117</title>
<ellipse fill="none" stroke="black" cx="1270.6" cy="-288" rx="27.3" ry="18"/>
<text text-anchor="middle" x="1270.6" y="-282.95" font-family="Times,serif" font-size="14.00">bool</text>
</g>
<!-- 116&#45;&gt;117 -->
<g id="edge26" class="edge">
<title>116&#45;&gt;117</title>
<path fill="none" stroke="black" d="M1125.8,-288C1157.49,-288 1200.99,-288 1231.83,-288"/>
<polygon fill="black" stroke="black" points="1231.46,-291.5 1241.46,-288 1231.46,-284.5 1231.46,-291.5"/>
</g>
<!-- 119 -->
<!-- name: &quot;bool&quot;, typeName: &quot;&quot;, id: 119, branchId: 0, recurseId: &#45;1, attributes: 512, notes: &quot;&quot; -->
<g id="node29" class="node">
<title>119</title>
<ellipse fill="none" stroke="black" cx="1270.6" cy="-234" rx="27.3" ry="18"/>
<text text-anchor="middle" x="1270.6" y="-228.95" font-family="Times,serif" font-size="14.00">bool</text>
</g>
<!-- 118&#45;&gt;119 -->
<g id="edge28" class="edge">
<title>118&#45;&gt;119</title>
<path fill="none" stroke="black" d="M1141.24,-234C1170.52,-234 1205.49,-234 1231.54,-234"/>
<polygon fill="black" stroke="black" points="1231.31,-237.5 1241.31,-234 1231.31,-230.5 1231.31,-237.5"/>
</g>
<!-- 199 -->
<!-- name: &quot;int&quot;, typeName: &quot;&quot;, id: 199, branchId: 0, recurseId: &#45;1, attributes: 512, notes: &quot;&quot; -->
<g id="node31" class="node">
<title>199</title>
<ellipse fill="none" stroke="black" cx="1270.6" cy="-180" rx="27" ry="18"/>
<text text-anchor="middle" x="1270.6" y="-174.95" font-family="Times,serif" font-size="14.00">int</text>
</g>
<!-- 198&#45;&gt;199 -->
<g id="edge30" class="edge">
<title>198&#45;&gt;199</title>
<path fill="none" stroke="black" d="M1166.12,-180C1188.95,-180 1212.69,-180 1231.67,-180"/>
<polygon fill="black" stroke="black" points="1231.59,-183.5 1241.59,-180 1231.59,-176.5 1231.59,-183.5"/>
</g>
<!-- 121 -->
<!-- name: &quot;example element&quot;, typeName: &quot;&quot;, id: 121, branchId: 0, recurseId: &#45;1, attributes: 16, notes: &quot;&quot; -->
<g id="node33" class="node">
<title>121</title>
<ellipse fill="none" stroke="black" stroke-dasharray="1,5" cx="890.83" cy="-126" rx="74.89" ry="18"/>
<text text-anchor="middle" x="890.83" y="-120.95" font-family="Times,serif" font-size="14.00">example element</text>
</g>
<!-- 120&#45;&gt;121 -->
<g id="edge32" class="edge">
<title>120&#45;&gt;121</title>
<path fill="none" stroke="black" d="M770.55,-126C781.48,-126 792.81,-126 803.95,-126"/>
<polygon fill="black" stroke="black" points="803.94,-129.5 813.94,-126 803.94,-122.5 803.94,-129.5"/>
</g>
<!-- 122 -->
<!-- name: &quot;Is trusted skin&quot;, typeName: &quot;&quot;, id: 122, branchId: 0, recurseId: &#45;1, attributes: 0, notes: &quot;&quot; -->
<g id="node34" class="node">
<title>122</title>
<ellipse fill="none" stroke="black" cx="1083.79" cy="-126" rx="63.12" ry="18"/>
<text text-anchor="middle" x="1083.79" y="-120.95" font-family="Times,serif" font-size="14.00">Is trusted skin</text>
</g>
<!-- 121&#45;&gt;122 -->
<g id="edge33" class="edge">
<title>121&#45;&gt;122</title>
<path fill="none" stroke="black" d="M966.21,-126C980.34,-126 995.12,-126 1009.22,-126"/>
<polygon fill="black" stroke="black" points="1008.85,-129.5 1018.85,-126 1008.85,-122.5 1008.85,-129.5"/>
</g>
<!-- 123 -->
<!-- name: &quot;bool&quot;, typeName: &quot;&quot;, id: 123, branchId: 0, recurseId: &#45;1, attributes: 512, notes: &quot;&quot; -->
<g id="node35" class="node">
<title>123</title>
<ellipse fill="none" stroke="black" cx="1270.6" cy="-126" rx="27.3" ry="18"/>
<text text-anchor="middle" x="1270.6" y="-120.95" font-family="Times,serif" font-size="14.00">bool</text>
</g>
<!-- 122&#45;&gt;123 -->
<g id="edge34" class="edge">
<title>122&#45;&gt;123</title>
<path fill="none" stroke="black" d="M1147.36,-126C1175.44,-126 1207.63,-126 1231.93,-126"/>
<polygon fill="black" stroke="black" points="1231.66,-129.5 1241.66,-126 1231.66,-122.5 1231.66,-129.5"/>
</g>
<!-- 125 -->
<!-- name: &quot;Remove Player List&quot;, typeName: &quot;&quot;, id: 125, branchId: 0, recurseId: &#45;1, attributes: 8, notes: &quot;&quot; -->
<g id="node37" class="node">
<title>125</title>
<ellipse fill="none" stroke="black" cx="694.81" cy="-72" rx="85.13" ry="18"/>
<text text-anchor="middle" x="694.81" y="-66.95" font-family="Times,serif" font-size="14.00">Remove Player List</text>
</g>
<!-- 124&#45;&gt;125 -->
<g id="edge36" class="edge">
<title>124&#45;&gt;125</title>
<path fill="none" stroke="black" d="M575.09,-72C582.52,-72 590.25,-72 598.05,-72"/>
<polygon fill="black" stroke="black" points="597.98,-75.5 607.98,-72 597.98,-68.5 597.98,-75.5"/>
</g>
<!-- 126 -->
<!-- name: &quot;example element&quot;, typeName: &quot;&quot;, id: 126, branchId: 0, recurseId: &#45;1, attributes: 16, notes: &quot;&quot; -->
<g id="node38" class="node">
<title>126</title>
<ellipse fill="none" stroke="black" stroke-dasharray="1,5" cx="890.83" cy="-72" rx="74.89" ry="18"/>
<text text-anchor="middle" x="890.83" y="-66.95" font-family="Times,serif" font-size="14.00">example element</text>
</g>
<!-- 125&#45;&gt;126 -->
<g id="edge37" class="edge">
<title>125&#45;&gt;126</title>
<path fill="none" stroke="black" d="M780.35,-72C788.24,-72 796.24,-72 804.14,-72"/>
<polygon fill="black" stroke="black" points="804.1,-75.5 814.1,-72 804.1,-68.5 804.1,-75.5"/>
</g>
<!-- 127 -->
<!-- name: &quot;UUID&quot;, typeName: &quot;mce::UUID&quot;, id: 127, branchId: 0, recurseId: &#45;1, attributes: 256, notes: &quot;&quot; -->
<g id="node39" class="node">
<title>127</title>
<ellipse fill="none" stroke="black" cx="1083.79" cy="-72" rx="33.95" ry="18"/>
<text text-anchor="middle" x="1083.79" y="-66.95" font-family="Times,serif" font-size="14.00">UUID</text>
</g>
<!-- 126&#45;&gt;127 -->
<g id="edge38" class="edge">
<title>126&#45;&gt;127</title>
<path fill="none" stroke="black" d="M966.21,-72C990.51,-72 1016.73,-72 1038.13,-72"/>
<polygon fill="black" stroke="black" points="1037.97,-75.5 1047.97,-72 1037.97,-68.5 1037.97,-75.5"/>
</g>
<!-- 128 -->
<!-- name: &quot;mce::UUID&quot;, typeName: &quot;&quot;, id: 128, branchId: 0, recurseId: &#45;1, attributes: 512, notes: &quot;&quot; -->
<g id="node40" class="node">
<title>128</title>
<ellipse fill="none" stroke="black" cx="1270.6" cy="-72" rx="54.93" ry="18"/>
<text text-anchor="middle" x="1270.6" y="-66.95" font-family="Times,serif" font-size="14.00">mce::UUID</text>
</g>
<!-- 127&#45;&gt;128 -->
<g id="edge39" class="edge">
<title>127&#45;&gt;128</title>
<path fill="none" stroke="black" d="M1117.83,-72C1141.75,-72 1174.88,-72 1204.08,-72"/>
<polygon fill="black" stroke="black" points="1203.96,-75.5 1213.96,-72 1203.96,-68.5 1203.96,-75.5"/>
</g>
<!-- 130 -->
<!-- name: &quot;[No Data]&quot;, typeName: &quot;&quot;, id: 130, branchId: 0, recurseId: &#45;1, attributes: 512, notes: &quot;&quot; -->
<g id="node42" class="node">
<title>130</title>
<ellipse fill="none" stroke="black" cx="1270.6" cy="-18" rx="48.28" ry="18"/>
<text text-anchor="middle" x="1270.6" y="-12.95" font-family="Times,serif" font-size="14.00">[No Data]</text>
</g>
<!-- 129&#45;&gt;130 -->
<g id="edge41" class="edge">
<title>129&#45;&gt;130</title>
<path fill="none" stroke="black" d="M569.96,-18C707.83,-18 1067.91,-18 1210.36,-18"/>
<polygon fill="black" stroke="black" points="1210.33,-21.5 1220.33,-18 1210.33,-14.5 1210.33,-21.5"/>
</g>
</g>
</svg>
