<svg width="1362px" height="1461px"
 viewBox="0.00 0.00 1361.57 1460.96" xmlns="http://www.w3.org/2000/svg" xmlns:xlink="http://www.w3.org/1999/xlink">
<g id="graph0" class="graph" transform="scale(1.0 1.0) rotate(0.0) translate(4.0 1456.96)">
<title>StartGamePacket</title>
<polygon fill="white" stroke="none" points="-4,4 -4,-1456.96 1357.57,-1456.96 1357.57,4 -4,4"/>
<!-- 0 -->
<!-- name: &quot;StartGamePacket&quot;, typeName: &quot;&quot;, id: 0, branchId: 11, recurseId: &#45;1, attributes: 0, notes: &quot;&quot; -->
<g id="node1" class="node">
<title>0</title>
<ellipse fill="none" stroke="black" cx="75.41" cy="-806.32" rx="75.41" ry="18"/>
<text text-anchor="middle" x="75.41" y="-801.27" font-family="Times,serif" font-size="14.00">StartGamePacket</text>
</g>
<!-- 1 -->
<!-- name: &quot;Entity ID&quot;, typeName: &quot;ActorUniqueID&quot;, id: 1, branchId: 0, recurseId: &#45;1, attributes: 256, notes: &quot;&quot; -->
<g id="node2" class="node">
<title>1</title>
<ellipse fill="none" stroke="black" cx="684.46" cy="-1415.32" rx="45.72" ry="18"/>
<text text-anchor="middle" x="684.46" y="-1410.27" font-family="Times,serif" font-size="14.00">Entity ID</text>
</g>
<!-- 0&#45;&gt;1 -->
<g id="edge1" class="edge">
<title>0&#45;&gt;1</title>
<path fill="none" stroke="black" d="M77.12,-824.77C80.95,-913.89 102.27,-1298.57 186.81,-1374.32 313.1,-1487.47 537.12,-1451.4 635.2,-1428.27"/>
<polygon fill="black" stroke="black" points="635.88,-1431.7 644.78,-1425.95 634.24,-1424.9 635.88,-1431.7"/>
</g>
<!-- 6 -->
<!-- name: &quot;Runtime ID&quot;, typeName: &quot;ActorRuntimeID&quot;, id: 6, branchId: 0, recurseId: &#45;1, attributes: 256, notes: &quot;&quot; -->
<g id="node4" class="node">
<title>6</title>
<ellipse fill="none" stroke="black" cx="964.94" cy="-1367.32" rx="55.45" ry="18"/>
<text text-anchor="middle" x="964.94" y="-1362.27" font-family="Times,serif" font-size="14.00">Runtime ID</text>
</g>
<!-- 0&#45;&gt;6 -->
<g id="edge3" class="edge">
<title>0&#45;&gt;6</title>
<path fill="none" stroke="black" d="M77.5,-824.64C82.87,-908.18 109.45,-1251.73 186.81,-1318.32 240.11,-1364.19 720.08,-1367.86 897.99,-1367.63"/>
<polygon fill="black" stroke="black" points="897.75,-1371.13 907.75,-1367.61 897.74,-1364.13 897.75,-1371.13"/>
</g>
<!-- 11 -->
<!-- name: &quot;Game Type&quot;, typeName: &quot;&quot;, id: 11, branchId: 0, recurseId: &#45;1, attributes: 0, notes: &quot;&quot; -->
<g id="node6" class="node">
<title>11</title>
<ellipse fill="none" stroke="black" cx="684.46" cy="-1307.32" rx="54.42" ry="18"/>
<text text-anchor="middle" x="684.46" y="-1302.27" font-family="Times,serif" font-size="14.00">Game Type</text>
</g>
<!-- 0&#45;&gt;11 -->
<g id="edge5" class="edge">
<title>0&#45;&gt;11</title>
<path fill="none" stroke="black" d="M78,-824.57C85.19,-902.58 117.37,-1206.78 186.81,-1266.32 313.14,-1374.63 529.99,-1343.33 630.03,-1321.07"/>
<polygon fill="black" stroke="black" points="630.63,-1324.52 639.59,-1318.88 629.06,-1317.7 630.63,-1324.52"/>
</g>
<!-- 13 -->
<!-- name: &quot;Position&quot;, typeName: &quot;Vec3&quot;, id: 13, branchId: 0, recurseId: &#45;1, attributes: 256, notes: &quot;&quot; -->
<g id="node8" class="node">
<title>13</title>
<ellipse fill="none" stroke="black" cx="964.94" cy="-1259.32" rx="41.12" ry="18"/>
<text text-anchor="middle" x="964.94" y="-1254.27" font-family="Times,serif" font-size="14.00">Position</text>
</g>
<!-- 0&#45;&gt;13 -->
<g id="edge7" class="edge">
<title>0&#45;&gt;13</title>
<path fill="none" stroke="black" d="M78.61,-824.5C87.71,-896.32 124.82,-1158.79 186.81,-1209.32 242.85,-1254.98 747.63,-1259.24 912.27,-1259.41"/>
<polygon fill="black" stroke="black" points="912.01,-1262.91 922.01,-1259.41 912.01,-1255.91 912.01,-1262.91"/>
</g>
<!-- 15 -->
<!-- name: &quot;Rotation&quot;, typeName: &quot;Vec2&quot;, id: 15, branchId: 0, recurseId: &#45;1, attributes: 256, notes: &quot;&quot; -->
<g id="node10" class="node">
<title>15</title>
<ellipse fill="none" stroke="black" cx="684.46" cy="-1199.32" rx="42.65" ry="18"/>
<text text-anchor="middle" x="684.46" y="-1194.27" font-family="Times,serif" font-size="14.00">Rotation</text>
</g>
<!-- 0&#45;&gt;15 -->
<g id="edge9" class="edge">
<title>0&#45;&gt;15</title>
<path fill="none" stroke="black" d="M75.7,-824.72C74.54,-884.25 79.78,-1072.71 186.81,-1158.32 319.26,-1264.25 540.09,-1231.99 636.28,-1211.06"/>
<polygon fill="black" stroke="black" points="636.9,-1214.51 645.9,-1208.9 635.37,-1207.67 636.9,-1214.51"/>
</g>
<!-- 22 -->
<!-- name: &quot;Settings&quot;, typeName: &quot;LevelSettings&quot;, id: 22, branchId: 0, recurseId: &#45;1, attributes: 256, notes: &quot;&quot; -->
<g id="node12" class="node">
<title>22</title>
<ellipse fill="none" stroke="black" cx="964.94" cy="-1151.32" rx="40.6" ry="18"/>
<text text-anchor="middle" x="964.94" y="-1146.27" font-family="Times,serif" font-size="14.00">Settings</text>
</g>
<!-- 0&#45;&gt;22 -->
<g id="edge11" class="edge">
<title>0&#45;&gt;22</title>
<path fill="none" stroke="black" d="M76.94,-824.71C79.58,-877.7 95.16,-1031.27 186.81,-1099.32 244.89,-1142.44 748.87,-1149.8 912.71,-1151.06"/>
<polygon fill="black" stroke="black" points="912.37,-1154.56 922.4,-1151.13 912.42,-1147.56 912.37,-1154.56"/>
</g>
<!-- 148 -->
<!-- name: &quot;Level ID&quot;, typeName: &quot;&quot;, id: 148, branchId: 0, recurseId: &#45;1, attributes: 0, notes: &quot;&quot; -->
<g id="node14" class="node">
<title>148</title>
<ellipse fill="none" stroke="black" cx="684.46" cy="-1091.32" rx="44.19" ry="18"/>
<text text-anchor="middle" x="684.46" y="-1086.27" font-family="Times,serif" font-size="14.00">Level ID</text>
</g>
<!-- 0&#45;&gt;148 -->
<g id="edge13" class="edge">
<title>0&#45;&gt;148</title>
<path fill="none" stroke="black" d="M78.48,-824.63C84.86,-871.36 108.72,-995.26 186.81,-1050.32 323.9,-1146.97 538.18,-1120.75 634.13,-1102.32"/>
<polygon fill="black" stroke="black" points="634.61,-1105.79 643.74,-1100.42 633.25,-1098.93 634.61,-1105.79"/>
</g>
<!-- 150 -->
<!-- name: &quot;Level Name&quot;, typeName: &quot;&quot;, id: 150, branchId: 0, recurseId: &#45;1, attributes: 0, notes: &quot;&quot; -->
<g id="node16" class="node">
<title>150</title>
<ellipse fill="none" stroke="black" cx="964.94" cy="-1043.32" rx="56.98" ry="18"/>
<text text-anchor="middle" x="964.94" y="-1038.27" font-family="Times,serif" font-size="14.00">Level Name</text>
</g>
<!-- 0&#45;&gt;150 -->
<g id="edge15" class="edge">
<title>0&#45;&gt;150</title>
<path fill="none" stroke="black" d="M81.43,-824.71C92.89,-862.73 124.9,-949.57 186.81,-987.32 305.01,-1059.38 730.95,-1052.01 897,-1046.16"/>
<polygon fill="black" stroke="black" points="896.65,-1049.67 906.51,-1045.81 896.39,-1042.68 896.65,-1049.67"/>
</g>
<!-- 152 -->
<!-- name: &quot;Template Content Identity&quot;, typeName: &quot;&quot;, id: 152, branchId: 0, recurseId: &#45;1, attributes: 0, notes: &quot;&quot; -->
<g id="node18" class="node">
<title>152</title>
<ellipse fill="none" stroke="black" cx="684.46" cy="-984.32" rx="109.19" ry="18"/>
<text text-anchor="middle" x="684.46" y="-979.27" font-family="Times,serif" font-size="14.00">Template Content Identity</text>
</g>
<!-- 0&#45;&gt;152 -->
<g id="edge17" class="edge">
<title>0&#45;&gt;152</title>
<path fill="none" stroke="black" d="M84.9,-824.49C100.31,-855.14 136.07,-916.42 186.81,-943.32 314.04,-1010.76 485.76,-1007.84 590.35,-997.54"/>
<polygon fill="black" stroke="black" points="590.41,-1001.05 600,-996.54 589.69,-994.09 590.41,-1001.05"/>
</g>
<!-- 154 -->
<!-- name: &quot;Is Trial?&quot;, typeName: &quot;&quot;, id: 154, branchId: 0, recurseId: &#45;1, attributes: 0, notes: &quot;&quot; -->
<g id="node20" class="node">
<title>154</title>
<ellipse fill="none" stroke="black" cx="964.94" cy="-935.32" rx="41.63" ry="18"/>
<text text-anchor="middle" x="964.94" y="-930.27" font-family="Times,serif" font-size="14.00">Is Trial?</text>
</g>
<!-- 0&#45;&gt;154 -->
<g id="edge19" class="edge">
<title>0&#45;&gt;154</title>
<path fill="none" stroke="black" d="M99.56,-823.69C121,-838.76 154.36,-859.79 186.81,-870.32 448.75,-955.31 785.04,-946.28 912.17,-938.98"/>
<polygon fill="black" stroke="black" points="912.17,-942.48 921.95,-938.39 911.75,-935.49 912.17,-942.48"/>
</g>
<!-- 156 -->
<!-- name: &quot;Movement Settings&quot;, typeName: &quot;SyncedPlayerMovementSettings&quot;, id: 156, branchId: 0, recurseId: &#45;1, attributes: 256, notes: &quot;&quot; -->
<g id="node22" class="node">
<title>156</title>
<ellipse fill="none" stroke="black" cx="684.46" cy="-878.32" rx="84.11" ry="18"/>
<text text-anchor="middle" x="684.46" y="-873.27" font-family="Times,serif" font-size="14.00">Movement Settings</text>
</g>
<!-- 0&#45;&gt;156 -->
<g id="edge21" class="edge">
<title>0&#45;&gt;156</title>
<path fill="none" stroke="black" d="M118.06,-821.54C138.5,-828.4 163.66,-835.92 186.81,-840.32 325.07,-866.55 488.23,-874.79 588.78,-877.31"/>
<polygon fill="black" stroke="black" points="588.53,-880.8 598.61,-877.54 588.69,-873.8 588.53,-880.8"/>
</g>
<!-- 163 -->
<!-- name: &quot;Level Current Time&quot;, typeName: &quot;&quot;, id: 163, branchId: 0, recurseId: &#45;1, attributes: 0, notes: &quot;&quot; -->
<g id="node24" class="node">
<title>163</title>
<ellipse fill="none" stroke="black" cx="964.94" cy="-827.32" rx="84.62" ry="18"/>
<text text-anchor="middle" x="964.94" y="-822.27" font-family="Times,serif" font-size="14.00">Level Current Time</text>
</g>
<!-- 0&#45;&gt;163 -->
<g id="edge23" class="edge">
<title>0&#45;&gt;163</title>
<path fill="none" stroke="black" d="M150.93,-808.08C311.8,-811.89 691.38,-820.87 869.08,-825.07"/>
<polygon fill="black" stroke="black" points="868.9,-828.57 878.98,-825.31 869.06,-821.57 868.9,-828.57"/>
</g>
<!-- 165 -->
<!-- name: &quot;Enchantment Seed&quot;, typeName: &quot;&quot;, id: 165, branchId: 0, recurseId: &#45;1, attributes: 0, notes: &quot;&quot; -->
<g id="node26" class="node">
<title>165</title>
<ellipse fill="none" stroke="black" cx="684.46" cy="-779.32" rx="80.52" ry="18"/>
<text text-anchor="middle" x="684.46" y="-774.27" font-family="Times,serif" font-size="14.00">Enchantment Seed</text>
</g>
<!-- 0&#45;&gt;165 -->
<g id="edge25" class="edge">
<title>0&#45;&gt;165</title>
<path fill="none" stroke="black" d="M149.93,-803.05C261.55,-798.08 473.46,-788.66 593.91,-783.3"/>
<polygon fill="black" stroke="black" points="593.92,-786.8 603.76,-782.86 593.61,-779.81 593.92,-786.8"/>
</g>
<!-- 167 -->
<!-- name: &quot;Block Properties&quot;, typeName: &quot;&quot;, id: 167, branchId: 0, recurseId: &#45;1, attributes: 8, notes: &quot;&quot; -->
<g id="node28" class="node">
<title>167</title>
<ellipse fill="none" stroke="black" cx="339.5" cy="-723.32" rx="72.85" ry="18"/>
<text text-anchor="middle" x="339.5" y="-718.27" font-family="Times,serif" font-size="14.00">Block Properties</text>
</g>
<!-- 0&#45;&gt;167 -->
<g id="edge27" class="edge">
<title>0&#45;&gt;167</title>
<path fill="none" stroke="black" d="M119.83,-791.44C140.14,-784.57 164.67,-776.38 186.81,-769.32 217.71,-759.46 252.31,-748.93 280.65,-740.43"/>
<polygon fill="black" stroke="black" points="281.56,-743.81 290.13,-737.6 279.55,-737.11 281.56,-743.81"/>
</g>
<!-- 175 -->
<!-- name: &quot;Multiplayer Correlation Id&quot;, typeName: &quot;&quot;, id: 175, branchId: 0, recurseId: &#45;1, attributes: 0, notes: &quot;A UUID to identify this multiplayer session.&quot; -->
<g id="node36" class="node">
<title>175</title>
<ellipse fill="none" stroke="black" cx="339.5" cy="-669.32" rx="109.7" ry="18"/>
<text text-anchor="middle" x="339.5" y="-664.27" font-family="Times,serif" font-size="14.00">Multiplayer Correlation Id</text>
</g>
<!-- 0&#45;&gt;175 -->
<g id="edge35" class="edge">
<title>0&#45;&gt;175</title>
<path fill="none" stroke="black" d="M88.7,-788.52C106.99,-763.55 143.85,-718.68 186.81,-696.32 200.27,-689.31 215.22,-684.08 230.33,-680.19"/>
<polygon fill="black" stroke="black" points="230.94,-683.64 239.87,-677.94 229.33,-676.83 230.94,-683.64"/>
</g>
<!-- 177 -->
<!-- name: &quot;Enable Item Stack Net Manager&quot;, typeName: &quot;&quot;, id: 177, branchId: 0, recurseId: &#45;1, attributes: 0, notes: &quot;Whether the new item stack net manager is enabled for server authoritative inventory. This will eventually be required.&quot; -->
<g id="node38" class="node">
<title>177</title>
<ellipse fill="none" stroke="black" cx="339.5" cy="-615.32" rx="131.19" ry="18"/>
<text text-anchor="middle" x="339.5" y="-610.27" font-family="Times,serif" font-size="14.00">Enable Item Stack Net Manager</text>
</g>
<!-- 0&#45;&gt;177 -->
<g id="edge37" class="edge">
<title>0&#45;&gt;177</title>
<path fill="none" stroke="black" d="M83.09,-787.98C96.74,-753.32 131.3,-678.46 186.81,-642.32 195.71,-636.52 205.5,-631.87 215.69,-628.16"/>
<polygon fill="black" stroke="black" points="216.59,-631.54 224.99,-625.09 214.4,-624.9 216.59,-631.54"/>
</g>
<!-- 179 -->
<!-- name: &quot;Server version&quot;, typeName: &quot;&quot;, id: 179, branchId: 0, recurseId: &#45;1, attributes: 0, notes: &quot;For telemetry purposes &#45; sending your own string with your own server name and version here would be useful for Mojang&#39;s telemetry.&quot; -->
<g id="node40" class="node">
<title>179</title>
<ellipse fill="none" stroke="black" cx="339.5" cy="-560.32" rx="64.66" ry="18"/>
<text text-anchor="middle" x="339.5" y="-555.27" font-family="Times,serif" font-size="14.00">Server version</text>
</g>
<!-- 0&#45;&gt;179 -->
<g id="edge39" class="edge">
<title>0&#45;&gt;179</title>
<path fill="none" stroke="black" d="M79.91,-788.16C89.12,-745.7 118.19,-639.65 186.81,-588.32 208.67,-571.96 237.17,-564.19 263.56,-560.77"/>
<polygon fill="black" stroke="black" points="263.65,-564.28 273.21,-559.71 262.89,-557.32 263.65,-564.28"/>
</g>
<!-- 181 -->
<!-- name: &quot;Player Property Data&quot;, typeName: &quot;CompoundTag&quot;, id: 181, branchId: 0, recurseId: &#45;1, attributes: 256, notes: &quot;like SyncActorPropertyPacket, specifically for minecraft:player properties&quot; -->
<g id="node42" class="node">
<title>181</title>
<ellipse fill="none" stroke="black" cx="339.5" cy="-504.32" rx="88.71" ry="18"/>
<text text-anchor="middle" x="339.5" y="-499.27" font-family="Times,serif" font-size="14.00">Player Property Data</text>
</g>
<!-- 0&#45;&gt;181 -->
<g id="edge41" class="edge">
<title>0&#45;&gt;181</title>
<path fill="none" stroke="black" d="M77.97,-787.88C83.22,-738.19 104.84,-600.65 186.81,-533.32 201.95,-520.88 220.8,-513.18 240.02,-508.53"/>
<polygon fill="black" stroke="black" points="240.5,-512.01 249.55,-506.5 239.04,-505.16 240.5,-512.01"/>
</g>
<!-- 183 -->
<!-- name: &quot;Server Block Type Registry Checksum&quot;, typeName: &quot;&quot;, id: 183, branchId: 0, recurseId: &#45;1, attributes: 0, notes: &quot;Checksum for detecting mismatches in block types between server and client.&quot; -->
<g id="node44" class="node">
<title>183</title>
<ellipse fill="none" stroke="black" cx="684.46" cy="-349.32" rx="156.27" ry="18"/>
<text text-anchor="middle" x="684.46" y="-344.27" font-family="Times,serif" font-size="14.00">Server Block Type Registry Checksum</text>
</g>
<!-- 0&#45;&gt;183 -->
<g id="edge43" class="edge">
<title>0&#45;&gt;183</title>
<path fill="none" stroke="black" d="M76.43,-787.82C77.6,-731.33 89.37,-559.9 186.81,-477.32 291.68,-388.44 372.66,-496.19 492.19,-428.32 513.87,-416.01 506.95,-398.36 528.19,-385.32 541.09,-377.39 555.57,-371.21 570.37,-366.39"/>
<polygon fill="black" stroke="black" points="571.18,-369.8 579.73,-363.55 569.15,-363.1 571.18,-369.8"/>
</g>
<!-- 185 -->
<!-- name: &quot;World Template ID&quot;, typeName: &quot;mce::UUID&quot;, id: 185, branchId: 0, recurseId: &#45;1, attributes: 256, notes: &quot;&quot; -->
<g id="node46" class="node">
<title>185</title>
<ellipse fill="none" stroke="black" cx="339.5" cy="-401.32" rx="84.11" ry="18"/>
<text text-anchor="middle" x="339.5" y="-396.27" font-family="Times,serif" font-size="14.00">World Template ID</text>
</g>
<!-- 0&#45;&gt;185 -->
<g id="edge45" class="edge">
<title>0&#45;&gt;185</title>
<path fill="none" stroke="black" d="M76.07,-787.93C76.03,-728.34 84.33,-538.65 186.81,-440.32 203.26,-424.53 225.21,-414.9 247.28,-409.09"/>
<polygon fill="black" stroke="black" points="248.05,-412.51 256.98,-406.81 246.45,-405.69 248.05,-412.51"/>
</g>
<!-- 187 -->
<!-- name: &quot;Server Enabled ClientSide Generation&quot;, typeName: &quot;&quot;, id: 187, branchId: 0, recurseId: &#45;1, attributes: 0, notes: &quot;BiomeComponentFactory needs to know about this toggle before we start parsing BiomeComponents&quot; -->
<g id="node48" class="node">
<title>187</title>
<ellipse fill="none" stroke="black" cx="339.5" cy="-333.32" rx="152.69" ry="18"/>
<text text-anchor="middle" x="339.5" y="-328.27" font-family="Times,serif" font-size="14.00">Server Enabled ClientSide Generation</text>
</g>
<!-- 0&#45;&gt;187 -->
<g id="edge47" class="edge">
<title>0&#45;&gt;187</title>
<path fill="none" stroke="black" d="M78.63,-787.97C88.02,-713.55 126.68,-435.28 186.81,-374.32 196.71,-364.28 208.8,-356.62 221.78,-350.8"/>
<polygon fill="black" stroke="black" points="223.01,-354.07 230.96,-347.07 220.38,-347.59 223.01,-354.07"/>
</g>
<!-- 189 -->
<!-- name: &quot;BlockNetworkIds Are Hashes&quot;, typeName: &quot;&quot;, id: 189, branchId: 0, recurseId: &#45;1, attributes: 0, notes: &quot;&quot; -->
<g id="node50" class="node">
<title>189</title>
<ellipse fill="none" stroke="black" cx="339.5" cy="-250.32" rx="121.47" ry="18"/>
<text text-anchor="middle" x="339.5" y="-245.27" font-family="Times,serif" font-size="14.00">BlockNetworkIds Are Hashes</text>
</g>
<!-- 0&#45;&gt;189 -->
<g id="edge49" class="edge">
<title>0&#45;&gt;189</title>
<path fill="none" stroke="black" d="M78.11,-788.08C86,-707.16 121.44,-381.27 186.81,-306.32 202.58,-288.24 224.73,-275.99 247.24,-267.69"/>
<polygon fill="black" stroke="black" points="248.17,-271.07 256.5,-264.53 245.91,-264.44 248.17,-271.07"/>
</g>
<!-- 199 -->
<!-- name: &quot;Tick Death Systems Enabled&quot;, typeName: &quot;&quot;, id: 199, branchId: 0, recurseId: &#45;1, attributes: 0, notes: &quot;&quot; -->
<g id="node52" class="node">
<title>199</title>
<ellipse fill="none" stroke="black" cx="339.5" cy="-138.32" rx="118.91" ry="18"/>
<text text-anchor="middle" x="339.5" y="-133.27" font-family="Times,serif" font-size="14.00">Tick Death Systems Enabled</text>
</g>
<!-- 0&#45;&gt;199 -->
<g id="edge51" class="edge">
<title>0&#45;&gt;199</title>
<path fill="none" stroke="black" d="M77.8,-788.07C84.83,-699.83 118.84,-317.81 186.81,-223.32 208.43,-193.26 244.15,-172.5 275.49,-159.02"/>
<polygon fill="black" stroke="black" points="276.62,-162.34 284.53,-155.3 273.95,-155.87 276.62,-162.34"/>
</g>
<!-- 191 -->
<!-- name: &quot;NetworkPermissions&quot;, typeName: &quot;NetworkPermissions&quot;, id: 191, branchId: 0, recurseId: &#45;1, attributes: 256, notes: &quot;&quot; -->
<g id="node54" class="node">
<title>191</title>
<ellipse fill="none" stroke="black" cx="964.94" cy="-79.32" rx="88.2" ry="18"/>
<text text-anchor="middle" x="964.94" y="-74.27" font-family="Times,serif" font-size="14.00">NetworkPermissions</text>
</g>
<!-- 0&#45;&gt;191 -->
<g id="edge53" class="edge">
<title>0&#45;&gt;191</title>
<path fill="none" stroke="black" d="M76.34,-787.86C76.42,-687.06 82.31,-204.31 186.81,-111.32 393.06,72.22 765.58,-17 907.21,-60.37"/>
<polygon fill="black" stroke="black" points="906.17,-63.71 916.75,-63.34 908.24,-57.03 906.17,-63.71"/>
</g>
<!-- 5 -->
<!-- name: &quot;ActorUniqueID&quot;, typeName: &quot;&quot;, id: 5, branchId: 0, recurseId: &#45;1, attributes: 512, notes: &quot;&quot; -->
<g id="node3" class="node">
<title>5</title>
<ellipse fill="none" stroke="black" cx="1221.36" cy="-1425.32" rx="68.75" ry="18"/>
<text text-anchor="middle" x="1221.36" y="-1420.27" font-family="Times,serif" font-size="14.00">ActorUniqueID</text>
</g>
<!-- 1&#45;&gt;5 -->
<g id="edge2" class="edge">
<title>1&#45;&gt;5</title>
<path fill="none" stroke="black" d="M730.61,-1416.16C821.43,-1417.86 1027.27,-1421.71 1141.05,-1423.83"/>
<polygon fill="black" stroke="black" points="1140.86,-1427.33 1150.93,-1424.02 1140.99,-1420.33 1140.86,-1427.33"/>
</g>
<!-- 10 -->
<!-- name: &quot;ActorRuntimeID&quot;, typeName: &quot;&quot;, id: 10, branchId: 0, recurseId: &#45;1, attributes: 512, notes: &quot;&quot; -->
<g id="node5" class="node">
<title>10</title>
<ellipse fill="none" stroke="black" cx="1221.36" cy="-1371.32" rx="73.87" ry="18"/>
<text text-anchor="middle" x="1221.36" y="-1366.27" font-family="Times,serif" font-size="14.00">ActorRuntimeID</text>
</g>
<!-- 6&#45;&gt;10 -->
<g id="edge4" class="edge">
<title>6&#45;&gt;10</title>
<path fill="none" stroke="black" d="M1020.52,-1368.17C1054.27,-1368.7 1098.29,-1369.4 1136.41,-1370"/>
<polygon fill="black" stroke="black" points="1135.95,-1373.49 1146,-1370.15 1136.06,-1366.49 1135.95,-1373.49"/>
</g>
<!-- 12 -->
<!-- name: &quot;varint&quot;, typeName: &quot;&quot;, id: 12, branchId: 0, recurseId: &#45;1, attributes: 512, notes: &quot;&quot; -->
<g id="node7" class="node">
<title>12</title>
<ellipse fill="none" stroke="black" cx="1221.36" cy="-1317.32" rx="32.41" ry="18"/>
<text text-anchor="middle" x="1221.36" y="-1312.27" font-family="Times,serif" font-size="14.00">varint</text>
</g>
<!-- 11&#45;&gt;12 -->
<g id="edge6" class="edge">
<title>11&#45;&gt;12</title>
<path fill="none" stroke="black" d="M739.2,-1308.32C845.38,-1310.31 1080.15,-1314.69 1177.14,-1316.51"/>
<polygon fill="black" stroke="black" points="1176.96,-1320.01 1187.02,-1316.69 1177.09,-1313.01 1176.96,-1320.01"/>
</g>
<!-- 14 -->
<!-- name: &quot;Vec3&quot;, typeName: &quot;&quot;, id: 14, branchId: 0, recurseId: &#45;1, attributes: 512, notes: &quot;&quot; -->
<g id="node9" class="node">
<title>14</title>
<ellipse fill="none" stroke="black" cx="1221.36" cy="-1263.32" rx="29.34" ry="18"/>
<text text-anchor="middle" x="1221.36" y="-1258.27" font-family="Times,serif" font-size="14.00">Vec3</text>
</g>
<!-- 13&#45;&gt;14 -->
<g id="edge8" class="edge">
<title>13&#45;&gt;14</title>
<path fill="none" stroke="black" d="M1006.25,-1259.95C1053.91,-1260.7 1132.75,-1261.94 1180.3,-1262.69"/>
<polygon fill="black" stroke="black" points="1180.11,-1266.18 1190.17,-1262.84 1180.22,-1259.18 1180.11,-1266.18"/>
</g>
<!-- 21 -->
<!-- name: &quot;Vec2&quot;, typeName: &quot;&quot;, id: 21, branchId: 0, recurseId: &#45;1, attributes: 512, notes: &quot;&quot; -->
<g id="node11" class="node">
<title>21</title>
<ellipse fill="none" stroke="black" cx="1221.36" cy="-1209.32" rx="29.34" ry="18"/>
<text text-anchor="middle" x="1221.36" y="-1204.27" font-family="Times,serif" font-size="14.00">Vec2</text>
</g>
<!-- 15&#45;&gt;21 -->
<g id="edge10" class="edge">
<title>15&#45;&gt;21</title>
<path fill="none" stroke="black" d="M727.44,-1200.1C828.02,-1201.98 1081.76,-1206.72 1180.33,-1208.57"/>
<polygon fill="black" stroke="black" points="1179.99,-1212.06 1190.05,-1208.75 1180.12,-1205.06 1179.99,-1212.06"/>
</g>
<!-- 147 -->
<!-- name: &quot;LevelSettings&quot;, typeName: &quot;&quot;, id: 147, branchId: 0, recurseId: &#45;1, attributes: 512, notes: &quot;&quot; -->
<g id="node13" class="node">
<title>147</title>
<ellipse fill="none" stroke="black" cx="1221.36" cy="-1155.32" rx="61.59" ry="18"/>
<text text-anchor="middle" x="1221.36" y="-1150.27" font-family="Times,serif" font-size="14.00">LevelSettings</text>
</g>
<!-- 22&#45;&gt;147 -->
<g id="edge12" class="edge">
<title>22&#45;&gt;147</title>
<path fill="none" stroke="black" d="M1005.97,-1151.95C1044.03,-1152.54 1102.14,-1153.46 1148.27,-1154.18"/>
<polygon fill="black" stroke="black" points="1148.15,-1157.68 1158.2,-1154.34 1148.26,-1150.68 1148.15,-1157.68"/>
</g>
<!-- 149 -->
<!-- name: &quot;string&quot;, typeName: &quot;&quot;, id: 149, branchId: 0, recurseId: &#45;1, attributes: 512, notes: &quot;&quot; -->
<g id="node15" class="node">
<title>149</title>
<ellipse fill="none" stroke="black" cx="1221.36" cy="-1101.32" rx="31.9" ry="18"/>
<text text-anchor="middle" x="1221.36" y="-1096.27" font-family="Times,serif" font-size="14.00">string</text>
</g>
<!-- 148&#45;&gt;149 -->
<g id="edge14" class="edge">
<title>148&#45;&gt;149</title>
<path fill="none" stroke="black" d="M728.78,-1092.13C829.4,-1094.01 1077.92,-1098.65 1177.79,-1100.52"/>
<polygon fill="black" stroke="black" points="1177.64,-1104.02 1187.7,-1100.71 1177.77,-1097.02 1177.64,-1104.02"/>
</g>
<!-- 151 -->
<!-- name: &quot;string&quot;, typeName: &quot;&quot;, id: 151, branchId: 0, recurseId: &#45;1, attributes: 512, notes: &quot;&quot; -->
<g id="node17" class="node">
<title>151</title>
<ellipse fill="none" stroke="black" cx="1221.36" cy="-1047.32" rx="31.9" ry="18"/>
<text text-anchor="middle" x="1221.36" y="-1042.27" font-family="Times,serif" font-size="14.00">string</text>
</g>
<!-- 150&#45;&gt;151 -->
<g id="edge16" class="edge">
<title>150&#45;&gt;151</title>
<path fill="none" stroke="black" d="M1022.09,-1044.2C1069.04,-1044.94 1135,-1045.97 1177.71,-1046.65"/>
<polygon fill="black" stroke="black" points="1177.54,-1050.14 1187.59,-1046.8 1177.65,-1043.14 1177.54,-1050.14"/>
</g>
<!-- 153 -->
<!-- name: &quot;string&quot;, typeName: &quot;&quot;, id: 153, branchId: 0, recurseId: &#45;1, attributes: 512, notes: &quot;&quot; -->
<g id="node19" class="node">
<title>153</title>
<ellipse fill="none" stroke="black" cx="1221.36" cy="-993.32" rx="31.9" ry="18"/>
<text text-anchor="middle" x="1221.36" y="-988.27" font-family="Times,serif" font-size="14.00">string</text>
</g>
<!-- 152&#45;&gt;153 -->
<g id="edge18" class="edge">
<title>152&#45;&gt;153</title>
<path fill="none" stroke="black" d="M793.39,-986.13C911.62,-988.12 1095.41,-991.21 1177.84,-992.6"/>
<polygon fill="black" stroke="black" points="1177.67,-996.1 1187.73,-992.77 1177.79,-989.1 1177.67,-996.1"/>
</g>
<!-- 155 -->
<!-- name: &quot;bool&quot;, typeName: &quot;&quot;, id: 155, branchId: 0, recurseId: &#45;1, attributes: 512, notes: &quot;&quot; -->
<g id="node21" class="node">
<title>155</title>
<ellipse fill="none" stroke="black" cx="1221.36" cy="-939.32" rx="27.3" ry="18"/>
<text text-anchor="middle" x="1221.36" y="-934.27" font-family="Times,serif" font-size="14.00">bool</text>
</g>
<!-- 154&#45;&gt;155 -->
<g id="edge20" class="edge">
<title>154&#45;&gt;155</title>
<path fill="none" stroke="black" d="M1006.81,-935.96C1055.24,-936.72 1135.28,-937.98 1182.4,-938.72"/>
<polygon fill="black" stroke="black" points="1182.06,-942.21 1192.12,-938.87 1182.17,-935.22 1182.06,-942.21"/>
</g>
<!-- 162 -->
<!-- name: &quot;SyncedPlayerMovementSettings&quot;, typeName: &quot;&quot;, id: 162, branchId: 0, recurseId: &#45;1, attributes: 512, notes: &quot;&quot; -->
<g id="node23" class="node">
<title>162</title>
<ellipse fill="none" stroke="black" cx="1221.36" cy="-885.32" rx="132.22" ry="18"/>
<text text-anchor="middle" x="1221.36" y="-880.27" font-family="Times,serif" font-size="14.00">SyncedPlayerMovementSettings</text>
</g>
<!-- 156&#45;&gt;162 -->
<g id="edge22" class="edge">
<title>156&#45;&gt;162</title>
<path fill="none" stroke="black" d="M768.75,-879.41C851.31,-880.49 979.38,-882.16 1078.08,-883.45"/>
<polygon fill="black" stroke="black" points="1077.8,-886.95 1087.85,-883.58 1077.89,-879.95 1077.8,-886.95"/>
</g>
<!-- 164 -->
<!-- name: &quot;unsigned int64&quot;, typeName: &quot;&quot;, id: 164, branchId: 0, recurseId: &#45;1, attributes: 512, notes: &quot;&quot; -->
<g id="node25" class="node">
<title>164</title>
<ellipse fill="none" stroke="black" cx="1221.36" cy="-831.32" rx="65.68" ry="18"/>
<text text-anchor="middle" x="1221.36" y="-826.27" font-family="Times,serif" font-size="14.00">unsigned int64</text>
</g>
<!-- 163&#45;&gt;164 -->
<g id="edge24" class="edge">
<title>163&#45;&gt;164</title>
<path fill="none" stroke="black" d="M1049.6,-828.63C1080.16,-829.11 1114.54,-829.65 1144.4,-830.12"/>
<polygon fill="black" stroke="black" points="1144.03,-833.62 1154.09,-830.27 1144.14,-826.62 1144.03,-833.62"/>
</g>
<!-- 166 -->
<!-- name: &quot;varint&quot;, typeName: &quot;&quot;, id: 166, branchId: 0, recurseId: &#45;1, attributes: 512, notes: &quot;&quot; -->
<g id="node27" class="node">
<title>166</title>
<ellipse fill="none" stroke="black" cx="1221.36" cy="-777.32" rx="32.41" ry="18"/>
<text text-anchor="middle" x="1221.36" y="-772.27" font-family="Times,serif" font-size="14.00">varint</text>
</g>
<!-- 165&#45;&gt;166 -->
<g id="edge26" class="edge">
<title>165&#45;&gt;166</title>
<path fill="none" stroke="black" d="M765.25,-779.02C879.95,-778.59 1087.45,-777.81 1177.14,-777.48"/>
<polygon fill="black" stroke="black" points="1176.99,-780.98 1186.97,-777.44 1176.96,-773.98 1176.99,-780.98"/>
</g>
<!-- 168 -->
<!-- name: &quot;List Size&quot;, typeName: &quot;&quot;, id: 168, branchId: 0, recurseId: &#45;1, attributes: 0, notes: &quot;&quot; -->
<g id="node29" class="node">
<title>168</title>
<ellipse fill="none" stroke="black" cx="964.94" cy="-723.32" rx="43.67" ry="18"/>
<text text-anchor="middle" x="964.94" y="-718.27" font-family="Times,serif" font-size="14.00">List Size</text>
</g>
<!-- 167&#45;&gt;168 -->
<g id="edge28" class="edge">
<title>167&#45;&gt;168</title>
<path fill="none" stroke="black" d="M412.63,-723.32C538.93,-723.32 797.38,-723.32 909.76,-723.32"/>
<polygon fill="black" stroke="black" points="909.61,-726.82 919.61,-723.32 909.61,-719.82 909.61,-726.82"/>
</g>
<!-- 170 -->
<!-- name: &quot;example element&quot;, typeName: &quot;&quot;, id: 170, branchId: 0, recurseId: &#45;1, attributes: 16, notes: &quot;&quot; -->
<g id="node31" class="node">
<title>170</title>
<ellipse fill="none" stroke="black" stroke-dasharray="1,5" cx="684.46" cy="-669.32" rx="74.89" ry="18"/>
<text text-anchor="middle" x="684.46" y="-664.27" font-family="Times,serif" font-size="14.00">example element</text>
</g>
<!-- 167&#45;&gt;170 -->
<g id="edge30" class="edge">
<title>167&#45;&gt;170</title>
<path fill="none" stroke="black" d="M401.82,-713.66C460.04,-704.49 547.65,-690.7 609.67,-680.93"/>
<polygon fill="black" stroke="black" points="610.11,-684.41 619.45,-679.4 609.02,-677.49 610.11,-684.41"/>
</g>
<!-- 169 -->
<!-- name: &quot;unsigned varint&quot;, typeName: &quot;&quot;, id: 169, branchId: 0, recurseId: &#45;1, attributes: 512, notes: &quot;&quot; -->
<g id="node30" class="node">
<title>169</title>
<ellipse fill="none" stroke="black" cx="1221.36" cy="-723.32" rx="68.24" ry="18"/>
<text text-anchor="middle" x="1221.36" y="-718.27" font-family="Times,serif" font-size="14.00">unsigned varint</text>
</g>
<!-- 168&#45;&gt;169 -->
<g id="edge29" class="edge">
<title>168&#45;&gt;169</title>
<path fill="none" stroke="black" d="M1009.1,-723.32C1045.28,-723.32 1097.87,-723.32 1141.53,-723.32"/>
<polygon fill="black" stroke="black" points="1141.49,-726.82 1151.49,-723.32 1141.49,-719.82 1141.49,-726.82"/>
</g>
<!-- 171 -->
<!-- name: &quot;Block Name&quot;, typeName: &quot;&quot;, id: 171, branchId: 0, recurseId: &#45;1, attributes: 0, notes: &quot;&quot; -->
<g id="node32" class="node">
<title>171</title>
<ellipse fill="none" stroke="black" cx="964.94" cy="-669.32" rx="58" ry="18"/>
<text text-anchor="middle" x="964.94" y="-664.27" font-family="Times,serif" font-size="14.00">Block Name</text>
</g>
<!-- 170&#45;&gt;171 -->
<g id="edge31" class="edge">
<title>170&#45;&gt;171</title>
<path fill="none" stroke="black" d="M759.72,-669.32C801.84,-669.32 854.19,-669.32 895.34,-669.32"/>
<polygon fill="black" stroke="black" points="895.12,-672.82 905.12,-669.32 895.12,-665.82 895.12,-672.82"/>
</g>
<!-- 173 -->
<!-- name: &quot;Block Definition&quot;, typeName: &quot;CompoundTag&quot;, id: 173, branchId: 0, recurseId: &#45;1, attributes: 256, notes: &quot;Map of block states. { key (component name):[label,value] } (Can be left empty.)&quot; -->
<g id="node34" class="node">
<title>173</title>
<ellipse fill="none" stroke="black" cx="964.94" cy="-615.32" rx="73.36" ry="18"/>
<text text-anchor="middle" x="964.94" y="-610.27" font-family="Times,serif" font-size="14.00">Block Definition</text>
</g>
<!-- 170&#45;&gt;173 -->
<g id="edge33" class="edge">
<title>170&#45;&gt;173</title>
<path fill="none" stroke="black" d="M743.84,-658C788.04,-649.42 848.88,-637.63 895.4,-628.61"/>
<polygon fill="black" stroke="black" points="895.95,-632.06 905.11,-626.72 894.62,-625.19 895.95,-632.06"/>
</g>
<!-- 172 -->
<!-- name: &quot;string&quot;, typeName: &quot;&quot;, id: 172, branchId: 0, recurseId: &#45;1, attributes: 512, notes: &quot;&quot; -->
<g id="node33" class="node">
<title>172</title>
<ellipse fill="none" stroke="black" cx="1221.36" cy="-669.32" rx="31.9" ry="18"/>
<text text-anchor="middle" x="1221.36" y="-664.27" font-family="Times,serif" font-size="14.00">string</text>
</g>
<!-- 171&#45;&gt;172 -->
<g id="edge32" class="edge">
<title>171&#45;&gt;172</title>
<path fill="none" stroke="black" d="M1023.35,-669.32C1070.24,-669.32 1135.45,-669.32 1177.78,-669.32"/>
<polygon fill="black" stroke="black" points="1177.56,-672.82 1187.56,-669.32 1177.56,-665.82 1177.56,-672.82"/>
</g>
<!-- 174 -->
<!-- name: &quot;CompoundTag&quot;, typeName: &quot;&quot;, id: 174, branchId: 0, recurseId: &#45;1, attributes: 512, notes: &quot;&quot; -->
<g id="node35" class="node">
<title>174</title>
<ellipse fill="none" stroke="black" cx="1221.36" cy="-615.32" rx="66.71" ry="18"/>
<text text-anchor="middle" x="1221.36" y="-610.27" font-family="Times,serif" font-size="14.00">CompoundTag</text>
</g>
<!-- 173&#45;&gt;174 -->
<g id="edge34" class="edge">
<title>173&#45;&gt;174</title>
<path fill="none" stroke="black" d="M1038.5,-615.32C1071.09,-615.32 1109.57,-615.32 1142.73,-615.32"/>
<polygon fill="black" stroke="black" points="1142.71,-618.82 1152.71,-615.32 1142.71,-611.82 1142.71,-618.82"/>
</g>
<!-- 176 -->
<!-- name: &quot;string&quot;, typeName: &quot;&quot;, id: 176, branchId: 0, recurseId: &#45;1, attributes: 512, notes: &quot;&quot; -->
<g id="node37" class="node">
<title>176</title>
<ellipse fill="none" stroke="black" cx="1221.36" cy="-561.32" rx="31.9" ry="18"/>
<text text-anchor="middle" x="1221.36" y="-556.27" font-family="Times,serif" font-size="14.00">string</text>
</g>
<!-- 175&#45;&gt;176 -->
<g id="edge36" class="edge">
<title>175&#45;&gt;176</title>
<path fill="none" stroke="black" d="M416.2,-656.14C519.84,-638.49 711.87,-607.22 876.74,-588.32 985.03,-575.9 1113.19,-567.48 1178.12,-563.66"/>
<polygon fill="black" stroke="black" points="1178.19,-567.16 1187.97,-563.09 1177.79,-560.17 1178.19,-567.16"/>
</g>
<!-- 178 -->
<!-- name: &quot;bool&quot;, typeName: &quot;&quot;, id: 178, branchId: 0, recurseId: &#45;1, attributes: 512, notes: &quot;&quot; -->
<g id="node39" class="node">
<title>178</title>
<ellipse fill="none" stroke="black" cx="1221.36" cy="-507.32" rx="27.3" ry="18"/>
<text text-anchor="middle" x="1221.36" y="-502.27" font-family="Times,serif" font-size="14.00">bool</text>
</g>
<!-- 177&#45;&gt;178 -->
<g id="edge38" class="edge">
<title>177&#45;&gt;178</title>
<path fill="none" stroke="black" d="M432.1,-602.26C462.64,-598 496.87,-593.34 528.19,-589.32 777.82,-557.24 1078.7,-523.16 1182.79,-511.5"/>
<polygon fill="black" stroke="black" points="1182.88,-515.01 1192.42,-510.42 1182.1,-508.06 1182.88,-515.01"/>
</g>
<!-- 180 -->
<!-- name: &quot;string&quot;, typeName: &quot;&quot;, id: 180, branchId: 0, recurseId: &#45;1, attributes: 512, notes: &quot;&quot; -->
<g id="node41" class="node">
<title>180</title>
<ellipse fill="none" stroke="black" cx="1221.36" cy="-453.32" rx="31.9" ry="18"/>
<text text-anchor="middle" x="1221.36" y="-448.27" font-family="Times,serif" font-size="14.00">string</text>
</g>
<!-- 179&#45;&gt;180 -->
<g id="edge40" class="edge">
<title>179&#45;&gt;180</title>
<path fill="none" stroke="black" d="M403.62,-557.04C432.07,-553.41 465.26,-546.05 492.19,-531.32 512.6,-520.15 507.09,-503.12 528.19,-493.32 754.62,-388.08 1068.58,-427.13 1179.53,-445.73"/>
<polygon fill="black" stroke="black" points="1178.9,-449.17 1189.35,-447.42 1180.09,-442.27 1178.9,-449.17"/>
</g>
<!-- 182 -->
<!-- name: &quot;CompoundTag&quot;, typeName: &quot;&quot;, id: 182, branchId: 0, recurseId: &#45;1, attributes: 512, notes: &quot;&quot; -->
<g id="node43" class="node">
<title>182</title>
<ellipse fill="none" stroke="black" cx="1221.36" cy="-399.32" rx="66.71" ry="18"/>
<text text-anchor="middle" x="1221.36" y="-394.27" font-family="Times,serif" font-size="14.00">CompoundTag</text>
</g>
<!-- 181&#45;&gt;182 -->
<g id="edge42" class="edge">
<title>181&#45;&gt;182</title>
<path fill="none" stroke="black" d="M411.35,-493.48C437.59,-487.83 467.05,-479.46 492.19,-467.32 510.44,-458.5 509.22,-446.44 528.19,-439.32 742.84,-358.67 1021.32,-375.9 1149.76,-389.99"/>
<polygon fill="black" stroke="black" points="1149.15,-393.45 1159.47,-391.09 1149.93,-386.49 1149.15,-393.45"/>
</g>
<!-- 184 -->
<!-- name: &quot;unsigned int64&quot;, typeName: &quot;&quot;, id: 184, branchId: 0, recurseId: &#45;1, attributes: 512, notes: &quot;&quot; -->
<g id="node45" class="node">
<title>184</title>
<ellipse fill="none" stroke="black" cx="1221.36" cy="-345.32" rx="65.68" ry="18"/>
<text text-anchor="middle" x="1221.36" y="-340.27" font-family="Times,serif" font-size="14.00">unsigned int64</text>
</g>
<!-- 183&#45;&gt;184 -->
<g id="edge44" class="edge">
<title>183&#45;&gt;184</title>
<path fill="none" stroke="black" d="M840.9,-348.15C940.56,-347.41 1065.55,-346.47 1144.22,-345.89"/>
<polygon fill="black" stroke="black" points="1143.99,-349.39 1153.97,-345.81 1143.94,-342.39 1143.99,-349.39"/>
</g>
<!-- 186 -->
<!-- name: &quot;mce::UUID&quot;, typeName: &quot;&quot;, id: 186, branchId: 0, recurseId: &#45;1, attributes: 512, notes: &quot;&quot; -->
<g id="node47" class="node">
<title>186</title>
<ellipse fill="none" stroke="black" cx="1221.36" cy="-291.32" rx="54.93" ry="18"/>
<text text-anchor="middle" x="1221.36" y="-286.27" font-family="Times,serif" font-size="14.00">mce::UUID</text>
</g>
<!-- 185&#45;&gt;186 -->
<g id="edge46" class="edge">
<title>185&#45;&gt;186</title>
<path fill="none" stroke="black" d="M409.37,-391.02C436.52,-384.9 467.13,-375.28 492.19,-360.32 512.17,-348.39 507.03,-331.98 528.19,-322.32 638.62,-271.86 1005.28,-281.7 1155.41,-288.12"/>
<polygon fill="black" stroke="black" points="1155.04,-291.61 1165.18,-288.55 1155.34,-284.61 1155.04,-291.61"/>
</g>
<!-- 188 -->
<!-- name: &quot;bool&quot;, typeName: &quot;&quot;, id: 188, branchId: 0, recurseId: &#45;1, attributes: 512, notes: &quot;&quot; -->
<g id="node49" class="node">
<title>188</title>
<ellipse fill="none" stroke="black" cx="1221.36" cy="-237.32" rx="27.3" ry="18"/>
<text text-anchor="middle" x="1221.36" y="-232.27" font-family="Times,serif" font-size="14.00">bool</text>
</g>
<!-- 187&#45;&gt;188 -->
<g id="edge48" class="edge">
<title>187&#45;&gt;188</title>
<path fill="none" stroke="black" d="M387.98,-315.81C425.49,-302.79 479.46,-285.87 528.19,-277.32 774.76,-234.01 1077.55,-234.67 1182.46,-236.44"/>
<polygon fill="black" stroke="black" points="1182.12,-239.93 1192.18,-236.62 1182.25,-232.94 1182.12,-239.93"/>
</g>
<!-- 190 -->
<!-- name: &quot;bool&quot;, typeName: &quot;&quot;, id: 190, branchId: 0, recurseId: &#45;1, attributes: 512, notes: &quot;&quot; -->
<g id="node51" class="node">
<title>190</title>
<ellipse fill="none" stroke="black" cx="1221.36" cy="-183.32" rx="27.3" ry="18"/>
<text text-anchor="middle" x="1221.36" y="-178.27" font-family="Times,serif" font-size="14.00">bool</text>
</g>
<!-- 189&#45;&gt;190 -->
<g id="edge50" class="edge">
<title>189&#45;&gt;190</title>
<path fill="none" stroke="black" d="M423.01,-236.9C455.68,-231.99 493.64,-226.79 528.19,-223.32 777.03,-198.27 1077.89,-187.53 1182.41,-184.37"/>
<polygon fill="black" stroke="black" points="1182.48,-187.87 1192.38,-184.08 1182.28,-180.88 1182.48,-187.87"/>
</g>
<!-- 200 -->
<!-- name: &quot;bool&quot;, typeName: &quot;&quot;, id: 200, branchId: 0, recurseId: &#45;1, attributes: 512, notes: &quot;&quot; -->
<g id="node53" class="node">
<title>200</title>
<ellipse fill="none" stroke="black" cx="1221.36" cy="-129.32" rx="27.3" ry="18"/>
<text text-anchor="middle" x="1221.36" y="-124.27" font-family="Times,serif" font-size="14.00">bool</text>
</g>
<!-- 199&#45;&gt;200 -->
<g id="edge52" class="edge">
<title>199&#45;&gt;200</title>
<path fill="none" stroke="black" d="M458.25,-137.11C659.01,-135.06 1057.91,-130.98 1182.36,-129.7"/>
<polygon fill="black" stroke="black" points="1182.39,-133.2 1192.35,-129.6 1182.32,-126.21 1182.39,-133.2"/>
</g>
<!-- 195 -->
<!-- name: &quot;NetworkPermissions&quot;, typeName: &quot;&quot;, id: 195, branchId: 0, recurseId: &#45;1, attributes: 512, notes: &quot;&quot; -->
<g id="node55" class="node">
<title>195</title>
<ellipse fill="none" stroke="black" cx="1221.36" cy="-75.32" rx="88.2" ry="18"/>
<text text-anchor="middle" x="1221.36" y="-70.27" font-family="Times,serif" font-size="14.00">NetworkPermissions</text>
</g>
<!-- 191&#45;&gt;195 -->
<g id="edge54" class="edge">
<title>191&#45;&gt;195</title>
<path fill="none" stroke="black" d="M1053.14,-77.95C1075.29,-77.6 1099.24,-77.22 1121.91,-76.86"/>
<polygon fill="black" stroke="black" points="1121.81,-80.37 1131.76,-76.71 1121.7,-73.37 1121.81,-80.37"/>
</g>
</g>
</svg>
