<svg width="1275px" height="1393px"
 viewBox="0.00 0.00 1274.57 1393.29" xmlns="http://www.w3.org/2000/svg" xmlns:xlink="http://www.w3.org/1999/xlink">
<g id="graph0" class="graph" transform="scale(1.0 1.0) rotate(0.0) translate(4.0 1389.29)">
<title>StartGamePacket</title>
<polygon fill="white" stroke="none" points="-4,4 -4,-1389.29 1270.57,-1389.29 1270.57,4 -4,4"/>
<!-- 0 -->
<!-- name: &quot;StartGamePacket&quot;, typeName: &quot;&quot;, id: 0, branchId: 11, recurseId: &#45;1, attributes: 0, notes: &quot;&quot; -->
<g id="node1" class="node">
<title>0</title>
<ellipse fill="none" stroke="black" cx="75.41" cy="-766.19" rx="75.41" ry="18"/>
<text text-anchor="middle" x="75.41" y="-761.14" font-family="Times,serif" font-size="14.00">StartGamePacket</text>
</g>
<!-- 1 -->
<!-- name: &quot;Entity ID&quot;, typeName: &quot;ActorUniqueID&quot;, id: 1, branchId: 0, recurseId: &#45;1, attributes: 256, notes: &quot;&quot; -->
<g id="node2" class="node">
<title>1</title>
<ellipse fill="none" stroke="black" cx="644.54" cy="-1352.19" rx="45.72" ry="18"/>
<text text-anchor="middle" x="644.54" y="-1347.14" font-family="Times,serif" font-size="14.00">Entity ID</text>
</g>
<!-- 0&#45;&gt;1 -->
<g id="edge1" class="edge">
<title>0&#45;&gt;1</title>
<path fill="none" stroke="black" d="M77.27,-784.5C81.77,-871.23 105.51,-1239.53 186.81,-1312.19 301.33,-1414.53 502.68,-1385.32 594.92,-1364.73"/>
<polygon fill="black" stroke="black" points="595.44,-1368.2 604.4,-1362.55 593.87,-1361.38 595.44,-1368.2"/>
</g>
<!-- 6 -->
<!-- name: &quot;Runtime ID&quot;, typeName: &quot;ActorRuntimeID&quot;, id: 6, branchId: 0, recurseId: &#45;1, attributes: 256, notes: &quot;&quot; -->
<g id="node4" class="node">
<title>6</title>
<ellipse fill="none" stroke="black" cx="877.93" cy="-1302.19" rx="55.45" ry="18"/>
<text text-anchor="middle" x="877.93" y="-1297.14" font-family="Times,serif" font-size="14.00">Runtime ID</text>
</g>
<!-- 0&#45;&gt;6 -->
<g id="edge3" class="edge">
<title>0&#45;&gt;6</title>
<path fill="none" stroke="black" d="M77.71,-784.46C83.89,-865.46 113.04,-1190.93 186.81,-1254.19 233.5,-1294.23 647.3,-1300.93 810.84,-1302"/>
<polygon fill="black" stroke="black" points="810.64,-1305.5 820.66,-1302.06 810.68,-1298.5 810.64,-1305.5"/>
</g>
<!-- 11 -->
<!-- name: &quot;Game Type&quot;, typeName: &quot;&quot;, id: 11, branchId: 0, recurseId: &#45;1, attributes: 0, notes: &quot;&quot; -->
<g id="node6" class="node">
<title>11</title>
<ellipse fill="none" stroke="black" cx="644.54" cy="-1244.19" rx="54.42" ry="18"/>
<text text-anchor="middle" x="644.54" y="-1239.14" font-family="Times,serif" font-size="14.00">Game Type</text>
</g>
<!-- 0&#45;&gt;11 -->
<g id="edge5" class="edge">
<title>0&#45;&gt;11</title>
<path fill="none" stroke="black" d="M78.25,-784.59C86.26,-860.46 120.63,-1147.81 186.81,-1204.19 301.25,-1301.68 495.44,-1277.09 589.41,-1257.49"/>
<polygon fill="black" stroke="black" points="590.11,-1260.92 599.15,-1255.39 588.64,-1254.08 590.11,-1260.92"/>
</g>
<!-- 13 -->
<!-- name: &quot;Position&quot;, typeName: &quot;Vec3&quot;, id: 13, branchId: 0, recurseId: &#45;1, attributes: 256, notes: &quot;&quot; -->
<g id="node8" class="node">
<title>13</title>
<ellipse fill="none" stroke="black" cx="877.93" cy="-1194.19" rx="41.12" ry="18"/>
<text text-anchor="middle" x="877.93" y="-1189.14" font-family="Times,serif" font-size="14.00">Position</text>
</g>
<!-- 0&#45;&gt;13 -->
<g id="edge7" class="edge">
<title>0&#45;&gt;13</title>
<path fill="none" stroke="black" d="M79.01,-784.65C89.18,-853.96 128.58,-1097.15 186.81,-1144.19 284.52,-1223.12 683.11,-1206.46 825.81,-1197.72"/>
<polygon fill="black" stroke="black" points="825.95,-1201.21 835.71,-1197.09 825.52,-1194.23 825.95,-1201.21"/>
</g>
<!-- 15 -->
<!-- name: &quot;Rotation&quot;, typeName: &quot;Vec2&quot;, id: 15, branchId: 0, recurseId: &#45;1, attributes: 256, notes: &quot;&quot; -->
<g id="node10" class="node">
<title>15</title>
<ellipse fill="none" stroke="black" cx="644.54" cy="-1136.19" rx="42.65" ry="18"/>
<text text-anchor="middle" x="644.54" y="-1131.14" font-family="Times,serif" font-size="14.00">Rotation</text>
</g>
<!-- 0&#45;&gt;15 -->
<g id="edge9" class="edge">
<title>0&#45;&gt;15</title>
<path fill="none" stroke="black" d="M76.15,-784.65C76.48,-841.8 86,-1016.71 186.81,-1096.19 307.32,-1191.21 505.37,-1165.79 595.81,-1147.45"/>
<polygon fill="black" stroke="black" points="596.52,-1150.88 605.59,-1145.4 595.08,-1144.03 596.52,-1150.88"/>
</g>
<!-- 22 -->
<!-- name: &quot;Settings&quot;, typeName: &quot;LevelSettings&quot;, id: 22, branchId: 0, recurseId: &#45;1, attributes: 256, notes: &quot;&quot; -->
<g id="node12" class="node">
<title>22</title>
<ellipse fill="none" stroke="black" cx="877.93" cy="-1086.19" rx="40.6" ry="18"/>
<text text-anchor="middle" x="877.93" y="-1081.14" font-family="Times,serif" font-size="14.00">Settings</text>
</g>
<!-- 0&#45;&gt;22 -->
<g id="edge11" class="edge">
<title>0&#45;&gt;22</title>
<path fill="none" stroke="black" d="M77.66,-784.44C82.16,-834.22 102.09,-972.73 186.81,-1034.19 288.5,-1107.96 684.57,-1095.91 826.21,-1089.02"/>
<polygon fill="black" stroke="black" points="826.22,-1092.52 836.03,-1088.53 825.87,-1085.53 826.22,-1092.52"/>
</g>
<!-- 146 -->
<!-- name: &quot;Level ID&quot;, typeName: &quot;&quot;, id: 146, branchId: 0, recurseId: &#45;1, attributes: 0, notes: &quot;&quot; -->
<g id="node14" class="node">
<title>146</title>
<ellipse fill="none" stroke="black" cx="644.54" cy="-1028.19" rx="44.19" ry="18"/>
<text text-anchor="middle" x="644.54" y="-1023.14" font-family="Times,serif" font-size="14.00">Level ID</text>
</g>
<!-- 0&#45;&gt;146 -->
<g id="edge13" class="edge">
<title>0&#45;&gt;146</title>
<path fill="none" stroke="black" d="M79.36,-784.47C87.49,-828.22 114.61,-938.97 186.81,-988.19 312.04,-1073.56 503.65,-1054.07 593.61,-1038.47"/>
<polygon fill="black" stroke="black" points="594.13,-1041.94 603.36,-1036.72 592.89,-1035.05 594.13,-1041.94"/>
</g>
<!-- 148 -->
<!-- name: &quot;Level Name&quot;, typeName: &quot;&quot;, id: 148, branchId: 0, recurseId: &#45;1, attributes: 0, notes: &quot;&quot; -->
<g id="node16" class="node">
<title>148</title>
<ellipse fill="none" stroke="black" cx="877.93" cy="-978.19" rx="56.98" ry="18"/>
<text text-anchor="middle" x="877.93" y="-973.14" font-family="Times,serif" font-size="14.00">Level Name</text>
</g>
<!-- 0&#45;&gt;148 -->
<g id="edge15" class="edge">
<title>0&#45;&gt;148</title>
<path fill="none" stroke="black" d="M83.17,-784.39C96.85,-818.3 131.32,-890.57 186.81,-922.19 291.72,-981.97 656.96,-982.41 809.34,-979.83"/>
<polygon fill="black" stroke="black" points="809.36,-983.33 819.3,-979.65 809.24,-976.34 809.36,-983.33"/>
</g>
<!-- 150 -->
<!-- name: &quot;Template Content Identity&quot;, typeName: &quot;&quot;, id: 150, branchId: 0, recurseId: &#45;1, attributes: 0, notes: &quot;&quot; -->
<g id="node18" class="node">
<title>150</title>
<ellipse fill="none" stroke="black" cx="644.54" cy="-921.19" rx="109.19" ry="18"/>
<text text-anchor="middle" x="644.54" y="-916.14" font-family="Times,serif" font-size="14.00">Template Content Identity</text>
</g>
<!-- 0&#45;&gt;150 -->
<g id="edge17" class="edge">
<title>0&#45;&gt;150</title>
<path fill="none" stroke="black" d="M87.31,-784.18C104.64,-810.9 141.2,-860.29 186.81,-882.19 299.7,-936.39 446.37,-938.7 542.64,-932.43"/>
<polygon fill="black" stroke="black" points="542.89,-935.92 552.62,-931.73 542.4,-928.93 542.89,-935.92"/>
</g>
<!-- 152 -->
<!-- name: &quot;Is Trial?&quot;, typeName: &quot;&quot;, id: 152, branchId: 0, recurseId: &#45;1, attributes: 0, notes: &quot;&quot; -->
<g id="node20" class="node">
<title>152</title>
<ellipse fill="none" stroke="black" cx="877.93" cy="-871.19" rx="41.63" ry="18"/>
<text text-anchor="middle" x="877.93" y="-866.14" font-family="Times,serif" font-size="14.00">Is Trial?</text>
</g>
<!-- 0&#45;&gt;152 -->
<g id="edge19" class="edge">
<title>0&#45;&gt;152</title>
<path fill="none" stroke="black" d="M112.49,-782.23C133.72,-790.99 161.33,-801.24 186.81,-807.19 420.18,-861.65 708.13,-870.11 824.49,-871.18"/>
<polygon fill="black" stroke="black" points="824.32,-874.68 834.35,-871.26 824.37,-867.68 824.32,-874.68"/>
</g>
<!-- 154 -->
<!-- name: &quot;Movement Settings&quot;, typeName: &quot;SyncedPlayerMovementSettings&quot;, id: 154, branchId: 0, recurseId: &#45;1, attributes: 256, notes: &quot;&quot; -->
<g id="node22" class="node">
<title>154</title>
<ellipse fill="none" stroke="black" cx="644.54" cy="-816.19" rx="84.11" ry="18"/>
<text text-anchor="middle" x="644.54" y="-811.14" font-family="Times,serif" font-size="14.00">Movement Settings</text>
</g>
<!-- 0&#45;&gt;154 -->
<g id="edge21" class="edge">
<title>0&#45;&gt;154</title>
<path fill="none" stroke="black" d="M142.03,-775.03C156.75,-776.87 172.3,-778.7 186.81,-780.19 313.28,-793.19 459.86,-803.99 552.15,-810.27"/>
<polygon fill="black" stroke="black" points="551.68,-813.75 561.9,-810.93 552.16,-806.76 551.68,-813.75"/>
</g>
<!-- 163 -->
<!-- name: &quot;Level Current Time&quot;, typeName: &quot;&quot;, id: 163, branchId: 0, recurseId: &#45;1, attributes: 0, notes: &quot;&quot; -->
<g id="node24" class="node">
<title>163</title>
<ellipse fill="none" stroke="black" cx="877.93" cy="-766.19" rx="84.62" ry="18"/>
<text text-anchor="middle" x="877.93" y="-761.14" font-family="Times,serif" font-size="14.00">Level Current Time</text>
</g>
<!-- 0&#45;&gt;163 -->
<g id="edge23" class="edge">
<title>0&#45;&gt;163</title>
<path fill="none" stroke="black" d="M151,-766.19C297.03,-766.19 620.41,-766.19 781.66,-766.19"/>
<polygon fill="black" stroke="black" points="781.47,-769.69 791.47,-766.19 781.47,-762.69 781.47,-769.69"/>
</g>
<!-- 165 -->
<!-- name: &quot;Enchantment Seed&quot;, typeName: &quot;&quot;, id: 165, branchId: 0, recurseId: &#45;1, attributes: 0, notes: &quot;&quot; -->
<g id="node26" class="node">
<title>165</title>
<ellipse fill="none" stroke="black" cx="644.54" cy="-716.19" rx="80.52" ry="18"/>
<text text-anchor="middle" x="644.54" y="-711.14" font-family="Times,serif" font-size="14.00">Enchantment Seed</text>
</g>
<!-- 0&#45;&gt;165 -->
<g id="edge25" class="edge">
<title>0&#45;&gt;165</title>
<path fill="none" stroke="black" d="M142.03,-757.35C156.75,-755.51 172.3,-753.68 186.81,-752.19 314.8,-739.04 463.39,-728.14 555.45,-721.89"/>
<polygon fill="black" stroke="black" points="555.42,-725.4 565.16,-721.23 554.95,-718.42 555.42,-725.4"/>
</g>
<!-- 167 -->
<!-- name: &quot;Block Properties&quot;, typeName: &quot;&quot;, id: 167, branchId: 0, recurseId: &#45;1, attributes: 8, notes: &quot;&quot; -->
<g id="node28" class="node">
<title>167</title>
<ellipse fill="none" stroke="black" cx="343.08" cy="-658.19" rx="72.85" ry="18"/>
<text text-anchor="middle" x="343.08" y="-653.14" font-family="Times,serif" font-size="14.00">Block Properties</text>
</g>
<!-- 0&#45;&gt;167 -->
<g id="edge27" class="edge">
<title>0&#45;&gt;167</title>
<path fill="none" stroke="black" d="M103.78,-749.33C125.68,-736.34 157.46,-718.56 186.81,-706.19 216.9,-693.51 251.51,-682.49 280.41,-674.21"/>
<polygon fill="black" stroke="black" points="281.05,-677.67 289.73,-671.59 279.16,-670.93 281.05,-677.67"/>
</g>
<!-- 188 -->
<!-- name: &quot;Multiplayer Correlation Id&quot;, typeName: &quot;&quot;, id: 188, branchId: 0, recurseId: &#45;1, attributes: 0, notes: &quot;A UUID to identify this multiplayer session.&quot; -->
<g id="node36" class="node">
<title>188</title>
<ellipse fill="none" stroke="black" cx="343.08" cy="-604.19" rx="109.7" ry="18"/>
<text text-anchor="middle" x="343.08" y="-599.14" font-family="Times,serif" font-size="14.00">Multiplayer Correlation Id</text>
</g>
<!-- 0&#45;&gt;188 -->
<g id="edge35" class="edge">
<title>0&#45;&gt;188</title>
<path fill="none" stroke="black" d="M85.49,-748.28C101.55,-718.62 137.93,-659.75 186.81,-631.19 200.03,-623.47 214.88,-617.84 230.02,-613.74"/>
<polygon fill="black" stroke="black" points="230.73,-617.17 239.6,-611.39 229.06,-610.38 230.73,-617.17"/>
</g>
<!-- 190 -->
<!-- name: &quot;Enable Item Stack Net Manager&quot;, typeName: &quot;&quot;, id: 190, branchId: 0, recurseId: &#45;1, attributes: 0, notes: &quot;Whether the new item stack net manager is enabled for server authoritative inventory. This will eventually be required.&quot; -->
<g id="node38" class="node">
<title>190</title>
<ellipse fill="none" stroke="black" cx="343.08" cy="-549.19" rx="131.19" ry="18"/>
<text text-anchor="middle" x="343.08" y="-544.14" font-family="Times,serif" font-size="14.00">Enable Item Stack Net Manager</text>
</g>
<!-- 0&#45;&gt;190 -->
<g id="edge37" class="edge">
<title>0&#45;&gt;190</title>
<path fill="none" stroke="black" d="M81.43,-747.83C92.99,-709.34 125.31,-620.2 186.81,-577.19 195.99,-570.77 206.19,-565.69 216.86,-561.68"/>
<polygon fill="black" stroke="black" points="217.89,-565.03 226.23,-558.51 215.64,-558.4 217.89,-565.03"/>
</g>
<!-- 192 -->
<!-- name: &quot;Server version&quot;, typeName: &quot;&quot;, id: 192, branchId: 0, recurseId: &#45;1, attributes: 0, notes: &quot;For telemetry purposes &#45; sending your own string with your own server name and version here would be useful for Mojang&#39;s telemetry.&quot; -->
<g id="node40" class="node">
<title>192</title>
<ellipse fill="none" stroke="black" cx="343.08" cy="-493.19" rx="64.66" ry="18"/>
<text text-anchor="middle" x="343.08" y="-488.14" font-family="Times,serif" font-size="14.00">Server version</text>
</g>
<!-- 0&#45;&gt;192 -->
<g id="edge39" class="edge">
<title>0&#45;&gt;192</title>
<path fill="none" stroke="black" d="M78.88,-748C86.14,-702.1 111.82,-581.03 186.81,-522.19 209.38,-504.49 239.42,-496.41 267.07,-493.05"/>
<polygon fill="black" stroke="black" points="267.23,-496.55 276.83,-492.06 266.53,-489.58 267.23,-496.55"/>
</g>
<!-- 194 -->
<!-- name: &quot;Player Property Data&quot;, typeName: &quot;CompoundTag&quot;, id: 194, branchId: 0, recurseId: &#45;1, attributes: 256, notes: &quot;like SyncActorPropertyPacket, specifically for minecraft:player properties&quot; -->
<g id="node42" class="node">
<title>194</title>
<ellipse fill="none" stroke="black" cx="343.08" cy="-436.19" rx="88.71" ry="18"/>
<text text-anchor="middle" x="343.08" y="-431.14" font-family="Times,serif" font-size="14.00">Player Property Data</text>
</g>
<!-- 0&#45;&gt;194 -->
<g id="edge41" class="edge">
<title>0&#45;&gt;194</title>
<path fill="none" stroke="black" d="M77.22,-747.92C80.61,-695.19 98.01,-541.67 186.81,-466.19 202.68,-452.7 222.78,-444.57 243.21,-439.81"/>
<polygon fill="black" stroke="black" points="243.66,-443.29 252.75,-437.86 242.26,-436.43 243.66,-443.29"/>
</g>
<!-- 196 -->
<!-- name: &quot;Server Block Type Registry Checksum&quot;, typeName: &quot;&quot;, id: 196, branchId: 0, recurseId: &#45;1, attributes: 0, notes: &quot;Checksum for detecting mismatches in block types between server and client.&quot; -->
<g id="node44" class="node">
<title>196</title>
<ellipse fill="none" stroke="black" cx="343.08" cy="-376.19" rx="156.27" ry="18"/>
<text text-anchor="middle" x="343.08" y="-371.14" font-family="Times,serif" font-size="14.00">Server Block Type Registry Checksum</text>
</g>
<!-- 0&#45;&gt;196 -->
<g id="edge43" class="edge">
<title>0&#45;&gt;196</title>
<path fill="none" stroke="black" d="M76.07,-748.08C76.03,-689.38 84.3,-502.82 186.81,-409.19 194.21,-402.44 202.63,-396.94 211.64,-392.47"/>
<polygon fill="black" stroke="black" points="212.93,-395.73 220.65,-388.47 210.09,-389.33 212.93,-395.73"/>
</g>
<!-- 198 -->
<!-- name: &quot;World Template ID&quot;, typeName: &quot;mce::UUID&quot;, id: 198, branchId: 0, recurseId: &#45;1, attributes: 256, notes: &quot;&quot; -->
<g id="node46" class="node">
<title>198</title>
<ellipse fill="none" stroke="black" cx="343.08" cy="-310.19" rx="84.11" ry="18"/>
<text text-anchor="middle" x="343.08" y="-305.14" font-family="Times,serif" font-size="14.00">World Template ID</text>
</g>
<!-- 0&#45;&gt;198 -->
<g id="edge45" class="edge">
<title>0&#45;&gt;198</title>
<path fill="none" stroke="black" d="M78.73,-748.2C88.43,-675.86 127.93,-407.33 186.81,-349.19 203.8,-332.42 226.87,-322.51 250.03,-316.75"/>
<polygon fill="black" stroke="black" points="250.53,-320.22 259.53,-314.64 249.01,-313.39 250.53,-320.22"/>
</g>
<!-- 200 -->
<!-- name: &quot;Server Enabled ClientSide Generation&quot;, typeName: &quot;&quot;, id: 200, branchId: 0, recurseId: &#45;1, attributes: 0, notes: &quot;BiomeComponentFactory needs to know about this toggle before we start parsing BiomeComponents&quot; -->
<g id="node48" class="node">
<title>200</title>
<ellipse fill="none" stroke="black" cx="343.08" cy="-231.19" rx="152.69" ry="18"/>
<text text-anchor="middle" x="343.08" y="-226.14" font-family="Times,serif" font-size="14.00">Server Enabled ClientSide Generation</text>
</g>
<!-- 0&#45;&gt;200 -->
<g id="edge47" class="edge">
<title>0&#45;&gt;200</title>
<path fill="none" stroke="black" d="M78.23,-747.73C86.43,-668.02 122.41,-354.26 186.81,-283.19 200.58,-267.99 218.92,-257.23 238.16,-249.61"/>
<polygon fill="black" stroke="black" points="239.3,-252.92 247.5,-246.21 236.91,-246.35 239.3,-252.92"/>
</g>
<!-- 202 -->
<!-- name: &quot;BlockNetworkIds Are Hashes&quot;, typeName: &quot;&quot;, id: 202, branchId: 0, recurseId: &#45;1, attributes: 0, notes: &quot;&quot; -->
<g id="node50" class="node">
<title>202</title>
<ellipse fill="none" stroke="black" cx="343.08" cy="-127.19" rx="121.47" ry="18"/>
<text text-anchor="middle" x="343.08" y="-122.14" font-family="Times,serif" font-size="14.00">BlockNetworkIds Are Hashes</text>
</g>
<!-- 0&#45;&gt;202 -->
<g id="edge49" class="edge">
<title>0&#45;&gt;202</title>
<path fill="none" stroke="black" d="M77.84,-747.95C84.93,-661.49 118.77,-293.29 186.81,-204.19 207.56,-177.02 240.47,-158.81 270.66,-146.94"/>
<polygon fill="black" stroke="black" points="271.64,-150.31 279.79,-143.54 269.2,-143.75 271.64,-150.31"/>
</g>
<!-- 204 -->
<!-- name: &quot;NetworkPermissions&quot;, typeName: &quot;NetworkPermissions&quot;, id: 204, branchId: 0, recurseId: &#45;1, attributes: 256, notes: &quot;&quot; -->
<g id="node52" class="node">
<title>204</title>
<ellipse fill="none" stroke="black" cx="877.93" cy="-68.19" rx="88.2" ry="18"/>
<text text-anchor="middle" x="877.93" y="-63.14" font-family="Times,serif" font-size="14.00">NetworkPermissions</text>
</g>
<!-- 0&#45;&gt;204 -->
<g id="edge51" class="edge">
<title>0&#45;&gt;204</title>
<path fill="none" stroke="black" d="M76.49,-747.87C77.35,-649.9 86.71,-189.13 186.81,-100.19 366.5,59.46 687.79,-11.24 818.86,-49.48"/>
<polygon fill="black" stroke="black" points="817.79,-52.81 828.37,-52.3 819.78,-46.1 817.79,-52.81"/>
</g>
<!-- 5 -->
<!-- name: &quot;ActorUniqueID&quot;, typeName: &quot;&quot;, id: 5, branchId: 0, recurseId: &#45;1, attributes: 512, notes: &quot;&quot; -->
<g id="node3" class="node">
<title>5</title>
<ellipse fill="none" stroke="black" cx="1134.35" cy="-1360.19" rx="68.75" ry="18"/>
<text text-anchor="middle" x="1134.35" y="-1355.14" font-family="Times,serif" font-size="14.00">ActorUniqueID</text>
</g>
<!-- 1&#45;&gt;5 -->
<g id="edge2" class="edge">
<title>1&#45;&gt;5</title>
<path fill="none" stroke="black" d="M690.56,-1352.93C773.31,-1354.29 950.57,-1357.19 1053.96,-1358.89"/>
<polygon fill="black" stroke="black" points="1053.7,-1362.39 1063.75,-1359.05 1053.81,-1355.39 1053.7,-1362.39"/>
</g>
<!-- 10 -->
<!-- name: &quot;ActorRuntimeID&quot;, typeName: &quot;&quot;, id: 10, branchId: 0, recurseId: &#45;1, attributes: 512, notes: &quot;&quot; -->
<g id="node5" class="node">
<title>10</title>
<ellipse fill="none" stroke="black" cx="1134.35" cy="-1306.19" rx="73.87" ry="18"/>
<text text-anchor="middle" x="1134.35" y="-1301.14" font-family="Times,serif" font-size="14.00">ActorRuntimeID</text>
</g>
<!-- 6&#45;&gt;10 -->
<g id="edge4" class="edge">
<title>6&#45;&gt;10</title>
<path fill="none" stroke="black" d="M933.51,-1303.05C967.26,-1303.58 1011.28,-1304.27 1049.41,-1304.87"/>
<polygon fill="black" stroke="black" points="1048.94,-1308.36 1059,-1305.02 1049.05,-1301.37 1048.94,-1308.36"/>
</g>
<!-- 12 -->
<!-- name: &quot;varint&quot;, typeName: &quot;&quot;, id: 12, branchId: 0, recurseId: &#45;1, attributes: 512, notes: &quot;&quot; -->
<g id="node7" class="node">
<title>12</title>
<ellipse fill="none" stroke="black" cx="1134.35" cy="-1252.19" rx="32.41" ry="18"/>
<text text-anchor="middle" x="1134.35" y="-1247.14" font-family="Times,serif" font-size="14.00">varint</text>
</g>
<!-- 11&#45;&gt;12 -->
<g id="edge6" class="edge">
<title>11&#45;&gt;12</title>
<path fill="none" stroke="black" d="M699.14,-1245.07C796.61,-1246.67 1001.03,-1250.02 1090.2,-1251.48"/>
<polygon fill="black" stroke="black" points="1089.93,-1254.98 1099.99,-1251.64 1090.04,-1247.98 1089.93,-1254.98"/>
</g>
<!-- 14 -->
<!-- name: &quot;Vec3&quot;, typeName: &quot;&quot;, id: 14, branchId: 0, recurseId: &#45;1, attributes: 512, notes: &quot;&quot; -->
<g id="node9" class="node">
<title>14</title>
<ellipse fill="none" stroke="black" cx="1134.35" cy="-1198.19" rx="29.34" ry="18"/>
<text text-anchor="middle" x="1134.35" y="-1193.14" font-family="Times,serif" font-size="14.00">Vec3</text>
</g>
<!-- 13&#45;&gt;14 -->
<g id="edge8" class="edge">
<title>13&#45;&gt;14</title>
<path fill="none" stroke="black" d="M919.24,-1194.83C966.91,-1195.57 1045.75,-1196.81 1093.3,-1197.56"/>
<polygon fill="black" stroke="black" points="1093.11,-1201.06 1103.16,-1197.72 1093.22,-1194.06 1093.11,-1201.06"/>
</g>
<!-- 21 -->
<!-- name: &quot;Vec2&quot;, typeName: &quot;&quot;, id: 21, branchId: 0, recurseId: &#45;1, attributes: 512, notes: &quot;&quot; -->
<g id="node11" class="node">
<title>21</title>
<ellipse fill="none" stroke="black" cx="1134.35" cy="-1144.19" rx="29.34" ry="18"/>
<text text-anchor="middle" x="1134.35" y="-1139.14" font-family="Times,serif" font-size="14.00">Vec2</text>
</g>
<!-- 15&#45;&gt;21 -->
<g id="edge10" class="edge">
<title>15&#45;&gt;21</title>
<path fill="none" stroke="black" d="M687.55,-1136.88C780.45,-1138.4 1002.24,-1142.04 1093.29,-1143.53"/>
<polygon fill="black" stroke="black" points="1093.17,-1147.03 1103.23,-1143.7 1093.29,-1140.03 1093.17,-1147.03"/>
</g>
<!-- 145 -->
<!-- name: &quot;LevelSettings&quot;, typeName: &quot;&quot;, id: 145, branchId: 0, recurseId: &#45;1, attributes: 512, notes: &quot;&quot; -->
<g id="node13" class="node">
<title>145</title>
<ellipse fill="none" stroke="black" cx="1134.35" cy="-1090.19" rx="61.59" ry="18"/>
<text text-anchor="middle" x="1134.35" y="-1085.14" font-family="Times,serif" font-size="14.00">LevelSettings</text>
</g>
<!-- 22&#45;&gt;145 -->
<g id="edge12" class="edge">
<title>22&#45;&gt;145</title>
<path fill="none" stroke="black" d="M918.96,-1086.82C957.02,-1087.42 1015.13,-1088.33 1061.26,-1089.06"/>
<polygon fill="black" stroke="black" points="1061.14,-1092.56 1071.19,-1089.21 1061.25,-1085.56 1061.14,-1092.56"/>
</g>
<!-- 147 -->
<!-- name: &quot;string&quot;, typeName: &quot;&quot;, id: 147, branchId: 0, recurseId: &#45;1, attributes: 512, notes: &quot;&quot; -->
<g id="node15" class="node">
<title>147</title>
<ellipse fill="none" stroke="black" cx="1134.35" cy="-1036.19" rx="31.9" ry="18"/>
<text text-anchor="middle" x="1134.35" y="-1031.14" font-family="Times,serif" font-size="14.00">string</text>
</g>
<!-- 146&#45;&gt;147 -->
<g id="edge14" class="edge">
<title>146&#45;&gt;147</title>
<path fill="none" stroke="black" d="M688.83,-1028.9C781.65,-1030.42 998.82,-1033.98 1090.89,-1035.49"/>
<polygon fill="black" stroke="black" points="1090.68,-1038.99 1100.74,-1035.66 1090.8,-1031.99 1090.68,-1038.99"/>
</g>
<!-- 149 -->
<!-- name: &quot;string&quot;, typeName: &quot;&quot;, id: 149, branchId: 0, recurseId: &#45;1, attributes: 512, notes: &quot;&quot; -->
<g id="node17" class="node">
<title>149</title>
<ellipse fill="none" stroke="black" cx="1134.35" cy="-982.19" rx="31.9" ry="18"/>
<text text-anchor="middle" x="1134.35" y="-977.14" font-family="Times,serif" font-size="14.00">string</text>
</g>
<!-- 148&#45;&gt;149 -->
<g id="edge16" class="edge">
<title>148&#45;&gt;149</title>
<path fill="none" stroke="black" d="M935.08,-979.07C982.03,-979.81 1047.99,-980.85 1090.7,-981.52"/>
<polygon fill="black" stroke="black" points="1090.53,-985.02 1100.59,-981.68 1090.64,-978.02 1090.53,-985.02"/>
</g>
<!-- 151 -->
<!-- name: &quot;string&quot;, typeName: &quot;&quot;, id: 151, branchId: 0, recurseId: &#45;1, attributes: 512, notes: &quot;&quot; -->
<g id="node19" class="node">
<title>151</title>
<ellipse fill="none" stroke="black" cx="1134.35" cy="-928.19" rx="31.9" ry="18"/>
<text text-anchor="middle" x="1134.35" y="-923.14" font-family="Times,serif" font-size="14.00">string</text>
</g>
<!-- 150&#45;&gt;151 -->
<g id="edge18" class="edge">
<title>150&#45;&gt;151</title>
<path fill="none" stroke="black" d="M753.8,-922.74C859.98,-924.27 1016.43,-926.51 1090.92,-927.58"/>
<polygon fill="black" stroke="black" points="1090.59,-931.08 1100.64,-927.72 1090.69,-924.08 1090.59,-931.08"/>
</g>
<!-- 153 -->
<!-- name: &quot;bool&quot;, typeName: &quot;&quot;, id: 153, branchId: 0, recurseId: &#45;1, attributes: 512, notes: &quot;&quot; -->
<g id="node21" class="node">
<title>153</title>
<ellipse fill="none" stroke="black" cx="1134.35" cy="-874.19" rx="27.3" ry="18"/>
<text text-anchor="middle" x="1134.35" y="-869.14" font-family="Times,serif" font-size="14.00">bool</text>
</g>
<!-- 152&#45;&gt;153 -->
<g id="edge20" class="edge">
<title>152&#45;&gt;153</title>
<path fill="none" stroke="black" d="M919.81,-871.67C968.24,-872.24 1048.28,-873.19 1095.39,-873.74"/>
<polygon fill="black" stroke="black" points="1095.07,-877.24 1105.11,-873.86 1095.15,-870.24 1095.07,-877.24"/>
</g>
<!-- 162 -->
<!-- name: &quot;SyncedPlayerMovementSettings&quot;, typeName: &quot;&quot;, id: 162, branchId: 0, recurseId: &#45;1, attributes: 512, notes: &quot;&quot; -->
<g id="node23" class="node">
<title>162</title>
<ellipse fill="none" stroke="black" cx="1134.35" cy="-820.19" rx="132.22" ry="18"/>
<text text-anchor="middle" x="1134.35" y="-815.14" font-family="Times,serif" font-size="14.00">SyncedPlayerMovementSettings</text>
</g>
<!-- 154&#45;&gt;162 -->
<g id="edge22" class="edge">
<title>154&#45;&gt;162</title>
<path fill="none" stroke="black" d="M728.85,-816.87C800.59,-817.46 905.71,-818.32 990.81,-819.02"/>
<polygon fill="black" stroke="black" points="990.61,-822.52 1000.63,-819.1 990.66,-815.52 990.61,-822.52"/>
</g>
<!-- 164 -->
<!-- name: &quot;unsigned int64&quot;, typeName: &quot;&quot;, id: 164, branchId: 0, recurseId: &#45;1, attributes: 512, notes: &quot;&quot; -->
<g id="node25" class="node">
<title>164</title>
<ellipse fill="none" stroke="black" cx="1134.35" cy="-766.19" rx="65.68" ry="18"/>
<text text-anchor="middle" x="1134.35" y="-761.14" font-family="Times,serif" font-size="14.00">unsigned int64</text>
</g>
<!-- 163&#45;&gt;164 -->
<g id="edge24" class="edge">
<title>163&#45;&gt;164</title>
<path fill="none" stroke="black" d="M962.94,-766.19C993.36,-766.19 1027.52,-766.19 1057.22,-766.19"/>
<polygon fill="black" stroke="black" points="1056.85,-769.69 1066.85,-766.19 1056.85,-762.69 1056.85,-769.69"/>
</g>
<!-- 166 -->
<!-- name: &quot;varint&quot;, typeName: &quot;&quot;, id: 166, branchId: 0, recurseId: &#45;1, attributes: 512, notes: &quot;&quot; -->
<g id="node27" class="node">
<title>166</title>
<ellipse fill="none" stroke="black" cx="1134.35" cy="-712.19" rx="32.41" ry="18"/>
<text text-anchor="middle" x="1134.35" y="-707.14" font-family="Times,serif" font-size="14.00">varint</text>
</g>
<!-- 165&#45;&gt;166 -->
<g id="edge26" class="edge">
<title>165&#45;&gt;166</title>
<path fill="none" stroke="black" d="M725.28,-715.54C829.55,-714.68 1008.55,-713.21 1090.33,-712.54"/>
<polygon fill="black" stroke="black" points="1090.18,-716.05 1100.15,-712.46 1090.12,-709.05 1090.18,-716.05"/>
</g>
<!-- 168 -->
<!-- name: &quot;List Size&quot;, typeName: &quot;&quot;, id: 168, branchId: 0, recurseId: &#45;1, attributes: 0, notes: &quot;&quot; -->
<g id="node29" class="node">
<title>168</title>
<ellipse fill="none" stroke="black" cx="644.54" cy="-658.19" rx="43.67" ry="18"/>
<text text-anchor="middle" x="644.54" y="-653.14" font-family="Times,serif" font-size="14.00">List Size</text>
</g>
<!-- 167&#45;&gt;168 -->
<g id="edge28" class="edge">
<title>167&#45;&gt;168</title>
<path fill="none" stroke="black" d="M416.19,-658.19C469.43,-658.19 540.77,-658.19 589.24,-658.19"/>
<polygon fill="black" stroke="black" points="589.23,-661.69 599.23,-658.19 589.23,-654.69 589.23,-661.69"/>
</g>
<!-- 170 -->
<!-- name: &quot;example element&quot;, typeName: &quot;&quot;, id: 170, branchId: 0, recurseId: &#45;1, attributes: 16, notes: &quot;&quot; -->
<g id="node31" class="node">
<title>170</title>
<ellipse fill="none" stroke="black" stroke-dasharray="1,5" cx="644.54" cy="-604.19" rx="74.89" ry="18"/>
<text text-anchor="middle" x="644.54" y="-599.14" font-family="Times,serif" font-size="14.00">example element</text>
</g>
<!-- 167&#45;&gt;170 -->
<g id="edge30" class="edge">
<title>167&#45;&gt;170</title>
<path fill="none" stroke="black" d="M403.84,-647.99C432.71,-643.01 467.85,-636.88 499.36,-631.19 523.48,-626.84 549.84,-621.94 573.36,-617.52"/>
<polygon fill="black" stroke="black" points="573.98,-620.97 583.16,-615.68 572.68,-614.09 573.98,-620.97"/>
</g>
<!-- 169 -->
<!-- name: &quot;unsigned varint&quot;, typeName: &quot;&quot;, id: 169, branchId: 0, recurseId: &#45;1, attributes: 512, notes: &quot;&quot; -->
<g id="node30" class="node">
<title>169</title>
<ellipse fill="none" stroke="black" cx="1134.35" cy="-658.19" rx="68.24" ry="18"/>
<text text-anchor="middle" x="1134.35" y="-653.14" font-family="Times,serif" font-size="14.00">unsigned varint</text>
</g>
<!-- 168&#45;&gt;169 -->
<g id="edge29" class="edge">
<title>168&#45;&gt;169</title>
<path fill="none" stroke="black" d="M688.4,-658.19C770.31,-658.19 950.16,-658.19 1054.39,-658.19"/>
<polygon fill="black" stroke="black" points="1054.27,-661.69 1064.27,-658.19 1054.27,-654.69 1054.27,-661.69"/>
</g>
<!-- 171 -->
<!-- name: &quot;Block Name&quot;, typeName: &quot;&quot;, id: 171, branchId: 0, recurseId: &#45;1, attributes: 0, notes: &quot;&quot; -->
<g id="node32" class="node">
<title>171</title>
<ellipse fill="none" stroke="black" cx="877.93" cy="-604.19" rx="58" ry="18"/>
<text text-anchor="middle" x="877.93" y="-599.14" font-family="Times,serif" font-size="14.00">Block Name</text>
</g>
<!-- 170&#45;&gt;171 -->
<g id="edge31" class="edge">
<title>170&#45;&gt;171</title>
<path fill="none" stroke="black" d="M719.71,-604.19C748.17,-604.19 780.5,-604.19 808.42,-604.19"/>
<polygon fill="black" stroke="black" points="808.16,-607.69 818.16,-604.19 808.16,-600.69 808.16,-607.69"/>
</g>
<!-- 173 -->
<!-- name: &quot;Block Definition&quot;, typeName: &quot;CompoundTag&quot;, id: 173, branchId: 0, recurseId: &#45;1, attributes: 256, notes: &quot;Map of block states. { key (component name):[label,value] } (Can be left empty.)&quot; -->
<g id="node34" class="node">
<title>173</title>
<ellipse fill="none" stroke="black" cx="877.93" cy="-550.19" rx="73.36" ry="18"/>
<text text-anchor="middle" x="877.93" y="-545.14" font-family="Times,serif" font-size="14.00">Block Definition</text>
</g>
<!-- 170&#45;&gt;173 -->
<g id="edge33" class="edge">
<title>170&#45;&gt;173</title>
<path fill="none" stroke="black" d="M699.5,-591.6C733.39,-583.69 777.27,-573.45 812.91,-565.13"/>
<polygon fill="black" stroke="black" points="813.27,-568.64 822.21,-562.96 811.68,-561.83 813.27,-568.64"/>
</g>
<!-- 172 -->
<!-- name: &quot;string&quot;, typeName: &quot;&quot;, id: 172, branchId: 0, recurseId: &#45;1, attributes: 512, notes: &quot;&quot; -->
<g id="node33" class="node">
<title>172</title>
<ellipse fill="none" stroke="black" cx="1134.35" cy="-604.19" rx="31.9" ry="18"/>
<text text-anchor="middle" x="1134.35" y="-599.14" font-family="Times,serif" font-size="14.00">string</text>
</g>
<!-- 171&#45;&gt;172 -->
<g id="edge32" class="edge">
<title>171&#45;&gt;172</title>
<path fill="none" stroke="black" d="M936.34,-604.19C983.23,-604.19 1048.44,-604.19 1090.77,-604.19"/>
<polygon fill="black" stroke="black" points="1090.55,-607.69 1100.55,-604.19 1090.55,-600.69 1090.55,-607.69"/>
</g>
<!-- 174 -->
<!-- name: &quot;CompoundTag&quot;, typeName: &quot;&quot;, id: 174, branchId: 0, recurseId: &#45;1, attributes: 512, notes: &quot;&quot; -->
<g id="node35" class="node">
<title>174</title>
<ellipse fill="none" stroke="black" cx="1134.35" cy="-550.19" rx="66.71" ry="18"/>
<text text-anchor="middle" x="1134.35" y="-545.14" font-family="Times,serif" font-size="14.00">CompoundTag</text>
</g>
<!-- 173&#45;&gt;174 -->
<g id="edge34" class="edge">
<title>173&#45;&gt;174</title>
<path fill="none" stroke="black" d="M951.5,-550.19C984.08,-550.19 1022.57,-550.19 1055.73,-550.19"/>
<polygon fill="black" stroke="black" points="1055.7,-553.69 1065.7,-550.19 1055.7,-546.69 1055.7,-553.69"/>
</g>
<!-- 189 -->
<!-- name: &quot;string&quot;, typeName: &quot;&quot;, id: 189, branchId: 0, recurseId: &#45;1, attributes: 512, notes: &quot;&quot; -->
<g id="node37" class="node">
<title>189</title>
<ellipse fill="none" stroke="black" cx="1134.35" cy="-496.19" rx="31.9" ry="18"/>
<text text-anchor="middle" x="1134.35" y="-491.14" font-family="Times,serif" font-size="14.00">string</text>
</g>
<!-- 188&#45;&gt;189 -->
<g id="edge36" class="edge">
<title>188&#45;&gt;189</title>
<path fill="none" stroke="black" d="M418.72,-590.76C444.29,-586.16 473.08,-580.96 499.36,-576.19 628.44,-552.77 659.64,-540.13 789.73,-523.19 897.82,-509.12 1026.07,-501.4 1091.06,-498.12"/>
<polygon fill="black" stroke="black" points="1091.11,-501.62 1100.93,-497.63 1090.76,-494.63 1091.11,-501.62"/>
</g>
<!-- 191 -->
<!-- name: &quot;bool&quot;, typeName: &quot;&quot;, id: 191, branchId: 0, recurseId: &#45;1, attributes: 512, notes: &quot;&quot; -->
<g id="node39" class="node">
<title>191</title>
<ellipse fill="none" stroke="black" cx="1134.35" cy="-442.19" rx="27.3" ry="18"/>
<text text-anchor="middle" x="1134.35" y="-437.14" font-family="Times,serif" font-size="14.00">bool</text>
</g>
<!-- 190&#45;&gt;191 -->
<g id="edge38" class="edge">
<title>190&#45;&gt;191</title>
<path fill="none" stroke="black" d="M450.31,-538.58C467.35,-534.31 484.3,-528.39 499.36,-520.19 519.79,-509.07 514.3,-492.09 535.36,-482.19 729.46,-390.9 998.73,-420.7 1096.24,-435.77"/>
<polygon fill="black" stroke="black" points="1095.6,-439.21 1106.03,-437.33 1096.7,-432.3 1095.6,-439.21"/>
</g>
<!-- 193 -->
<!-- name: &quot;string&quot;, typeName: &quot;&quot;, id: 193, branchId: 0, recurseId: &#45;1, attributes: 512, notes: &quot;&quot; -->
<g id="node41" class="node">
<title>193</title>
<ellipse fill="none" stroke="black" cx="1134.35" cy="-388.19" rx="31.9" ry="18"/>
<text text-anchor="middle" x="1134.35" y="-383.14" font-family="Times,serif" font-size="14.00">string</text>
</g>
<!-- 192&#45;&gt;193 -->
<g id="edge40" class="edge">
<title>192&#45;&gt;193</title>
<path fill="none" stroke="black" d="M406.52,-489.41C436,-485.6 470.88,-478.06 499.36,-463.19 519.14,-452.86 514.97,-437.27 535.36,-428.19 728.5,-342.16 991.79,-367.5 1092.18,-381.62"/>
<polygon fill="black" stroke="black" points="1091.43,-385.04 1101.83,-383.01 1092.43,-378.12 1091.43,-385.04"/>
</g>
<!-- 195 -->
<!-- name: &quot;CompoundTag&quot;, typeName: &quot;&quot;, id: 195, branchId: 0, recurseId: &#45;1, attributes: 512, notes: &quot;&quot; -->
<g id="node43" class="node">
<title>195</title>
<ellipse fill="none" stroke="black" cx="1134.35" cy="-334.19" rx="66.71" ry="18"/>
<text text-anchor="middle" x="1134.35" y="-329.14" font-family="Times,serif" font-size="14.00">CompoundTag</text>
</g>
<!-- 194&#45;&gt;195 -->
<g id="edge42" class="edge">
<title>194&#45;&gt;195</title>
<path fill="none" stroke="black" d="M420.64,-427.25C446.49,-422.34 474.97,-414.79 499.36,-403.19 517.91,-394.37 516.22,-381.67 535.36,-374.19 714.5,-304.2 946.71,-314.43 1061.95,-325.52"/>
<polygon fill="black" stroke="black" points="1061.27,-328.97 1071.57,-326.48 1061.96,-322.01 1061.27,-328.97"/>
</g>
<!-- 197 -->
<!-- name: &quot;unsigned int64&quot;, typeName: &quot;&quot;, id: 197, branchId: 0, recurseId: &#45;1, attributes: 512, notes: &quot;&quot; -->
<g id="node45" class="node">
<title>197</title>
<ellipse fill="none" stroke="black" cx="1134.35" cy="-280.19" rx="65.68" ry="18"/>
<text text-anchor="middle" x="1134.35" y="-275.14" font-family="Times,serif" font-size="14.00">unsigned int64</text>
</g>
<!-- 196&#45;&gt;197 -->
<g id="edge44" class="edge">
<title>196&#45;&gt;197</title>
<path fill="none" stroke="black" d="M420.39,-360.16C445.83,-353.99 474.1,-346.23 499.36,-337.19 516.02,-331.23 518.23,-324.64 535.36,-320.19 718.65,-272.61 943.57,-272.47 1058.28,-276.36"/>
<polygon fill="black" stroke="black" points="1058.07,-279.85 1068.19,-276.72 1058.33,-272.86 1058.07,-279.85"/>
</g>
<!-- 199 -->
<!-- name: &quot;mce::UUID&quot;, typeName: &quot;&quot;, id: 199, branchId: 0, recurseId: &#45;1, attributes: 512, notes: &quot;&quot; -->
<g id="node47" class="node">
<title>199</title>
<ellipse fill="none" stroke="black" cx="1134.35" cy="-226.19" rx="54.93" ry="18"/>
<text text-anchor="middle" x="1134.35" y="-221.14" font-family="Times,serif" font-size="14.00">mce::UUID</text>
</g>
<!-- 198&#45;&gt;199 -->
<g id="edge46" class="edge">
<title>198&#45;&gt;199</title>
<path fill="none" stroke="black" d="M396.02,-295.88C434.25,-285.93 487.66,-273.23 535.36,-266.19 727.48,-237.85 957.33,-229.57 1067.76,-227.17"/>
<polygon fill="black" stroke="black" points="1067.59,-230.67 1077.52,-226.97 1067.45,-223.67 1067.59,-230.67"/>
</g>
<!-- 201 -->
<!-- name: &quot;bool&quot;, typeName: &quot;&quot;, id: 201, branchId: 0, recurseId: &#45;1, attributes: 512, notes: &quot;&quot; -->
<g id="node49" class="node">
<title>201</title>
<ellipse fill="none" stroke="black" cx="1134.35" cy="-172.19" rx="27.3" ry="18"/>
<text text-anchor="middle" x="1134.35" y="-167.14" font-family="Times,serif" font-size="14.00">bool</text>
</g>
<!-- 200&#45;&gt;201 -->
<g id="edge48" class="edge">
<title>200&#45;&gt;201</title>
<path fill="none" stroke="black" d="M459.08,-219.16C484.21,-216.7 510.66,-214.24 535.36,-212.19 746.91,-194.61 1001.08,-179.65 1095.57,-174.29"/>
<polygon fill="black" stroke="black" points="1095.5,-177.8 1105.29,-173.75 1095.11,-170.81 1095.5,-177.8"/>
</g>
<!-- 203 -->
<!-- name: &quot;bool&quot;, typeName: &quot;&quot;, id: 203, branchId: 0, recurseId: &#45;1, attributes: 512, notes: &quot;&quot; -->
<g id="node51" class="node">
<title>203</title>
<ellipse fill="none" stroke="black" cx="1134.35" cy="-118.19" rx="27.3" ry="18"/>
<text text-anchor="middle" x="1134.35" y="-113.14" font-family="Times,serif" font-size="14.00">bool</text>
</g>
<!-- 202&#45;&gt;203 -->
<g id="edge50" class="edge">
<title>202&#45;&gt;203</title>
<path fill="none" stroke="black" d="M464.39,-125.82C646.34,-123.74 982.28,-119.91 1095.19,-118.63"/>
<polygon fill="black" stroke="black" points="1095.16,-122.13 1105.12,-118.51 1095.08,-115.13 1095.16,-122.13"/>
</g>
<!-- 208 -->
<!-- name: &quot;NetworkPermissions&quot;, typeName: &quot;&quot;, id: 208, branchId: 0, recurseId: &#45;1, attributes: 512, notes: &quot;&quot; -->
<g id="node53" class="node">
<title>208</title>
<ellipse fill="none" stroke="black" cx="1134.35" cy="-64.19" rx="88.2" ry="18"/>
<text text-anchor="middle" x="1134.35" y="-59.14" font-family="Times,serif" font-size="14.00">NetworkPermissions</text>
</g>
<!-- 204&#45;&gt;208 -->
<g id="edge52" class="edge">
<title>204&#45;&gt;208</title>
<path fill="none" stroke="black" d="M966.13,-66.82C988.28,-66.47 1012.23,-66.1 1034.9,-65.74"/>
<polygon fill="black" stroke="black" points="1034.81,-69.24 1044.75,-65.58 1034.69,-62.24 1034.81,-69.24"/>
</g>
</g>
</svg>
