<svg width="1042px" height="152px"
 viewBox="0.00 0.00 1041.72 152.00" xmlns="http://www.w3.org/2000/svg" xmlns:xlink="http://www.w3.org/1999/xlink">
<g id="graph0" class="graph" transform="scale(1.0 1.0) rotate(0.0) translate(4.0 148.0)">
<title>UpdateClientOptionsPacket</title>
<polygon fill="white" stroke="none" points="-4,4 -4,-148 1037.72,-148 1037.72,4 -4,4"/>
<!-- 0 -->
<!-- name: &quot;UpdateClientOptionsPacket&quot;, typeName: &quot;&quot;, id: 0, branchId: 323, recurseId: &#45;1, attributes: 0, notes: &quot;&quot; -->
<g id="node1" class="node">
<title>0</title>
<ellipse fill="none" stroke="black" cx="113.79" cy="-95" rx="113.79" ry="18"/>
<text text-anchor="middle" x="113.79" y="-89.95" font-family="Times,serif" font-size="14.00">UpdateClientOptionsPacket</text>
</g>
<!-- 1 -->
<!-- name: &quot;Graphics Mode Change&quot;, typeName: &quot;&quot;, id: 1, branchId: 0, recurseId: &#45;1, attributes: 0, notes: &quot;Whether or not packet has graphics mode change&quot; -->
<g id="node2" class="node">
<title>1</title>
<ellipse fill="none" stroke="black" cx="793" cy="-124" rx="99.46" ry="18"/>
<text text-anchor="middle" x="793" y="-118.95" font-family="Times,serif" font-size="14.00">Graphics Mode Change</text>
</g>
<!-- 0&#45;&gt;1 -->
<g id="edge1" class="edge">
<title>0&#45;&gt;1</title>
<path fill="none" stroke="black" d="M223.97,-99.68C350.71,-105.1 558.42,-114 684.46,-119.39"/>
<polygon fill="black" stroke="black" points="683.99,-122.88 694.13,-119.81 684.29,-115.88 683.99,-122.88"/>
</g>
<!-- 3 -->
<!-- name: &quot;Dependency on &#39;Graphics Mode Change&#39;&quot;, typeName: &quot;&quot;, id: 3, branchId: 0, recurseId: &#45;1, attributes: 2, notes: &quot;&quot; -->
<g id="node4" class="node">
<title>3</title>
<polygon fill="none" stroke="black" points="496.33,-90 263.58,-90 263.58,-54 502.33,-54 502.33,-84 496.33,-90"/>
<polyline fill="none" stroke="black" points="496.33,-90 496.33,-84"/>
<polyline fill="none" stroke="black" points="502.33,-84 496.33,-84"/>
<text text-anchor="middle" x="382.96" y="-66.95" font-family="Times,serif" font-size="14.00">Dependency on &#39;Graphics Mode Change&#39;</text>
</g>
<!-- 0&#45;&gt;3 -->
<g id="edge3" class="edge">
<title>0&#45;&gt;3</title>
<path fill="none" stroke="black" d="M214.66,-86.4C226.8,-85.36 239.34,-84.28 251.84,-83.2"/>
<polygon fill="black" stroke="black" points="252.12,-86.69 261.78,-82.35 251.52,-79.72 252.12,-86.69"/>
</g>
<!-- 2 -->
<!-- name: &quot;bool&quot;, typeName: &quot;&quot;, id: 2, branchId: 0, recurseId: &#45;1, attributes: 512, notes: &quot;&quot; -->
<g id="node3" class="node">
<title>2</title>
<ellipse fill="none" stroke="black" cx="985.44" cy="-126" rx="27.3" ry="18"/>
<text text-anchor="middle" x="985.44" y="-120.95" font-family="Times,serif" font-size="14.00">bool</text>
</g>
<!-- 1&#45;&gt;2 -->
<g id="edge2" class="edge">
<title>1&#45;&gt;2</title>
<path fill="none" stroke="black" d="M892.57,-125.04C911.8,-125.24 930.86,-125.44 946.59,-125.6"/>
<polygon fill="black" stroke="black" points="946.36,-129.1 956.4,-125.71 946.44,-122.1 946.36,-129.1"/>
</g>
<!-- 4 -->
<!-- name: &quot;If False&quot;, typeName: &quot;&quot;, id: 4, branchId: 0, recurseId: &#45;1, attributes: 4, notes: &quot;&quot; -->
<g id="node5" class="node">
<title>4</title>
<polygon fill="none" stroke="black" points="593.58,-90 538.33,-72 593.58,-54 648.84,-72 593.58,-90"/>
<text text-anchor="middle" x="593.58" y="-66.95" font-family="Times,serif" font-size="14.00">If False</text>
</g>
<!-- 3&#45;&gt;4 -->
<g id="edge4" class="edge">
<title>3&#45;&gt;4</title>
<path fill="none" stroke="black" d="M502.59,-72C510.42,-72 518.14,-72 525.56,-72"/>
<polygon fill="black" stroke="black" points="525.46,-75.5 535.46,-72 525.46,-68.5 525.46,-75.5"/>
</g>
<!-- 6 -->
<!-- name: &quot;If True&quot;, typeName: &quot;&quot;, id: 6, branchId: 1, recurseId: &#45;1, attributes: 4, notes: &quot;&quot; -->
<g id="node7" class="node">
<title>6</title>
<polygon fill="none" stroke="black" points="593.58,-36 541.95,-18 593.58,0 645.22,-18 593.58,-36"/>
<text text-anchor="middle" x="593.58" y="-12.95" font-family="Times,serif" font-size="14.00">If True</text>
</g>
<!-- 3&#45;&gt;6 -->
<g id="edge6" class="edge">
<title>3&#45;&gt;6</title>
<path fill="none" stroke="black" d="M455.17,-53.57C487.4,-45.23 524.32,-35.67 551.78,-28.56"/>
<polygon fill="black" stroke="black" points="552.65,-31.95 561.46,-26.06 550.9,-25.17 552.65,-31.95"/>
</g>
<!-- 5 -->
<!-- name: &quot;[No Data]&quot;, typeName: &quot;&quot;, id: 5, branchId: 0, recurseId: &#45;1, attributes: 512, notes: &quot;&quot; -->
<g id="node6" class="node">
<title>5</title>
<ellipse fill="none" stroke="black" cx="985.44" cy="-72" rx="48.28" ry="18"/>
<text text-anchor="middle" x="985.44" y="-66.95" font-family="Times,serif" font-size="14.00">[No Data]</text>
</g>
<!-- 4&#45;&gt;5 -->
<g id="edge5" class="edge">
<title>4&#45;&gt;5</title>
<path fill="none" stroke="black" d="M650.44,-72C723.49,-72 850.9,-72 925.46,-72"/>
<polygon fill="black" stroke="black" points="925.44,-75.5 935.44,-72 925.44,-68.5 925.44,-75.5"/>
</g>
<!-- 7 -->
<!-- name: &quot;New graphics mode value&quot;, typeName: &quot;&quot;, id: 7, branchId: 0, recurseId: &#45;1, attributes: 0, notes: &quot;&quot; -->
<g id="node8" class="node">
<title>7</title>
<ellipse fill="none" stroke="black" cx="793" cy="-18" rx="108.16" ry="18"/>
<text text-anchor="middle" x="793" y="-12.95" font-family="Times,serif" font-size="14.00">New graphics mode value</text>
</g>
<!-- 6&#45;&gt;7 -->
<g id="edge7" class="edge">
<title>6&#45;&gt;7</title>
<path fill="none" stroke="black" d="M646.71,-18C655.08,-18 664.02,-18 673.21,-18"/>
<polygon fill="black" stroke="black" points="673,-21.5 683,-18 673,-14.5 673,-21.5"/>
</g>
<!-- 8 -->
<!-- name: &quot;byte&quot;, typeName: &quot;&quot;, id: 8, branchId: 0, recurseId: &#45;1, attributes: 512, notes: &quot;&quot; -->
<g id="node9" class="node">
<title>8</title>
<ellipse fill="none" stroke="black" cx="985.44" cy="-18" rx="27" ry="18"/>
<text text-anchor="middle" x="985.44" y="-12.95" font-family="Times,serif" font-size="14.00">byte</text>
</g>
<!-- 7&#45;&gt;8 -->
<g id="edge8" class="edge">
<title>7&#45;&gt;8</title>
<path fill="none" stroke="black" d="M901.46,-18C917.61,-18 933.28,-18 946.58,-18"/>
<polygon fill="black" stroke="black" points="946.55,-21.5 956.55,-18 946.55,-14.5 946.55,-21.5"/>
</g>
</g>
</svg>
